%TF.GenerationSoftware,KiCad,Pcbnew,7.0.11-7.0.11~ubuntu22.04.1*%
%TF.CreationDate,2024-09-03T10:01:49-07:00*%
%TF.ProjectId,audio_pwr_amp_r3,61756469-6f5f-4707-9772-5f616d705f72,rev?*%
%TF.SameCoordinates,Original*%
%TF.FileFunction,Paste,Top*%
%TF.FilePolarity,Positive*%
%FSLAX46Y46*%
G04 Gerber Fmt 4.6, Leading zero omitted, Abs format (unit mm)*
G04 Created by KiCad (PCBNEW 7.0.11-7.0.11~ubuntu22.04.1) date 2024-09-03 10:01:49*
%MOMM*%
%LPD*%
G01*
G04 APERTURE LIST*
G04 Aperture macros list*
%AMRoundRect*
0 Rectangle with rounded corners*
0 $1 Rounding radius*
0 $2 $3 $4 $5 $6 $7 $8 $9 X,Y pos of 4 corners*
0 Add a 4 corners polygon primitive as box body*
4,1,4,$2,$3,$4,$5,$6,$7,$8,$9,$2,$3,0*
0 Add four circle primitives for the rounded corners*
1,1,$1+$1,$2,$3*
1,1,$1+$1,$4,$5*
1,1,$1+$1,$6,$7*
1,1,$1+$1,$8,$9*
0 Add four rect primitives between the rounded corners*
20,1,$1+$1,$2,$3,$4,$5,0*
20,1,$1+$1,$4,$5,$6,$7,0*
20,1,$1+$1,$6,$7,$8,$9,0*
20,1,$1+$1,$8,$9,$2,$3,0*%
G04 Aperture macros list end*
%ADD10RoundRect,0.250000X0.475000X-0.337500X0.475000X0.337500X-0.475000X0.337500X-0.475000X-0.337500X0*%
%ADD11RoundRect,0.250001X0.462499X0.624999X-0.462499X0.624999X-0.462499X-0.624999X0.462499X-0.624999X0*%
%ADD12RoundRect,0.250000X-0.450000X0.350000X-0.450000X-0.350000X0.450000X-0.350000X0.450000X0.350000X0*%
%ADD13RoundRect,0.150000X0.587500X0.150000X-0.587500X0.150000X-0.587500X-0.150000X0.587500X-0.150000X0*%
%ADD14R,2.200000X2.800000*%
%ADD15R,2.800000X2.800000*%
%ADD16RoundRect,0.250000X-0.337500X-0.475000X0.337500X-0.475000X0.337500X0.475000X-0.337500X0.475000X0*%
%ADD17RoundRect,0.250000X0.337500X0.475000X-0.337500X0.475000X-0.337500X-0.475000X0.337500X-0.475000X0*%
%ADD18RoundRect,0.250000X-0.350000X-0.450000X0.350000X-0.450000X0.350000X0.450000X-0.350000X0.450000X0*%
%ADD19RoundRect,0.250000X0.412500X0.650000X-0.412500X0.650000X-0.412500X-0.650000X0.412500X-0.650000X0*%
%ADD20RoundRect,0.250000X0.350000X0.450000X-0.350000X0.450000X-0.350000X-0.450000X0.350000X-0.450000X0*%
%ADD21RoundRect,0.250000X0.450000X-0.350000X0.450000X0.350000X-0.450000X0.350000X-0.450000X-0.350000X0*%
%ADD22RoundRect,0.250000X-0.475000X0.337500X-0.475000X-0.337500X0.475000X-0.337500X0.475000X0.337500X0*%
%ADD23RoundRect,0.250001X-0.462499X-0.624999X0.462499X-0.624999X0.462499X0.624999X-0.462499X0.624999X0*%
G04 APERTURE END LIST*
D10*
%TO.C,C16*%
X113642124Y-124682700D03*
X113642124Y-122607700D03*
%TD*%
D11*
%TO.C,D1*%
X50535800Y-125142800D03*
X47560800Y-125142800D03*
%TD*%
D12*
%TO.C,R10*%
X65170600Y-135768200D03*
X65170600Y-137768200D03*
%TD*%
D13*
%TO.C,Q1*%
X65775600Y-132308000D03*
X65775600Y-130408000D03*
X63900600Y-131358000D03*
%TD*%
D12*
%TO.C,R5*%
X66913600Y-93523200D03*
X66913600Y-95523200D03*
%TD*%
D14*
%TO.C,J1*%
X52756000Y-87892400D03*
X50756000Y-95292400D03*
D15*
X60156000Y-95292400D03*
%TD*%
D16*
%TO.C,C9*%
X90048700Y-101124300D03*
X92123700Y-101124300D03*
%TD*%
D17*
%TO.C,C3*%
X68251100Y-106623200D03*
X66176100Y-106623200D03*
%TD*%
%TO.C,C4*%
X64893100Y-100558600D03*
X62818100Y-100558600D03*
%TD*%
D18*
%TO.C,R11*%
X61813600Y-121023200D03*
X63813600Y-121023200D03*
%TD*%
D19*
%TO.C,C8*%
X88850700Y-108050700D03*
X85725700Y-108050700D03*
%TD*%
D16*
%TO.C,C22*%
X95476100Y-93723200D03*
X97551100Y-93723200D03*
%TD*%
D20*
%TO.C,R8*%
X87788200Y-105550700D03*
X85788200Y-105550700D03*
%TD*%
D21*
%TO.C,R12*%
X113591324Y-133306600D03*
X113591324Y-131306600D03*
%TD*%
D17*
%TO.C,C20*%
X92788200Y-124028100D03*
X90713200Y-124028100D03*
%TD*%
D18*
%TO.C,R9*%
X61713600Y-125123200D03*
X63713600Y-125123200D03*
%TD*%
%TO.C,R2*%
X62813600Y-102823200D03*
X64813600Y-102823200D03*
%TD*%
D20*
%TO.C,R1*%
X64804800Y-98425000D03*
X62804800Y-98425000D03*
%TD*%
D21*
%TO.C,R3*%
X64713600Y-95523200D03*
X64713600Y-93523200D03*
%TD*%
D16*
%TO.C,C11*%
X81404024Y-131918600D03*
X83479024Y-131918600D03*
%TD*%
D21*
%TO.C,R13*%
X88513600Y-123623200D03*
X88513600Y-121623200D03*
%TD*%
D16*
%TO.C,C6*%
X80176100Y-93023200D03*
X82251100Y-93023200D03*
%TD*%
D17*
%TO.C,C7*%
X87733100Y-103323200D03*
X85658100Y-103323200D03*
%TD*%
D12*
%TO.C,R14*%
X67431200Y-135742800D03*
X67431200Y-137742800D03*
%TD*%
D10*
%TO.C,C10*%
X62848950Y-137799250D03*
X62848950Y-135724250D03*
%TD*%
D18*
%TO.C,R7*%
X90060800Y-103435700D03*
X92060800Y-103435700D03*
%TD*%
D10*
%TO.C,C14*%
X94769924Y-130756100D03*
X94769924Y-128681100D03*
%TD*%
D16*
%TO.C,C19*%
X90738600Y-121843700D03*
X92813600Y-121843700D03*
%TD*%
D17*
%TO.C,C13*%
X97279024Y-139718600D03*
X95204024Y-139718600D03*
%TD*%
D22*
%TO.C,C21*%
X97182924Y-128716600D03*
X97182924Y-130791600D03*
%TD*%
D10*
%TO.C,C18*%
X113591324Y-128746700D03*
X113591324Y-126671700D03*
%TD*%
D18*
%TO.C,R6*%
X85644800Y-100884800D03*
X87644800Y-100884800D03*
%TD*%
D17*
%TO.C,C2*%
X101451100Y-93723200D03*
X99376100Y-93723200D03*
%TD*%
D23*
%TO.C,D2*%
X47738600Y-120723200D03*
X50713600Y-120723200D03*
%TD*%
M02*
