%TF.GenerationSoftware,KiCad,Pcbnew,7.0.11-7.0.11~ubuntu22.04.1*%
%TF.CreationDate,2024-09-03T10:01:49-07:00*%
%TF.ProjectId,audio_pwr_amp_r3,61756469-6f5f-4707-9772-5f616d705f72,rev?*%
%TF.SameCoordinates,Original*%
%TF.FileFunction,Copper,L1,Top*%
%TF.FilePolarity,Positive*%
%FSLAX46Y46*%
G04 Gerber Fmt 4.6, Leading zero omitted, Abs format (unit mm)*
G04 Created by KiCad (PCBNEW 7.0.11-7.0.11~ubuntu22.04.1) date 2024-09-03 10:01:49*
%MOMM*%
%LPD*%
G01*
G04 APERTURE LIST*
G04 Aperture macros list*
%AMRoundRect*
0 Rectangle with rounded corners*
0 $1 Rounding radius*
0 $2 $3 $4 $5 $6 $7 $8 $9 X,Y pos of 4 corners*
0 Add a 4 corners polygon primitive as box body*
4,1,4,$2,$3,$4,$5,$6,$7,$8,$9,$2,$3,0*
0 Add four circle primitives for the rounded corners*
1,1,$1+$1,$2,$3*
1,1,$1+$1,$4,$5*
1,1,$1+$1,$6,$7*
1,1,$1+$1,$8,$9*
0 Add four rect primitives between the rounded corners*
20,1,$1+$1,$2,$3,$4,$5,0*
20,1,$1+$1,$4,$5,$6,$7,0*
20,1,$1+$1,$6,$7,$8,$9,0*
20,1,$1+$1,$8,$9,$2,$3,0*%
G04 Aperture macros list end*
%TA.AperFunction,ComponentPad*%
%ADD10C,3.000000*%
%TD*%
%TA.AperFunction,SMDPad,CuDef*%
%ADD11RoundRect,0.250000X0.475000X-0.337500X0.475000X0.337500X-0.475000X0.337500X-0.475000X-0.337500X0*%
%TD*%
%TA.AperFunction,ComponentPad*%
%ADD12C,2.000000*%
%TD*%
%TA.AperFunction,SMDPad,CuDef*%
%ADD13RoundRect,0.250001X0.462499X0.624999X-0.462499X0.624999X-0.462499X-0.624999X0.462499X-0.624999X0*%
%TD*%
%TA.AperFunction,SMDPad,CuDef*%
%ADD14RoundRect,0.250000X-0.450000X0.350000X-0.450000X-0.350000X0.450000X-0.350000X0.450000X0.350000X0*%
%TD*%
%TA.AperFunction,SMDPad,CuDef*%
%ADD15RoundRect,0.150000X0.587500X0.150000X-0.587500X0.150000X-0.587500X-0.150000X0.587500X-0.150000X0*%
%TD*%
%TA.AperFunction,ComponentPad*%
%ADD16C,3.600000*%
%TD*%
%TA.AperFunction,ConnectorPad*%
%ADD17C,5.700000*%
%TD*%
%TA.AperFunction,ComponentPad*%
%ADD18R,2.000000X2.000000*%
%TD*%
%TA.AperFunction,SMDPad,CuDef*%
%ADD19R,2.200000X2.800000*%
%TD*%
%TA.AperFunction,SMDPad,CuDef*%
%ADD20R,2.800000X2.800000*%
%TD*%
%TA.AperFunction,SMDPad,CuDef*%
%ADD21RoundRect,0.250000X-0.337500X-0.475000X0.337500X-0.475000X0.337500X0.475000X-0.337500X0.475000X0*%
%TD*%
%TA.AperFunction,ComponentPad*%
%ADD22R,3.000000X3.000000*%
%TD*%
%TA.AperFunction,ComponentPad*%
%ADD23RoundRect,0.625000X-0.625000X0.625000X-0.625000X-0.625000X0.625000X-0.625000X0.625000X0.625000X0*%
%TD*%
%TA.AperFunction,ComponentPad*%
%ADD24C,2.500000*%
%TD*%
%TA.AperFunction,SMDPad,CuDef*%
%ADD25RoundRect,0.250000X0.337500X0.475000X-0.337500X0.475000X-0.337500X-0.475000X0.337500X-0.475000X0*%
%TD*%
%TA.AperFunction,SMDPad,CuDef*%
%ADD26RoundRect,0.250000X-0.350000X-0.450000X0.350000X-0.450000X0.350000X0.450000X-0.350000X0.450000X0*%
%TD*%
%TA.AperFunction,SMDPad,CuDef*%
%ADD27RoundRect,0.250000X0.412500X0.650000X-0.412500X0.650000X-0.412500X-0.650000X0.412500X-0.650000X0*%
%TD*%
%TA.AperFunction,SMDPad,CuDef*%
%ADD28RoundRect,0.250000X0.350000X0.450000X-0.350000X0.450000X-0.350000X-0.450000X0.350000X-0.450000X0*%
%TD*%
%TA.AperFunction,SMDPad,CuDef*%
%ADD29RoundRect,0.250000X0.450000X-0.350000X0.450000X0.350000X-0.450000X0.350000X-0.450000X-0.350000X0*%
%TD*%
%TA.AperFunction,ComponentPad*%
%ADD30C,1.440000*%
%TD*%
%TA.AperFunction,ComponentPad*%
%ADD31R,2.000000X4.600000*%
%TD*%
%TA.AperFunction,ComponentPad*%
%ADD32O,2.000000X4.200000*%
%TD*%
%TA.AperFunction,ComponentPad*%
%ADD33O,4.200000X2.000000*%
%TD*%
%TA.AperFunction,SMDPad,CuDef*%
%ADD34RoundRect,0.250000X-0.475000X0.337500X-0.475000X-0.337500X0.475000X-0.337500X0.475000X0.337500X0*%
%TD*%
%TA.AperFunction,ComponentPad*%
%ADD35O,2.000000X2.000000*%
%TD*%
%TA.AperFunction,ComponentPad*%
%ADD36R,1.800000X1.800000*%
%TD*%
%TA.AperFunction,ComponentPad*%
%ADD37O,1.800000X1.800000*%
%TD*%
%TA.AperFunction,SMDPad,CuDef*%
%ADD38RoundRect,0.250001X-0.462499X-0.624999X0.462499X-0.624999X0.462499X0.624999X-0.462499X0.624999X0*%
%TD*%
%TA.AperFunction,ViaPad*%
%ADD39C,0.800000*%
%TD*%
%TA.AperFunction,Conductor*%
%ADD40C,0.250000*%
%TD*%
%TA.AperFunction,Conductor*%
%ADD41C,0.508000*%
%TD*%
%TA.AperFunction,Conductor*%
%ADD42C,1.016000*%
%TD*%
G04 APERTURE END LIST*
D10*
%TO.P,HS1,1*%
%TO.N,GND*%
X69413600Y-84223200D03*
X109413600Y-84223200D03*
%TD*%
D11*
%TO.P,C16,1*%
%TO.N,Net-(U2-VO)*%
X113642124Y-124682700D03*
%TO.P,C16,2*%
%TO.N,GND*%
X113642124Y-122607700D03*
%TD*%
D12*
%TO.P,-12Vt1,1,1*%
%TO.N,-12V*%
X78513600Y-140923200D03*
%TD*%
%TO.P,Input1,1,1*%
%TO.N,Net-(C4-Pad1)*%
X56896000Y-81330800D03*
%TD*%
%TO.P,GND6,1,1*%
%TO.N,GND*%
X88613600Y-140923200D03*
%TD*%
D13*
%TO.P,D1,1,K*%
%TO.N,Net-(D1-K)*%
X50535800Y-125142800D03*
%TO.P,D1,2,A*%
%TO.N,GND*%
X47560800Y-125142800D03*
%TD*%
D14*
%TO.P,R10,1*%
%TO.N,Net-(Q1-D)*%
X65170600Y-135768200D03*
%TO.P,R10,2*%
%TO.N,GND*%
X65170600Y-137768200D03*
%TD*%
D15*
%TO.P,Q1,1,G*%
%TO.N,Net-(Q1-G)*%
X65775600Y-132308000D03*
%TO.P,Q1,2,S*%
%TO.N,+12V*%
X65775600Y-130408000D03*
%TO.P,Q1,3,D*%
%TO.N,Net-(Q1-D)*%
X63900600Y-131358000D03*
%TD*%
D14*
%TO.P,R5,1*%
%TO.N,GND*%
X66913600Y-93523200D03*
%TO.P,R5,2*%
%TO.N,Net-(U1-+)*%
X66913600Y-95523200D03*
%TD*%
D16*
%TO.P,H4,1,1*%
%TO.N,GND*%
X116484400Y-82499200D03*
D17*
X116484400Y-82499200D03*
%TD*%
D18*
%TO.P,C5,1*%
%TO.N,GND*%
X70645923Y-100823200D03*
D12*
%TO.P,C5,2*%
%TO.N,-12V*%
X75645923Y-100823200D03*
%TD*%
D19*
%TO.P,J1,R*%
%TO.N,Net-(J1-PadR)*%
X52756000Y-87892400D03*
%TO.P,J1,S*%
%TO.N,GND*%
X50756000Y-95292400D03*
D20*
%TO.P,J1,T*%
%TO.N,Net-(J1-PadT)*%
X60156000Y-95292400D03*
%TD*%
D21*
%TO.P,C9,1*%
%TO.N,GND*%
X90048700Y-101124300D03*
%TO.P,C9,2*%
%TO.N,Net-(C9-Pad2)*%
X92123700Y-101124300D03*
%TD*%
D22*
%TO.P,J2,1,Pin_1*%
%TO.N,GND*%
X115513600Y-113163200D03*
D10*
%TO.P,J2,2,Pin_2*%
%TO.N,Net-(J2-Pin_2)*%
X115513600Y-108083200D03*
%TD*%
D23*
%TO.P,U2,1,VO*%
%TO.N,Net-(U2-VO)*%
X110350324Y-126805000D03*
D24*
%TO.P,U2,2,VI*%
%TO.N,Net-(U2-VI)*%
X104000324Y-126805000D03*
%TO.P,U2,3,NC*%
%TO.N,unconnected-(U2-NC-Pad3)*%
X100830324Y-126805000D03*
%TO.P,U2,4,Vo_Adj*%
%TO.N,Net-(U2-Vo_Adj)*%
X100830324Y-142695000D03*
%TO.P,U2,5,GND*%
%TO.N,GND*%
X110350324Y-142685000D03*
%TD*%
D12*
%TO.P,GND5,1,1*%
%TO.N,GND*%
X54113600Y-144123200D03*
%TD*%
D25*
%TO.P,C3,1*%
%TO.N,Net-(U1-+)*%
X68251100Y-106623200D03*
%TO.P,C3,2*%
%TO.N,Net-(C3-Pad2)*%
X66176100Y-106623200D03*
%TD*%
%TO.P,C4,1*%
%TO.N,Net-(C4-Pad1)*%
X64893100Y-100558600D03*
%TO.P,C4,2*%
%TO.N,GND*%
X62818100Y-100558600D03*
%TD*%
D12*
%TO.P,OUTPUT2,1,1*%
%TO.N,Net-(J2-Pin_2)*%
X116840600Y-100523200D03*
%TD*%
%TO.P,+12Vt1,1,1*%
%TO.N,+12V*%
X70813600Y-140923200D03*
%TD*%
D26*
%TO.P,R11,1*%
%TO.N,Net-(D2-A)*%
X61813600Y-121023200D03*
%TO.P,R11,2*%
%TO.N,+12V*%
X63813600Y-121023200D03*
%TD*%
D18*
%TO.P,C1,1*%
%TO.N,+12V*%
X97345923Y-100533200D03*
D12*
%TO.P,C1,2*%
%TO.N,GND*%
X102345923Y-100533200D03*
%TD*%
D27*
%TO.P,C8,1*%
%TO.N,Net-(C8-Pad1)*%
X88850700Y-108050700D03*
%TO.P,C8,2*%
%TO.N,GND*%
X85725700Y-108050700D03*
%TD*%
D21*
%TO.P,C22,1*%
%TO.N,GND*%
X95476100Y-93723200D03*
%TO.P,C22,2*%
%TO.N,+12V*%
X97551100Y-93723200D03*
%TD*%
D28*
%TO.P,R8,1*%
%TO.N,Net-(C8-Pad1)*%
X87788200Y-105550700D03*
%TO.P,R8,2*%
%TO.N,Net-(U1--)*%
X85788200Y-105550700D03*
%TD*%
D29*
%TO.P,R12,1*%
%TO.N,Net-(U2-Vo_Adj)*%
X113591324Y-133306600D03*
%TO.P,R12,2*%
%TO.N,Net-(U2-VO)*%
X113591324Y-131306600D03*
%TD*%
D25*
%TO.P,C20,1*%
%TO.N,-12V*%
X92788200Y-124028100D03*
%TO.P,C20,2*%
%TO.N,GND*%
X90713200Y-124028100D03*
%TD*%
D26*
%TO.P,R9,1*%
%TO.N,Net-(D1-K)*%
X61713600Y-125123200D03*
%TO.P,R9,2*%
%TO.N,-12V*%
X63713600Y-125123200D03*
%TD*%
D12*
%TO.P,GND4,1,1*%
%TO.N,GND*%
X62839600Y-81330800D03*
%TD*%
D26*
%TO.P,R2,1*%
%TO.N,Net-(R2-Pad1)*%
X62813600Y-102823200D03*
%TO.P,R2,2*%
%TO.N,Net-(C4-Pad1)*%
X64813600Y-102823200D03*
%TD*%
D16*
%TO.P,H3,1,1*%
%TO.N,GND*%
X116613600Y-143923200D03*
D17*
X116613600Y-143923200D03*
%TD*%
D28*
%TO.P,R1,1*%
%TO.N,Net-(C4-Pad1)*%
X64804800Y-98425000D03*
%TO.P,R1,2*%
%TO.N,Net-(J1-PadT)*%
X62804800Y-98425000D03*
%TD*%
D29*
%TO.P,R3,1*%
%TO.N,Net-(C4-Pad1)*%
X64713600Y-95523200D03*
%TO.P,R3,2*%
%TO.N,Net-(J1-PadR)*%
X64713600Y-93523200D03*
%TD*%
D30*
%TO.P,RV1,1,1*%
%TO.N,GND*%
X58213600Y-111823200D03*
%TO.P,RV1,2,2*%
%TO.N,Net-(C3-Pad2)*%
X55673600Y-109283200D03*
%TO.P,RV1,3,3*%
%TO.N,Net-(R2-Pad1)*%
X53133600Y-111823200D03*
%TD*%
D21*
%TO.P,C11,1*%
%TO.N,+12V*%
X81404024Y-131918600D03*
%TO.P,C11,2*%
%TO.N,GND*%
X83479024Y-131918600D03*
%TD*%
D29*
%TO.P,R13,1*%
%TO.N,GND*%
X88513600Y-123623200D03*
%TO.P,R13,2*%
%TO.N,-12V*%
X88513600Y-121623200D03*
%TD*%
D21*
%TO.P,C6,1*%
%TO.N,GND*%
X80176100Y-93023200D03*
%TO.P,C6,2*%
%TO.N,-12V*%
X82251100Y-93023200D03*
%TD*%
D25*
%TO.P,C7,1*%
%TO.N,Net-(J2-Pin_2)*%
X87733100Y-103323200D03*
%TO.P,C7,2*%
%TO.N,Net-(U1--)*%
X85658100Y-103323200D03*
%TD*%
D14*
%TO.P,R14,1*%
%TO.N,Net-(Q1-G)*%
X67431200Y-135742800D03*
%TO.P,R14,2*%
%TO.N,GND*%
X67431200Y-137742800D03*
%TD*%
D11*
%TO.P,C10,1*%
%TO.N,GND*%
X62848950Y-137799250D03*
%TO.P,C10,2*%
%TO.N,Net-(Q1-D)*%
X62848950Y-135724250D03*
%TD*%
D12*
%TO.P,GND3,1,1*%
%TO.N,GND*%
X116992400Y-89458800D03*
%TD*%
D26*
%TO.P,R7,1*%
%TO.N,Net-(J2-Pin_2)*%
X90060800Y-103435700D03*
%TO.P,R7,2*%
%TO.N,Net-(C9-Pad2)*%
X92060800Y-103435700D03*
%TD*%
D11*
%TO.P,C14,1*%
%TO.N,Net-(U2-VI)*%
X94769924Y-130756100D03*
%TO.P,C14,2*%
%TO.N,GND*%
X94769924Y-128681100D03*
%TD*%
D18*
%TO.P,C12,1*%
%TO.N,Net-(U2-VI)*%
X70845923Y-113223200D03*
D12*
%TO.P,C12,2*%
%TO.N,GND*%
X75845923Y-113223200D03*
%TD*%
D21*
%TO.P,C19,1*%
%TO.N,GND*%
X90738600Y-121843700D03*
%TO.P,C19,2*%
%TO.N,-12V*%
X92813600Y-121843700D03*
%TD*%
D31*
%TO.P,J3,1*%
%TO.N,Net-(Q1-D)*%
X59913600Y-132323200D03*
D32*
%TO.P,J3,2*%
%TO.N,GND*%
X53613600Y-132323200D03*
D33*
%TO.P,J3,3*%
%TO.N,N/C*%
X57013600Y-137123200D03*
%TD*%
D25*
%TO.P,C13,1*%
%TO.N,Net-(U2-VI)*%
X97279024Y-139718600D03*
%TO.P,C13,2*%
%TO.N,GND*%
X95204024Y-139718600D03*
%TD*%
D16*
%TO.P,H1,1,1*%
%TO.N,GND*%
X48412400Y-144221200D03*
D17*
X48412400Y-144221200D03*
%TD*%
D34*
%TO.P,C21,1*%
%TO.N,GND*%
X97182924Y-128716600D03*
%TO.P,C21,2*%
%TO.N,Net-(U2-VI)*%
X97182924Y-130791600D03*
%TD*%
D11*
%TO.P,C18,1*%
%TO.N,GND*%
X113591324Y-128746700D03*
%TO.P,C18,2*%
%TO.N,Net-(U2-VO)*%
X113591324Y-126671700D03*
%TD*%
D26*
%TO.P,R6,1*%
%TO.N,Net-(U1--)*%
X85644800Y-100884800D03*
%TO.P,R6,2*%
%TO.N,Net-(J2-Pin_2)*%
X87644800Y-100884800D03*
%TD*%
D12*
%TO.P,FB2,1*%
%TO.N,-12V*%
X95288600Y-121723200D03*
D35*
%TO.P,FB2,2*%
%TO.N,Net-(U2-VO)*%
X110528600Y-121723200D03*
%TD*%
D12*
%TO.P,FB1,1*%
%TO.N,Net-(U2-VI)*%
X97166524Y-135718600D03*
D35*
%TO.P,FB1,2*%
%TO.N,+12V*%
X81926524Y-135718600D03*
%TD*%
D25*
%TO.P,C2,1*%
%TO.N,GND*%
X101451100Y-93723200D03*
%TO.P,C2,2*%
%TO.N,+12V*%
X99376100Y-93723200D03*
%TD*%
D36*
%TO.P,U1,1,+*%
%TO.N,Net-(U1-+)*%
X85734000Y-94951300D03*
D37*
%TO.P,U1,2,-*%
%TO.N,Net-(U1--)*%
X87434000Y-91251300D03*
%TO.P,U1,3,V-*%
%TO.N,-12V*%
X89134000Y-94951300D03*
%TO.P,U1,4*%
%TO.N,Net-(J2-Pin_2)*%
X90834000Y-91251300D03*
%TO.P,U1,5,V+*%
%TO.N,+12V*%
X92534000Y-94951300D03*
%TD*%
D38*
%TO.P,D2,1,K*%
%TO.N,GND*%
X47738600Y-120723200D03*
%TO.P,D2,2,A*%
%TO.N,Net-(D2-A)*%
X50713600Y-120723200D03*
%TD*%
D16*
%TO.P,H2,1,1*%
%TO.N,GND*%
X48793400Y-82321400D03*
D17*
X48793400Y-82321400D03*
%TD*%
D18*
%TO.P,C15,1*%
%TO.N,GND*%
X97345923Y-113223200D03*
D12*
%TO.P,C15,2*%
%TO.N,Net-(U2-VO)*%
X102345923Y-113223200D03*
%TD*%
D39*
%TO.N,GND*%
X107315000Y-111429800D03*
X90513600Y-125923200D03*
X87786000Y-80126100D03*
X94113600Y-96723200D03*
X91813600Y-110823200D03*
X116413600Y-118123200D03*
X57913600Y-89423200D03*
X80242200Y-80557900D03*
X103113600Y-95223200D03*
X107596924Y-142314200D03*
X55313600Y-112523200D03*
X74549000Y-121056400D03*
X113489724Y-140155200D03*
X66113600Y-82123200D03*
X62813600Y-95923200D03*
X85091524Y-127868600D03*
X108000800Y-80975200D03*
X109805000Y-145590800D03*
X70815200Y-92303600D03*
X85513600Y-89123200D03*
X90857600Y-99346300D03*
X81613600Y-114223200D03*
X70713600Y-88011000D03*
X80928000Y-89854300D03*
X106606324Y-131544600D03*
X73313600Y-87723200D03*
X113794524Y-136065800D03*
X68713600Y-117523200D03*
X61313600Y-87723200D03*
X79023000Y-88076300D03*
X93013600Y-107723200D03*
X91113600Y-119923200D03*
X93713600Y-93223200D03*
X96752200Y-80278500D03*
X111203724Y-140155200D03*
X79913600Y-107323200D03*
X107596924Y-143584200D03*
X83713600Y-106923200D03*
X107749324Y-140180600D03*
X112420400Y-96367600D03*
X55313600Y-92523200D03*
X113261124Y-144803400D03*
X109578124Y-140079000D03*
X62148000Y-133364600D03*
X69313600Y-137423200D03*
X49735600Y-129343600D03*
X112413600Y-116823200D03*
X113184924Y-142746000D03*
X53002200Y-141503400D03*
X49585400Y-111861552D03*
X99313600Y-132223200D03*
X77397400Y-91606900D03*
X98813600Y-88923200D03*
X101526324Y-138123200D03*
X108941524Y-118318600D03*
X83713600Y-98123200D03*
X74113600Y-93023200D03*
X61513600Y-100584000D03*
X110813600Y-112723200D03*
X90313600Y-89123200D03*
X97313600Y-87023200D03*
X65713600Y-141223200D03*
X110813600Y-115123200D03*
X49985600Y-134593600D03*
X118413600Y-116723200D03*
X47563600Y-102273200D03*
X93113600Y-115023200D03*
X111913200Y-145590800D03*
X107513600Y-104523200D03*
X97341524Y-121368600D03*
X59283600Y-140360400D03*
%TO.N,+12V*%
X66913600Y-120723200D03*
%TO.N,Net-(U1-+)*%
X68713600Y-94923200D03*
%TO.N,-12V*%
X65513600Y-125123200D03*
X77013600Y-125123200D03*
%TO.N,Net-(U1--)*%
X87370200Y-96766600D03*
%TO.N,Net-(U2-VI)*%
X90113600Y-130723200D03*
%TD*%
D40*
%TO.N,GND*%
X62792700Y-100584000D02*
X62818100Y-100558600D01*
X68994000Y-137742800D02*
X67431200Y-137742800D01*
X91113600Y-121468700D02*
X90738600Y-121843700D01*
X97132124Y-128767400D02*
X97182924Y-128716600D01*
X61513600Y-100584000D02*
X62792700Y-100584000D01*
X90857600Y-99346300D02*
X90048700Y-100155200D01*
X91113600Y-119923200D02*
X91113600Y-121468700D01*
X90513600Y-125923200D02*
X90513600Y-124227700D01*
X93713600Y-93223200D02*
X94976100Y-93223200D01*
X69313600Y-137423200D02*
X68994000Y-137742800D01*
X90513600Y-124227700D02*
X90713200Y-124028100D01*
X90048700Y-100155200D02*
X90048700Y-101124300D01*
X94976100Y-93223200D02*
X95476100Y-93723200D01*
D41*
%TO.N,+12V*%
X66789800Y-120799400D02*
X67913600Y-121923200D01*
X71113600Y-130408000D02*
X72413600Y-130408000D01*
X95932350Y-95541950D02*
X96051100Y-95423200D01*
X97345923Y-96955523D02*
X97345923Y-100533200D01*
X76615924Y-130408000D02*
X81926524Y-135718600D01*
D40*
X81404024Y-135196100D02*
X81926524Y-135718600D01*
D41*
X97551100Y-94885700D02*
X97551100Y-93923200D01*
X96051100Y-95423200D02*
X97013600Y-95423200D01*
D40*
X66613600Y-121023200D02*
X66913600Y-120723200D01*
D41*
X92534000Y-94951300D02*
X93005900Y-95423200D01*
X67913600Y-130408000D02*
X71113600Y-130408000D01*
D40*
X63813600Y-121023200D02*
X66613600Y-121023200D01*
D41*
X72413600Y-130408000D02*
X76615924Y-130408000D01*
X93005900Y-95423200D02*
X95813600Y-95423200D01*
D40*
X92530400Y-95127900D02*
X92530400Y-94595700D01*
X70813600Y-140923200D02*
X70813600Y-130708000D01*
D41*
X95932350Y-95541950D02*
X97345923Y-96955523D01*
X67913600Y-121923200D02*
X67913600Y-130408000D01*
X97551100Y-93923200D02*
X99376100Y-93923200D01*
X81404024Y-131918600D02*
X81404024Y-135196100D01*
D40*
X70813600Y-130708000D02*
X71113600Y-130408000D01*
D41*
X97013600Y-95423200D02*
X97551100Y-94885700D01*
X65775600Y-130408000D02*
X67913600Y-130408000D01*
D40*
%TO.N,Net-(C4-Pad1)*%
X64893100Y-102743700D02*
X64813600Y-102823200D01*
X64795400Y-95605000D02*
X64795400Y-98415600D01*
X64893100Y-100558600D02*
X64893100Y-102743700D01*
X58648600Y-93268800D02*
X62459200Y-93268800D01*
X55524400Y-90144600D02*
X58648600Y-93268800D01*
X56896000Y-81330800D02*
X56083200Y-81330800D01*
X50825400Y-89111800D02*
X51858200Y-90144600D01*
X64795400Y-98415600D02*
X64804800Y-98425000D01*
X62459200Y-93268800D02*
X64795400Y-95605000D01*
X51858200Y-90144600D02*
X55524400Y-90144600D01*
X64804800Y-98425000D02*
X64804800Y-100470300D01*
X50825400Y-86588600D02*
X50825400Y-89111800D01*
X64804800Y-100470300D02*
X64893100Y-100558600D01*
X56083200Y-81330800D02*
X50825400Y-86588600D01*
%TO.N,Net-(U1-+)*%
X68251100Y-96860700D02*
X66913600Y-95523200D01*
X68113600Y-95523200D02*
X68713600Y-94923200D01*
X66913600Y-95523200D02*
X68113600Y-95523200D01*
X68251100Y-106623200D02*
X68251100Y-96860700D01*
%TO.N,Net-(C3-Pad2)*%
X58178450Y-106623200D02*
X55857560Y-108944090D01*
X58178450Y-106623200D02*
X66176100Y-106623200D01*
%TO.N,Net-(J1-PadR)*%
X52756000Y-87892400D02*
X58982800Y-87892400D01*
X58982800Y-87892400D02*
X64795400Y-93705000D01*
D41*
%TO.N,-12V*%
X95288600Y-121723200D02*
X91801100Y-118235700D01*
X92813600Y-121843700D02*
X92813600Y-124002700D01*
D40*
X91363600Y-117798200D02*
X91801100Y-118235700D01*
D41*
X82251100Y-108660700D02*
X91801100Y-118210700D01*
X91801100Y-118210700D02*
X91801100Y-118235700D01*
X75645923Y-100823200D02*
X82251100Y-100823200D01*
D40*
X84713600Y-121623200D02*
X81213600Y-125123200D01*
X81320819Y-125123200D02*
X81213600Y-125123200D01*
D41*
X89134000Y-94951300D02*
X87205900Y-93023200D01*
D40*
X85213600Y-129015981D02*
X81320819Y-125123200D01*
X88513600Y-120648200D02*
X91363600Y-117798200D01*
X95088600Y-121923200D02*
X95090724Y-121921076D01*
X88513600Y-121623200D02*
X84713600Y-121623200D01*
X78513600Y-140923200D02*
X81113600Y-140923200D01*
X88513600Y-121623200D02*
X88513600Y-120648200D01*
X81113600Y-140923200D02*
X85213600Y-136823200D01*
D41*
X82251100Y-100823200D02*
X82251100Y-108660700D01*
D40*
X65513600Y-125123200D02*
X65482400Y-125092000D01*
X65513600Y-125123200D02*
X63713600Y-125123200D01*
D41*
X82251100Y-94323200D02*
X82251100Y-100823200D01*
X87205900Y-93023200D02*
X82251100Y-93023200D01*
X92413600Y-121923200D02*
X95088600Y-121923200D01*
X92813600Y-124002700D02*
X92788200Y-124028100D01*
D40*
X85213600Y-136823200D02*
X85213600Y-129015981D01*
D41*
X82251100Y-93023200D02*
X82251100Y-94323200D01*
D40*
X81213600Y-125123200D02*
X77013600Y-125123200D01*
D41*
X92993400Y-122023500D02*
X92813600Y-121843700D01*
D40*
X95090724Y-121921076D02*
X95288600Y-121723200D01*
%TO.N,Net-(U1--)*%
X85788200Y-105550700D02*
X85788200Y-103453300D01*
X85788200Y-103453300D02*
X85658100Y-103323200D01*
X85607300Y-103374000D02*
X85658100Y-103323200D01*
X85658100Y-100898100D02*
X85644800Y-100884800D01*
X85658100Y-103323200D02*
X85658100Y-100898100D01*
X85644800Y-98492000D02*
X87370200Y-96766600D01*
X85644800Y-100884800D02*
X85644800Y-98492000D01*
X87430600Y-96766600D02*
X87543800Y-96653400D01*
X87370200Y-96766600D02*
X87430600Y-96766600D01*
%TO.N,Net-(C9-Pad2)*%
X92060800Y-101187200D02*
X92123700Y-101124300D01*
X92060800Y-103435700D02*
X92060800Y-101187200D01*
%TO.N,Net-(Q1-D)*%
X60878800Y-131358000D02*
X59913600Y-132323200D01*
D41*
X63900600Y-131358000D02*
X60878800Y-131358000D01*
D40*
X63900600Y-134672600D02*
X63900600Y-131358000D01*
X65502650Y-135724250D02*
X65592150Y-135634750D01*
X62848950Y-135724250D02*
X65502650Y-135724250D01*
X62848950Y-135724250D02*
X63900600Y-134672600D01*
%TO.N,Net-(J2-Pin_2)*%
X90013600Y-103323200D02*
X90064400Y-103374000D01*
D41*
X87733100Y-103323200D02*
X87733100Y-100973100D01*
D40*
X87733100Y-100973100D02*
X87644800Y-100884800D01*
D41*
X90834000Y-97695600D02*
X87644800Y-100884800D01*
D40*
X116840600Y-100523200D02*
X114390600Y-102973200D01*
D41*
X90834000Y-91251300D02*
X90834000Y-97695600D01*
D42*
X114163600Y-102973200D02*
X102963600Y-91773200D01*
D40*
X116713600Y-100523200D02*
X116967600Y-100523200D01*
D42*
X115513600Y-104323200D02*
X114163600Y-102973200D01*
X102441700Y-91251300D02*
X102963600Y-91773200D01*
X90834000Y-91251300D02*
X102441700Y-91251300D01*
D41*
X114713600Y-108043200D02*
X115513600Y-107243200D01*
D40*
X114390600Y-102973200D02*
X114163600Y-102973200D01*
D42*
X115513600Y-107243200D02*
X115513600Y-104323200D01*
D41*
X87733100Y-103323200D02*
X90013600Y-103323200D01*
D40*
%TO.N,Net-(C8-Pad1)*%
X88850700Y-106613200D02*
X87788200Y-105550700D01*
X88850700Y-108050700D02*
X88850700Y-106613200D01*
%TO.N,Net-(J1-PadT)*%
X60156000Y-95776200D02*
X62804800Y-98425000D01*
X60156000Y-95292400D02*
X60156000Y-95776200D01*
X61147600Y-94300800D02*
X60156000Y-95292400D01*
D41*
%TO.N,Net-(U2-VI)*%
X100013724Y-130791600D02*
X99913600Y-130791600D01*
D40*
X97279024Y-139718600D02*
X97279024Y-135831100D01*
D41*
X94769924Y-130756100D02*
X94702824Y-130823200D01*
D40*
X97147424Y-130756100D02*
X97182924Y-130791600D01*
X97182924Y-135702200D02*
X97166524Y-135718600D01*
D41*
X104000324Y-126805000D02*
X100013724Y-130791600D01*
X97618200Y-135718600D02*
X97166524Y-135718600D01*
X94702824Y-130823200D02*
X90213600Y-130823200D01*
X97182924Y-130791600D02*
X99913600Y-130791600D01*
X90213600Y-130823200D02*
X90113600Y-130723200D01*
D40*
X97279024Y-135831100D02*
X97166524Y-135718600D01*
D41*
X97182924Y-130791600D02*
X97182924Y-135702200D01*
X94769924Y-130756100D02*
X97147424Y-130756100D01*
X90113600Y-130723200D02*
X90080700Y-130756100D01*
%TO.N,Net-(U2-VO)*%
X110350324Y-126805000D02*
X110350324Y-121901476D01*
D40*
X110350324Y-121901476D02*
X110528600Y-121723200D01*
X113591324Y-124733500D02*
X113642124Y-124682700D01*
X113591324Y-131306600D02*
X110350324Y-128065600D01*
D41*
X110350324Y-126805000D02*
X113225524Y-126805000D01*
D40*
X113591324Y-126671700D02*
X113591324Y-124733500D01*
D41*
X110528600Y-121723200D02*
X102345923Y-113540523D01*
D40*
X110350324Y-128065600D02*
X110350324Y-126805000D01*
%TO.N,Net-(D1-K)*%
X50555400Y-125123200D02*
X50535800Y-125142800D01*
X61713600Y-125123200D02*
X50555400Y-125123200D01*
%TO.N,Net-(D2-A)*%
X50713600Y-120723200D02*
X61513600Y-120723200D01*
X61513600Y-120723200D02*
X61813600Y-121023200D01*
%TO.N,Net-(Q1-G)*%
X67431200Y-135742800D02*
X67431200Y-133963600D01*
X67431200Y-133963600D02*
X65775600Y-132308000D01*
%TO.N,Net-(R2-Pad1)*%
X53317560Y-107794640D02*
X53317560Y-111484090D01*
X55851300Y-105260900D02*
X53317560Y-107794640D01*
X58289000Y-102823200D02*
X55851300Y-105260900D01*
X62813600Y-102823200D02*
X58289000Y-102823200D01*
%TO.N,Net-(U2-Vo_Adj)*%
X113591324Y-133306600D02*
X110218724Y-133306600D01*
X110218724Y-133306600D02*
X100830324Y-142695000D01*
%TD*%
%TA.AperFunction,Conductor*%
%TO.N,GND*%
G36*
X119985156Y-144831454D02*
G01*
X120038630Y-144876423D01*
X120059303Y-144943165D01*
X120059317Y-144944676D01*
X120065477Y-147322552D01*
X120045966Y-147389642D01*
X119993280Y-147435534D01*
X119941351Y-147446873D01*
X117341005Y-147444222D01*
X117273985Y-147424469D01*
X117228284Y-147371618D01*
X117218411Y-147302450D01*
X117247501Y-147238924D01*
X117306317Y-147201209D01*
X117314475Y-147199121D01*
X117511138Y-147155832D01*
X117855389Y-147039840D01*
X117855394Y-147039839D01*
X118185064Y-146887316D01*
X118185077Y-146887309D01*
X118496317Y-146700043D01*
X118496333Y-146700032D01*
X118785529Y-146480192D01*
X118801710Y-146464864D01*
X118801710Y-146464863D01*
X117557780Y-145220933D01*
X117748470Y-145058070D01*
X117911333Y-144867380D01*
X119152628Y-146108675D01*
X119152629Y-146108675D01*
X119284427Y-145953511D01*
X119284438Y-145953497D01*
X119488281Y-145652851D01*
X119488283Y-145652847D01*
X119658438Y-145331902D01*
X119658447Y-145331884D01*
X119792902Y-144994427D01*
X119792904Y-144994420D01*
X119815837Y-144911824D01*
X119852738Y-144852494D01*
X119915858Y-144822533D01*
X119985156Y-144831454D01*
G37*
%TD.AperFunction*%
%TA.AperFunction,Conductor*%
G36*
X95011488Y-92287485D02*
G01*
X95057243Y-92340289D01*
X95067187Y-92409447D01*
X95038162Y-92473003D01*
X94983453Y-92509506D01*
X94819480Y-92563841D01*
X94819475Y-92563843D01*
X94670254Y-92655884D01*
X94546284Y-92779854D01*
X94454243Y-92929075D01*
X94454241Y-92929080D01*
X94399094Y-93095502D01*
X94399093Y-93095509D01*
X94388600Y-93198213D01*
X94388600Y-93473200D01*
X95602100Y-93473200D01*
X95669139Y-93492885D01*
X95714894Y-93545689D01*
X95726100Y-93597200D01*
X95726100Y-93849200D01*
X95706415Y-93916239D01*
X95653611Y-93961994D01*
X95602100Y-93973200D01*
X94388601Y-93973200D01*
X94388601Y-94248186D01*
X94399094Y-94350897D01*
X94447739Y-94497696D01*
X94450141Y-94567524D01*
X94414409Y-94627566D01*
X94351889Y-94658759D01*
X94330033Y-94660700D01*
X94009883Y-94660700D01*
X93942844Y-94641015D01*
X93897089Y-94588211D01*
X93889677Y-94567139D01*
X93877977Y-94520938D01*
X93870749Y-94492393D01*
X93776984Y-94278631D01*
X93750246Y-94237705D01*
X93649313Y-94083215D01*
X93491223Y-93911485D01*
X93491222Y-93911484D01*
X93491220Y-93911482D01*
X93307017Y-93768110D01*
X93307015Y-93768109D01*
X93307014Y-93768108D01*
X93307011Y-93768106D01*
X93101733Y-93657016D01*
X93101730Y-93657015D01*
X93101727Y-93657013D01*
X93101721Y-93657011D01*
X93101719Y-93657010D01*
X92880954Y-93581220D01*
X92708271Y-93552405D01*
X92650712Y-93542800D01*
X92417288Y-93542800D01*
X92371240Y-93550484D01*
X92187045Y-93581220D01*
X91966280Y-93657010D01*
X91966266Y-93657016D01*
X91779517Y-93758079D01*
X91711189Y-93772674D01*
X91645817Y-93748011D01*
X91604156Y-93691920D01*
X91596500Y-93649024D01*
X91596500Y-92503295D01*
X91616185Y-92436256D01*
X91644335Y-92405443D01*
X91787585Y-92293946D01*
X91852579Y-92268304D01*
X91863748Y-92267800D01*
X94944449Y-92267800D01*
X95011488Y-92287485D01*
G37*
%TD.AperFunction*%
%TA.AperFunction,Conductor*%
G36*
X62269703Y-93975653D02*
G01*
X62276181Y-93981685D01*
X63468781Y-95174285D01*
X63502266Y-95235608D01*
X63505100Y-95261966D01*
X63505100Y-95923737D01*
X63505101Y-95923753D01*
X63515713Y-96027627D01*
X63571484Y-96195935D01*
X63571486Y-96195940D01*
X63602106Y-96245583D01*
X63664570Y-96346852D01*
X63789948Y-96472230D01*
X63940862Y-96565315D01*
X64074244Y-96609512D01*
X64076904Y-96610394D01*
X64134349Y-96650166D01*
X64161172Y-96714682D01*
X64161900Y-96728100D01*
X64161900Y-97195273D01*
X64142215Y-97262312D01*
X64102998Y-97300811D01*
X63981148Y-97375969D01*
X63981147Y-97375970D01*
X63892481Y-97464637D01*
X63831158Y-97498122D01*
X63761466Y-97493138D01*
X63717119Y-97464637D01*
X63628453Y-97375971D01*
X63628452Y-97375970D01*
X63534698Y-97318142D01*
X63477540Y-97282886D01*
X63477535Y-97282884D01*
X63309227Y-97227113D01*
X63205352Y-97216500D01*
X63205345Y-97216500D01*
X62543567Y-97216500D01*
X62476528Y-97196815D01*
X62455886Y-97180181D01*
X62100819Y-96825114D01*
X62067334Y-96763791D01*
X62064500Y-96737433D01*
X62064500Y-94069366D01*
X62084185Y-94002327D01*
X62136989Y-93956572D01*
X62206147Y-93946628D01*
X62269703Y-93975653D01*
G37*
%TD.AperFunction*%
%TA.AperFunction,Conductor*%
G36*
X58736073Y-88545585D02*
G01*
X58756715Y-88562219D01*
X62618114Y-92423619D01*
X62651599Y-92484942D01*
X62646615Y-92554634D01*
X62604743Y-92610567D01*
X62539279Y-92634984D01*
X62530433Y-92635300D01*
X62518816Y-92635300D01*
X62499417Y-92633773D01*
X62479258Y-92630580D01*
X62479257Y-92630580D01*
X62435143Y-92634750D01*
X62423474Y-92635300D01*
X59668405Y-92635300D01*
X59601366Y-92615615D01*
X59555611Y-92562811D01*
X59545667Y-92493653D01*
X59574692Y-92430097D01*
X59591753Y-92413830D01*
X59602704Y-92405218D01*
X59618886Y-92392492D01*
X59756519Y-92233656D01*
X59861604Y-92051644D01*
X59930344Y-91853033D01*
X59960254Y-91645002D01*
X59950254Y-91435070D01*
X59900704Y-91230824D01*
X59900701Y-91230817D01*
X59813401Y-91039656D01*
X59813398Y-91039651D01*
X59813397Y-91039650D01*
X59813396Y-91039647D01*
X59691486Y-90868448D01*
X59691484Y-90868446D01*
X59691479Y-90868440D01*
X59539379Y-90723414D01*
X59362574Y-90609788D01*
X59268551Y-90572147D01*
X59246028Y-90563130D01*
X59167455Y-90531674D01*
X58961086Y-90491900D01*
X58961085Y-90491900D01*
X58803575Y-90491900D01*
X58646782Y-90506872D01*
X58646778Y-90506873D01*
X58445127Y-90566083D01*
X58258313Y-90662391D01*
X58093116Y-90792305D01*
X58093112Y-90792309D01*
X57955478Y-90951146D01*
X57850398Y-91133149D01*
X57801659Y-91273970D01*
X57761130Y-91330883D01*
X57696265Y-91356851D01*
X57627658Y-91343627D01*
X57596798Y-91321093D01*
X56031488Y-89755783D01*
X56021587Y-89743423D01*
X56021377Y-89743598D01*
X56016401Y-89737584D01*
X56016400Y-89737582D01*
X55966715Y-89690925D01*
X55963950Y-89688245D01*
X55944166Y-89668461D01*
X55940904Y-89665931D01*
X55932019Y-89658343D01*
X55899721Y-89628014D01*
X55899719Y-89628012D01*
X55881831Y-89618178D01*
X55865570Y-89607497D01*
X55849439Y-89594984D01*
X55808775Y-89577388D01*
X55798285Y-89572249D01*
X55759460Y-89550905D01*
X55759456Y-89550904D01*
X55739687Y-89545828D01*
X55721281Y-89539526D01*
X55702544Y-89531418D01*
X55702545Y-89531418D01*
X55658783Y-89524487D01*
X55647347Y-89522119D01*
X55629719Y-89517593D01*
X55604432Y-89511100D01*
X55604430Y-89511100D01*
X55584016Y-89511100D01*
X55564617Y-89509573D01*
X55544458Y-89506380D01*
X55544457Y-89506380D01*
X55500343Y-89510550D01*
X55488674Y-89511100D01*
X54484263Y-89511100D01*
X54417224Y-89491415D01*
X54371469Y-89438611D01*
X54360973Y-89373845D01*
X54361011Y-89373482D01*
X54364500Y-89341038D01*
X54364500Y-88649900D01*
X54384185Y-88582861D01*
X54436989Y-88537106D01*
X54488500Y-88525900D01*
X58669034Y-88525900D01*
X58736073Y-88545585D01*
G37*
%TD.AperFunction*%
%TA.AperFunction,Conductor*%
G36*
X95491382Y-78782983D02*
G01*
X95491426Y-78782984D01*
X95491545Y-78783019D01*
X95491545Y-78782984D01*
X119764490Y-78816031D01*
X119831500Y-78835807D01*
X119877183Y-78888673D01*
X119888319Y-78939710D01*
X119894592Y-81360916D01*
X119875081Y-81428006D01*
X119822396Y-81473898D01*
X119753263Y-81484020D01*
X119689632Y-81455160D01*
X119655399Y-81407134D01*
X119529247Y-81090515D01*
X119529238Y-81090497D01*
X119359083Y-80769552D01*
X119359081Y-80769548D01*
X119155229Y-80468890D01*
X119155222Y-80468880D01*
X119023429Y-80313723D01*
X119023428Y-80313723D01*
X117782132Y-81555018D01*
X117619270Y-81364330D01*
X117428580Y-81201466D01*
X118672510Y-79957536D01*
X118672510Y-79957534D01*
X118656329Y-79942207D01*
X118656328Y-79942206D01*
X118367133Y-79722367D01*
X118367117Y-79722356D01*
X118055877Y-79535090D01*
X118055864Y-79535083D01*
X117726194Y-79382560D01*
X117726189Y-79382559D01*
X117381938Y-79266567D01*
X117027164Y-79188475D01*
X116666033Y-79149200D01*
X116302766Y-79149200D01*
X115941635Y-79188475D01*
X115586861Y-79266567D01*
X115242610Y-79382559D01*
X115242605Y-79382560D01*
X114912935Y-79535083D01*
X114912922Y-79535090D01*
X114601682Y-79722356D01*
X114601666Y-79722367D01*
X114312475Y-79942202D01*
X114296288Y-79957535D01*
X114296287Y-79957535D01*
X115540219Y-81201466D01*
X115349530Y-81364330D01*
X115186666Y-81555018D01*
X113945370Y-80313722D01*
X113945369Y-80313723D01*
X113813577Y-80468880D01*
X113813570Y-80468890D01*
X113609718Y-80769548D01*
X113609716Y-80769552D01*
X113439561Y-81090497D01*
X113439552Y-81090515D01*
X113305097Y-81427972D01*
X113305095Y-81427979D01*
X113207919Y-81777977D01*
X113207917Y-81777985D01*
X113149146Y-82136471D01*
X113129480Y-82499197D01*
X113129480Y-82499202D01*
X113149146Y-82861928D01*
X113207917Y-83220414D01*
X113207919Y-83220422D01*
X113305095Y-83570420D01*
X113305097Y-83570427D01*
X113439552Y-83907884D01*
X113439561Y-83907902D01*
X113609716Y-84228847D01*
X113609718Y-84228851D01*
X113813570Y-84529509D01*
X113813577Y-84529519D01*
X113945369Y-84684675D01*
X113945370Y-84684675D01*
X115186666Y-83443380D01*
X115349530Y-83634070D01*
X115540218Y-83796932D01*
X114296288Y-85040862D01*
X114296288Y-85040864D01*
X114312470Y-85056192D01*
X114312471Y-85056193D01*
X114601666Y-85276032D01*
X114601682Y-85276043D01*
X114912922Y-85463309D01*
X114912935Y-85463316D01*
X115242605Y-85615839D01*
X115242610Y-85615840D01*
X115586861Y-85731832D01*
X115941635Y-85809924D01*
X116302766Y-85849199D01*
X116302774Y-85849200D01*
X116666026Y-85849200D01*
X116666033Y-85849199D01*
X117027164Y-85809924D01*
X117381938Y-85731832D01*
X117726189Y-85615840D01*
X117726194Y-85615839D01*
X118055864Y-85463316D01*
X118055877Y-85463309D01*
X118367117Y-85276043D01*
X118367133Y-85276032D01*
X118656329Y-85056192D01*
X118672510Y-85040864D01*
X118672510Y-85040863D01*
X117428580Y-83796933D01*
X117619270Y-83634070D01*
X117782133Y-83443380D01*
X119023428Y-84684675D01*
X119023429Y-84684675D01*
X119155227Y-84529511D01*
X119155238Y-84529497D01*
X119359081Y-84228851D01*
X119359083Y-84228847D01*
X119529238Y-83907902D01*
X119529247Y-83907884D01*
X119661257Y-83576563D01*
X119704357Y-83521571D01*
X119770346Y-83498610D01*
X119838273Y-83514971D01*
X119886572Y-83565459D01*
X119900450Y-83622139D01*
X120053973Y-142881833D01*
X120034462Y-142948923D01*
X119981777Y-142994815D01*
X119912644Y-143004937D01*
X119849013Y-142976077D01*
X119811087Y-142917397D01*
X119810493Y-142915327D01*
X119792904Y-142851979D01*
X119792902Y-142851972D01*
X119658447Y-142514515D01*
X119658438Y-142514497D01*
X119488283Y-142193550D01*
X119488281Y-142193548D01*
X119284429Y-141892890D01*
X119284422Y-141892880D01*
X119152629Y-141737723D01*
X119152628Y-141737723D01*
X117911332Y-142979018D01*
X117748470Y-142788330D01*
X117557780Y-142625466D01*
X118801710Y-141381536D01*
X118801710Y-141381534D01*
X118785529Y-141366207D01*
X118785528Y-141366206D01*
X118496333Y-141146367D01*
X118496317Y-141146356D01*
X118185077Y-140959090D01*
X118185064Y-140959083D01*
X117855394Y-140806560D01*
X117855389Y-140806559D01*
X117511138Y-140690567D01*
X117156364Y-140612475D01*
X116795233Y-140573200D01*
X116431966Y-140573200D01*
X116070835Y-140612475D01*
X115716061Y-140690567D01*
X115371810Y-140806559D01*
X115371805Y-140806560D01*
X115042135Y-140959083D01*
X115042122Y-140959090D01*
X114730882Y-141146356D01*
X114730866Y-141146367D01*
X114441675Y-141366202D01*
X114425488Y-141381535D01*
X114425487Y-141381535D01*
X115669419Y-142625466D01*
X115478730Y-142788330D01*
X115315866Y-142979018D01*
X114074570Y-141737722D01*
X114074569Y-141737723D01*
X113942777Y-141892880D01*
X113942770Y-141892890D01*
X113738918Y-142193548D01*
X113738917Y-142193550D01*
X113568761Y-142514497D01*
X113568752Y-142514515D01*
X113434297Y-142851972D01*
X113434295Y-142851979D01*
X113337119Y-143201977D01*
X113337117Y-143201985D01*
X113278346Y-143560471D01*
X113258680Y-143923197D01*
X113258680Y-143923202D01*
X113278346Y-144285928D01*
X113337117Y-144644414D01*
X113337119Y-144644422D01*
X113434295Y-144994420D01*
X113434297Y-144994427D01*
X113568752Y-145331884D01*
X113568761Y-145331902D01*
X113738916Y-145652847D01*
X113738918Y-145652851D01*
X113942770Y-145953509D01*
X113942777Y-145953519D01*
X114074569Y-146108675D01*
X114074570Y-146108675D01*
X115315866Y-144867380D01*
X115478730Y-145058070D01*
X115669418Y-145220932D01*
X114425488Y-146464862D01*
X114425488Y-146464864D01*
X114441670Y-146480192D01*
X114441671Y-146480193D01*
X114730866Y-146700032D01*
X114730882Y-146700043D01*
X115042122Y-146887309D01*
X115042135Y-146887316D01*
X115371805Y-147039839D01*
X115371810Y-147039840D01*
X115716061Y-147155832D01*
X115905954Y-147197631D01*
X115967195Y-147231267D01*
X116000529Y-147292672D01*
X115995373Y-147362351D01*
X115953364Y-147418182D01*
X115887840Y-147442437D01*
X115879172Y-147442732D01*
X50113939Y-147375692D01*
X50046919Y-147355939D01*
X50001218Y-147303088D01*
X49991345Y-147233920D01*
X50020435Y-147170394D01*
X50050137Y-147145441D01*
X50295130Y-146998034D01*
X50295133Y-146998032D01*
X50584329Y-146778192D01*
X50600510Y-146762864D01*
X50600510Y-146762863D01*
X49356580Y-145518933D01*
X49547270Y-145356070D01*
X49710133Y-145165380D01*
X50951428Y-146406675D01*
X50951429Y-146406675D01*
X51083227Y-146251511D01*
X51083238Y-146251497D01*
X51287083Y-145950850D01*
X51287083Y-145950847D01*
X51457238Y-145629902D01*
X51457247Y-145629884D01*
X51591702Y-145292427D01*
X51591704Y-145292420D01*
X51688880Y-144942422D01*
X51688882Y-144942414D01*
X51747653Y-144583928D01*
X51767320Y-144221202D01*
X51767320Y-144221197D01*
X51762007Y-144123205D01*
X52608459Y-144123205D01*
X52628985Y-144370929D01*
X52628987Y-144370938D01*
X52690012Y-144611917D01*
X52789866Y-144839564D01*
X52890164Y-144993082D01*
X53630523Y-144252723D01*
X53654107Y-144333044D01*
X53731839Y-144453998D01*
X53840500Y-144548152D01*
X53971285Y-144607880D01*
X53981066Y-144609286D01*
X53243542Y-145346809D01*
X53290368Y-145383255D01*
X53290370Y-145383256D01*
X53508985Y-145501564D01*
X53508996Y-145501569D01*
X53744106Y-145582283D01*
X53989307Y-145623200D01*
X54237893Y-145623200D01*
X54483093Y-145582283D01*
X54718203Y-145501569D01*
X54718214Y-145501564D01*
X54936828Y-145383257D01*
X54936831Y-145383255D01*
X54983656Y-145346809D01*
X54246133Y-144609286D01*
X54255915Y-144607880D01*
X54386700Y-144548152D01*
X54495361Y-144453998D01*
X54573093Y-144333044D01*
X54596676Y-144252724D01*
X55337034Y-144993082D01*
X55437331Y-144839569D01*
X55537187Y-144611917D01*
X55598212Y-144370938D01*
X55598214Y-144370929D01*
X55618741Y-144123205D01*
X55618741Y-144123194D01*
X55598214Y-143875470D01*
X55598212Y-143875461D01*
X55537187Y-143634482D01*
X55437331Y-143406830D01*
X55337034Y-143253316D01*
X54596676Y-143993675D01*
X54573093Y-143913356D01*
X54495361Y-143792402D01*
X54386700Y-143698248D01*
X54255915Y-143638520D01*
X54246134Y-143637113D01*
X54983657Y-142899590D01*
X54983656Y-142899589D01*
X54936829Y-142863143D01*
X54718214Y-142744835D01*
X54718203Y-142744830D01*
X54573066Y-142695004D01*
X99066893Y-142695004D01*
X99086588Y-142957823D01*
X99144786Y-143212806D01*
X99145237Y-143214780D01*
X99241528Y-143460124D01*
X99373309Y-143688376D01*
X99456267Y-143792402D01*
X99537641Y-143894442D01*
X99651057Y-143999676D01*
X99730843Y-144073706D01*
X99948609Y-144222176D01*
X100186070Y-144336532D01*
X100437924Y-144414218D01*
X100437925Y-144414218D01*
X100437928Y-144414219D01*
X100698535Y-144453499D01*
X100698540Y-144453499D01*
X100698543Y-144453500D01*
X100698544Y-144453500D01*
X100962104Y-144453500D01*
X100962105Y-144453500D01*
X100962112Y-144453499D01*
X101222719Y-144414219D01*
X101222720Y-144414218D01*
X101222724Y-144414218D01*
X101474578Y-144336532D01*
X101712040Y-144222176D01*
X101929805Y-144073706D01*
X102123010Y-143894438D01*
X102287339Y-143688376D01*
X102419120Y-143460124D01*
X102515411Y-143214780D01*
X102574059Y-142957826D01*
X102588135Y-142769995D01*
X102593755Y-142695004D01*
X102593755Y-142694995D01*
X102593006Y-142685004D01*
X108595417Y-142685004D01*
X108615016Y-142946545D01*
X108615017Y-142946550D01*
X108673382Y-143202270D01*
X108769207Y-143446426D01*
X108769206Y-143446426D01*
X108900351Y-143673573D01*
X108948198Y-143733571D01*
X109710183Y-142971586D01*
X109770004Y-143085566D01*
X109882729Y-143212806D01*
X110022629Y-143309371D01*
X110063865Y-143325010D01*
X109301154Y-144087720D01*
X109472870Y-144204793D01*
X109472874Y-144204795D01*
X109709178Y-144318594D01*
X109709182Y-144318595D01*
X109959818Y-144395907D01*
X109959824Y-144395909D01*
X110219172Y-144434999D01*
X110219181Y-144435000D01*
X110481467Y-144435000D01*
X110481475Y-144434999D01*
X110740823Y-144395909D01*
X110740829Y-144395907D01*
X110991467Y-144318595D01*
X111227769Y-144204798D01*
X111227771Y-144204797D01*
X111399492Y-144087720D01*
X110636781Y-143325010D01*
X110678019Y-143309371D01*
X110817919Y-143212806D01*
X110930644Y-143085566D01*
X110990464Y-142971587D01*
X111752449Y-143733572D01*
X111800295Y-143673573D01*
X111931440Y-143446426D01*
X112027265Y-143202270D01*
X112085630Y-142946550D01*
X112085631Y-142946545D01*
X112105231Y-142685004D01*
X112105231Y-142684995D01*
X112085631Y-142423454D01*
X112085630Y-142423449D01*
X112027265Y-142167729D01*
X111931440Y-141923573D01*
X111931441Y-141923573D01*
X111800296Y-141696426D01*
X111752448Y-141636427D01*
X110990463Y-142398412D01*
X110930644Y-142284434D01*
X110817919Y-142157194D01*
X110678019Y-142060629D01*
X110636781Y-142044989D01*
X111399492Y-141282278D01*
X111227778Y-141165206D01*
X111227769Y-141165201D01*
X110991466Y-141051404D01*
X110991468Y-141051404D01*
X110740829Y-140974092D01*
X110740823Y-140974090D01*
X110481475Y-140935000D01*
X110219172Y-140935000D01*
X109959824Y-140974090D01*
X109959818Y-140974092D01*
X109709182Y-141051404D01*
X109709178Y-141051405D01*
X109472871Y-141165205D01*
X109472863Y-141165210D01*
X109301154Y-141282277D01*
X110063866Y-142044989D01*
X110022629Y-142060629D01*
X109882729Y-142157194D01*
X109770004Y-142284434D01*
X109710184Y-142398412D01*
X108948199Y-141636427D01*
X108948198Y-141636427D01*
X108900352Y-141696425D01*
X108769207Y-141923573D01*
X108673382Y-142167729D01*
X108615017Y-142423449D01*
X108615016Y-142423454D01*
X108595417Y-142684995D01*
X108595417Y-142685004D01*
X102593006Y-142685004D01*
X102578508Y-142491548D01*
X102574059Y-142432174D01*
X102515411Y-142175220D01*
X102469138Y-142057322D01*
X102462970Y-141987727D01*
X102495407Y-141925844D01*
X102496826Y-141924400D01*
X110444809Y-133976419D01*
X110506132Y-133942934D01*
X110532490Y-133940100D01*
X112355800Y-133940100D01*
X112422839Y-133959785D01*
X112461337Y-133999001D01*
X112542294Y-134130252D01*
X112667672Y-134255630D01*
X112818586Y-134348715D01*
X112986898Y-134404487D01*
X113090779Y-134415100D01*
X114091868Y-134415099D01*
X114195750Y-134404487D01*
X114364062Y-134348715D01*
X114514976Y-134255630D01*
X114640354Y-134130252D01*
X114733439Y-133979338D01*
X114789211Y-133811026D01*
X114799824Y-133707145D01*
X114799823Y-132906056D01*
X114789211Y-132802174D01*
X114733439Y-132633862D01*
X114640354Y-132482948D01*
X114551687Y-132394281D01*
X114518202Y-132332958D01*
X114523186Y-132263266D01*
X114551687Y-132218919D01*
X114593145Y-132177461D01*
X114640354Y-132130252D01*
X114733439Y-131979338D01*
X114789211Y-131811026D01*
X114799824Y-131707145D01*
X114799823Y-130906056D01*
X114789211Y-130802174D01*
X114733439Y-130633862D01*
X114640354Y-130482948D01*
X114514976Y-130357570D01*
X114364062Y-130264485D01*
X114364059Y-130264484D01*
X114195751Y-130208713D01*
X114091876Y-130198100D01*
X114091869Y-130198100D01*
X113430091Y-130198100D01*
X113363052Y-130178415D01*
X113342410Y-130161781D01*
X113226509Y-130045880D01*
X113193024Y-129984557D01*
X113198008Y-129914865D01*
X113239880Y-129858932D01*
X113305344Y-129834515D01*
X113314190Y-129834199D01*
X113341323Y-129834199D01*
X113341324Y-129834198D01*
X113341324Y-128996700D01*
X113841324Y-128996700D01*
X113841324Y-129834199D01*
X114116296Y-129834199D01*
X114116310Y-129834198D01*
X114219021Y-129823705D01*
X114385443Y-129768558D01*
X114385448Y-129768556D01*
X114534669Y-129676515D01*
X114658639Y-129552545D01*
X114750680Y-129403324D01*
X114750682Y-129403319D01*
X114805829Y-129236897D01*
X114805830Y-129236890D01*
X114816323Y-129134186D01*
X114816324Y-129134173D01*
X114816324Y-128996700D01*
X113841324Y-128996700D01*
X113341324Y-128996700D01*
X112366325Y-128996700D01*
X112359508Y-129003517D01*
X112298185Y-129037002D01*
X112228493Y-129032018D01*
X112184146Y-129003517D01*
X111680282Y-128499653D01*
X111646797Y-128438330D01*
X111651781Y-128368638D01*
X111693653Y-128312705D01*
X111698470Y-128309275D01*
X111700292Y-128308042D01*
X111700291Y-128308042D01*
X111700295Y-128308040D01*
X111853364Y-128154971D01*
X111974698Y-127975700D01*
X112050633Y-127798376D01*
X112059912Y-127776708D01*
X112059912Y-127776706D01*
X112059913Y-127776705D01*
X112076854Y-127698827D01*
X112084182Y-127665143D01*
X112117666Y-127603819D01*
X112178989Y-127570334D01*
X112205348Y-127567500D01*
X112550580Y-127567500D01*
X112617619Y-127587185D01*
X112638261Y-127603819D01*
X112642672Y-127608230D01*
X112643355Y-127608651D01*
X112643725Y-127609063D01*
X112648339Y-127612711D01*
X112647715Y-127613498D01*
X112690083Y-127660597D01*
X112701308Y-127729559D01*
X112673468Y-127793642D01*
X112652906Y-127811464D01*
X112653647Y-127812402D01*
X112647979Y-127816883D01*
X112524008Y-127940854D01*
X112431967Y-128090075D01*
X112431965Y-128090080D01*
X112376818Y-128256502D01*
X112376817Y-128256509D01*
X112366324Y-128359213D01*
X112366324Y-128496700D01*
X114816323Y-128496700D01*
X114816323Y-128359228D01*
X114816322Y-128359213D01*
X114805829Y-128256502D01*
X114750682Y-128090080D01*
X114750680Y-128090075D01*
X114658639Y-127940854D01*
X114534668Y-127816883D01*
X114529001Y-127812402D01*
X114530728Y-127810216D01*
X114492564Y-127767789D01*
X114481339Y-127698827D01*
X114509179Y-127634743D01*
X114534430Y-127612864D01*
X114534309Y-127612711D01*
X114537725Y-127610009D01*
X114539293Y-127608651D01*
X114539976Y-127608230D01*
X114665354Y-127482852D01*
X114758439Y-127331938D01*
X114814211Y-127163626D01*
X114824824Y-127059745D01*
X114824823Y-126283656D01*
X114814211Y-126179774D01*
X114758439Y-126011462D01*
X114665354Y-125860548D01*
X114595086Y-125790280D01*
X114561602Y-125728956D01*
X114566587Y-125659265D01*
X114595083Y-125614922D01*
X114716154Y-125493852D01*
X114809239Y-125342938D01*
X114865011Y-125174626D01*
X114875624Y-125070745D01*
X114875623Y-124294656D01*
X114865011Y-124190774D01*
X114809239Y-124022462D01*
X114716154Y-123871548D01*
X114590776Y-123746170D01*
X114590775Y-123746169D01*
X114590087Y-123745745D01*
X114589714Y-123745330D01*
X114585109Y-123741689D01*
X114585731Y-123740902D01*
X114543362Y-123693798D01*
X114532139Y-123624835D01*
X114559982Y-123560753D01*
X114580547Y-123542942D01*
X114579801Y-123541998D01*
X114585468Y-123537516D01*
X114709439Y-123413545D01*
X114801480Y-123264324D01*
X114801482Y-123264319D01*
X114856629Y-123097897D01*
X114856630Y-123097890D01*
X114867123Y-122995186D01*
X114867124Y-122995173D01*
X114867124Y-122857700D01*
X112417125Y-122857700D01*
X112417125Y-122995186D01*
X112427618Y-123097897D01*
X112482765Y-123264319D01*
X112482767Y-123264324D01*
X112574808Y-123413545D01*
X112698779Y-123537516D01*
X112704447Y-123541998D01*
X112702716Y-123544186D01*
X112740873Y-123586590D01*
X112752111Y-123655550D01*
X112724282Y-123719638D01*
X112699018Y-123741536D01*
X112699139Y-123741689D01*
X112695751Y-123744367D01*
X112694167Y-123745741D01*
X112693474Y-123746168D01*
X112693471Y-123746170D01*
X112568095Y-123871546D01*
X112475010Y-124022459D01*
X112475008Y-124022464D01*
X112419237Y-124190772D01*
X112408624Y-124294647D01*
X112408624Y-125070737D01*
X112408625Y-125070753D01*
X112419237Y-125174627D01*
X112445240Y-125253099D01*
X112475009Y-125342938D01*
X112526422Y-125426292D01*
X112568095Y-125493853D01*
X112638361Y-125564119D01*
X112671846Y-125625442D01*
X112666862Y-125695134D01*
X112638361Y-125739481D01*
X112517295Y-125860546D01*
X112517294Y-125860548D01*
X112441395Y-125983598D01*
X112389449Y-126030321D01*
X112335858Y-126042500D01*
X112205348Y-126042500D01*
X112138309Y-126022815D01*
X112092554Y-125970011D01*
X112084182Y-125944857D01*
X112059914Y-125833299D01*
X112059912Y-125833291D01*
X111974700Y-125634305D01*
X111974698Y-125634300D01*
X111853364Y-125455029D01*
X111700295Y-125301960D01*
X111521024Y-125180626D01*
X111521022Y-125180625D01*
X111521019Y-125180623D01*
X111322030Y-125095411D01*
X111322018Y-125095408D01*
X111210466Y-125071141D01*
X111149143Y-125037656D01*
X111115658Y-124976333D01*
X111112824Y-124949975D01*
X111112824Y-123196849D01*
X111132509Y-123129810D01*
X111185313Y-123084055D01*
X111189375Y-123082287D01*
X111193646Y-123080518D01*
X111215563Y-123071440D01*
X111418016Y-122947376D01*
X111598569Y-122793169D01*
X111752776Y-122612616D01*
X111876840Y-122410163D01*
X111898571Y-122357700D01*
X112417124Y-122357700D01*
X113392124Y-122357700D01*
X113392124Y-121520200D01*
X113892124Y-121520200D01*
X113892124Y-122357700D01*
X114867123Y-122357700D01*
X114867123Y-122220228D01*
X114867122Y-122220213D01*
X114856629Y-122117502D01*
X114801482Y-121951080D01*
X114801480Y-121951075D01*
X114709439Y-121801854D01*
X114585469Y-121677884D01*
X114436248Y-121585843D01*
X114436243Y-121585841D01*
X114269821Y-121530694D01*
X114269814Y-121530693D01*
X114167110Y-121520200D01*
X113892124Y-121520200D01*
X113392124Y-121520200D01*
X113117153Y-121520200D01*
X113117136Y-121520201D01*
X113014426Y-121530694D01*
X112848004Y-121585841D01*
X112847999Y-121585843D01*
X112698778Y-121677884D01*
X112574808Y-121801854D01*
X112482767Y-121951075D01*
X112482765Y-121951080D01*
X112427618Y-122117502D01*
X112427617Y-122117509D01*
X112417124Y-122220213D01*
X112417124Y-122357700D01*
X111898571Y-122357700D01*
X111924154Y-122295938D01*
X111967704Y-122190797D01*
X111967704Y-122190796D01*
X111967705Y-122190794D01*
X112023135Y-121959911D01*
X112041765Y-121723200D01*
X112023135Y-121486489D01*
X111967705Y-121255606D01*
X111967704Y-121255603D01*
X111967704Y-121255602D01*
X111876842Y-121036240D01*
X111876840Y-121036237D01*
X111793410Y-120900093D01*
X111752778Y-120833788D01*
X111752778Y-120833786D01*
X111685506Y-120755021D01*
X111598569Y-120653231D01*
X111458111Y-120533268D01*
X111418013Y-120499021D01*
X111418010Y-120499020D01*
X111215562Y-120374959D01*
X111215559Y-120374957D01*
X110996196Y-120284095D01*
X110765314Y-120228665D01*
X110528600Y-120210035D01*
X110291889Y-120228665D01*
X110291885Y-120228665D01*
X110291884Y-120228666D01*
X110214674Y-120247202D01*
X110144892Y-120243711D01*
X110098047Y-120214309D01*
X104594782Y-114711044D01*
X113513600Y-114711044D01*
X113520001Y-114770572D01*
X113520003Y-114770579D01*
X113570245Y-114905286D01*
X113570249Y-114905293D01*
X113656409Y-115020387D01*
X113656412Y-115020390D01*
X113771506Y-115106550D01*
X113771513Y-115106554D01*
X113906220Y-115156796D01*
X113906227Y-115156798D01*
X113965755Y-115163199D01*
X113965772Y-115163200D01*
X115263600Y-115163200D01*
X115263600Y-113885002D01*
X115424769Y-113923200D01*
X115557867Y-113923200D01*
X115690061Y-113907749D01*
X115763600Y-113880982D01*
X115763600Y-115163200D01*
X117061428Y-115163200D01*
X117061444Y-115163199D01*
X117120972Y-115156798D01*
X117120979Y-115156796D01*
X117255686Y-115106554D01*
X117255693Y-115106550D01*
X117370787Y-115020390D01*
X117370790Y-115020387D01*
X117456950Y-114905293D01*
X117456954Y-114905286D01*
X117507196Y-114770579D01*
X117507198Y-114770572D01*
X117513599Y-114711044D01*
X117513600Y-114711027D01*
X117513600Y-113413200D01*
X116232083Y-113413200D01*
X116267149Y-113296071D01*
X116277479Y-113118709D01*
X116246629Y-112943746D01*
X116233453Y-112913200D01*
X117513600Y-112913200D01*
X117513600Y-111615372D01*
X117513599Y-111615355D01*
X117507198Y-111555827D01*
X117507196Y-111555820D01*
X117456954Y-111421113D01*
X117456950Y-111421106D01*
X117370790Y-111306012D01*
X117370787Y-111306009D01*
X117255693Y-111219849D01*
X117255686Y-111219845D01*
X117120979Y-111169603D01*
X117120972Y-111169601D01*
X117061444Y-111163200D01*
X115763600Y-111163200D01*
X115763600Y-112441397D01*
X115602431Y-112403200D01*
X115469333Y-112403200D01*
X115337139Y-112418651D01*
X115263600Y-112445417D01*
X115263600Y-111163200D01*
X113965755Y-111163200D01*
X113906227Y-111169601D01*
X113906220Y-111169603D01*
X113771513Y-111219845D01*
X113771506Y-111219849D01*
X113656412Y-111306009D01*
X113656409Y-111306012D01*
X113570249Y-111421106D01*
X113570245Y-111421113D01*
X113520003Y-111555820D01*
X113520001Y-111555827D01*
X113513600Y-111615355D01*
X113513600Y-112913200D01*
X114795117Y-112913200D01*
X114760051Y-113030329D01*
X114749721Y-113207691D01*
X114780571Y-113382654D01*
X114793747Y-113413200D01*
X113513600Y-113413200D01*
X113513600Y-114711044D01*
X104594782Y-114711044D01*
X103781961Y-113898223D01*
X103748476Y-113836900D01*
X103753460Y-113767208D01*
X103755047Y-113763171D01*
X103785028Y-113690794D01*
X103840458Y-113459911D01*
X103859088Y-113223200D01*
X103840458Y-112986489D01*
X103785028Y-112755606D01*
X103785027Y-112755603D01*
X103785027Y-112755602D01*
X103694165Y-112536240D01*
X103694163Y-112536237D01*
X103570102Y-112333789D01*
X103570101Y-112333786D01*
X103494251Y-112244978D01*
X103415892Y-112153231D01*
X103236001Y-111999589D01*
X103235336Y-111999021D01*
X103235333Y-111999020D01*
X103032885Y-111874959D01*
X103032882Y-111874957D01*
X102813519Y-111784095D01*
X102582637Y-111728665D01*
X102345923Y-111710035D01*
X102109208Y-111728665D01*
X101878327Y-111784095D01*
X101878325Y-111784095D01*
X101658963Y-111874957D01*
X101658960Y-111874959D01*
X101456512Y-111999020D01*
X101456509Y-111999021D01*
X101275954Y-112153231D01*
X101121744Y-112333786D01*
X101121743Y-112333789D01*
X100997682Y-112536237D01*
X100997680Y-112536240D01*
X100906818Y-112755602D01*
X100906818Y-112755604D01*
X100851388Y-112986485D01*
X100832758Y-113223200D01*
X100851388Y-113459914D01*
X100906818Y-113690795D01*
X100906818Y-113690797D01*
X100997680Y-113910159D01*
X100997682Y-113910162D01*
X101121743Y-114112610D01*
X101121744Y-114112613D01*
X101121747Y-114112616D01*
X101275954Y-114293169D01*
X101415720Y-114412540D01*
X101456509Y-114447378D01*
X101456512Y-114447379D01*
X101658960Y-114571440D01*
X101658963Y-114571442D01*
X101878326Y-114662304D01*
X101878327Y-114662304D01*
X101878329Y-114662305D01*
X102109212Y-114717735D01*
X102345923Y-114736365D01*
X102397866Y-114732276D01*
X102466242Y-114746639D01*
X102495276Y-114768213D01*
X109019709Y-121292647D01*
X109053194Y-121353970D01*
X109052602Y-121409274D01*
X109035455Y-121480700D01*
X109034065Y-121486489D01*
X109019548Y-121670938D01*
X109015435Y-121723200D01*
X109034065Y-121959914D01*
X109089495Y-122190795D01*
X109089495Y-122190797D01*
X109180357Y-122410159D01*
X109180359Y-122410162D01*
X109304420Y-122612610D01*
X109304421Y-122612613D01*
X109453093Y-122786685D01*
X109458631Y-122793169D01*
X109544356Y-122866385D01*
X109582549Y-122924890D01*
X109587824Y-122960674D01*
X109587824Y-124949975D01*
X109568139Y-125017014D01*
X109515335Y-125062769D01*
X109490182Y-125071141D01*
X109378629Y-125095408D01*
X109378617Y-125095411D01*
X109179628Y-125180623D01*
X109000355Y-125301958D01*
X109000350Y-125301962D01*
X108847286Y-125455026D01*
X108847282Y-125455031D01*
X108725947Y-125634304D01*
X108640735Y-125833293D01*
X108640732Y-125833304D01*
X108594722Y-126044814D01*
X108594721Y-126044820D01*
X108591824Y-126093450D01*
X108591824Y-127516550D01*
X108594721Y-127565180D01*
X108594721Y-127565184D01*
X108594722Y-127565185D01*
X108640732Y-127776695D01*
X108640735Y-127776706D01*
X108725947Y-127975695D01*
X108725949Y-127975698D01*
X108725950Y-127975700D01*
X108847284Y-128154971D01*
X109000353Y-128308040D01*
X109179624Y-128429374D01*
X109179626Y-128429375D01*
X109179628Y-128429376D01*
X109309497Y-128484989D01*
X109378619Y-128514589D01*
X109590144Y-128560603D01*
X109638774Y-128563500D01*
X109900958Y-128563500D01*
X109967997Y-128583185D01*
X109988639Y-128599819D01*
X112346505Y-130957685D01*
X112379990Y-131019008D01*
X112382824Y-131045366D01*
X112382824Y-131707137D01*
X112382825Y-131707153D01*
X112393437Y-131811027D01*
X112443337Y-131961617D01*
X112449209Y-131979338D01*
X112539315Y-132125423D01*
X112542295Y-132130253D01*
X112630961Y-132218919D01*
X112664446Y-132280242D01*
X112659462Y-132349934D01*
X112630961Y-132394281D01*
X112542295Y-132482946D01*
X112542294Y-132482948D01*
X112480068Y-132583833D01*
X112461339Y-132614197D01*
X112409391Y-132660922D01*
X112355800Y-132673100D01*
X110302356Y-132673100D01*
X110286604Y-132671360D01*
X110286579Y-132671632D01*
X110278817Y-132670898D01*
X110278816Y-132670898D01*
X110255462Y-132671632D01*
X110210694Y-132673039D01*
X110206799Y-132673100D01*
X110178868Y-132673100D01*
X110178865Y-132673100D01*
X110178849Y-132673101D01*
X110174756Y-132673618D01*
X110163128Y-132674533D01*
X110118834Y-132675925D01*
X110118833Y-132675926D01*
X110099220Y-132681623D01*
X110080183Y-132685565D01*
X110059932Y-132688124D01*
X110059926Y-132688126D01*
X110018738Y-132704432D01*
X110007695Y-132708213D01*
X109965129Y-132720581D01*
X109965125Y-132720583D01*
X109947551Y-132730976D01*
X109930086Y-132739532D01*
X109911111Y-132747045D01*
X109911109Y-132747046D01*
X109875263Y-132773089D01*
X109865504Y-132779499D01*
X109827359Y-132802059D01*
X109812924Y-132816494D01*
X109798136Y-132829125D01*
X109781618Y-132841126D01*
X109781612Y-132841133D01*
X109753366Y-132875274D01*
X109745507Y-132883911D01*
X101604786Y-141024631D01*
X101543463Y-141058116D01*
X101479412Y-141053535D01*
X101479012Y-141054835D01*
X101222729Y-140975783D01*
X101222719Y-140975780D01*
X100962112Y-140936500D01*
X100962105Y-140936500D01*
X100698543Y-140936500D01*
X100698535Y-140936500D01*
X100437928Y-140975780D01*
X100437922Y-140975782D01*
X100186069Y-141053468D01*
X99948612Y-141167822D01*
X99948608Y-141167824D01*
X99730845Y-141316292D01*
X99537641Y-141495557D01*
X99373309Y-141701624D01*
X99241528Y-141929875D01*
X99148177Y-142167729D01*
X99145238Y-142175219D01*
X99145234Y-142175231D01*
X99086588Y-142432176D01*
X99066893Y-142694995D01*
X99066893Y-142695004D01*
X54573066Y-142695004D01*
X54483093Y-142664116D01*
X54237893Y-142623200D01*
X53989307Y-142623200D01*
X53744106Y-142664116D01*
X53508996Y-142744830D01*
X53508990Y-142744832D01*
X53290361Y-142863149D01*
X53243542Y-142899588D01*
X53243542Y-142899590D01*
X53981066Y-143637113D01*
X53971285Y-143638520D01*
X53840500Y-143698248D01*
X53731839Y-143792402D01*
X53654107Y-143913356D01*
X53630523Y-143993675D01*
X52890164Y-143253316D01*
X52789867Y-143406832D01*
X52690012Y-143634482D01*
X52628987Y-143875461D01*
X52628985Y-143875470D01*
X52608459Y-144123194D01*
X52608459Y-144123205D01*
X51762007Y-144123205D01*
X51747653Y-143858471D01*
X51688882Y-143499985D01*
X51688880Y-143499977D01*
X51591704Y-143149979D01*
X51591702Y-143149972D01*
X51457247Y-142812515D01*
X51457238Y-142812497D01*
X51287083Y-142491552D01*
X51287081Y-142491548D01*
X51083229Y-142190890D01*
X51083222Y-142190880D01*
X50951429Y-142035723D01*
X50951428Y-142035723D01*
X49710132Y-143277018D01*
X49547270Y-143086330D01*
X49356580Y-142923466D01*
X50600510Y-141679536D01*
X50600510Y-141679534D01*
X50584329Y-141664207D01*
X50584328Y-141664206D01*
X50295133Y-141444367D01*
X50295117Y-141444356D01*
X49983877Y-141257090D01*
X49983864Y-141257083D01*
X49654194Y-141104560D01*
X49654189Y-141104559D01*
X49309938Y-140988567D01*
X48955164Y-140910475D01*
X48594033Y-140871200D01*
X48230766Y-140871200D01*
X47869635Y-140910475D01*
X47514861Y-140988567D01*
X47170610Y-141104559D01*
X47170605Y-141104560D01*
X46840935Y-141257083D01*
X46840922Y-141257090D01*
X46529682Y-141444356D01*
X46529666Y-141444367D01*
X46240475Y-141664202D01*
X46224288Y-141679535D01*
X46224287Y-141679535D01*
X47468219Y-142923466D01*
X47277530Y-143086330D01*
X47114666Y-143277018D01*
X45873370Y-142035722D01*
X45873369Y-142035723D01*
X45741577Y-142190880D01*
X45741576Y-142190882D01*
X45536964Y-142492660D01*
X45483050Y-142537101D01*
X45413667Y-142545338D01*
X45350845Y-142514757D01*
X45314530Y-142455067D01*
X45310332Y-142423173D01*
X45306461Y-137184133D01*
X54401418Y-137184133D01*
X54430776Y-137425921D01*
X54498537Y-137659856D01*
X54498538Y-137659859D01*
X54602951Y-137879907D01*
X54741307Y-138080348D01*
X54741308Y-138080349D01*
X54910022Y-138256000D01*
X55104729Y-138402313D01*
X55104731Y-138402314D01*
X55104735Y-138402317D01*
X55217034Y-138461256D01*
X55320392Y-138515503D01*
X55320394Y-138515503D01*
X55320395Y-138515504D01*
X55417858Y-138548042D01*
X55551417Y-138592631D01*
X55791818Y-138631700D01*
X55791821Y-138631700D01*
X58174387Y-138631700D01*
X58174397Y-138631700D01*
X58356368Y-138617010D01*
X58592848Y-138558723D01*
X58745694Y-138493601D01*
X58816907Y-138463260D01*
X58816907Y-138463259D01*
X58816916Y-138463256D01*
X59022768Y-138333083D01*
X59205074Y-138171575D01*
X59304949Y-138049250D01*
X61623951Y-138049250D01*
X61623951Y-138186736D01*
X61634444Y-138289447D01*
X61689591Y-138455869D01*
X61689593Y-138455874D01*
X61781634Y-138605095D01*
X61905604Y-138729065D01*
X62054825Y-138821106D01*
X62054830Y-138821108D01*
X62221252Y-138876255D01*
X62221259Y-138876256D01*
X62323969Y-138886749D01*
X62598949Y-138886749D01*
X63098950Y-138886749D01*
X63373922Y-138886749D01*
X63373936Y-138886748D01*
X63476647Y-138876255D01*
X63643069Y-138821108D01*
X63643074Y-138821106D01*
X63792295Y-138729065D01*
X63916265Y-138605095D01*
X63922636Y-138594767D01*
X63974583Y-138548042D01*
X64043545Y-138536818D01*
X64107628Y-138564660D01*
X64125442Y-138582951D01*
X64128283Y-138586544D01*
X64252254Y-138710515D01*
X64401475Y-138802556D01*
X64401480Y-138802558D01*
X64567902Y-138857705D01*
X64567909Y-138857706D01*
X64670619Y-138868199D01*
X64920599Y-138868199D01*
X65420600Y-138868199D01*
X65670572Y-138868199D01*
X65670586Y-138868198D01*
X65773297Y-138857705D01*
X65939719Y-138802558D01*
X65939724Y-138802556D01*
X66088945Y-138710515D01*
X66212910Y-138586550D01*
X66215407Y-138583393D01*
X66217671Y-138581789D01*
X66218024Y-138581437D01*
X66218084Y-138581497D01*
X66272428Y-138543014D01*
X66342227Y-138539872D01*
X66400358Y-138572619D01*
X66512854Y-138685115D01*
X66662075Y-138777156D01*
X66662080Y-138777158D01*
X66828502Y-138832305D01*
X66828509Y-138832306D01*
X66931219Y-138842799D01*
X67181199Y-138842799D01*
X67181200Y-138842798D01*
X67181200Y-137992800D01*
X67681200Y-137992800D01*
X67681200Y-138842799D01*
X67931172Y-138842799D01*
X67931186Y-138842798D01*
X68033897Y-138832305D01*
X68200319Y-138777158D01*
X68200324Y-138777156D01*
X68349545Y-138685115D01*
X68473515Y-138561145D01*
X68565556Y-138411924D01*
X68565558Y-138411919D01*
X68620705Y-138245497D01*
X68620706Y-138245490D01*
X68631199Y-138142786D01*
X68631200Y-138142773D01*
X68631200Y-137992800D01*
X67681200Y-137992800D01*
X67181200Y-137992800D01*
X66404522Y-137992800D01*
X66363196Y-138015366D01*
X66336838Y-138018200D01*
X65420600Y-138018200D01*
X65420600Y-138868199D01*
X64920599Y-138868199D01*
X64920600Y-138868198D01*
X64920600Y-138018200D01*
X64112570Y-138018200D01*
X64060896Y-138046416D01*
X64034538Y-138049250D01*
X63098950Y-138049250D01*
X63098950Y-138886749D01*
X62598949Y-138886749D01*
X62598950Y-138886748D01*
X62598950Y-138049250D01*
X61623951Y-138049250D01*
X59304949Y-138049250D01*
X59359110Y-137982914D01*
X59480889Y-137771987D01*
X59567256Y-137544257D01*
X59615974Y-137305621D01*
X59621356Y-137172079D01*
X59625781Y-137062267D01*
X59625781Y-137062261D01*
X59596423Y-136820478D01*
X59550286Y-136661197D01*
X59528661Y-136586538D01*
X59424250Y-136366496D01*
X59424249Y-136366495D01*
X59424248Y-136366492D01*
X59285892Y-136166051D01*
X59285891Y-136166050D01*
X59117177Y-135990399D01*
X58922470Y-135844086D01*
X58922466Y-135844083D01*
X58922465Y-135844083D01*
X58895646Y-135830007D01*
X58706807Y-135730896D01*
X58706803Y-135730895D01*
X58475782Y-135653768D01*
X58235382Y-135614700D01*
X58235379Y-135614700D01*
X55852803Y-135614700D01*
X55852793Y-135614700D01*
X55670832Y-135629389D01*
X55434349Y-135687677D01*
X55210292Y-135783139D01*
X55210284Y-135783143D01*
X55210284Y-135783144D01*
X55004432Y-135913317D01*
X54822126Y-136074825D01*
X54822124Y-136074826D01*
X54822122Y-136074829D01*
X54668089Y-136263485D01*
X54668087Y-136263489D01*
X54546315Y-136474403D01*
X54546310Y-136474413D01*
X54459945Y-136702138D01*
X54411226Y-136940774D01*
X54411225Y-136940782D01*
X54401418Y-137184132D01*
X54401418Y-137184133D01*
X45306461Y-137184133D01*
X45303728Y-133485254D01*
X52113600Y-133485254D01*
X52128985Y-133670930D01*
X52128987Y-133670938D01*
X52190012Y-133911917D01*
X52289867Y-134139567D01*
X52425832Y-134347678D01*
X52594192Y-134530564D01*
X52594202Y-134530573D01*
X52790362Y-134683251D01*
X52790371Y-134683257D01*
X53008985Y-134801564D01*
X53008996Y-134801569D01*
X53244107Y-134882283D01*
X53363599Y-134902223D01*
X53363600Y-134902222D01*
X53363600Y-133856886D01*
X53403756Y-133882693D01*
X53541711Y-133923200D01*
X53685489Y-133923200D01*
X53823444Y-133882693D01*
X53863600Y-133856886D01*
X53863600Y-134902223D01*
X53983092Y-134882283D01*
X54218203Y-134801569D01*
X54218214Y-134801564D01*
X54436828Y-134683257D01*
X54436837Y-134683251D01*
X54632997Y-134530573D01*
X54633007Y-134530564D01*
X54801367Y-134347678D01*
X54937332Y-134139567D01*
X55037187Y-133911917D01*
X55098212Y-133670938D01*
X55098214Y-133670930D01*
X55113599Y-133485254D01*
X55113600Y-133485239D01*
X55113600Y-132573200D01*
X54113600Y-132573200D01*
X54113600Y-132073200D01*
X55113600Y-132073200D01*
X55113600Y-131161161D01*
X55113599Y-131161145D01*
X55098214Y-130975469D01*
X55098212Y-130975461D01*
X55037187Y-130734482D01*
X54937332Y-130506832D01*
X54801367Y-130298721D01*
X54633007Y-130115835D01*
X54632997Y-130115826D01*
X54436837Y-129963148D01*
X54436828Y-129963142D01*
X54218214Y-129844835D01*
X54218203Y-129844830D01*
X53983092Y-129764116D01*
X53863600Y-129744176D01*
X53863600Y-130789513D01*
X53823444Y-130763707D01*
X53685489Y-130723200D01*
X53541711Y-130723200D01*
X53403756Y-130763707D01*
X53363600Y-130789513D01*
X53363600Y-129744176D01*
X53363599Y-129744176D01*
X53244107Y-129764116D01*
X53008996Y-129844830D01*
X53008985Y-129844835D01*
X52790371Y-129963142D01*
X52790362Y-129963148D01*
X52594202Y-130115826D01*
X52594192Y-130115835D01*
X52425832Y-130298721D01*
X52289867Y-130506832D01*
X52190012Y-130734482D01*
X52128987Y-130975461D01*
X52128985Y-130975469D01*
X52113600Y-131161145D01*
X52113600Y-132073200D01*
X53113600Y-132073200D01*
X53113600Y-132573200D01*
X52113600Y-132573200D01*
X52113600Y-133485254D01*
X45303728Y-133485254D01*
X45302831Y-132270601D01*
X48809346Y-132270601D01*
X48819345Y-132480527D01*
X48868896Y-132684778D01*
X48868898Y-132684782D01*
X48956198Y-132875943D01*
X48956201Y-132875948D01*
X48956202Y-132875950D01*
X48956204Y-132875953D01*
X49042926Y-132997737D01*
X49078115Y-133047153D01*
X49078120Y-133047159D01*
X49230220Y-133192185D01*
X49325178Y-133253211D01*
X49407028Y-133305813D01*
X49602143Y-133383925D01*
X49705329Y-133403812D01*
X49808514Y-133423700D01*
X49808515Y-133423700D01*
X49966019Y-133423700D01*
X49966025Y-133423700D01*
X50122818Y-133408728D01*
X50324475Y-133349516D01*
X50511282Y-133253211D01*
X50676486Y-133123292D01*
X50814119Y-132964456D01*
X50827669Y-132940988D01*
X50907880Y-132802058D01*
X50919204Y-132782444D01*
X50987944Y-132583833D01*
X51017854Y-132375802D01*
X51007854Y-132165870D01*
X50958304Y-131961624D01*
X50935713Y-131912156D01*
X50871001Y-131770456D01*
X50870998Y-131770451D01*
X50870997Y-131770450D01*
X50870996Y-131770447D01*
X50749086Y-131599248D01*
X50749084Y-131599246D01*
X50749079Y-131599240D01*
X50596979Y-131454214D01*
X50420174Y-131340588D01*
X50419954Y-131340500D01*
X50225057Y-131262475D01*
X50225055Y-131262474D01*
X50018686Y-131222700D01*
X50018685Y-131222700D01*
X49861175Y-131222700D01*
X49704382Y-131237672D01*
X49704378Y-131237673D01*
X49502727Y-131296883D01*
X49315913Y-131393191D01*
X49150716Y-131523105D01*
X49150712Y-131523109D01*
X49013078Y-131681946D01*
X48907998Y-131863950D01*
X48839256Y-132062565D01*
X48839256Y-132062567D01*
X48810401Y-132263266D01*
X48809346Y-132270601D01*
X45302831Y-132270601D01*
X45297749Y-125392800D01*
X46348300Y-125392800D01*
X46348300Y-125817785D01*
X46358793Y-125920489D01*
X46358794Y-125920496D01*
X46413941Y-126086918D01*
X46413943Y-126086923D01*
X46505984Y-126236144D01*
X46629955Y-126360115D01*
X46779176Y-126452156D01*
X46779181Y-126452158D01*
X46945603Y-126507305D01*
X46945610Y-126507306D01*
X47048314Y-126517799D01*
X47048327Y-126517800D01*
X47310800Y-126517800D01*
X47310800Y-125392800D01*
X47810800Y-125392800D01*
X47810800Y-126517800D01*
X48073273Y-126517800D01*
X48073285Y-126517799D01*
X48175989Y-126507306D01*
X48175996Y-126507305D01*
X48342418Y-126452158D01*
X48342423Y-126452156D01*
X48491644Y-126360115D01*
X48615615Y-126236144D01*
X48707656Y-126086923D01*
X48707658Y-126086918D01*
X48762805Y-125920496D01*
X48762806Y-125920489D01*
X48773241Y-125818351D01*
X49314800Y-125818351D01*
X49325413Y-125922228D01*
X49381183Y-126090535D01*
X49381184Y-126090538D01*
X49474267Y-126241447D01*
X49474270Y-126241451D01*
X49599648Y-126366829D01*
X49599652Y-126366832D01*
X49750561Y-126459915D01*
X49750564Y-126459916D01*
X49918871Y-126515686D01*
X49918872Y-126515686D01*
X49918875Y-126515687D01*
X50022756Y-126526300D01*
X50022761Y-126526300D01*
X51048839Y-126526300D01*
X51048844Y-126526300D01*
X51152725Y-126515687D01*
X51321038Y-126459915D01*
X51471951Y-126366830D01*
X51597330Y-126241451D01*
X51690415Y-126090538D01*
X51746187Y-125922225D01*
X51751717Y-125868097D01*
X51778113Y-125803405D01*
X51835294Y-125763254D01*
X51875075Y-125756700D01*
X60535805Y-125756700D01*
X60602844Y-125776385D01*
X60648599Y-125829189D01*
X60653511Y-125841697D01*
X60671482Y-125895933D01*
X60671484Y-125895937D01*
X60671485Y-125895938D01*
X60764570Y-126046852D01*
X60889948Y-126172230D01*
X61040862Y-126265315D01*
X61209174Y-126321087D01*
X61313055Y-126331700D01*
X62114144Y-126331699D01*
X62218026Y-126321087D01*
X62386338Y-126265315D01*
X62537252Y-126172230D01*
X62625919Y-126083563D01*
X62687242Y-126050078D01*
X62756934Y-126055062D01*
X62801281Y-126083563D01*
X62889948Y-126172230D01*
X63040862Y-126265315D01*
X63209174Y-126321087D01*
X63313055Y-126331700D01*
X64114144Y-126331699D01*
X64218026Y-126321087D01*
X64386338Y-126265315D01*
X64537252Y-126172230D01*
X64662630Y-126046852D01*
X64755715Y-125895938D01*
X64755876Y-125895452D01*
X64756078Y-125895159D01*
X64758770Y-125889388D01*
X64759755Y-125889847D01*
X64795638Y-125838005D01*
X64860150Y-125811172D01*
X64928928Y-125823477D01*
X64946465Y-125834119D01*
X65056848Y-125914318D01*
X65231312Y-125991994D01*
X65418113Y-126031700D01*
X65609087Y-126031700D01*
X65795888Y-125991994D01*
X65970352Y-125914318D01*
X66124853Y-125802066D01*
X66252640Y-125660144D01*
X66348127Y-125494756D01*
X66407142Y-125313128D01*
X66427104Y-125123200D01*
X66407142Y-124933272D01*
X66348127Y-124751644D01*
X66252640Y-124586256D01*
X66124853Y-124444334D01*
X65970352Y-124332082D01*
X65795888Y-124254406D01*
X65795886Y-124254405D01*
X65609087Y-124214700D01*
X65418113Y-124214700D01*
X65231314Y-124254405D01*
X65056843Y-124332084D01*
X64946471Y-124412275D01*
X64880665Y-124435755D01*
X64812611Y-124419930D01*
X64763916Y-124369824D01*
X64755876Y-124350948D01*
X64755715Y-124350463D01*
X64755715Y-124350462D01*
X64662630Y-124199548D01*
X64537252Y-124074170D01*
X64386338Y-123981085D01*
X64386335Y-123981084D01*
X64218027Y-123925313D01*
X64114146Y-123914700D01*
X63313062Y-123914700D01*
X63313046Y-123914701D01*
X63209172Y-123925313D01*
X63040864Y-123981084D01*
X63040859Y-123981086D01*
X62889946Y-124074171D01*
X62801281Y-124162837D01*
X62739958Y-124196322D01*
X62670266Y-124191338D01*
X62625919Y-124162837D01*
X62537253Y-124074171D01*
X62537252Y-124074170D01*
X62386338Y-123981085D01*
X62386335Y-123981084D01*
X62218027Y-123925313D01*
X62114146Y-123914700D01*
X61313062Y-123914700D01*
X61313046Y-123914701D01*
X61209172Y-123925313D01*
X61040864Y-123981084D01*
X61040859Y-123981086D01*
X60889946Y-124074171D01*
X60764571Y-124199546D01*
X60671482Y-124350466D01*
X60653511Y-124404703D01*
X60613739Y-124462148D01*
X60549224Y-124488972D01*
X60535805Y-124489700D01*
X51871070Y-124489700D01*
X51804031Y-124470015D01*
X51758276Y-124417211D01*
X51747712Y-124378302D01*
X51746187Y-124363375D01*
X51742069Y-124350948D01*
X51690416Y-124195064D01*
X51690415Y-124195061D01*
X51597332Y-124044152D01*
X51597329Y-124044148D01*
X51471951Y-123918770D01*
X51471947Y-123918767D01*
X51321038Y-123825684D01*
X51321035Y-123825683D01*
X51152728Y-123769913D01*
X51048851Y-123759300D01*
X51048844Y-123759300D01*
X50022756Y-123759300D01*
X50022748Y-123759300D01*
X49918871Y-123769913D01*
X49750564Y-123825683D01*
X49750561Y-123825684D01*
X49599652Y-123918767D01*
X49599648Y-123918770D01*
X49474270Y-124044148D01*
X49474267Y-124044152D01*
X49381184Y-124195061D01*
X49381183Y-124195064D01*
X49325413Y-124363371D01*
X49314800Y-124467248D01*
X49314800Y-125818351D01*
X48773241Y-125818351D01*
X48773299Y-125817785D01*
X48773300Y-125817772D01*
X48773300Y-125392800D01*
X47810800Y-125392800D01*
X47310800Y-125392800D01*
X46348300Y-125392800D01*
X45297749Y-125392800D01*
X45297380Y-124892800D01*
X46348300Y-124892800D01*
X47310800Y-124892800D01*
X47310800Y-123767800D01*
X47810800Y-123767800D01*
X47810800Y-124892800D01*
X48773300Y-124892800D01*
X48773300Y-124467827D01*
X48773299Y-124467814D01*
X48762806Y-124365110D01*
X48762805Y-124365103D01*
X48707658Y-124198681D01*
X48707656Y-124198676D01*
X48615615Y-124049455D01*
X48491644Y-123925484D01*
X48342423Y-123833443D01*
X48342418Y-123833441D01*
X48175996Y-123778294D01*
X48175989Y-123778293D01*
X48073285Y-123767800D01*
X47810800Y-123767800D01*
X47310800Y-123767800D01*
X47048314Y-123767800D01*
X46945610Y-123778293D01*
X46945603Y-123778294D01*
X46779181Y-123833441D01*
X46779176Y-123833443D01*
X46629955Y-123925484D01*
X46505984Y-124049455D01*
X46413943Y-124198676D01*
X46413941Y-124198681D01*
X46358794Y-124365103D01*
X46358793Y-124365110D01*
X46348300Y-124467814D01*
X46348300Y-124892800D01*
X45297380Y-124892800D01*
X45294484Y-120973200D01*
X46526100Y-120973200D01*
X46526100Y-121398185D01*
X46536593Y-121500889D01*
X46536594Y-121500896D01*
X46591741Y-121667318D01*
X46591743Y-121667323D01*
X46683784Y-121816544D01*
X46807755Y-121940515D01*
X46956976Y-122032556D01*
X46956981Y-122032558D01*
X47123403Y-122087705D01*
X47123410Y-122087706D01*
X47226114Y-122098199D01*
X47226127Y-122098200D01*
X47488600Y-122098200D01*
X47488600Y-120973200D01*
X47988600Y-120973200D01*
X47988600Y-122098200D01*
X48251073Y-122098200D01*
X48251085Y-122098199D01*
X48353789Y-122087706D01*
X48353796Y-122087705D01*
X48520218Y-122032558D01*
X48520223Y-122032556D01*
X48669444Y-121940515D01*
X48793415Y-121816544D01*
X48885456Y-121667323D01*
X48885458Y-121667318D01*
X48940605Y-121500896D01*
X48940606Y-121500889D01*
X48951041Y-121398751D01*
X49492600Y-121398751D01*
X49503213Y-121502628D01*
X49558983Y-121670935D01*
X49558984Y-121670938D01*
X49652067Y-121821847D01*
X49652070Y-121821851D01*
X49777448Y-121947229D01*
X49777452Y-121947232D01*
X49928361Y-122040315D01*
X49928364Y-122040316D01*
X50096671Y-122096086D01*
X50096672Y-122096086D01*
X50096675Y-122096087D01*
X50200556Y-122106700D01*
X50200561Y-122106700D01*
X51226639Y-122106700D01*
X51226644Y-122106700D01*
X51330525Y-122096087D01*
X51498838Y-122040315D01*
X51649751Y-121947230D01*
X51775130Y-121821851D01*
X51868215Y-121670938D01*
X51923987Y-121502625D01*
X51927515Y-121468096D01*
X51953912Y-121403404D01*
X52011094Y-121363254D01*
X52050873Y-121356700D01*
X60581101Y-121356700D01*
X60648140Y-121376385D01*
X60693895Y-121429189D01*
X60705101Y-121480700D01*
X60705101Y-121523753D01*
X60715713Y-121627627D01*
X60759869Y-121760883D01*
X60771485Y-121795938D01*
X60864570Y-121946852D01*
X60989948Y-122072230D01*
X61140862Y-122165315D01*
X61309174Y-122221087D01*
X61413055Y-122231700D01*
X62214144Y-122231699D01*
X62318026Y-122221087D01*
X62486338Y-122165315D01*
X62637252Y-122072230D01*
X62725919Y-121983563D01*
X62787242Y-121950078D01*
X62856934Y-121955062D01*
X62901281Y-121983563D01*
X62989948Y-122072230D01*
X63140862Y-122165315D01*
X63309174Y-122221087D01*
X63413055Y-122231700D01*
X64214144Y-122231699D01*
X64318026Y-122221087D01*
X64486338Y-122165315D01*
X64637252Y-122072230D01*
X64762630Y-121946852D01*
X64855715Y-121795938D01*
X64855717Y-121795933D01*
X64873689Y-121741697D01*
X64913461Y-121684252D01*
X64977976Y-121657428D01*
X64991395Y-121656700D01*
X66517400Y-121656700D01*
X66584439Y-121676385D01*
X66605081Y-121693019D01*
X67114781Y-122202718D01*
X67148266Y-122264041D01*
X67151100Y-122290399D01*
X67151100Y-129521500D01*
X67131415Y-129588539D01*
X67078611Y-129634294D01*
X67027100Y-129645500D01*
X66632803Y-129645500D01*
X66598209Y-129640577D01*
X66466929Y-129602437D01*
X66429607Y-129599500D01*
X66429602Y-129599500D01*
X65121598Y-129599500D01*
X65121592Y-129599500D01*
X65084270Y-129602437D01*
X65084264Y-129602438D01*
X64924503Y-129648853D01*
X64924498Y-129648855D01*
X64781296Y-129733544D01*
X64781287Y-129733551D01*
X64663651Y-129851187D01*
X64663644Y-129851196D01*
X64578955Y-129994398D01*
X64578953Y-129994403D01*
X64532538Y-130154164D01*
X64532537Y-130154170D01*
X64529600Y-130191492D01*
X64529600Y-130425500D01*
X64509915Y-130492539D01*
X64457111Y-130538294D01*
X64405600Y-130549500D01*
X63246592Y-130549500D01*
X63209270Y-130552437D01*
X63077991Y-130590577D01*
X63043397Y-130595500D01*
X61546100Y-130595500D01*
X61479061Y-130575815D01*
X61433306Y-130523011D01*
X61422100Y-130471500D01*
X61422100Y-129974562D01*
X61422099Y-129974545D01*
X61417533Y-129932082D01*
X61415589Y-129913999D01*
X61413392Y-129908110D01*
X61391881Y-129850436D01*
X61364489Y-129776996D01*
X61276861Y-129659939D01*
X61159804Y-129572311D01*
X61022803Y-129521211D01*
X60962254Y-129514700D01*
X60962238Y-129514700D01*
X58864962Y-129514700D01*
X58864945Y-129514700D01*
X58804397Y-129521211D01*
X58804395Y-129521211D01*
X58667395Y-129572311D01*
X58550339Y-129659939D01*
X58462711Y-129776995D01*
X58411611Y-129913995D01*
X58411611Y-129913997D01*
X58405100Y-129974545D01*
X58405100Y-134671854D01*
X58411611Y-134732402D01*
X58411611Y-134732404D01*
X58447710Y-134829186D01*
X58462711Y-134869404D01*
X58550339Y-134986461D01*
X58667396Y-135074089D01*
X58804399Y-135125189D01*
X58831650Y-135128118D01*
X58864945Y-135131699D01*
X58864962Y-135131700D01*
X60962238Y-135131700D01*
X60962254Y-135131699D01*
X60989292Y-135128791D01*
X61022801Y-135125189D01*
X61159804Y-135074089D01*
X61276861Y-134986461D01*
X61364489Y-134869404D01*
X61415589Y-134732401D01*
X61419649Y-134694634D01*
X61422099Y-134671854D01*
X61422100Y-134671837D01*
X61422100Y-132244500D01*
X61441785Y-132177461D01*
X61494589Y-132131706D01*
X61546100Y-132120500D01*
X63043397Y-132120500D01*
X63077990Y-132125423D01*
X63138574Y-132143023D01*
X63177694Y-132154388D01*
X63236580Y-132191994D01*
X63265787Y-132255466D01*
X63267100Y-132273465D01*
X63267100Y-134358833D01*
X63247415Y-134425872D01*
X63230785Y-134446509D01*
X63146731Y-134530564D01*
X63085363Y-134591932D01*
X63024040Y-134625416D01*
X62997682Y-134628250D01*
X62323412Y-134628250D01*
X62323396Y-134628251D01*
X62219522Y-134638863D01*
X62051214Y-134694634D01*
X62051209Y-134694636D01*
X61900296Y-134787721D01*
X61774921Y-134913096D01*
X61681836Y-135064009D01*
X61681834Y-135064014D01*
X61626063Y-135232322D01*
X61615450Y-135336197D01*
X61615450Y-136112287D01*
X61615451Y-136112303D01*
X61626063Y-136216177D01*
X61681834Y-136384485D01*
X61681836Y-136384490D01*
X61694834Y-136405563D01*
X61774920Y-136535402D01*
X61900298Y-136660780D01*
X61900981Y-136661201D01*
X61901351Y-136661613D01*
X61905965Y-136665261D01*
X61905341Y-136666048D01*
X61947709Y-136713147D01*
X61958934Y-136782109D01*
X61931094Y-136846192D01*
X61910532Y-136864014D01*
X61911273Y-136864952D01*
X61905605Y-136869433D01*
X61781634Y-136993404D01*
X61689593Y-137142625D01*
X61689591Y-137142630D01*
X61634444Y-137309052D01*
X61634443Y-137309059D01*
X61623950Y-137411763D01*
X61623950Y-137549250D01*
X63931980Y-137549250D01*
X63983654Y-137521034D01*
X64010012Y-137518200D01*
X66197278Y-137518200D01*
X66238604Y-137495634D01*
X66264962Y-137492800D01*
X68631199Y-137492800D01*
X68631199Y-137342828D01*
X68631198Y-137342813D01*
X68620705Y-137240102D01*
X68565558Y-137073680D01*
X68565556Y-137073675D01*
X68473515Y-136924454D01*
X68385552Y-136836491D01*
X68352067Y-136775168D01*
X68357051Y-136705476D01*
X68385548Y-136661133D01*
X68480230Y-136566452D01*
X68573315Y-136415538D01*
X68629087Y-136247226D01*
X68639700Y-136143345D01*
X68639699Y-135342256D01*
X68629087Y-135238374D01*
X68573315Y-135070062D01*
X68480230Y-134919148D01*
X68354852Y-134793770D01*
X68203938Y-134700685D01*
X68149693Y-134682710D01*
X68092251Y-134642938D01*
X68065428Y-134578422D01*
X68064700Y-134565005D01*
X68064700Y-134047231D01*
X68066439Y-134031479D01*
X68066168Y-134031454D01*
X68066900Y-134023698D01*
X68066902Y-134023691D01*
X68064761Y-133955568D01*
X68064700Y-133951673D01*
X68064700Y-133923747D01*
X68064631Y-133923200D01*
X68064182Y-133919647D01*
X68063265Y-133907998D01*
X68062470Y-133882693D01*
X68061874Y-133863711D01*
X68056176Y-133844099D01*
X68052233Y-133825066D01*
X68049674Y-133804803D01*
X68033363Y-133763607D01*
X68029581Y-133752559D01*
X68017218Y-133710008D01*
X68017218Y-133710007D01*
X68006826Y-133692435D01*
X67998266Y-133674962D01*
X67996673Y-133670938D01*
X67990752Y-133655983D01*
X67964710Y-133620139D01*
X67958299Y-133610381D01*
X67935742Y-133572238D01*
X67921308Y-133557804D01*
X67908671Y-133543009D01*
X67896672Y-133526493D01*
X67896669Y-133526491D01*
X67896669Y-133526490D01*
X67862525Y-133498243D01*
X67853885Y-133490381D01*
X67049506Y-132686001D01*
X67016021Y-132624678D01*
X67017962Y-132568139D01*
X67017524Y-132568059D01*
X67018067Y-132565081D01*
X67018114Y-132563714D01*
X67018662Y-132561831D01*
X67021600Y-132524502D01*
X67021600Y-132091498D01*
X67018662Y-132054169D01*
X66996922Y-131979340D01*
X66972246Y-131894403D01*
X66972245Y-131894399D01*
X66887553Y-131751193D01*
X66887551Y-131751191D01*
X66887548Y-131751187D01*
X66769912Y-131633551D01*
X66769903Y-131633544D01*
X66626701Y-131548855D01*
X66626696Y-131548853D01*
X66466935Y-131502438D01*
X66466929Y-131502437D01*
X66429607Y-131499500D01*
X66429602Y-131499500D01*
X65270600Y-131499500D01*
X65203561Y-131479815D01*
X65157806Y-131427011D01*
X65146600Y-131375500D01*
X65146600Y-131340500D01*
X65166285Y-131273461D01*
X65219089Y-131227706D01*
X65270600Y-131216500D01*
X66429596Y-131216500D01*
X66429602Y-131216500D01*
X66466931Y-131213562D01*
X66556855Y-131187437D01*
X66598209Y-131175423D01*
X66632803Y-131170500D01*
X67824477Y-131170500D01*
X67887809Y-131170500D01*
X67895019Y-131170710D01*
X67958235Y-131174392D01*
X67958235Y-131174391D01*
X67958237Y-131174392D01*
X67969625Y-131172383D01*
X67991157Y-131170500D01*
X70056100Y-131170500D01*
X70123139Y-131190185D01*
X70168894Y-131242989D01*
X70180100Y-131294500D01*
X70180100Y-139472754D01*
X70160415Y-139539793D01*
X70120890Y-139578481D01*
X69924189Y-139699020D01*
X69924186Y-139699021D01*
X69743631Y-139853231D01*
X69589421Y-140033786D01*
X69589420Y-140033789D01*
X69465359Y-140236237D01*
X69465357Y-140236240D01*
X69374495Y-140455602D01*
X69374495Y-140455604D01*
X69319065Y-140686485D01*
X69300435Y-140923200D01*
X69319065Y-141159914D01*
X69374495Y-141390795D01*
X69374495Y-141390797D01*
X69465357Y-141610159D01*
X69465359Y-141610162D01*
X69589420Y-141812610D01*
X69589421Y-141812613D01*
X69589424Y-141812616D01*
X69743631Y-141993169D01*
X69883397Y-142112540D01*
X69924186Y-142147378D01*
X69924188Y-142147378D01*
X69999533Y-142193550D01*
X70126637Y-142271440D01*
X70126640Y-142271442D01*
X70346003Y-142362304D01*
X70346004Y-142362304D01*
X70346006Y-142362305D01*
X70576889Y-142417735D01*
X70813600Y-142436365D01*
X71050311Y-142417735D01*
X71281194Y-142362305D01*
X71281196Y-142362304D01*
X71281197Y-142362304D01*
X71500559Y-142271442D01*
X71500560Y-142271441D01*
X71500563Y-142271440D01*
X71703016Y-142147376D01*
X71883569Y-141993169D01*
X72037776Y-141812616D01*
X72161840Y-141610163D01*
X72183074Y-141558901D01*
X72252704Y-141390797D01*
X72252704Y-141390796D01*
X72252705Y-141390794D01*
X72308135Y-141159911D01*
X72326765Y-140923200D01*
X72308135Y-140686489D01*
X72252705Y-140455606D01*
X72252704Y-140455603D01*
X72252704Y-140455602D01*
X72161842Y-140236240D01*
X72161840Y-140236237D01*
X72037779Y-140033789D01*
X72037778Y-140033786D01*
X72002940Y-139992997D01*
X71883569Y-139853231D01*
X71703678Y-139699589D01*
X71703013Y-139699021D01*
X71703010Y-139699020D01*
X71506310Y-139578481D01*
X71459435Y-139526669D01*
X71447100Y-139472754D01*
X71447100Y-131294500D01*
X71466785Y-131227461D01*
X71519589Y-131181706D01*
X71571100Y-131170500D01*
X72324477Y-131170500D01*
X76248725Y-131170500D01*
X76315764Y-131190185D01*
X76336406Y-131206819D01*
X80417633Y-135288047D01*
X80451118Y-135349370D01*
X80450526Y-135404674D01*
X80431989Y-135481889D01*
X80415793Y-135687677D01*
X80413359Y-135718600D01*
X80431989Y-135955314D01*
X80487419Y-136186195D01*
X80487419Y-136186197D01*
X80578281Y-136405559D01*
X80578283Y-136405562D01*
X80702344Y-136608010D01*
X80702345Y-136608013D01*
X80702348Y-136608016D01*
X80856555Y-136788569D01*
X80955478Y-136873057D01*
X81037110Y-136942778D01*
X81037113Y-136942779D01*
X81239561Y-137066840D01*
X81239564Y-137066842D01*
X81458927Y-137157704D01*
X81458928Y-137157704D01*
X81458930Y-137157705D01*
X81689813Y-137213135D01*
X81926524Y-137231765D01*
X82163235Y-137213135D01*
X82394118Y-137157705D01*
X82394120Y-137157704D01*
X82394121Y-137157704D01*
X82613483Y-137066842D01*
X82613484Y-137066841D01*
X82613487Y-137066840D01*
X82815940Y-136942776D01*
X82996493Y-136788569D01*
X83150700Y-136608016D01*
X83274764Y-136405563D01*
X83283494Y-136384488D01*
X83365628Y-136186197D01*
X83365628Y-136186196D01*
X83365629Y-136186194D01*
X83421059Y-135955311D01*
X83439689Y-135718600D01*
X83421059Y-135481889D01*
X83365629Y-135251006D01*
X83365628Y-135251003D01*
X83365628Y-135251002D01*
X83274766Y-135031640D01*
X83274764Y-135031637D01*
X83227915Y-134955186D01*
X83150702Y-134829188D01*
X83150702Y-134829186D01*
X83068039Y-134732401D01*
X82996493Y-134648631D01*
X82858265Y-134530573D01*
X82815937Y-134494421D01*
X82815934Y-134494420D01*
X82613486Y-134370359D01*
X82613483Y-134370357D01*
X82394129Y-134279499D01*
X82394121Y-134279496D01*
X82394119Y-134279495D01*
X82394118Y-134279495D01*
X82294706Y-134255628D01*
X82261576Y-134247674D01*
X82200984Y-134212882D01*
X82168821Y-134150856D01*
X82166524Y-134127100D01*
X82166524Y-133091131D01*
X82186209Y-133024092D01*
X82210087Y-132997755D01*
X82210069Y-132997737D01*
X82210452Y-132997353D01*
X82213620Y-132993860D01*
X82215170Y-132992633D01*
X82215176Y-132992630D01*
X82340554Y-132867252D01*
X82340973Y-132866571D01*
X82341383Y-132866202D01*
X82345035Y-132861585D01*
X82345823Y-132862208D01*
X82392913Y-132819844D01*
X82461874Y-132808614D01*
X82525960Y-132836450D01*
X82543785Y-132857020D01*
X82544726Y-132856277D01*
X82549207Y-132861944D01*
X82673178Y-132985915D01*
X82822399Y-133077956D01*
X82822404Y-133077958D01*
X82988826Y-133133105D01*
X82988833Y-133133106D01*
X83091543Y-133143599D01*
X83229023Y-133143599D01*
X83229024Y-133143598D01*
X83229024Y-130693600D01*
X83091551Y-130693600D01*
X83091536Y-130693601D01*
X82988826Y-130704094D01*
X82822404Y-130759241D01*
X82822399Y-130759243D01*
X82673178Y-130851284D01*
X82549207Y-130975255D01*
X82544726Y-130980923D01*
X82542545Y-130979198D01*
X82500080Y-131017375D01*
X82431115Y-131028580D01*
X82367040Y-131000721D01*
X82345187Y-130975494D01*
X82345035Y-130975615D01*
X82342340Y-130972206D01*
X82340975Y-130970631D01*
X82340553Y-130969947D01*
X82215177Y-130844571D01*
X82215176Y-130844570D01*
X82076840Y-130759243D01*
X82064264Y-130751486D01*
X82064259Y-130751484D01*
X81895951Y-130695713D01*
X81792070Y-130685100D01*
X81015986Y-130685100D01*
X81015970Y-130685101D01*
X80912096Y-130695713D01*
X80743788Y-130751484D01*
X80743783Y-130751486D01*
X80592870Y-130844571D01*
X80467495Y-130969946D01*
X80374410Y-131120859D01*
X80374408Y-131120864D01*
X80318637Y-131289172D01*
X80308024Y-131393047D01*
X80308024Y-132444137D01*
X80308025Y-132444153D01*
X80318637Y-132548027D01*
X80365060Y-132688124D01*
X80374409Y-132716338D01*
X80413367Y-132779499D01*
X80415957Y-132783697D01*
X80434397Y-132851089D01*
X80413475Y-132917753D01*
X80359833Y-132962523D01*
X80290502Y-132971184D01*
X80227494Y-132940988D01*
X80222737Y-132936475D01*
X77200762Y-129914500D01*
X77188979Y-129900865D01*
X77174327Y-129881184D01*
X77174321Y-129881177D01*
X77135695Y-129848766D01*
X77127720Y-129841458D01*
X77123685Y-129837423D01*
X77098953Y-129817867D01*
X77096160Y-129815592D01*
X77037778Y-129766604D01*
X77031744Y-129762636D01*
X77031767Y-129762600D01*
X77025117Y-129758363D01*
X77025096Y-129758399D01*
X77018942Y-129754604D01*
X76949840Y-129722381D01*
X76946625Y-129720825D01*
X76878490Y-129686606D01*
X76878489Y-129686605D01*
X76878486Y-129686604D01*
X76871705Y-129684136D01*
X76871718Y-129684097D01*
X76864264Y-129681506D01*
X76864251Y-129681546D01*
X76857395Y-129679274D01*
X76782765Y-129663864D01*
X76779246Y-129663084D01*
X76705044Y-129645499D01*
X76697872Y-129644661D01*
X76697876Y-129644619D01*
X76690030Y-129643818D01*
X76690027Y-129643860D01*
X76682837Y-129643230D01*
X76606635Y-129645448D01*
X76603029Y-129645500D01*
X68800100Y-129645500D01*
X68733061Y-129625815D01*
X68687306Y-129573011D01*
X68676100Y-129521500D01*
X68676100Y-121987780D01*
X68677409Y-121969810D01*
X68677698Y-121967837D01*
X68680966Y-121945527D01*
X68680527Y-121940515D01*
X68676572Y-121895306D01*
X68676100Y-121884497D01*
X68676100Y-121878795D01*
X68676100Y-121878788D01*
X68672436Y-121847440D01*
X68672070Y-121843854D01*
X68665431Y-121767965D01*
X68663970Y-121760892D01*
X68664013Y-121760883D01*
X68662303Y-121753172D01*
X68662262Y-121753182D01*
X68660598Y-121746164D01*
X68660598Y-121746158D01*
X68634523Y-121674519D01*
X68633339Y-121671112D01*
X68609364Y-121598756D01*
X68606314Y-121592216D01*
X68606352Y-121592197D01*
X68602915Y-121585096D01*
X68602876Y-121585116D01*
X68599635Y-121578662D01*
X68568085Y-121530694D01*
X68557728Y-121514947D01*
X68555823Y-121511956D01*
X68515788Y-121447050D01*
X68515786Y-121447048D01*
X68515785Y-121447046D01*
X68511306Y-121441381D01*
X68511338Y-121441355D01*
X68506361Y-121435244D01*
X68506329Y-121435272D01*
X68501686Y-121429739D01*
X68446240Y-121377428D01*
X68443653Y-121374915D01*
X67862283Y-120793545D01*
X67828798Y-120732222D01*
X67826646Y-120718846D01*
X67807142Y-120533272D01*
X67748127Y-120351644D01*
X67652640Y-120186256D01*
X67524853Y-120044334D01*
X67370352Y-119932082D01*
X67195888Y-119854406D01*
X67195886Y-119854405D01*
X67009087Y-119814700D01*
X66818113Y-119814700D01*
X66631314Y-119854405D01*
X66456846Y-119932083D01*
X66302345Y-120044335D01*
X66174559Y-120186257D01*
X66092897Y-120327700D01*
X66042330Y-120375916D01*
X65985510Y-120389700D01*
X64991395Y-120389700D01*
X64924356Y-120370015D01*
X64878601Y-120317211D01*
X64873689Y-120304703D01*
X64855717Y-120250466D01*
X64853704Y-120247202D01*
X64762630Y-120099548D01*
X64637252Y-119974170D01*
X64486338Y-119881085D01*
X64405822Y-119854405D01*
X64318027Y-119825313D01*
X64214146Y-119814700D01*
X63413062Y-119814700D01*
X63413046Y-119814701D01*
X63309172Y-119825313D01*
X63140864Y-119881084D01*
X63140859Y-119881086D01*
X62989946Y-119974171D01*
X62901281Y-120062837D01*
X62839958Y-120096322D01*
X62770266Y-120091338D01*
X62725919Y-120062837D01*
X62637253Y-119974171D01*
X62637252Y-119974170D01*
X62486338Y-119881085D01*
X62405822Y-119854405D01*
X62318027Y-119825313D01*
X62214146Y-119814700D01*
X61413062Y-119814700D01*
X61413046Y-119814701D01*
X61309172Y-119825313D01*
X61140864Y-119881084D01*
X61140859Y-119881086D01*
X60989946Y-119974171D01*
X60910737Y-120053381D01*
X60849414Y-120086866D01*
X60823056Y-120089700D01*
X52050873Y-120089700D01*
X51983834Y-120070015D01*
X51938079Y-120017211D01*
X51927515Y-119978304D01*
X51924164Y-119945510D01*
X51923987Y-119943775D01*
X51920113Y-119932083D01*
X51868216Y-119775464D01*
X51868215Y-119775461D01*
X51775132Y-119624552D01*
X51775129Y-119624548D01*
X51649751Y-119499170D01*
X51649747Y-119499167D01*
X51498838Y-119406084D01*
X51498835Y-119406083D01*
X51330528Y-119350313D01*
X51226651Y-119339700D01*
X51226644Y-119339700D01*
X50200556Y-119339700D01*
X50200548Y-119339700D01*
X50096671Y-119350313D01*
X49928364Y-119406083D01*
X49928361Y-119406084D01*
X49777452Y-119499167D01*
X49777448Y-119499170D01*
X49652070Y-119624548D01*
X49652067Y-119624552D01*
X49558984Y-119775461D01*
X49558983Y-119775464D01*
X49503213Y-119943771D01*
X49492600Y-120047648D01*
X49492600Y-121398751D01*
X48951041Y-121398751D01*
X48951099Y-121398185D01*
X48951100Y-121398172D01*
X48951100Y-120973200D01*
X47988600Y-120973200D01*
X47488600Y-120973200D01*
X46526100Y-120973200D01*
X45294484Y-120973200D01*
X45294115Y-120473200D01*
X46526100Y-120473200D01*
X47488600Y-120473200D01*
X47488600Y-119348200D01*
X47988600Y-119348200D01*
X47988600Y-120473200D01*
X48951100Y-120473200D01*
X48951100Y-120048227D01*
X48951099Y-120048214D01*
X48940606Y-119945510D01*
X48940605Y-119945503D01*
X48885458Y-119779081D01*
X48885456Y-119779076D01*
X48793415Y-119629855D01*
X48669444Y-119505884D01*
X48520223Y-119413843D01*
X48520218Y-119413841D01*
X48353796Y-119358694D01*
X48353789Y-119358693D01*
X48251085Y-119348200D01*
X47988600Y-119348200D01*
X47488600Y-119348200D01*
X47226114Y-119348200D01*
X47123410Y-119358693D01*
X47123403Y-119358694D01*
X46956981Y-119413841D01*
X46956976Y-119413843D01*
X46807755Y-119505884D01*
X46683784Y-119629855D01*
X46591743Y-119779076D01*
X46591741Y-119779081D01*
X46536594Y-119945503D01*
X46536593Y-119945510D01*
X46526100Y-120048214D01*
X46526100Y-120473200D01*
X45294115Y-120473200D01*
X45289533Y-114271854D01*
X69337423Y-114271854D01*
X69343934Y-114332402D01*
X69343934Y-114332404D01*
X69386819Y-114447379D01*
X69395034Y-114469404D01*
X69482662Y-114586461D01*
X69599719Y-114674089D01*
X69698753Y-114711027D01*
X69731386Y-114723199D01*
X69736722Y-114725189D01*
X69763973Y-114728118D01*
X69797268Y-114731699D01*
X69797285Y-114731700D01*
X71894561Y-114731700D01*
X71894577Y-114731699D01*
X71921615Y-114728791D01*
X71955124Y-114725189D01*
X71960460Y-114723199D01*
X71977626Y-114716796D01*
X72092127Y-114674089D01*
X72209184Y-114586461D01*
X72296812Y-114469404D01*
X72347912Y-114332401D01*
X72352130Y-114293168D01*
X72354422Y-114271854D01*
X72354423Y-114271837D01*
X72354423Y-113223205D01*
X74340782Y-113223205D01*
X74361308Y-113470929D01*
X74361310Y-113470938D01*
X74422335Y-113711917D01*
X74522189Y-113939564D01*
X74622487Y-114093082D01*
X75362846Y-113352723D01*
X75386430Y-113433044D01*
X75464162Y-113553998D01*
X75572823Y-113648152D01*
X75703608Y-113707880D01*
X75713389Y-113709286D01*
X74975865Y-114446809D01*
X75022691Y-114483255D01*
X75022693Y-114483256D01*
X75241308Y-114601564D01*
X75241319Y-114601569D01*
X75476429Y-114682283D01*
X75721630Y-114723200D01*
X75970216Y-114723200D01*
X76215416Y-114682283D01*
X76450526Y-114601569D01*
X76450537Y-114601564D01*
X76669151Y-114483257D01*
X76669154Y-114483255D01*
X76715979Y-114446809D01*
X75978456Y-113709286D01*
X75988238Y-113707880D01*
X76119023Y-113648152D01*
X76227684Y-113553998D01*
X76305416Y-113433044D01*
X76328999Y-113352724D01*
X77069357Y-114093082D01*
X77169654Y-113939569D01*
X77269510Y-113711917D01*
X77330535Y-113470938D01*
X77330537Y-113470929D01*
X77351064Y-113223205D01*
X77351064Y-113223194D01*
X77330537Y-112975470D01*
X77330535Y-112975461D01*
X77269510Y-112734482D01*
X77169654Y-112506830D01*
X77069357Y-112353316D01*
X76328999Y-113093675D01*
X76305416Y-113013356D01*
X76227684Y-112892402D01*
X76119023Y-112798248D01*
X75988238Y-112738520D01*
X75978457Y-112737113D01*
X76715980Y-111999590D01*
X76715979Y-111999589D01*
X76669152Y-111963143D01*
X76450537Y-111844835D01*
X76450526Y-111844830D01*
X76215416Y-111764116D01*
X75970216Y-111723200D01*
X75721630Y-111723200D01*
X75476429Y-111764116D01*
X75241319Y-111844830D01*
X75241313Y-111844832D01*
X75022684Y-111963149D01*
X74975865Y-111999588D01*
X74975865Y-111999590D01*
X75713389Y-112737113D01*
X75703608Y-112738520D01*
X75572823Y-112798248D01*
X75464162Y-112892402D01*
X75386430Y-113013356D01*
X75362846Y-113093675D01*
X74622487Y-112353316D01*
X74522190Y-112506832D01*
X74422335Y-112734482D01*
X74361310Y-112975461D01*
X74361308Y-112975470D01*
X74340782Y-113223194D01*
X74340782Y-113223205D01*
X72354423Y-113223205D01*
X72354423Y-112174562D01*
X72354422Y-112174545D01*
X72351080Y-112143470D01*
X72347912Y-112113999D01*
X72296812Y-111976996D01*
X72209184Y-111859939D01*
X72092127Y-111772311D01*
X72070156Y-111764116D01*
X71955126Y-111721211D01*
X71894577Y-111714700D01*
X71894561Y-111714700D01*
X69797285Y-111714700D01*
X69797268Y-111714700D01*
X69736720Y-111721211D01*
X69736718Y-111721211D01*
X69599718Y-111772311D01*
X69482662Y-111859939D01*
X69395034Y-111976995D01*
X69343934Y-112113995D01*
X69343934Y-112113997D01*
X69337423Y-112174545D01*
X69337423Y-114271854D01*
X45289533Y-114271854D01*
X45275695Y-95542400D01*
X49156000Y-95542400D01*
X49156000Y-96740244D01*
X49162401Y-96799772D01*
X49162403Y-96799779D01*
X49212645Y-96934486D01*
X49212649Y-96934493D01*
X49298809Y-97049587D01*
X49298812Y-97049590D01*
X49413906Y-97135750D01*
X49413913Y-97135754D01*
X49548620Y-97185996D01*
X49548627Y-97185998D01*
X49608155Y-97192399D01*
X49608172Y-97192400D01*
X50506000Y-97192400D01*
X50506000Y-95542400D01*
X51006000Y-95542400D01*
X51006000Y-97192400D01*
X51903828Y-97192400D01*
X51903844Y-97192399D01*
X51963372Y-97185998D01*
X51963379Y-97185996D01*
X52098086Y-97135754D01*
X52098093Y-97135750D01*
X52213187Y-97049590D01*
X52213190Y-97049587D01*
X52299350Y-96934493D01*
X52299354Y-96934486D01*
X52349596Y-96799779D01*
X52349598Y-96799772D01*
X52355999Y-96740244D01*
X52356000Y-96740227D01*
X52356000Y-95542400D01*
X51006000Y-95542400D01*
X50506000Y-95542400D01*
X49156000Y-95542400D01*
X45275695Y-95542400D01*
X45275326Y-95042400D01*
X49156000Y-95042400D01*
X50506000Y-95042400D01*
X50506000Y-93392400D01*
X51006000Y-93392400D01*
X51006000Y-95042400D01*
X52356000Y-95042400D01*
X52356000Y-93844572D01*
X52355999Y-93844555D01*
X52349598Y-93785027D01*
X52349596Y-93785020D01*
X52299354Y-93650313D01*
X52299350Y-93650306D01*
X52213190Y-93535212D01*
X52213187Y-93535209D01*
X52098093Y-93449049D01*
X52098086Y-93449045D01*
X51963379Y-93398803D01*
X51963372Y-93398801D01*
X51903844Y-93392400D01*
X51006000Y-93392400D01*
X50506000Y-93392400D01*
X49608155Y-93392400D01*
X49548627Y-93398801D01*
X49548620Y-93398803D01*
X49413913Y-93449045D01*
X49413906Y-93449049D01*
X49298812Y-93535209D01*
X49298809Y-93535212D01*
X49212649Y-93650306D01*
X49212645Y-93650313D01*
X49162403Y-93785020D01*
X49162401Y-93785027D01*
X49156000Y-93844555D01*
X49156000Y-95042400D01*
X45275326Y-95042400D01*
X45269065Y-86568542D01*
X50187180Y-86568542D01*
X50191350Y-86612657D01*
X50191900Y-86624326D01*
X50191900Y-89028166D01*
X50190161Y-89043913D01*
X50190432Y-89043939D01*
X50189698Y-89051705D01*
X50191839Y-89119816D01*
X50191900Y-89123712D01*
X50191900Y-89151659D01*
X50192418Y-89155758D01*
X50193334Y-89167398D01*
X50194726Y-89211689D01*
X50194727Y-89211691D01*
X50200422Y-89231295D01*
X50204367Y-89250342D01*
X50206926Y-89270597D01*
X50206927Y-89270600D01*
X50206928Y-89270604D01*
X50223238Y-89311800D01*
X50227021Y-89322849D01*
X50239381Y-89365392D01*
X50249772Y-89382962D01*
X50258332Y-89400435D01*
X50265847Y-89419417D01*
X50291891Y-89455263D01*
X50298305Y-89465027D01*
X50320858Y-89503162D01*
X50320862Y-89503166D01*
X50335289Y-89517593D01*
X50347926Y-89532388D01*
X50359928Y-89548907D01*
X50388144Y-89572249D01*
X50394068Y-89577150D01*
X50402709Y-89585013D01*
X51284566Y-90466870D01*
X51318051Y-90528193D01*
X51313067Y-90597885D01*
X51271195Y-90653818D01*
X51263092Y-90658890D01*
X51263288Y-90659194D01*
X51258319Y-90662387D01*
X51093116Y-90792305D01*
X51093112Y-90792309D01*
X50955478Y-90951146D01*
X50850398Y-91133150D01*
X50781656Y-91331765D01*
X50781656Y-91331767D01*
X50766804Y-91435070D01*
X50751746Y-91539801D01*
X50761745Y-91749727D01*
X50811296Y-91953978D01*
X50811298Y-91953982D01*
X50898598Y-92145143D01*
X50898601Y-92145148D01*
X50898602Y-92145150D01*
X50898604Y-92145153D01*
X50998361Y-92285242D01*
X51020515Y-92316353D01*
X51020520Y-92316359D01*
X51172620Y-92461385D01*
X51313797Y-92552114D01*
X51349428Y-92575013D01*
X51544543Y-92653125D01*
X51626122Y-92668848D01*
X51750914Y-92692900D01*
X51750915Y-92692900D01*
X51908419Y-92692900D01*
X51908425Y-92692900D01*
X52065218Y-92677928D01*
X52266875Y-92618716D01*
X52453682Y-92522411D01*
X52618886Y-92392492D01*
X52756519Y-92233656D01*
X52861604Y-92051644D01*
X52930344Y-91853033D01*
X52960254Y-91645002D01*
X52950254Y-91435070D01*
X52900704Y-91230824D01*
X52900701Y-91230817D01*
X52813401Y-91039656D01*
X52813398Y-91039651D01*
X52813397Y-91039650D01*
X52813396Y-91039647D01*
X52766667Y-90974026D01*
X52743816Y-90908000D01*
X52760289Y-90840100D01*
X52810856Y-90791884D01*
X52867676Y-90778100D01*
X55210634Y-90778100D01*
X55277673Y-90797785D01*
X55298314Y-90814418D01*
X56724910Y-92241015D01*
X58141512Y-93657617D01*
X58151416Y-93669978D01*
X58151626Y-93669805D01*
X58156597Y-93675813D01*
X58156600Y-93675818D01*
X58206285Y-93722475D01*
X58209047Y-93725152D01*
X58213330Y-93729435D01*
X58246815Y-93790758D01*
X58248939Y-93830366D01*
X58247500Y-93843749D01*
X58247500Y-96741054D01*
X58254011Y-96801602D01*
X58254011Y-96801604D01*
X58294859Y-96911118D01*
X58305111Y-96938604D01*
X58392739Y-97055661D01*
X58509796Y-97143289D01*
X58618082Y-97183678D01*
X58641463Y-97192399D01*
X58646799Y-97194389D01*
X58674050Y-97197318D01*
X58707345Y-97200899D01*
X58707362Y-97200900D01*
X60633434Y-97200900D01*
X60700473Y-97220585D01*
X60721115Y-97237219D01*
X61659981Y-98176086D01*
X61693466Y-98237409D01*
X61696300Y-98263767D01*
X61696300Y-98925537D01*
X61696301Y-98925553D01*
X61706913Y-99029427D01*
X61755136Y-99174957D01*
X61762685Y-99197738D01*
X61855769Y-99348651D01*
X61855771Y-99348653D01*
X61917647Y-99410529D01*
X61951132Y-99471852D01*
X61946148Y-99541544D01*
X61917649Y-99585890D01*
X61888282Y-99615256D01*
X61796243Y-99764475D01*
X61796241Y-99764480D01*
X61741094Y-99930902D01*
X61741093Y-99930909D01*
X61730600Y-100033613D01*
X61730600Y-100308600D01*
X62944100Y-100308600D01*
X63011139Y-100328285D01*
X63056894Y-100381089D01*
X63068100Y-100432600D01*
X63068100Y-100684600D01*
X63048415Y-100751639D01*
X62995611Y-100797394D01*
X62944100Y-100808600D01*
X61730601Y-100808600D01*
X61730601Y-101083586D01*
X61741094Y-101186297D01*
X61796241Y-101352719D01*
X61796243Y-101352724D01*
X61888284Y-101501945D01*
X61987547Y-101601208D01*
X62021032Y-101662531D01*
X62016048Y-101732223D01*
X61987548Y-101776570D01*
X61864569Y-101899549D01*
X61771482Y-102050466D01*
X61753511Y-102104703D01*
X61713739Y-102162148D01*
X61649224Y-102188972D01*
X61635805Y-102189700D01*
X58372629Y-102189700D01*
X58356886Y-102187961D01*
X58356861Y-102188233D01*
X58349093Y-102187498D01*
X58281001Y-102189639D01*
X58277106Y-102189700D01*
X58249143Y-102189700D01*
X58245031Y-102190219D01*
X58233402Y-102191134D01*
X58189111Y-102192526D01*
X58189108Y-102192527D01*
X58169505Y-102198222D01*
X58150459Y-102202166D01*
X58130203Y-102204726D01*
X58130201Y-102204726D01*
X58089007Y-102221035D01*
X58077964Y-102224816D01*
X58035404Y-102237182D01*
X58035403Y-102237183D01*
X58017824Y-102247578D01*
X58000364Y-102256132D01*
X57981384Y-102263647D01*
X57981382Y-102263648D01*
X57945545Y-102289685D01*
X57935785Y-102296096D01*
X57897638Y-102318656D01*
X57883196Y-102333098D01*
X57868408Y-102345727D01*
X57851897Y-102357723D01*
X57851892Y-102357728D01*
X57823652Y-102391863D01*
X57815792Y-102400501D01*
X55459937Y-104756358D01*
X52928739Y-107287554D01*
X52916380Y-107297458D01*
X52916553Y-107297667D01*
X52910542Y-107302640D01*
X52863898Y-107352309D01*
X52861193Y-107355100D01*
X52841433Y-107374861D01*
X52841418Y-107374878D01*
X52838877Y-107378153D01*
X52831313Y-107387007D01*
X52800980Y-107419311D01*
X52800972Y-107419321D01*
X52791139Y-107437207D01*
X52780463Y-107453460D01*
X52767946Y-107469597D01*
X52767945Y-107469600D01*
X52750345Y-107510269D01*
X52745208Y-107520755D01*
X52723863Y-107559581D01*
X52723863Y-107559582D01*
X52718785Y-107579360D01*
X52712485Y-107597762D01*
X52704378Y-107616497D01*
X52697448Y-107660249D01*
X52695080Y-107671685D01*
X52684060Y-107714605D01*
X52684060Y-107735024D01*
X52682533Y-107754423D01*
X52679340Y-107774581D01*
X52679340Y-107774582D01*
X52683510Y-107818697D01*
X52684060Y-107830366D01*
X52684060Y-110598327D01*
X52664375Y-110665366D01*
X52612466Y-110710709D01*
X52517002Y-110755225D01*
X52340916Y-110878520D01*
X52188920Y-111030516D01*
X52065624Y-111206603D01*
X52065623Y-111206605D01*
X51974779Y-111401421D01*
X51974776Y-111401427D01*
X51919142Y-111609055D01*
X51919141Y-111609063D01*
X51900407Y-111823198D01*
X51900407Y-111823201D01*
X51919141Y-112037336D01*
X51919142Y-112037344D01*
X51974776Y-112244972D01*
X51974777Y-112244974D01*
X51974778Y-112244977D01*
X52063632Y-112435525D01*
X52065624Y-112439797D01*
X52065626Y-112439801D01*
X52188919Y-112615882D01*
X52340917Y-112767880D01*
X52516998Y-112891173D01*
X52517000Y-112891174D01*
X52517003Y-112891176D01*
X52711823Y-112982022D01*
X52919458Y-113037658D01*
X53072416Y-113051040D01*
X53133598Y-113056393D01*
X53133600Y-113056393D01*
X53133602Y-113056393D01*
X53187135Y-113051709D01*
X53347742Y-113037658D01*
X53555377Y-112982022D01*
X53750197Y-112891176D01*
X53926281Y-112767881D01*
X54078281Y-112615881D01*
X54201576Y-112439797D01*
X54292422Y-112244977D01*
X54348058Y-112037342D01*
X54366793Y-111823202D01*
X56988940Y-111823202D01*
X57007544Y-112035854D01*
X57007545Y-112035862D01*
X57062794Y-112242053D01*
X57062797Y-112242059D01*
X57153013Y-112435529D01*
X57192015Y-112491230D01*
X57815646Y-111867599D01*
X57828435Y-111948348D01*
X57885959Y-112061245D01*
X57975555Y-112150841D01*
X58088452Y-112208365D01*
X58169199Y-112221153D01*
X57545568Y-112844784D01*
X57601263Y-112883782D01*
X57601269Y-112883786D01*
X57794740Y-112974002D01*
X57794746Y-112974005D01*
X58000937Y-113029254D01*
X58000945Y-113029255D01*
X58213598Y-113047860D01*
X58213602Y-113047860D01*
X58426254Y-113029255D01*
X58426262Y-113029254D01*
X58632453Y-112974005D01*
X58632464Y-112974001D01*
X58825925Y-112883789D01*
X58881630Y-112844783D01*
X58258001Y-112221153D01*
X58338748Y-112208365D01*
X58451645Y-112150841D01*
X58541241Y-112061245D01*
X58598765Y-111948348D01*
X58611553Y-111867601D01*
X59235183Y-112491229D01*
X59274189Y-112435525D01*
X59364401Y-112242064D01*
X59364405Y-112242053D01*
X59419654Y-112035862D01*
X59419655Y-112035854D01*
X59438260Y-111823202D01*
X59438260Y-111823197D01*
X59419655Y-111610545D01*
X59419654Y-111610537D01*
X59364405Y-111404346D01*
X59364402Y-111404340D01*
X59274186Y-111210869D01*
X59274182Y-111210863D01*
X59235184Y-111155168D01*
X58611553Y-111778798D01*
X58598765Y-111698052D01*
X58541241Y-111585155D01*
X58451645Y-111495559D01*
X58338748Y-111438035D01*
X58258000Y-111425246D01*
X58881630Y-110801615D01*
X58825929Y-110762613D01*
X58632459Y-110672397D01*
X58632453Y-110672394D01*
X58426262Y-110617145D01*
X58426254Y-110617144D01*
X58213602Y-110598540D01*
X58213598Y-110598540D01*
X58000945Y-110617144D01*
X58000937Y-110617145D01*
X57794746Y-110672394D01*
X57794740Y-110672397D01*
X57601271Y-110762612D01*
X57601269Y-110762613D01*
X57545569Y-110801615D01*
X57545568Y-110801615D01*
X58169200Y-111425246D01*
X58088452Y-111438035D01*
X57975555Y-111495559D01*
X57885959Y-111585155D01*
X57828435Y-111698052D01*
X57815646Y-111778799D01*
X57192015Y-111155168D01*
X57192015Y-111155169D01*
X57153013Y-111210869D01*
X57153012Y-111210871D01*
X57062797Y-111404340D01*
X57062794Y-111404346D01*
X57007545Y-111610537D01*
X57007544Y-111610545D01*
X56988940Y-111823197D01*
X56988940Y-111823202D01*
X54366793Y-111823202D01*
X54366793Y-111823200D01*
X54348058Y-111609058D01*
X54292422Y-111401423D01*
X54201576Y-111206604D01*
X54078281Y-111030519D01*
X54078279Y-111030516D01*
X53987379Y-110939616D01*
X53953894Y-110878293D01*
X53951060Y-110851935D01*
X53951060Y-108108406D01*
X53970745Y-108041367D01*
X53987379Y-108020725D01*
X58515085Y-103493019D01*
X58576408Y-103459534D01*
X58602766Y-103456700D01*
X61635805Y-103456700D01*
X61702844Y-103476385D01*
X61748599Y-103529189D01*
X61753511Y-103541697D01*
X61771482Y-103595933D01*
X61771484Y-103595937D01*
X61771485Y-103595938D01*
X61864570Y-103746852D01*
X61989948Y-103872230D01*
X62140862Y-103965315D01*
X62309174Y-104021087D01*
X62413055Y-104031700D01*
X63214144Y-104031699D01*
X63318026Y-104021087D01*
X63486338Y-103965315D01*
X63637252Y-103872230D01*
X63725919Y-103783563D01*
X63787242Y-103750078D01*
X63856934Y-103755062D01*
X63901281Y-103783563D01*
X63989948Y-103872230D01*
X64140862Y-103965315D01*
X64309174Y-104021087D01*
X64413055Y-104031700D01*
X65214144Y-104031699D01*
X65318026Y-104021087D01*
X65486338Y-103965315D01*
X65637252Y-103872230D01*
X65762630Y-103746852D01*
X65855715Y-103595938D01*
X65911487Y-103427626D01*
X65922100Y-103323745D01*
X65922099Y-102322656D01*
X65911487Y-102218774D01*
X65855715Y-102050462D01*
X65762630Y-101899548D01*
X65686160Y-101823078D01*
X65652675Y-101761755D01*
X65657659Y-101692063D01*
X65698693Y-101637248D01*
X65698585Y-101637111D01*
X65699103Y-101636700D01*
X65699531Y-101636130D01*
X65701643Y-101634692D01*
X65704246Y-101632633D01*
X65704252Y-101632630D01*
X65829630Y-101507252D01*
X65922715Y-101356338D01*
X65978487Y-101188026D01*
X65989100Y-101084145D01*
X65989099Y-100033056D01*
X65978487Y-99929174D01*
X65922715Y-99760862D01*
X65829630Y-99609948D01*
X65748763Y-99529081D01*
X65715278Y-99467758D01*
X65720262Y-99398066D01*
X65748765Y-99353716D01*
X65753830Y-99348652D01*
X65846915Y-99197738D01*
X65902687Y-99029426D01*
X65913300Y-98925545D01*
X65913299Y-97924456D01*
X65902687Y-97820574D01*
X65846915Y-97652262D01*
X65753830Y-97501348D01*
X65628452Y-97375970D01*
X65487802Y-97289215D01*
X65441078Y-97237269D01*
X65428900Y-97183678D01*
X65428900Y-96669949D01*
X65448585Y-96602910D01*
X65487799Y-96564413D01*
X65637252Y-96472230D01*
X65725919Y-96383563D01*
X65787242Y-96350078D01*
X65856934Y-96355062D01*
X65901281Y-96383563D01*
X65989948Y-96472230D01*
X66140862Y-96565315D01*
X66309174Y-96621087D01*
X66413055Y-96631700D01*
X67074833Y-96631699D01*
X67141872Y-96651383D01*
X67162514Y-96668018D01*
X67581281Y-97086785D01*
X67614766Y-97148108D01*
X67617600Y-97174466D01*
X67617600Y-105370386D01*
X67597915Y-105437425D01*
X67558697Y-105475924D01*
X67439951Y-105549167D01*
X67439947Y-105549170D01*
X67314572Y-105674545D01*
X67310865Y-105679234D01*
X67253842Y-105719610D01*
X67184043Y-105722747D01*
X67123628Y-105687650D01*
X67116335Y-105679234D01*
X67112632Y-105674551D01*
X67112630Y-105674548D01*
X66987252Y-105549170D01*
X66836338Y-105456085D01*
X66739438Y-105423976D01*
X66668027Y-105400313D01*
X66564146Y-105389700D01*
X65788062Y-105389700D01*
X65788046Y-105389701D01*
X65684172Y-105400313D01*
X65515864Y-105456084D01*
X65515859Y-105456086D01*
X65364946Y-105549171D01*
X65239571Y-105674546D01*
X65146482Y-105825466D01*
X65120227Y-105904703D01*
X65080455Y-105962148D01*
X65015940Y-105988972D01*
X65002521Y-105989700D01*
X58262084Y-105989700D01*
X58246336Y-105987961D01*
X58246311Y-105988232D01*
X58238544Y-105987498D01*
X58238541Y-105987498D01*
X58170433Y-105989639D01*
X58166537Y-105989700D01*
X58138586Y-105989700D01*
X58134490Y-105990218D01*
X58122852Y-105991134D01*
X58078561Y-105992526D01*
X58078558Y-105992527D01*
X58058955Y-105998222D01*
X58039909Y-106002166D01*
X58019653Y-106004726D01*
X58019651Y-106004726D01*
X58019649Y-106004727D01*
X57978448Y-106021039D01*
X57967401Y-106024821D01*
X57924856Y-106037182D01*
X57907281Y-106047575D01*
X57889823Y-106056128D01*
X57870833Y-106063648D01*
X57834985Y-106089692D01*
X57825226Y-106096102D01*
X57787087Y-106118657D01*
X57772651Y-106133094D01*
X57757865Y-106145723D01*
X57741343Y-106157728D01*
X57741341Y-106157729D01*
X57741341Y-106157730D01*
X57741338Y-106157733D01*
X57713092Y-106191874D01*
X57705233Y-106200511D01*
X55881971Y-108023773D01*
X55820648Y-108057258D01*
X55783483Y-108059620D01*
X55673602Y-108050007D01*
X55673598Y-108050007D01*
X55459463Y-108068741D01*
X55459455Y-108068742D01*
X55251827Y-108124376D01*
X55251821Y-108124379D01*
X55057005Y-108215223D01*
X55057003Y-108215224D01*
X54880916Y-108338520D01*
X54728920Y-108490516D01*
X54605624Y-108666603D01*
X54605623Y-108666605D01*
X54514779Y-108861421D01*
X54514776Y-108861427D01*
X54459142Y-109069055D01*
X54459141Y-109069063D01*
X54440407Y-109283198D01*
X54440407Y-109283201D01*
X54459141Y-109497336D01*
X54459142Y-109497344D01*
X54514776Y-109704972D01*
X54514777Y-109704974D01*
X54514778Y-109704977D01*
X54592048Y-109870684D01*
X54605624Y-109899797D01*
X54605626Y-109899801D01*
X54728919Y-110075882D01*
X54880917Y-110227880D01*
X55056998Y-110351173D01*
X55057000Y-110351174D01*
X55057003Y-110351176D01*
X55251823Y-110442022D01*
X55459458Y-110497658D01*
X55612416Y-110511040D01*
X55673598Y-110516393D01*
X55673600Y-110516393D01*
X55673602Y-110516393D01*
X55727135Y-110511709D01*
X55887742Y-110497658D01*
X56095377Y-110442022D01*
X56290197Y-110351176D01*
X56466281Y-110227881D01*
X56618281Y-110075881D01*
X56741576Y-109899797D01*
X56832422Y-109704977D01*
X56888058Y-109497342D01*
X56906793Y-109283200D01*
X56888058Y-109069058D01*
X56851734Y-108933497D01*
X56853397Y-108863649D01*
X56883826Y-108813726D01*
X58404536Y-107293019D01*
X58465859Y-107259534D01*
X58492217Y-107256700D01*
X65002521Y-107256700D01*
X65069560Y-107276385D01*
X65115315Y-107329189D01*
X65120227Y-107341697D01*
X65146482Y-107420933D01*
X65146484Y-107420937D01*
X65146485Y-107420938D01*
X65239570Y-107571852D01*
X65364948Y-107697230D01*
X65515862Y-107790315D01*
X65684174Y-107846087D01*
X65788055Y-107856700D01*
X66564144Y-107856699D01*
X66668026Y-107846087D01*
X66836338Y-107790315D01*
X66987252Y-107697230D01*
X67112630Y-107571852D01*
X67112632Y-107571847D01*
X67116332Y-107567170D01*
X67173353Y-107526791D01*
X67243152Y-107523651D01*
X67303568Y-107558745D01*
X67310868Y-107567170D01*
X67314569Y-107571851D01*
X67314570Y-107571852D01*
X67439948Y-107697230D01*
X67590862Y-107790315D01*
X67759174Y-107846087D01*
X67863055Y-107856700D01*
X68639144Y-107856699D01*
X68743026Y-107846087D01*
X68911338Y-107790315D01*
X69062252Y-107697230D01*
X69187630Y-107571852D01*
X69280715Y-107420938D01*
X69336487Y-107252626D01*
X69347100Y-107148745D01*
X69347099Y-106097656D01*
X69336487Y-105993774D01*
X69280715Y-105825462D01*
X69187630Y-105674548D01*
X69062252Y-105549170D01*
X69062248Y-105549167D01*
X68943503Y-105475924D01*
X68896778Y-105423976D01*
X68884600Y-105370386D01*
X68884600Y-101871044D01*
X69145923Y-101871044D01*
X69152324Y-101930572D01*
X69152326Y-101930579D01*
X69202568Y-102065286D01*
X69202572Y-102065293D01*
X69288732Y-102180387D01*
X69288735Y-102180390D01*
X69403829Y-102266550D01*
X69403836Y-102266554D01*
X69538543Y-102316796D01*
X69538550Y-102316798D01*
X69598078Y-102323199D01*
X69598095Y-102323200D01*
X70395923Y-102323200D01*
X70395923Y-101258701D01*
X70503608Y-101307880D01*
X70610160Y-101323200D01*
X70681686Y-101323200D01*
X70788238Y-101307880D01*
X70895923Y-101258701D01*
X70895923Y-102323200D01*
X71693751Y-102323200D01*
X71693767Y-102323199D01*
X71753295Y-102316798D01*
X71753302Y-102316796D01*
X71888009Y-102266554D01*
X71888016Y-102266550D01*
X72003110Y-102180390D01*
X72003113Y-102180387D01*
X72089273Y-102065293D01*
X72089277Y-102065286D01*
X72139519Y-101930579D01*
X72139521Y-101930572D01*
X72145922Y-101871044D01*
X72145923Y-101871027D01*
X72145923Y-101073200D01*
X71079609Y-101073200D01*
X71105416Y-101033044D01*
X71145923Y-100895089D01*
X71145923Y-100823200D01*
X74132758Y-100823200D01*
X74151388Y-101059914D01*
X74206818Y-101290795D01*
X74206818Y-101290797D01*
X74297680Y-101510159D01*
X74297682Y-101510162D01*
X74421743Y-101712610D01*
X74421744Y-101712613D01*
X74456858Y-101753726D01*
X74575954Y-101893169D01*
X74693915Y-101993917D01*
X74756509Y-102047378D01*
X74756511Y-102047378D01*
X74919445Y-102147225D01*
X74958960Y-102171440D01*
X74958963Y-102171442D01*
X75178326Y-102262304D01*
X75178327Y-102262304D01*
X75178329Y-102262305D01*
X75409212Y-102317735D01*
X75645923Y-102336365D01*
X75882634Y-102317735D01*
X76113517Y-102262305D01*
X76113519Y-102262304D01*
X76113520Y-102262304D01*
X76332882Y-102171442D01*
X76332883Y-102171441D01*
X76332886Y-102171440D01*
X76535339Y-102047376D01*
X76715892Y-101893169D01*
X76870099Y-101712616D01*
X76908566Y-101649844D01*
X76911590Y-101644910D01*
X76963402Y-101598035D01*
X77017317Y-101585700D01*
X81364600Y-101585700D01*
X81431639Y-101605385D01*
X81477394Y-101658189D01*
X81488600Y-101709700D01*
X81488600Y-108596117D01*
X81487291Y-108614086D01*
X81483733Y-108638374D01*
X81488128Y-108688594D01*
X81488600Y-108699403D01*
X81488600Y-108705122D01*
X81492259Y-108736431D01*
X81492625Y-108740013D01*
X81499268Y-108815942D01*
X81500728Y-108823009D01*
X81500689Y-108823017D01*
X81502399Y-108830728D01*
X81502437Y-108830720D01*
X81504100Y-108837740D01*
X81530168Y-108909360D01*
X81531351Y-108912765D01*
X81555333Y-108985135D01*
X81558388Y-108991687D01*
X81558350Y-108991704D01*
X81561786Y-108998801D01*
X81561823Y-108998783D01*
X81565064Y-109005236D01*
X81606962Y-109068940D01*
X81608898Y-109071979D01*
X81648912Y-109136849D01*
X81653394Y-109142518D01*
X81653361Y-109142543D01*
X81658345Y-109148661D01*
X81658378Y-109148635D01*
X81663019Y-109154167D01*
X81718475Y-109206486D01*
X81721062Y-109208999D01*
X90301298Y-117789236D01*
X90334782Y-117850557D01*
X90329798Y-117920249D01*
X90301297Y-117964596D01*
X88124779Y-120141114D01*
X88112420Y-120151018D01*
X88112593Y-120151227D01*
X88106582Y-120156200D01*
X88059938Y-120205869D01*
X88057233Y-120208660D01*
X88037473Y-120228421D01*
X88037458Y-120228438D01*
X88034917Y-120231713D01*
X88027353Y-120240567D01*
X87997020Y-120272871D01*
X87997012Y-120272881D01*
X87987179Y-120290767D01*
X87976503Y-120307020D01*
X87963986Y-120323157D01*
X87963985Y-120323160D01*
X87946385Y-120363829D01*
X87941248Y-120374315D01*
X87919903Y-120413141D01*
X87919903Y-120413142D01*
X87914825Y-120432920D01*
X87908525Y-120451322D01*
X87900419Y-120470055D01*
X87899908Y-120471814D01*
X87899133Y-120473026D01*
X87897322Y-120477213D01*
X87896646Y-120476920D01*
X87862296Y-120530696D01*
X87819838Y-120554915D01*
X87740864Y-120581084D01*
X87740859Y-120581086D01*
X87589946Y-120674171D01*
X87464571Y-120799546D01*
X87464570Y-120799548D01*
X87398896Y-120906023D01*
X87383615Y-120930797D01*
X87331667Y-120977522D01*
X87278076Y-120989700D01*
X84797229Y-120989700D01*
X84781486Y-120987961D01*
X84781461Y-120988233D01*
X84773693Y-120987498D01*
X84705601Y-120989639D01*
X84701706Y-120989700D01*
X84673743Y-120989700D01*
X84669631Y-120990219D01*
X84658002Y-120991134D01*
X84613711Y-120992526D01*
X84613708Y-120992527D01*
X84594105Y-120998222D01*
X84575059Y-121002166D01*
X84554803Y-121004726D01*
X84554801Y-121004726D01*
X84513607Y-121021035D01*
X84502564Y-121024816D01*
X84460004Y-121037182D01*
X84460003Y-121037183D01*
X84442424Y-121047578D01*
X84424964Y-121056132D01*
X84405984Y-121063647D01*
X84405982Y-121063648D01*
X84370145Y-121089685D01*
X84360385Y-121096096D01*
X84322238Y-121118656D01*
X84307796Y-121133098D01*
X84293008Y-121145727D01*
X84276497Y-121157723D01*
X84276492Y-121157728D01*
X84248252Y-121191863D01*
X84240392Y-121200501D01*
X80987514Y-124453381D01*
X80926191Y-124486866D01*
X80899833Y-124489700D01*
X77720909Y-124489700D01*
X77653870Y-124470015D01*
X77628760Y-124448673D01*
X77624854Y-124444335D01*
X77587522Y-124417211D01*
X77470352Y-124332082D01*
X77295888Y-124254406D01*
X77295886Y-124254405D01*
X77109087Y-124214700D01*
X76918113Y-124214700D01*
X76731314Y-124254405D01*
X76556846Y-124332083D01*
X76402345Y-124444335D01*
X76274559Y-124586257D01*
X76179073Y-124751643D01*
X76179070Y-124751650D01*
X76133208Y-124892800D01*
X76120058Y-124933272D01*
X76100096Y-125123200D01*
X76120058Y-125313128D01*
X76120059Y-125313131D01*
X76179070Y-125494749D01*
X76179073Y-125494756D01*
X76274560Y-125660144D01*
X76402347Y-125802066D01*
X76556848Y-125914318D01*
X76731312Y-125991994D01*
X76918113Y-126031700D01*
X77109087Y-126031700D01*
X77295888Y-125991994D01*
X77470352Y-125914318D01*
X77624853Y-125802066D01*
X77628760Y-125797727D01*
X77688246Y-125761079D01*
X77720909Y-125756700D01*
X81007053Y-125756700D01*
X81074092Y-125776385D01*
X81094734Y-125793019D01*
X84543781Y-129242066D01*
X84577266Y-129303389D01*
X84580100Y-129329747D01*
X84580100Y-130847153D01*
X84560415Y-130914192D01*
X84507611Y-130959947D01*
X84438453Y-130969891D01*
X84374897Y-130940866D01*
X84368419Y-130934834D01*
X84284869Y-130851284D01*
X84135648Y-130759243D01*
X84135643Y-130759241D01*
X83969221Y-130704094D01*
X83969214Y-130704093D01*
X83866510Y-130693600D01*
X83729024Y-130693600D01*
X83729024Y-133143599D01*
X83866496Y-133143599D01*
X83866510Y-133143598D01*
X83969221Y-133133105D01*
X84135643Y-133077958D01*
X84135648Y-133077956D01*
X84284869Y-132985915D01*
X84368419Y-132902366D01*
X84429742Y-132868881D01*
X84499434Y-132873865D01*
X84555367Y-132915737D01*
X84579784Y-132981201D01*
X84580100Y-132990047D01*
X84580100Y-136509433D01*
X84560415Y-136576472D01*
X84543781Y-136597114D01*
X80887514Y-140253381D01*
X80826191Y-140286866D01*
X80799833Y-140289700D01*
X79964046Y-140289700D01*
X79897007Y-140270015D01*
X79858319Y-140230490D01*
X79737779Y-140033789D01*
X79737778Y-140033786D01*
X79702940Y-139992997D01*
X79583569Y-139853231D01*
X79403678Y-139699589D01*
X79403013Y-139699021D01*
X79403010Y-139699020D01*
X79200562Y-139574959D01*
X79200559Y-139574957D01*
X78981196Y-139484095D01*
X78750314Y-139428665D01*
X78513600Y-139410035D01*
X78276885Y-139428665D01*
X78046004Y-139484095D01*
X78046002Y-139484095D01*
X77826640Y-139574957D01*
X77826637Y-139574959D01*
X77624189Y-139699020D01*
X77624186Y-139699021D01*
X77443631Y-139853231D01*
X77289421Y-140033786D01*
X77289420Y-140033789D01*
X77165359Y-140236237D01*
X77165357Y-140236240D01*
X77074495Y-140455602D01*
X77074495Y-140455604D01*
X77019065Y-140686485D01*
X77000435Y-140923200D01*
X77019065Y-141159914D01*
X77074495Y-141390795D01*
X77074495Y-141390797D01*
X77165357Y-141610159D01*
X77165359Y-141610162D01*
X77289420Y-141812610D01*
X77289421Y-141812613D01*
X77289424Y-141812616D01*
X77443631Y-141993169D01*
X77583397Y-142112540D01*
X77624186Y-142147378D01*
X77624188Y-142147378D01*
X77699533Y-142193550D01*
X77826637Y-142271440D01*
X77826640Y-142271442D01*
X78046003Y-142362304D01*
X78046004Y-142362304D01*
X78046006Y-142362305D01*
X78276889Y-142417735D01*
X78513600Y-142436365D01*
X78750311Y-142417735D01*
X78981194Y-142362305D01*
X78981196Y-142362304D01*
X78981197Y-142362304D01*
X79200559Y-142271442D01*
X79200560Y-142271441D01*
X79200563Y-142271440D01*
X79403016Y-142147376D01*
X79583569Y-141993169D01*
X79737776Y-141812616D01*
X79828722Y-141664207D01*
X79858319Y-141615910D01*
X79910131Y-141569035D01*
X79964046Y-141556700D01*
X81029966Y-141556700D01*
X81045713Y-141558438D01*
X81045739Y-141558168D01*
X81053505Y-141558901D01*
X81053509Y-141558902D01*
X81121617Y-141556760D01*
X81125513Y-141556700D01*
X81153458Y-141556700D01*
X81153460Y-141556699D01*
X81154862Y-141556522D01*
X81157549Y-141556183D01*
X81169208Y-141555264D01*
X81213489Y-141553873D01*
X81233081Y-141548180D01*
X81252138Y-141544232D01*
X81272397Y-141541674D01*
X81313606Y-141525357D01*
X81324643Y-141521579D01*
X81367193Y-141509218D01*
X81384765Y-141498825D01*
X81402232Y-141490268D01*
X81421217Y-141482752D01*
X81457061Y-141456708D01*
X81466830Y-141450292D01*
X81476868Y-141444356D01*
X81504962Y-141427742D01*
X81519402Y-141413300D01*
X81534192Y-141400670D01*
X81550707Y-141388672D01*
X81578959Y-141354519D01*
X81586803Y-141345899D01*
X82009497Y-140923205D01*
X87108459Y-140923205D01*
X87128985Y-141170929D01*
X87128987Y-141170938D01*
X87190012Y-141411917D01*
X87289866Y-141639564D01*
X87390164Y-141793082D01*
X88130523Y-141052723D01*
X88154107Y-141133044D01*
X88231839Y-141253998D01*
X88340500Y-141348152D01*
X88471285Y-141407880D01*
X88481066Y-141409286D01*
X87743542Y-142146809D01*
X87790368Y-142183255D01*
X87790370Y-142183256D01*
X88008985Y-142301564D01*
X88008996Y-142301569D01*
X88244106Y-142382283D01*
X88489307Y-142423200D01*
X88737893Y-142423200D01*
X88983093Y-142382283D01*
X89218203Y-142301569D01*
X89218214Y-142301564D01*
X89436828Y-142183257D01*
X89436831Y-142183255D01*
X89483656Y-142146809D01*
X88746133Y-141409286D01*
X88755915Y-141407880D01*
X88886700Y-141348152D01*
X88995361Y-141253998D01*
X89073093Y-141133044D01*
X89096676Y-141052724D01*
X89837034Y-141793082D01*
X89937331Y-141639569D01*
X90037187Y-141411917D01*
X90098212Y-141170938D01*
X90098214Y-141170929D01*
X90118741Y-140923205D01*
X90118741Y-140923194D01*
X90098214Y-140675470D01*
X90098212Y-140675461D01*
X90037187Y-140434482D01*
X89937331Y-140206830D01*
X89837034Y-140053316D01*
X89096676Y-140793675D01*
X89073093Y-140713356D01*
X88995361Y-140592402D01*
X88886700Y-140498248D01*
X88755915Y-140438520D01*
X88746134Y-140437113D01*
X89214647Y-139968600D01*
X94116525Y-139968600D01*
X94116525Y-140243586D01*
X94127018Y-140346297D01*
X94182165Y-140512719D01*
X94182167Y-140512724D01*
X94274208Y-140661945D01*
X94398178Y-140785915D01*
X94547399Y-140877956D01*
X94547404Y-140877958D01*
X94713826Y-140933105D01*
X94713833Y-140933106D01*
X94816543Y-140943599D01*
X94954023Y-140943599D01*
X94954024Y-140943598D01*
X94954024Y-139968600D01*
X94116525Y-139968600D01*
X89214647Y-139968600D01*
X89483657Y-139699590D01*
X89483656Y-139699589D01*
X89436829Y-139663143D01*
X89218214Y-139544835D01*
X89218203Y-139544830D01*
X88996154Y-139468600D01*
X94116524Y-139468600D01*
X94954024Y-139468600D01*
X94954024Y-138493600D01*
X94816551Y-138493600D01*
X94816536Y-138493601D01*
X94713826Y-138504094D01*
X94547404Y-138559241D01*
X94547399Y-138559243D01*
X94398178Y-138651284D01*
X94274208Y-138775254D01*
X94182167Y-138924475D01*
X94182165Y-138924480D01*
X94127018Y-139090902D01*
X94127017Y-139090909D01*
X94116524Y-139193613D01*
X94116524Y-139468600D01*
X88996154Y-139468600D01*
X88983093Y-139464116D01*
X88737893Y-139423200D01*
X88489307Y-139423200D01*
X88244106Y-139464116D01*
X88008996Y-139544830D01*
X88008990Y-139544832D01*
X87790361Y-139663149D01*
X87743542Y-139699588D01*
X87743542Y-139699590D01*
X88481066Y-140437113D01*
X88471285Y-140438520D01*
X88340500Y-140498248D01*
X88231839Y-140592402D01*
X88154107Y-140713356D01*
X88130523Y-140793675D01*
X87390164Y-140053316D01*
X87289867Y-140206832D01*
X87190012Y-140434482D01*
X87128987Y-140675461D01*
X87128985Y-140675470D01*
X87108459Y-140923194D01*
X87108459Y-140923205D01*
X82009497Y-140923205D01*
X85602415Y-137330287D01*
X85614780Y-137320383D01*
X85614606Y-137320173D01*
X85620612Y-137315203D01*
X85620618Y-137315200D01*
X85667306Y-137265480D01*
X85669955Y-137262747D01*
X85689735Y-137242969D01*
X85692270Y-137239699D01*
X85699859Y-137230815D01*
X85716463Y-137213134D01*
X85730186Y-137198521D01*
X85740020Y-137180630D01*
X85750698Y-137164374D01*
X85763214Y-137148240D01*
X85780809Y-137107578D01*
X85785950Y-137097085D01*
X85798818Y-137073680D01*
X85807295Y-137058260D01*
X85812374Y-137038474D01*
X85818672Y-137020082D01*
X85826781Y-137001345D01*
X85833713Y-136957572D01*
X85836078Y-136946153D01*
X85847100Y-136903230D01*
X85847100Y-136882815D01*
X85848627Y-136863414D01*
X85848730Y-136862766D01*
X85851820Y-136843257D01*
X85847650Y-136799142D01*
X85847100Y-136787473D01*
X85847100Y-130723200D01*
X89200096Y-130723200D01*
X89220058Y-130913128D01*
X89220059Y-130913131D01*
X89279070Y-131094749D01*
X89279073Y-131094756D01*
X89374560Y-131260144D01*
X89432258Y-131324224D01*
X89494892Y-131393787D01*
X89502347Y-131402066D01*
X89656848Y-131514318D01*
X89831312Y-131591994D01*
X90018113Y-131631700D01*
X90209087Y-131631700D01*
X90395888Y-131591994D01*
X90395893Y-131591991D01*
X90396583Y-131591768D01*
X90398027Y-131591539D01*
X90402244Y-131590643D01*
X90402290Y-131590864D01*
X90434898Y-131585700D01*
X93662980Y-131585700D01*
X93730019Y-131605385D01*
X93750661Y-131622019D01*
X93821272Y-131692630D01*
X93972186Y-131785715D01*
X94140498Y-131841487D01*
X94244379Y-131852100D01*
X95295468Y-131852099D01*
X95399350Y-131841487D01*
X95567662Y-131785715D01*
X95718576Y-131692630D01*
X95843954Y-131567252D01*
X95843959Y-131567243D01*
X95845191Y-131565687D01*
X95846314Y-131564891D01*
X95849061Y-131562145D01*
X95849530Y-131562614D01*
X95902214Y-131525312D01*
X95942456Y-131518600D01*
X95987782Y-131518600D01*
X96054821Y-131538285D01*
X96093321Y-131577504D01*
X96107928Y-131601187D01*
X96108894Y-131602752D01*
X96234272Y-131728130D01*
X96361523Y-131806619D01*
X96408245Y-131858565D01*
X96420424Y-131912156D01*
X96420424Y-134337156D01*
X96400739Y-134404195D01*
X96361214Y-134442883D01*
X96277113Y-134494420D01*
X96277110Y-134494421D01*
X96096555Y-134648631D01*
X95942345Y-134829186D01*
X95942344Y-134829189D01*
X95818283Y-135031637D01*
X95818281Y-135031640D01*
X95727419Y-135251002D01*
X95727419Y-135251004D01*
X95671989Y-135481885D01*
X95653359Y-135718600D01*
X95671989Y-135955314D01*
X95727419Y-136186195D01*
X95727419Y-136186197D01*
X95818281Y-136405559D01*
X95818283Y-136405562D01*
X95942344Y-136608010D01*
X95942345Y-136608013D01*
X95942348Y-136608016D01*
X96096555Y-136788569D01*
X96195478Y-136873057D01*
X96277110Y-136942778D01*
X96277113Y-136942779D01*
X96472098Y-137062267D01*
X96479561Y-137066840D01*
X96568977Y-137103876D01*
X96623379Y-137147716D01*
X96645445Y-137214010D01*
X96645524Y-137218437D01*
X96645524Y-138465786D01*
X96625839Y-138532825D01*
X96586621Y-138571324D01*
X96467875Y-138644567D01*
X96467871Y-138644570D01*
X96342494Y-138769947D01*
X96342492Y-138769950D01*
X96342065Y-138770643D01*
X96341647Y-138771018D01*
X96338013Y-138775615D01*
X96337227Y-138774993D01*
X96290115Y-138817364D01*
X96221151Y-138828583D01*
X96157071Y-138800736D01*
X96139263Y-138780178D01*
X96138322Y-138780923D01*
X96133840Y-138775255D01*
X96009869Y-138651284D01*
X95860648Y-138559243D01*
X95860643Y-138559241D01*
X95694221Y-138504094D01*
X95694214Y-138504093D01*
X95591510Y-138493600D01*
X95454024Y-138493600D01*
X95454024Y-140943599D01*
X95591496Y-140943599D01*
X95591510Y-140943598D01*
X95694221Y-140933105D01*
X95860643Y-140877958D01*
X95860648Y-140877956D01*
X96009869Y-140785915D01*
X96133840Y-140661944D01*
X96138322Y-140656277D01*
X96140515Y-140658011D01*
X96182881Y-140619865D01*
X96251838Y-140608608D01*
X96315934Y-140636418D01*
X96337858Y-140661706D01*
X96338013Y-140661585D01*
X96340707Y-140664992D01*
X96342069Y-140666563D01*
X96342494Y-140667252D01*
X96467872Y-140792630D01*
X96618786Y-140885715D01*
X96787098Y-140941487D01*
X96890979Y-140952100D01*
X97667068Y-140952099D01*
X97770950Y-140941487D01*
X97939262Y-140885715D01*
X98090176Y-140792630D01*
X98215554Y-140667252D01*
X98308639Y-140516338D01*
X98364411Y-140348026D01*
X98375024Y-140244145D01*
X98375023Y-139193056D01*
X98364411Y-139089174D01*
X98308639Y-138920862D01*
X98215554Y-138769948D01*
X98090176Y-138644570D01*
X98090172Y-138644567D01*
X97971427Y-138571324D01*
X97924702Y-138519376D01*
X97912524Y-138465786D01*
X97912524Y-137100105D01*
X97932209Y-137033066D01*
X97971734Y-136994378D01*
X98055935Y-136942779D01*
X98055937Y-136942778D01*
X98055937Y-136942777D01*
X98055940Y-136942776D01*
X98236493Y-136788569D01*
X98390700Y-136608016D01*
X98514764Y-136405563D01*
X98523494Y-136384488D01*
X98605628Y-136186197D01*
X98605628Y-136186196D01*
X98605629Y-136186194D01*
X98661059Y-135955311D01*
X98679689Y-135718600D01*
X98661059Y-135481889D01*
X98605629Y-135251006D01*
X98605628Y-135251003D01*
X98605628Y-135251002D01*
X98514766Y-135031640D01*
X98514764Y-135031637D01*
X98467915Y-134955186D01*
X98390702Y-134829188D01*
X98390702Y-134829186D01*
X98308039Y-134732401D01*
X98236493Y-134648631D01*
X98098265Y-134530573D01*
X98055937Y-134494421D01*
X98055934Y-134494420D01*
X98004634Y-134462983D01*
X97957759Y-134411171D01*
X97945424Y-134357256D01*
X97945424Y-131912156D01*
X97965109Y-131845117D01*
X98004323Y-131806620D01*
X98131576Y-131728130D01*
X98256954Y-131602752D01*
X98256959Y-131602743D01*
X98258191Y-131601187D01*
X98259314Y-131600391D01*
X98262061Y-131597645D01*
X98262530Y-131598114D01*
X98315214Y-131560812D01*
X98355456Y-131554100D01*
X99824477Y-131554100D01*
X99949142Y-131554100D01*
X99967112Y-131555409D01*
X99969804Y-131555803D01*
X99991396Y-131558966D01*
X100041620Y-131554571D01*
X100052427Y-131554100D01*
X100058130Y-131554100D01*
X100058136Y-131554100D01*
X100089483Y-131550435D01*
X100093004Y-131550076D01*
X100168964Y-131543431D01*
X100168972Y-131543428D01*
X100176033Y-131541971D01*
X100176041Y-131542014D01*
X100183740Y-131540307D01*
X100183731Y-131540266D01*
X100190757Y-131538600D01*
X100190760Y-131538598D01*
X100190766Y-131538598D01*
X100262481Y-131512495D01*
X100265736Y-131511364D01*
X100338164Y-131487365D01*
X100338170Y-131487361D01*
X100344712Y-131484311D01*
X100344730Y-131484350D01*
X100351826Y-131480915D01*
X100351807Y-131480876D01*
X100358259Y-131477635D01*
X100358263Y-131477634D01*
X100421999Y-131435713D01*
X100424930Y-131433845D01*
X100489873Y-131393788D01*
X100489877Y-131393783D01*
X100495537Y-131389309D01*
X100495564Y-131389343D01*
X100501678Y-131384363D01*
X100501651Y-131384330D01*
X100507181Y-131379688D01*
X100507186Y-131379685D01*
X100559545Y-131324186D01*
X100561989Y-131321670D01*
X103365188Y-128518472D01*
X103426509Y-128484989D01*
X103489416Y-128487664D01*
X103576704Y-128514588D01*
X103607924Y-128524218D01*
X103607925Y-128524218D01*
X103607928Y-128524219D01*
X103868535Y-128563499D01*
X103868540Y-128563499D01*
X103868543Y-128563500D01*
X103868544Y-128563500D01*
X104132104Y-128563500D01*
X104132105Y-128563500D01*
X104132112Y-128563499D01*
X104392719Y-128524219D01*
X104392720Y-128524218D01*
X104392724Y-128524218D01*
X104644578Y-128446532D01*
X104882040Y-128332176D01*
X105099805Y-128183706D01*
X105293010Y-128004438D01*
X105457339Y-127798376D01*
X105589120Y-127570124D01*
X105685411Y-127324780D01*
X105744059Y-127067826D01*
X105763755Y-126805000D01*
X105744059Y-126542174D01*
X105685411Y-126285220D01*
X105589120Y-126039876D01*
X105457339Y-125811624D01*
X105293010Y-125605562D01*
X105293009Y-125605561D01*
X105293006Y-125605557D01*
X105099805Y-125426294D01*
X104977540Y-125342935D01*
X104882040Y-125277824D01*
X104882036Y-125277822D01*
X104882035Y-125277821D01*
X104710497Y-125195213D01*
X104644578Y-125163468D01*
X104644572Y-125163466D01*
X104644564Y-125163463D01*
X104392729Y-125085783D01*
X104392719Y-125085780D01*
X104132112Y-125046500D01*
X104132105Y-125046500D01*
X103868543Y-125046500D01*
X103868535Y-125046500D01*
X103607928Y-125085780D01*
X103607922Y-125085782D01*
X103356069Y-125163468D01*
X103118612Y-125277822D01*
X103118608Y-125277824D01*
X102900845Y-125426292D01*
X102707641Y-125605557D01*
X102543309Y-125811624D01*
X102522711Y-125847301D01*
X102472144Y-125895517D01*
X102403537Y-125908740D01*
X102338672Y-125882771D01*
X102307937Y-125847301D01*
X102287339Y-125811624D01*
X102123010Y-125605562D01*
X102123009Y-125605561D01*
X102123006Y-125605557D01*
X101929805Y-125426294D01*
X101807540Y-125342935D01*
X101712040Y-125277824D01*
X101712036Y-125277822D01*
X101712035Y-125277821D01*
X101540497Y-125195213D01*
X101474578Y-125163468D01*
X101474572Y-125163466D01*
X101474564Y-125163463D01*
X101222729Y-125085783D01*
X101222719Y-125085780D01*
X100962112Y-125046500D01*
X100962105Y-125046500D01*
X100698543Y-125046500D01*
X100698535Y-125046500D01*
X100437928Y-125085780D01*
X100437922Y-125085782D01*
X100186069Y-125163468D01*
X99948612Y-125277822D01*
X99948608Y-125277824D01*
X99730845Y-125426292D01*
X99537641Y-125605557D01*
X99373309Y-125811624D01*
X99241528Y-126039875D01*
X99145239Y-126285214D01*
X99145234Y-126285231D01*
X99086588Y-126542176D01*
X99066893Y-126804995D01*
X99066893Y-126805004D01*
X99086588Y-127067823D01*
X99108455Y-127163627D01*
X99145237Y-127324780D01*
X99241528Y-127570124D01*
X99373309Y-127798376D01*
X99492273Y-127947552D01*
X99537641Y-128004442D01*
X99629933Y-128090075D01*
X99730843Y-128183706D01*
X99948609Y-128332176D01*
X100186070Y-128446532D01*
X100437924Y-128524218D01*
X100437925Y-128524218D01*
X100437928Y-128524219D01*
X100698535Y-128563499D01*
X100698540Y-128563499D01*
X100698543Y-128563500D01*
X100698544Y-128563500D01*
X100864123Y-128563500D01*
X100931162Y-128583185D01*
X100976917Y-128635989D01*
X100986861Y-128705147D01*
X100957836Y-128768703D01*
X100951804Y-128775181D01*
X99734205Y-129992781D01*
X99672882Y-130026266D01*
X99646524Y-130029100D01*
X98355456Y-130029100D01*
X98288417Y-130009415D01*
X98262078Y-129985537D01*
X98262061Y-129985555D01*
X98261701Y-129985195D01*
X98258191Y-129982013D01*
X98256956Y-129980451D01*
X98256954Y-129980448D01*
X98131576Y-129855070D01*
X98131575Y-129855069D01*
X98130887Y-129854645D01*
X98130514Y-129854230D01*
X98125909Y-129850589D01*
X98126531Y-129849802D01*
X98084162Y-129802698D01*
X98072939Y-129733735D01*
X98100782Y-129669653D01*
X98121347Y-129651842D01*
X98120601Y-129650898D01*
X98126268Y-129646416D01*
X98250239Y-129522445D01*
X98342280Y-129373224D01*
X98342282Y-129373219D01*
X98397429Y-129206797D01*
X98397430Y-129206790D01*
X98407923Y-129104086D01*
X98407924Y-129104073D01*
X98407924Y-128966600D01*
X96001786Y-128966600D01*
X95934747Y-128946915D01*
X95915121Y-128931100D01*
X93544925Y-128931100D01*
X93544925Y-129068586D01*
X93555418Y-129171297D01*
X93610565Y-129337719D01*
X93610567Y-129337724D01*
X93702608Y-129486945D01*
X93826579Y-129610916D01*
X93832247Y-129615398D01*
X93830516Y-129617586D01*
X93868673Y-129659990D01*
X93879911Y-129728950D01*
X93852082Y-129793038D01*
X93826818Y-129814936D01*
X93826939Y-129815089D01*
X93823551Y-129817767D01*
X93821967Y-129819141D01*
X93821274Y-129819568D01*
X93821271Y-129819570D01*
X93695894Y-129944947D01*
X93695893Y-129944949D01*
X93660830Y-130001796D01*
X93608882Y-130048521D01*
X93555291Y-130060700D01*
X90787669Y-130060700D01*
X90720630Y-130041015D01*
X90714783Y-130037018D01*
X90699984Y-130026266D01*
X90570352Y-129932082D01*
X90395888Y-129854406D01*
X90395886Y-129854405D01*
X90209087Y-129814700D01*
X90018113Y-129814700D01*
X89831314Y-129854405D01*
X89656846Y-129932083D01*
X89502345Y-130044335D01*
X89374559Y-130186257D01*
X89279073Y-130351643D01*
X89279070Y-130351650D01*
X89240129Y-130471500D01*
X89220058Y-130533272D01*
X89200096Y-130723200D01*
X85847100Y-130723200D01*
X85847100Y-129099613D01*
X85848839Y-129083861D01*
X85848568Y-129083836D01*
X85849300Y-129076080D01*
X85849302Y-129076073D01*
X85847161Y-129007949D01*
X85847100Y-129004054D01*
X85847100Y-128976128D01*
X85847100Y-128976125D01*
X85846582Y-128972028D01*
X85845665Y-128960379D01*
X85844274Y-128916094D01*
X85844274Y-128916092D01*
X85838574Y-128896473D01*
X85834631Y-128877427D01*
X85832074Y-128857185D01*
X85832074Y-128857184D01*
X85815756Y-128815971D01*
X85811986Y-128804956D01*
X85799619Y-128762388D01*
X85789220Y-128744805D01*
X85780666Y-128727344D01*
X85773152Y-128708364D01*
X85747108Y-128672518D01*
X85740698Y-128662759D01*
X85718143Y-128624621D01*
X85718142Y-128624619D01*
X85703708Y-128610185D01*
X85691071Y-128595390D01*
X85679072Y-128578874D01*
X85679069Y-128578872D01*
X85679069Y-128578871D01*
X85644925Y-128550624D01*
X85636285Y-128542762D01*
X85524623Y-128431100D01*
X93544924Y-128431100D01*
X94519924Y-128431100D01*
X94519924Y-127593600D01*
X95019924Y-127593600D01*
X95019924Y-128431100D01*
X95951062Y-128431100D01*
X96018101Y-128450785D01*
X96037727Y-128466600D01*
X96932924Y-128466600D01*
X96932924Y-127629100D01*
X97432924Y-127629100D01*
X97432924Y-128466600D01*
X98407923Y-128466600D01*
X98407923Y-128329128D01*
X98407922Y-128329113D01*
X98397429Y-128226402D01*
X98342282Y-128059980D01*
X98342280Y-128059975D01*
X98250239Y-127910754D01*
X98126269Y-127786784D01*
X97977048Y-127694743D01*
X97977043Y-127694741D01*
X97810621Y-127639594D01*
X97810614Y-127639593D01*
X97707910Y-127629100D01*
X97432924Y-127629100D01*
X96932924Y-127629100D01*
X96657953Y-127629100D01*
X96657936Y-127629101D01*
X96555226Y-127639594D01*
X96388804Y-127694741D01*
X96388799Y-127694743D01*
X96239578Y-127786784D01*
X96115606Y-127910756D01*
X96092910Y-127947553D01*
X96040962Y-127994277D01*
X95971999Y-128005498D01*
X95907917Y-127977654D01*
X95881833Y-127947552D01*
X95837239Y-127875254D01*
X95713269Y-127751284D01*
X95564048Y-127659243D01*
X95564043Y-127659241D01*
X95397621Y-127604094D01*
X95397614Y-127604093D01*
X95294910Y-127593600D01*
X95019924Y-127593600D01*
X94519924Y-127593600D01*
X94244953Y-127593600D01*
X94244936Y-127593601D01*
X94142226Y-127604094D01*
X93975804Y-127659241D01*
X93975799Y-127659243D01*
X93826578Y-127751284D01*
X93702608Y-127875254D01*
X93610567Y-128024475D01*
X93610565Y-128024480D01*
X93555418Y-128190902D01*
X93555417Y-128190909D01*
X93544924Y-128293613D01*
X93544924Y-128431100D01*
X85524623Y-128431100D01*
X82250794Y-125157271D01*
X82217309Y-125095948D01*
X82222293Y-125026256D01*
X82250794Y-124981909D01*
X83359504Y-123873200D01*
X87313601Y-123873200D01*
X87313601Y-124023186D01*
X87324094Y-124125897D01*
X87379241Y-124292319D01*
X87379243Y-124292324D01*
X87471284Y-124441545D01*
X87595254Y-124565515D01*
X87744475Y-124657556D01*
X87744480Y-124657558D01*
X87910902Y-124712705D01*
X87910909Y-124712706D01*
X88013619Y-124723199D01*
X88263599Y-124723199D01*
X88263600Y-124723198D01*
X88263600Y-123873200D01*
X87313601Y-123873200D01*
X83359504Y-123873200D01*
X83577154Y-123655550D01*
X84939685Y-122293019D01*
X85001008Y-122259534D01*
X85027366Y-122256700D01*
X87278076Y-122256700D01*
X87345115Y-122276385D01*
X87383613Y-122315601D01*
X87441940Y-122410163D01*
X87464571Y-122446853D01*
X87559247Y-122541529D01*
X87592732Y-122602852D01*
X87587748Y-122672544D01*
X87559248Y-122716891D01*
X87471282Y-122804857D01*
X87379243Y-122954075D01*
X87379241Y-122954080D01*
X87324094Y-123120502D01*
X87324093Y-123120509D01*
X87313600Y-123223213D01*
X87313600Y-123373200D01*
X88639600Y-123373200D01*
X88706639Y-123392885D01*
X88752394Y-123445689D01*
X88763600Y-123497200D01*
X88763600Y-124723199D01*
X89013572Y-124723199D01*
X89013586Y-124723198D01*
X89116297Y-124712705D01*
X89282719Y-124657558D01*
X89282724Y-124657556D01*
X89431936Y-124565521D01*
X89435085Y-124563031D01*
X89437655Y-124561993D01*
X89438091Y-124561725D01*
X89438136Y-124561799D01*
X89499878Y-124536884D01*
X89568521Y-124549916D01*
X89619222Y-124597991D01*
X89635364Y-124647682D01*
X89636192Y-124655793D01*
X89691341Y-124822219D01*
X89691343Y-124822224D01*
X89783384Y-124971445D01*
X89907354Y-125095415D01*
X90056575Y-125187456D01*
X90056580Y-125187458D01*
X90223002Y-125242605D01*
X90223009Y-125242606D01*
X90325719Y-125253099D01*
X90463199Y-125253099D01*
X90463200Y-125253098D01*
X90463200Y-122836862D01*
X90482885Y-122769823D01*
X90488600Y-122762730D01*
X90488600Y-120618700D01*
X90351127Y-120618700D01*
X90351112Y-120618701D01*
X90248402Y-120629194D01*
X90081980Y-120684341D01*
X90081975Y-120684343D01*
X89932757Y-120776382D01*
X89805885Y-120903254D01*
X89744562Y-120936738D01*
X89674870Y-120931754D01*
X89618937Y-120889882D01*
X89612665Y-120880668D01*
X89583748Y-120833786D01*
X89562630Y-120799548D01*
X89498073Y-120734991D01*
X89464588Y-120673668D01*
X89469572Y-120603976D01*
X89498071Y-120559631D01*
X91184703Y-118872999D01*
X91246024Y-118839516D01*
X91315716Y-118844500D01*
X91360063Y-118873001D01*
X92885581Y-120398519D01*
X92919066Y-120459842D01*
X92914082Y-120529534D01*
X92872210Y-120585467D01*
X92806746Y-120609884D01*
X92797900Y-120610200D01*
X92425562Y-120610200D01*
X92425546Y-120610201D01*
X92321672Y-120620813D01*
X92153364Y-120676584D01*
X92153359Y-120676586D01*
X92002446Y-120769671D01*
X91877070Y-120895047D01*
X91877068Y-120895050D01*
X91876641Y-120895743D01*
X91876223Y-120896118D01*
X91872589Y-120900715D01*
X91871803Y-120900093D01*
X91824691Y-120942464D01*
X91755727Y-120953683D01*
X91691647Y-120925836D01*
X91673839Y-120905278D01*
X91672898Y-120906023D01*
X91668416Y-120900355D01*
X91544445Y-120776384D01*
X91395224Y-120684343D01*
X91395219Y-120684341D01*
X91228797Y-120629194D01*
X91228790Y-120629193D01*
X91126086Y-120618700D01*
X90988600Y-120618700D01*
X90988600Y-123034938D01*
X90968915Y-123101977D01*
X90963200Y-123109069D01*
X90963200Y-125253099D01*
X91100672Y-125253099D01*
X91100686Y-125253098D01*
X91203397Y-125242605D01*
X91369819Y-125187458D01*
X91369824Y-125187456D01*
X91519045Y-125095415D01*
X91643016Y-124971444D01*
X91647498Y-124965777D01*
X91649691Y-124967511D01*
X91692057Y-124929365D01*
X91761014Y-124918108D01*
X91825110Y-124945918D01*
X91847034Y-124971206D01*
X91847189Y-124971085D01*
X91849883Y-124974492D01*
X91851245Y-124976063D01*
X91851411Y-124976333D01*
X91851670Y-124976752D01*
X91977048Y-125102130D01*
X92127962Y-125195215D01*
X92296274Y-125250987D01*
X92400155Y-125261600D01*
X93176244Y-125261599D01*
X93280126Y-125250987D01*
X93448438Y-125195215D01*
X93599352Y-125102130D01*
X93724730Y-124976752D01*
X93817815Y-124825838D01*
X93873587Y-124657526D01*
X93884200Y-124553645D01*
X93884199Y-123502556D01*
X93873587Y-123398674D01*
X93817815Y-123230362D01*
X93724730Y-123079448D01*
X93681563Y-123036281D01*
X93648078Y-122974958D01*
X93653062Y-122905266D01*
X93681563Y-122860919D01*
X93706964Y-122835518D01*
X93750130Y-122792352D01*
X93779581Y-122744603D01*
X93831529Y-122697879D01*
X93885120Y-122685700D01*
X94069680Y-122685700D01*
X94136719Y-122705385D01*
X94163966Y-122729165D01*
X94213400Y-122787044D01*
X94218631Y-122793169D01*
X94399186Y-122947378D01*
X94399189Y-122947379D01*
X94601637Y-123071440D01*
X94601640Y-123071442D01*
X94821003Y-123162304D01*
X94821004Y-123162304D01*
X94821006Y-123162305D01*
X95051889Y-123217735D01*
X95288600Y-123236365D01*
X95525311Y-123217735D01*
X95756194Y-123162305D01*
X95756196Y-123162304D01*
X95756197Y-123162304D01*
X95975559Y-123071442D01*
X95975560Y-123071441D01*
X95975563Y-123071440D01*
X96178016Y-122947376D01*
X96358569Y-122793169D01*
X96512776Y-122612616D01*
X96636840Y-122410163D01*
X96684154Y-122295938D01*
X96727704Y-122190797D01*
X96727704Y-122190796D01*
X96727705Y-122190794D01*
X96783135Y-121959911D01*
X96801765Y-121723200D01*
X96783135Y-121486489D01*
X96727705Y-121255606D01*
X96727704Y-121255603D01*
X96727704Y-121255602D01*
X96636842Y-121036240D01*
X96636840Y-121036237D01*
X96553410Y-120900093D01*
X96512778Y-120833788D01*
X96512778Y-120833786D01*
X96445506Y-120755021D01*
X96358569Y-120653231D01*
X96218111Y-120533268D01*
X96178013Y-120499021D01*
X96178010Y-120499020D01*
X95975562Y-120374959D01*
X95975559Y-120374957D01*
X95756196Y-120284095D01*
X95525314Y-120228665D01*
X95288600Y-120210035D01*
X95051889Y-120228665D01*
X95051885Y-120228665D01*
X95051884Y-120228666D01*
X94974674Y-120247202D01*
X94904892Y-120243711D01*
X94858047Y-120214309D01*
X92453779Y-117810041D01*
X92435925Y-117787462D01*
X92403289Y-117734551D01*
X92403286Y-117734548D01*
X92398811Y-117728888D01*
X92398843Y-117728862D01*
X92393860Y-117722745D01*
X92393829Y-117722772D01*
X92389186Y-117717239D01*
X92333740Y-117664928D01*
X92331153Y-117662415D01*
X88939782Y-114271044D01*
X95845923Y-114271044D01*
X95852324Y-114330572D01*
X95852326Y-114330579D01*
X95902568Y-114465286D01*
X95902572Y-114465293D01*
X95988732Y-114580387D01*
X95988735Y-114580390D01*
X96103829Y-114666550D01*
X96103836Y-114666554D01*
X96238543Y-114716796D01*
X96238550Y-114716798D01*
X96298078Y-114723199D01*
X96298095Y-114723200D01*
X97095923Y-114723200D01*
X97095923Y-113658701D01*
X97203608Y-113707880D01*
X97310160Y-113723200D01*
X97381686Y-113723200D01*
X97488238Y-113707880D01*
X97595923Y-113658701D01*
X97595923Y-114723200D01*
X98393751Y-114723200D01*
X98393767Y-114723199D01*
X98453295Y-114716798D01*
X98453302Y-114716796D01*
X98588009Y-114666554D01*
X98588016Y-114666550D01*
X98703110Y-114580390D01*
X98703113Y-114580387D01*
X98789273Y-114465293D01*
X98789277Y-114465286D01*
X98839519Y-114330579D01*
X98839521Y-114330572D01*
X98845922Y-114271044D01*
X98845923Y-114271027D01*
X98845923Y-113473200D01*
X97779609Y-113473200D01*
X97805416Y-113433044D01*
X97845923Y-113295089D01*
X97845923Y-113151311D01*
X97805416Y-113013356D01*
X97779609Y-112973200D01*
X98845923Y-112973200D01*
X98845923Y-112175372D01*
X98845922Y-112175355D01*
X98839521Y-112115827D01*
X98839519Y-112115820D01*
X98789277Y-111981113D01*
X98789273Y-111981106D01*
X98703113Y-111866012D01*
X98703110Y-111866009D01*
X98588016Y-111779849D01*
X98588009Y-111779845D01*
X98453302Y-111729603D01*
X98453295Y-111729601D01*
X98393767Y-111723200D01*
X97595923Y-111723200D01*
X97595923Y-112787698D01*
X97488238Y-112738520D01*
X97381686Y-112723200D01*
X97310160Y-112723200D01*
X97203608Y-112738520D01*
X97095923Y-112787698D01*
X97095923Y-111723200D01*
X96298078Y-111723200D01*
X96238550Y-111729601D01*
X96238543Y-111729603D01*
X96103836Y-111779845D01*
X96103829Y-111779849D01*
X95988735Y-111866009D01*
X95988732Y-111866012D01*
X95902572Y-111981106D01*
X95902568Y-111981113D01*
X95852326Y-112115820D01*
X95852324Y-112115827D01*
X95845923Y-112175355D01*
X95845923Y-112973200D01*
X96912237Y-112973200D01*
X96886430Y-113013356D01*
X96845923Y-113151311D01*
X96845923Y-113295089D01*
X96886430Y-113433044D01*
X96912237Y-113473200D01*
X95845923Y-113473200D01*
X95845923Y-114271044D01*
X88939782Y-114271044D01*
X83049919Y-108381181D01*
X83016434Y-108319858D01*
X83014374Y-108300700D01*
X84563201Y-108300700D01*
X84563201Y-108750686D01*
X84573694Y-108853397D01*
X84628841Y-109019819D01*
X84628843Y-109019824D01*
X84720884Y-109169045D01*
X84844854Y-109293015D01*
X84994075Y-109385056D01*
X84994080Y-109385058D01*
X85160502Y-109440205D01*
X85160509Y-109440206D01*
X85263219Y-109450699D01*
X85475699Y-109450699D01*
X85475700Y-109450698D01*
X85475700Y-108300700D01*
X85975700Y-108300700D01*
X85975700Y-109450699D01*
X86188172Y-109450699D01*
X86188186Y-109450698D01*
X86290897Y-109440205D01*
X86457319Y-109385058D01*
X86457324Y-109385056D01*
X86606545Y-109293015D01*
X86730515Y-109169045D01*
X86822556Y-109019824D01*
X86822558Y-109019819D01*
X86877705Y-108853397D01*
X86877706Y-108853390D01*
X86888199Y-108750686D01*
X86888200Y-108750673D01*
X86888200Y-108300700D01*
X85975700Y-108300700D01*
X85475700Y-108300700D01*
X84563201Y-108300700D01*
X83014374Y-108300700D01*
X83013600Y-108293500D01*
X83013600Y-100848990D01*
X83013810Y-100841780D01*
X83014892Y-100823200D01*
X83017492Y-100778563D01*
X83015484Y-100767173D01*
X83013600Y-100745642D01*
X83013600Y-94195731D01*
X83033285Y-94128692D01*
X83057163Y-94102355D01*
X83057145Y-94102337D01*
X83057528Y-94101953D01*
X83060696Y-94098460D01*
X83062246Y-94097233D01*
X83062252Y-94097230D01*
X83187630Y-93971852D01*
X83234334Y-93896133D01*
X83266119Y-93844603D01*
X83318067Y-93797878D01*
X83371657Y-93785700D01*
X84212252Y-93785700D01*
X84279291Y-93805385D01*
X84325046Y-93858189D01*
X84334990Y-93927347D01*
X84332930Y-93938212D01*
X84332010Y-93942104D01*
X84325500Y-94002645D01*
X84325500Y-95899954D01*
X84332011Y-95960502D01*
X84332011Y-95960504D01*
X84377609Y-96082752D01*
X84383111Y-96097504D01*
X84470739Y-96214561D01*
X84587796Y-96302189D01*
X84724799Y-96353289D01*
X84752050Y-96356218D01*
X84785345Y-96359799D01*
X84785362Y-96359800D01*
X86376453Y-96359800D01*
X86443492Y-96379485D01*
X86489247Y-96432289D01*
X86499191Y-96501447D01*
X86494385Y-96522113D01*
X86476658Y-96576672D01*
X86460350Y-96731832D01*
X86459219Y-96742595D01*
X86432634Y-96807209D01*
X86423579Y-96817314D01*
X85255979Y-97984914D01*
X85243620Y-97994818D01*
X85243793Y-97995027D01*
X85237782Y-98000000D01*
X85191137Y-98049670D01*
X85188432Y-98052461D01*
X85168673Y-98072221D01*
X85168658Y-98072238D01*
X85166117Y-98075513D01*
X85158553Y-98084367D01*
X85128220Y-98116671D01*
X85128212Y-98116681D01*
X85118379Y-98134567D01*
X85107703Y-98150820D01*
X85095186Y-98166957D01*
X85095185Y-98166960D01*
X85077585Y-98207629D01*
X85072448Y-98218115D01*
X85051103Y-98256941D01*
X85051103Y-98256942D01*
X85046025Y-98276720D01*
X85039725Y-98295122D01*
X85031618Y-98313857D01*
X85024688Y-98357609D01*
X85022320Y-98369045D01*
X85011300Y-98411965D01*
X85011300Y-98432384D01*
X85009773Y-98451783D01*
X85006580Y-98471941D01*
X85006580Y-98471942D01*
X85010750Y-98516057D01*
X85011300Y-98527726D01*
X85011300Y-99649276D01*
X84991615Y-99716315D01*
X84952398Y-99754813D01*
X84889584Y-99793558D01*
X84821146Y-99835771D01*
X84695771Y-99961146D01*
X84602686Y-100112059D01*
X84602684Y-100112064D01*
X84546913Y-100280372D01*
X84536300Y-100384247D01*
X84536300Y-101385337D01*
X84536301Y-101385353D01*
X84546913Y-101489227D01*
X84602684Y-101657535D01*
X84602686Y-101657540D01*
X84605765Y-101662531D01*
X84695770Y-101808452D01*
X84821148Y-101933830D01*
X84918566Y-101993918D01*
X84965290Y-102045865D01*
X84976513Y-102114827D01*
X84948669Y-102178910D01*
X84918567Y-102204994D01*
X84846948Y-102249169D01*
X84721571Y-102374546D01*
X84628486Y-102525459D01*
X84628484Y-102525464D01*
X84572713Y-102693772D01*
X84562100Y-102797647D01*
X84562100Y-103848737D01*
X84562101Y-103848753D01*
X84572713Y-103952627D01*
X84620600Y-104097142D01*
X84628485Y-104120938D01*
X84721570Y-104271852D01*
X84846948Y-104397230D01*
X84850802Y-104399607D01*
X84897527Y-104451552D01*
X84908752Y-104520514D01*
X84880911Y-104584597D01*
X84873390Y-104592827D01*
X84839171Y-104627046D01*
X84746086Y-104777959D01*
X84746084Y-104777964D01*
X84690313Y-104946272D01*
X84679700Y-105050147D01*
X84679700Y-106051237D01*
X84679701Y-106051253D01*
X84690313Y-106155127D01*
X84740168Y-106305581D01*
X84746085Y-106323438D01*
X84826865Y-106454403D01*
X84839171Y-106474353D01*
X84937047Y-106572229D01*
X84970532Y-106633552D01*
X84965548Y-106703244D01*
X84923676Y-106759177D01*
X84914463Y-106765448D01*
X84844859Y-106808380D01*
X84844855Y-106808383D01*
X84720884Y-106932354D01*
X84628843Y-107081575D01*
X84628841Y-107081580D01*
X84573694Y-107248002D01*
X84573693Y-107248009D01*
X84563200Y-107350713D01*
X84563200Y-107800700D01*
X86888199Y-107800700D01*
X86888199Y-107350728D01*
X86888198Y-107350713D01*
X86877705Y-107248002D01*
X86822558Y-107081580D01*
X86822556Y-107081575D01*
X86730515Y-106932354D01*
X86606544Y-106808383D01*
X86600877Y-106803902D01*
X86602604Y-106801716D01*
X86564440Y-106759289D01*
X86553215Y-106690327D01*
X86581055Y-106626243D01*
X86606306Y-106604364D01*
X86606185Y-106604211D01*
X86609601Y-106601509D01*
X86611169Y-106600151D01*
X86611852Y-106599730D01*
X86700519Y-106511063D01*
X86761842Y-106477578D01*
X86831534Y-106482562D01*
X86875881Y-106511063D01*
X86964548Y-106599730D01*
X87115462Y-106692815D01*
X87283774Y-106748587D01*
X87387655Y-106759200D01*
X87720526Y-106759199D01*
X87787564Y-106778883D01*
X87833319Y-106831687D01*
X87843263Y-106900846D01*
X87826064Y-106948296D01*
X87746086Y-107077959D01*
X87746084Y-107077964D01*
X87690313Y-107246272D01*
X87679700Y-107350147D01*
X87679700Y-108751237D01*
X87679701Y-108751253D01*
X87690313Y-108855127D01*
X87735564Y-108991687D01*
X87746085Y-109023438D01*
X87839170Y-109174352D01*
X87964548Y-109299730D01*
X88115462Y-109392815D01*
X88283774Y-109448587D01*
X88387655Y-109459200D01*
X89313744Y-109459199D01*
X89417626Y-109448587D01*
X89585938Y-109392815D01*
X89736852Y-109299730D01*
X89862230Y-109174352D01*
X89955315Y-109023438D01*
X90011087Y-108855126D01*
X90021700Y-108751245D01*
X90021699Y-107350156D01*
X90011087Y-107246274D01*
X89955315Y-107077962D01*
X89862230Y-106927048D01*
X89736852Y-106801670D01*
X89585938Y-106708585D01*
X89585937Y-106708584D01*
X89585933Y-106708582D01*
X89569197Y-106703037D01*
X89511752Y-106663265D01*
X89484928Y-106598750D01*
X89484200Y-106585331D01*
X89484200Y-106573347D01*
X89484059Y-106572229D01*
X89483682Y-106569247D01*
X89482765Y-106557598D01*
X89481374Y-106513311D01*
X89475676Y-106493699D01*
X89471733Y-106474666D01*
X89469174Y-106454403D01*
X89452863Y-106413207D01*
X89449081Y-106402159D01*
X89436718Y-106359608D01*
X89436718Y-106359607D01*
X89426326Y-106342035D01*
X89417766Y-106324562D01*
X89417320Y-106323435D01*
X89410252Y-106305583D01*
X89384210Y-106269739D01*
X89377799Y-106259981D01*
X89355242Y-106221838D01*
X89340808Y-106207404D01*
X89328171Y-106192609D01*
X89316172Y-106176093D01*
X89316169Y-106176091D01*
X89316169Y-106176090D01*
X89282025Y-106147843D01*
X89273385Y-106139981D01*
X88933018Y-105799614D01*
X88899533Y-105738291D01*
X88896699Y-105711933D01*
X88896699Y-105050162D01*
X88896698Y-105050146D01*
X88896418Y-105047407D01*
X88886087Y-104946274D01*
X88830315Y-104777962D01*
X88737230Y-104627048D01*
X88613513Y-104503331D01*
X88580028Y-104442008D01*
X88585012Y-104372316D01*
X88613513Y-104327969D01*
X88636724Y-104304758D01*
X88669630Y-104271852D01*
X88732024Y-104170696D01*
X88748119Y-104144603D01*
X88800067Y-104097878D01*
X88853657Y-104085700D01*
X88888473Y-104085700D01*
X88955512Y-104105385D01*
X89001267Y-104158189D01*
X89006179Y-104170696D01*
X89018684Y-104208435D01*
X89018686Y-104208440D01*
X89030005Y-104226791D01*
X89111770Y-104359352D01*
X89237148Y-104484730D01*
X89388062Y-104577815D01*
X89556374Y-104633587D01*
X89660255Y-104644200D01*
X90461344Y-104644199D01*
X90565226Y-104633587D01*
X90733538Y-104577815D01*
X90884452Y-104484730D01*
X90973119Y-104396063D01*
X91034442Y-104362578D01*
X91104134Y-104367562D01*
X91148481Y-104396063D01*
X91237148Y-104484730D01*
X91388062Y-104577815D01*
X91556374Y-104633587D01*
X91660255Y-104644200D01*
X92461344Y-104644199D01*
X92565226Y-104633587D01*
X92733538Y-104577815D01*
X92884452Y-104484730D01*
X93009830Y-104359352D01*
X93102915Y-104208438D01*
X93158687Y-104040126D01*
X93169300Y-103936245D01*
X93169299Y-102935156D01*
X93158687Y-102831274D01*
X93102915Y-102662962D01*
X93009830Y-102512048D01*
X92898081Y-102400299D01*
X92864596Y-102338976D01*
X92869580Y-102269284D01*
X92911452Y-102213351D01*
X92920650Y-102207089D01*
X92934852Y-102198330D01*
X93060230Y-102072952D01*
X93153315Y-101922038D01*
X93209087Y-101753726D01*
X93219700Y-101649845D01*
X93219699Y-100598756D01*
X93209087Y-100494874D01*
X93153315Y-100326562D01*
X93060230Y-100175648D01*
X92934852Y-100050270D01*
X92796516Y-99964943D01*
X92783940Y-99957186D01*
X92783935Y-99957184D01*
X92615627Y-99901413D01*
X92511746Y-99890800D01*
X91735662Y-99890800D01*
X91735646Y-99890801D01*
X91631772Y-99901413D01*
X91463464Y-99957184D01*
X91463459Y-99957186D01*
X91312546Y-100050271D01*
X91187170Y-100175647D01*
X91187168Y-100175650D01*
X91186741Y-100176343D01*
X91186323Y-100176718D01*
X91182689Y-100181315D01*
X91181903Y-100180693D01*
X91134791Y-100223064D01*
X91065827Y-100234283D01*
X91001747Y-100206436D01*
X90983939Y-100185878D01*
X90982998Y-100186623D01*
X90978516Y-100180955D01*
X90854545Y-100056984D01*
X90705324Y-99964943D01*
X90705319Y-99964941D01*
X90538897Y-99909794D01*
X90538890Y-99909793D01*
X90436186Y-99899300D01*
X90298700Y-99899300D01*
X90298700Y-101250300D01*
X90279015Y-101317339D01*
X90226211Y-101363094D01*
X90174700Y-101374300D01*
X89922700Y-101374300D01*
X89855661Y-101354615D01*
X89809906Y-101301811D01*
X89798700Y-101250300D01*
X89798700Y-99860597D01*
X89818385Y-99793558D01*
X89835013Y-99772923D01*
X91327504Y-98280432D01*
X91341133Y-98268655D01*
X91347699Y-98263767D01*
X91360822Y-98253998D01*
X91393229Y-98215374D01*
X91400541Y-98207396D01*
X91404573Y-98203365D01*
X91424170Y-98178579D01*
X91426333Y-98175922D01*
X91475396Y-98117453D01*
X91475400Y-98117444D01*
X91479364Y-98111419D01*
X91479400Y-98111443D01*
X91483635Y-98104796D01*
X91483599Y-98104774D01*
X91487389Y-98098626D01*
X91487395Y-98098620D01*
X91519619Y-98029511D01*
X91521178Y-98026293D01*
X91534383Y-98000000D01*
X91555394Y-97958166D01*
X91555397Y-97958153D01*
X91557864Y-97951377D01*
X91557905Y-97951392D01*
X91560493Y-97943947D01*
X91560452Y-97943934D01*
X91562723Y-97937078D01*
X91562723Y-97937076D01*
X91562725Y-97937073D01*
X91578141Y-97862402D01*
X91578922Y-97858886D01*
X91596499Y-97784727D01*
X91596498Y-97784727D01*
X91596500Y-97784723D01*
X91596500Y-97784718D01*
X91597338Y-97777550D01*
X91597379Y-97777554D01*
X91598181Y-97769705D01*
X91598140Y-97769702D01*
X91598769Y-97762512D01*
X91596552Y-97686310D01*
X91596500Y-97682704D01*
X91596500Y-96253575D01*
X91616185Y-96186536D01*
X91668989Y-96140781D01*
X91738147Y-96130837D01*
X91779516Y-96144519D01*
X91966273Y-96245587D01*
X92080914Y-96284943D01*
X92187045Y-96321379D01*
X92187047Y-96321379D01*
X92187049Y-96321380D01*
X92417288Y-96359800D01*
X92417289Y-96359800D01*
X92650711Y-96359800D01*
X92650712Y-96359800D01*
X92880951Y-96321380D01*
X93101727Y-96245587D01*
X93184773Y-96200644D01*
X93243790Y-96185700D01*
X95446401Y-96185700D01*
X95513440Y-96205385D01*
X95534082Y-96222019D01*
X96547104Y-97235041D01*
X96580589Y-97296364D01*
X96583423Y-97322722D01*
X96583423Y-98900700D01*
X96563738Y-98967739D01*
X96510934Y-99013494D01*
X96459423Y-99024700D01*
X96297268Y-99024700D01*
X96236720Y-99031211D01*
X96236718Y-99031211D01*
X96099718Y-99082311D01*
X95982662Y-99169939D01*
X95895034Y-99286995D01*
X95843934Y-99423995D01*
X95843934Y-99423997D01*
X95837423Y-99484545D01*
X95837423Y-101581854D01*
X95843934Y-101642402D01*
X95843934Y-101642404D01*
X95885457Y-101753727D01*
X95895034Y-101779404D01*
X95982662Y-101896461D01*
X96099719Y-101984089D01*
X96236722Y-102035189D01*
X96263973Y-102038118D01*
X96297268Y-102041699D01*
X96297285Y-102041700D01*
X98394561Y-102041700D01*
X98394577Y-102041699D01*
X98421615Y-102038791D01*
X98455124Y-102035189D01*
X98592127Y-101984089D01*
X98709184Y-101896461D01*
X98796812Y-101779404D01*
X98847912Y-101642401D01*
X98854008Y-101585700D01*
X98854422Y-101581854D01*
X98854423Y-101581837D01*
X98854423Y-100533205D01*
X100840782Y-100533205D01*
X100861308Y-100780929D01*
X100861310Y-100780938D01*
X100922335Y-101021917D01*
X101022189Y-101249564D01*
X101122487Y-101403082D01*
X101862846Y-100662723D01*
X101886430Y-100743044D01*
X101964162Y-100863998D01*
X102072823Y-100958152D01*
X102203608Y-101017880D01*
X102213389Y-101019286D01*
X101475865Y-101756809D01*
X101522691Y-101793255D01*
X101522693Y-101793256D01*
X101741308Y-101911564D01*
X101741319Y-101911569D01*
X101976429Y-101992283D01*
X102221630Y-102033200D01*
X102470216Y-102033200D01*
X102715416Y-101992283D01*
X102950526Y-101911569D01*
X102950537Y-101911564D01*
X103169151Y-101793257D01*
X103169154Y-101793255D01*
X103215979Y-101756809D01*
X102478456Y-101019286D01*
X102488238Y-101017880D01*
X102619023Y-100958152D01*
X102727684Y-100863998D01*
X102805416Y-100743044D01*
X102828999Y-100662724D01*
X103569357Y-101403082D01*
X103669654Y-101249569D01*
X103769510Y-101021917D01*
X103830535Y-100780938D01*
X103830537Y-100780929D01*
X103851064Y-100533205D01*
X103851064Y-100533194D01*
X103830537Y-100285470D01*
X103830535Y-100285461D01*
X103769510Y-100044482D01*
X103669654Y-99816830D01*
X103569357Y-99663316D01*
X102828999Y-100403675D01*
X102805416Y-100323356D01*
X102727684Y-100202402D01*
X102619023Y-100108248D01*
X102488238Y-100048520D01*
X102478457Y-100047113D01*
X103215980Y-99309590D01*
X103215979Y-99309589D01*
X103169152Y-99273143D01*
X102950537Y-99154835D01*
X102950526Y-99154830D01*
X102715416Y-99074116D01*
X102470216Y-99033200D01*
X102221630Y-99033200D01*
X101976429Y-99074116D01*
X101741319Y-99154830D01*
X101741313Y-99154832D01*
X101522684Y-99273149D01*
X101475865Y-99309588D01*
X101475865Y-99309590D01*
X102213389Y-100047113D01*
X102203608Y-100048520D01*
X102072823Y-100108248D01*
X101964162Y-100202402D01*
X101886430Y-100323356D01*
X101862846Y-100403675D01*
X101122487Y-99663316D01*
X101022190Y-99816832D01*
X100922335Y-100044482D01*
X100861310Y-100285461D01*
X100861308Y-100285470D01*
X100840782Y-100533194D01*
X100840782Y-100533205D01*
X98854423Y-100533205D01*
X98854423Y-99484562D01*
X98854422Y-99484545D01*
X98850883Y-99451631D01*
X98847912Y-99423999D01*
X98838239Y-99398066D01*
X98819808Y-99348651D01*
X98796812Y-99286996D01*
X98709184Y-99169939D01*
X98592127Y-99082311D01*
X98570156Y-99074116D01*
X98455126Y-99031211D01*
X98394577Y-99024700D01*
X98394561Y-99024700D01*
X98232423Y-99024700D01*
X98165384Y-99005015D01*
X98119629Y-98952211D01*
X98108423Y-98900700D01*
X98108423Y-97020104D01*
X98109732Y-97002134D01*
X98109921Y-97000840D01*
X98113289Y-96977851D01*
X98109855Y-96938604D01*
X98108895Y-96927626D01*
X98108423Y-96916818D01*
X98108423Y-96911118D01*
X98108423Y-96911111D01*
X98104756Y-96879742D01*
X98104401Y-96876262D01*
X98097754Y-96800283D01*
X98097753Y-96800281D01*
X98096294Y-96793211D01*
X98096335Y-96793202D01*
X98094628Y-96785499D01*
X98094586Y-96785509D01*
X98092922Y-96778491D01*
X98092921Y-96778481D01*
X98066838Y-96706818D01*
X98065662Y-96703434D01*
X98054566Y-96669949D01*
X98041688Y-96631083D01*
X98041684Y-96631077D01*
X98038634Y-96624535D01*
X98038673Y-96624516D01*
X98035238Y-96617421D01*
X98035200Y-96617441D01*
X98031958Y-96610986D01*
X98029407Y-96607107D01*
X97990050Y-96547268D01*
X97988143Y-96544275D01*
X97948111Y-96479373D01*
X97943633Y-96473710D01*
X97943665Y-96473683D01*
X97938683Y-96467568D01*
X97938652Y-96467595D01*
X97934009Y-96462062D01*
X97878563Y-96409751D01*
X97875976Y-96407238D01*
X97579618Y-96110880D01*
X97546133Y-96049557D01*
X97551117Y-95979865D01*
X97579618Y-95935518D01*
X97800820Y-95714316D01*
X98044604Y-95470532D01*
X98058233Y-95458755D01*
X98077922Y-95444098D01*
X98110329Y-95405474D01*
X98117641Y-95397496D01*
X98121673Y-95393465D01*
X98141270Y-95368679D01*
X98143433Y-95366022D01*
X98192496Y-95307553D01*
X98192500Y-95307544D01*
X98196464Y-95301519D01*
X98196500Y-95301543D01*
X98200735Y-95294896D01*
X98200699Y-95294874D01*
X98204489Y-95288726D01*
X98204495Y-95288720D01*
X98236719Y-95219611D01*
X98238278Y-95216393D01*
X98272494Y-95148266D01*
X98272497Y-95148253D01*
X98274964Y-95141477D01*
X98275005Y-95141492D01*
X98277593Y-95134047D01*
X98277552Y-95134034D01*
X98279823Y-95127178D01*
X98279823Y-95127176D01*
X98279825Y-95127173D01*
X98295241Y-95052502D01*
X98296022Y-95048986D01*
X98313599Y-94974827D01*
X98313598Y-94974827D01*
X98313600Y-94974823D01*
X98313600Y-94974818D01*
X98314438Y-94967650D01*
X98314479Y-94967654D01*
X98315281Y-94959805D01*
X98315240Y-94959802D01*
X98315869Y-94952612D01*
X98315679Y-94946086D01*
X98314304Y-94898820D01*
X98332031Y-94831239D01*
X98357322Y-94802514D01*
X98357145Y-94802337D01*
X98359935Y-94799546D01*
X98361343Y-94797948D01*
X98362242Y-94797235D01*
X98362252Y-94797230D01*
X98375919Y-94783563D01*
X98437242Y-94750078D01*
X98506934Y-94755062D01*
X98551281Y-94783563D01*
X98564948Y-94797230D01*
X98715862Y-94890315D01*
X98884174Y-94946087D01*
X98988055Y-94956700D01*
X99764144Y-94956699D01*
X99868026Y-94946087D01*
X100036338Y-94890315D01*
X100187252Y-94797230D01*
X100312630Y-94671852D01*
X100313049Y-94671171D01*
X100313459Y-94670802D01*
X100317111Y-94666185D01*
X100317899Y-94666808D01*
X100364989Y-94624444D01*
X100433950Y-94613214D01*
X100498036Y-94641050D01*
X100515861Y-94661620D01*
X100516802Y-94660877D01*
X100521283Y-94666544D01*
X100645254Y-94790515D01*
X100794475Y-94882556D01*
X100794480Y-94882558D01*
X100960902Y-94937705D01*
X100960909Y-94937706D01*
X101063619Y-94948199D01*
X101201099Y-94948199D01*
X101201100Y-94948198D01*
X101201100Y-93973200D01*
X101701100Y-93973200D01*
X101701100Y-94948199D01*
X101838572Y-94948199D01*
X101838586Y-94948198D01*
X101941297Y-94937705D01*
X102107719Y-94882558D01*
X102107724Y-94882556D01*
X102256945Y-94790515D01*
X102380915Y-94666545D01*
X102472956Y-94517324D01*
X102472958Y-94517319D01*
X102528105Y-94350897D01*
X102528106Y-94350890D01*
X102538599Y-94248186D01*
X102538600Y-94248173D01*
X102538600Y-93973200D01*
X101701100Y-93973200D01*
X101201100Y-93973200D01*
X101201100Y-93597200D01*
X101220785Y-93530161D01*
X101273589Y-93484406D01*
X101325100Y-93473200D01*
X102538599Y-93473200D01*
X102538599Y-93198228D01*
X102538598Y-93198213D01*
X102527418Y-93088769D01*
X102529480Y-93088558D01*
X102533951Y-93028789D01*
X102576004Y-92972993D01*
X102641548Y-92948789D01*
X102709772Y-92963863D01*
X102737672Y-92984820D01*
X114460781Y-104707929D01*
X114494266Y-104769252D01*
X114497100Y-104795610D01*
X114497100Y-106280906D01*
X114477415Y-106347945D01*
X114437529Y-106386854D01*
X114352631Y-106438481D01*
X114139492Y-106611883D01*
X114139489Y-106611885D01*
X114139489Y-106611886D01*
X114119254Y-106633552D01*
X113951940Y-106812700D01*
X113793493Y-107037169D01*
X113793489Y-107037175D01*
X113667076Y-107281143D01*
X113575063Y-107540041D01*
X113575058Y-107540058D01*
X113519158Y-107809067D01*
X113519157Y-107809069D01*
X113500407Y-108083200D01*
X113519157Y-108357330D01*
X113519158Y-108357332D01*
X113575058Y-108626341D01*
X113575063Y-108626358D01*
X113667076Y-108885256D01*
X113793489Y-109129224D01*
X113793493Y-109129230D01*
X113951940Y-109353699D01*
X113951943Y-109353702D01*
X114139489Y-109554514D01*
X114352631Y-109727918D01*
X114352633Y-109727919D01*
X114352634Y-109727920D01*
X114587401Y-109870685D01*
X114791948Y-109959531D01*
X114839423Y-109980153D01*
X115104004Y-110054285D01*
X115343320Y-110087178D01*
X115376214Y-110091700D01*
X115376215Y-110091700D01*
X115650986Y-110091700D01*
X115680333Y-110087666D01*
X115923196Y-110054285D01*
X116187777Y-109980153D01*
X116439800Y-109870684D01*
X116674569Y-109727918D01*
X116887711Y-109554514D01*
X117075257Y-109353702D01*
X117233711Y-109129223D01*
X117360123Y-108885258D01*
X117452138Y-108626353D01*
X117452139Y-108626346D01*
X117452141Y-108626341D01*
X117480365Y-108490516D01*
X117508042Y-108357330D01*
X117526793Y-108083200D01*
X117508042Y-107809070D01*
X117478318Y-107666029D01*
X117452141Y-107540058D01*
X117452136Y-107540041D01*
X117409807Y-107420940D01*
X117360123Y-107281142D01*
X117233711Y-107037177D01*
X117233710Y-107037175D01*
X117233706Y-107037169D01*
X117075259Y-106812700D01*
X117025292Y-106759199D01*
X116887711Y-106611886D01*
X116728751Y-106482562D01*
X116674568Y-106438481D01*
X116589671Y-106386854D01*
X116542619Y-106335202D01*
X116530100Y-106280906D01*
X116530100Y-104379224D01*
X116530697Y-104367070D01*
X116531457Y-104359352D01*
X116535018Y-104323200D01*
X116530100Y-104273266D01*
X116515392Y-104123931D01*
X116457267Y-103932320D01*
X116440507Y-103900964D01*
X116362878Y-103755730D01*
X116274664Y-103648241D01*
X116235852Y-103600948D01*
X116229747Y-103595938D01*
X116201769Y-103572977D01*
X116192752Y-103564804D01*
X115531506Y-102903558D01*
X115498021Y-102842235D01*
X115503005Y-102772543D01*
X115531502Y-102728201D01*
X116262933Y-101996769D01*
X116324254Y-101963286D01*
X116379557Y-101963877D01*
X116603889Y-102017735D01*
X116840600Y-102036365D01*
X117077311Y-102017735D01*
X117308194Y-101962305D01*
X117308196Y-101962304D01*
X117308197Y-101962304D01*
X117527559Y-101871442D01*
X117527560Y-101871441D01*
X117527563Y-101871440D01*
X117730016Y-101747376D01*
X117910569Y-101593169D01*
X118064776Y-101412616D01*
X118188840Y-101210163D01*
X118198010Y-101188026D01*
X118279704Y-100990797D01*
X118279704Y-100990796D01*
X118279705Y-100990794D01*
X118335135Y-100759911D01*
X118353765Y-100523200D01*
X118335135Y-100286489D01*
X118279705Y-100055606D01*
X118279704Y-100055603D01*
X118279704Y-100055602D01*
X118188842Y-99836240D01*
X118188840Y-99836237D01*
X118082873Y-99663316D01*
X118064778Y-99633788D01*
X118064778Y-99633786D01*
X118007835Y-99567115D01*
X117910569Y-99453231D01*
X117788122Y-99348651D01*
X117730013Y-99299021D01*
X117730010Y-99299020D01*
X117527562Y-99174959D01*
X117527559Y-99174957D01*
X117308196Y-99084095D01*
X117077314Y-99028665D01*
X116840600Y-99010035D01*
X116603885Y-99028665D01*
X116373004Y-99084095D01*
X116373002Y-99084095D01*
X116153640Y-99174957D01*
X116153637Y-99174959D01*
X115951189Y-99299020D01*
X115951186Y-99299021D01*
X115770631Y-99453231D01*
X115616421Y-99633786D01*
X115616420Y-99633789D01*
X115492359Y-99836237D01*
X115492357Y-99836240D01*
X115401495Y-100055602D01*
X115401495Y-100055604D01*
X115346065Y-100286485D01*
X115327435Y-100523200D01*
X115346065Y-100759914D01*
X115399920Y-100984238D01*
X115396429Y-101054021D01*
X115367027Y-101100866D01*
X114635602Y-101832292D01*
X114574279Y-101865777D01*
X114504588Y-101860793D01*
X114460240Y-101832292D01*
X103200095Y-90572147D01*
X103191922Y-90563130D01*
X103163952Y-90529047D01*
X103083501Y-90463024D01*
X103009169Y-90402022D01*
X103009165Y-90402020D01*
X103009163Y-90402018D01*
X102832581Y-90307633D01*
X102640971Y-90249508D01*
X102640969Y-90249507D01*
X102541420Y-90239703D01*
X102541419Y-90239702D01*
X102441700Y-90229881D01*
X102397822Y-90234203D01*
X102385667Y-90234800D01*
X91863748Y-90234800D01*
X91796709Y-90215115D01*
X91787585Y-90208653D01*
X91607014Y-90068108D01*
X91607011Y-90068106D01*
X91401733Y-89957016D01*
X91401730Y-89957015D01*
X91401727Y-89957013D01*
X91401721Y-89957011D01*
X91401719Y-89957010D01*
X91180954Y-89881220D01*
X91008271Y-89852405D01*
X90950712Y-89842800D01*
X90717288Y-89842800D01*
X90671240Y-89850484D01*
X90487045Y-89881220D01*
X90266280Y-89957010D01*
X90266266Y-89957016D01*
X90060988Y-90068106D01*
X90060985Y-90068108D01*
X89876781Y-90211481D01*
X89876776Y-90211485D01*
X89718686Y-90383215D01*
X89591015Y-90578631D01*
X89497251Y-90792392D01*
X89439948Y-91018677D01*
X89420673Y-91251294D01*
X89420673Y-91251305D01*
X89439948Y-91483922D01*
X89497251Y-91710207D01*
X89591015Y-91923968D01*
X89718686Y-92119384D01*
X89876776Y-92291114D01*
X89876780Y-92291118D01*
X90023663Y-92405443D01*
X90064476Y-92462152D01*
X90071500Y-92503295D01*
X90071500Y-93649024D01*
X90051815Y-93716063D01*
X89999011Y-93761818D01*
X89929853Y-93771762D01*
X89888483Y-93758079D01*
X89701733Y-93657016D01*
X89701730Y-93657015D01*
X89701727Y-93657013D01*
X89701721Y-93657011D01*
X89701719Y-93657010D01*
X89480954Y-93581220D01*
X89308271Y-93552405D01*
X89250712Y-93542800D01*
X89017288Y-93542800D01*
X89017287Y-93542800D01*
X88897317Y-93562818D01*
X88827952Y-93554435D01*
X88789228Y-93528190D01*
X87992722Y-92731684D01*
X87959237Y-92670361D01*
X87964221Y-92600669D01*
X88006093Y-92544736D01*
X88021386Y-92534948D01*
X88207017Y-92434490D01*
X88391220Y-92291118D01*
X88549314Y-92119383D01*
X88676984Y-91923969D01*
X88770749Y-91710207D01*
X88828051Y-91483926D01*
X88840659Y-91331767D01*
X88847327Y-91251305D01*
X88847327Y-91251294D01*
X88834476Y-91096216D01*
X88828051Y-91018674D01*
X88770749Y-90792393D01*
X88676984Y-90578631D01*
X88561600Y-90402022D01*
X88549313Y-90383215D01*
X88391223Y-90211485D01*
X88391222Y-90211484D01*
X88391220Y-90211482D01*
X88207017Y-90068110D01*
X88207015Y-90068109D01*
X88207014Y-90068108D01*
X88207011Y-90068106D01*
X88001733Y-89957016D01*
X88001730Y-89957015D01*
X88001727Y-89957013D01*
X88001721Y-89957011D01*
X88001719Y-89957010D01*
X87780954Y-89881220D01*
X87608271Y-89852405D01*
X87550712Y-89842800D01*
X87317288Y-89842800D01*
X87271240Y-89850484D01*
X87087045Y-89881220D01*
X86866280Y-89957010D01*
X86866266Y-89957016D01*
X86660988Y-90068106D01*
X86660985Y-90068108D01*
X86476781Y-90211481D01*
X86476776Y-90211485D01*
X86318686Y-90383215D01*
X86191015Y-90578631D01*
X86097251Y-90792392D01*
X86039948Y-91018677D01*
X86020673Y-91251294D01*
X86020673Y-91251305D01*
X86039948Y-91483922D01*
X86097251Y-91710207D01*
X86191015Y-91923968D01*
X86285690Y-92068879D01*
X86305877Y-92135768D01*
X86286697Y-92202954D01*
X86234239Y-92249104D01*
X86181881Y-92260700D01*
X83371657Y-92260700D01*
X83304618Y-92241015D01*
X83266119Y-92201797D01*
X83187632Y-92074551D01*
X83187629Y-92074547D01*
X83062253Y-91949171D01*
X83062252Y-91949170D01*
X82923916Y-91863843D01*
X82911340Y-91856086D01*
X82911335Y-91856084D01*
X82743027Y-91800313D01*
X82639146Y-91789700D01*
X81863062Y-91789700D01*
X81863046Y-91789701D01*
X81759172Y-91800313D01*
X81590864Y-91856084D01*
X81590859Y-91856086D01*
X81439946Y-91949171D01*
X81314570Y-92074547D01*
X81314568Y-92074550D01*
X81314141Y-92075243D01*
X81313723Y-92075618D01*
X81310089Y-92080215D01*
X81309303Y-92079593D01*
X81262191Y-92121964D01*
X81193227Y-92133183D01*
X81129147Y-92105336D01*
X81111339Y-92084778D01*
X81110398Y-92085523D01*
X81105916Y-92079855D01*
X80981945Y-91955884D01*
X80832724Y-91863843D01*
X80832719Y-91863841D01*
X80666297Y-91808694D01*
X80666290Y-91808693D01*
X80563586Y-91798200D01*
X80426100Y-91798200D01*
X80426100Y-94248199D01*
X80563572Y-94248199D01*
X80563586Y-94248198D01*
X80666297Y-94237705D01*
X80832719Y-94182558D01*
X80832724Y-94182556D01*
X80981945Y-94090515D01*
X81105916Y-93966544D01*
X81110398Y-93960877D01*
X81112591Y-93962611D01*
X81154957Y-93924465D01*
X81223914Y-93913208D01*
X81288010Y-93941018D01*
X81309934Y-93966306D01*
X81310089Y-93966185D01*
X81312783Y-93969592D01*
X81314145Y-93971163D01*
X81314569Y-93971851D01*
X81439947Y-94097229D01*
X81441504Y-94098460D01*
X81442295Y-94099577D01*
X81445055Y-94102337D01*
X81444583Y-94102808D01*
X81481885Y-94155479D01*
X81488600Y-94195731D01*
X81488600Y-99936700D01*
X81468915Y-100003739D01*
X81416111Y-100049494D01*
X81364600Y-100060700D01*
X77017317Y-100060700D01*
X76950278Y-100041015D01*
X76911590Y-100001490D01*
X76870102Y-99933789D01*
X76870101Y-99933786D01*
X76786788Y-99836240D01*
X76715892Y-99753231D01*
X76594176Y-99649276D01*
X76535336Y-99599021D01*
X76535333Y-99599020D01*
X76332885Y-99474959D01*
X76332882Y-99474957D01*
X76113519Y-99384095D01*
X75882637Y-99328665D01*
X75645923Y-99310035D01*
X75409208Y-99328665D01*
X75178327Y-99384095D01*
X75178325Y-99384095D01*
X74958963Y-99474957D01*
X74958960Y-99474959D01*
X74756512Y-99599020D01*
X74756509Y-99599021D01*
X74575954Y-99753231D01*
X74421744Y-99933786D01*
X74421743Y-99933789D01*
X74297682Y-100136237D01*
X74297680Y-100136240D01*
X74206818Y-100355602D01*
X74206818Y-100355604D01*
X74151388Y-100586485D01*
X74132758Y-100823200D01*
X71145923Y-100823200D01*
X71145923Y-100751311D01*
X71105416Y-100613356D01*
X71079609Y-100573200D01*
X72145923Y-100573200D01*
X72145923Y-99775372D01*
X72145922Y-99775355D01*
X72139521Y-99715827D01*
X72139519Y-99715820D01*
X72089277Y-99581113D01*
X72089273Y-99581106D01*
X72003113Y-99466012D01*
X72003110Y-99466009D01*
X71888016Y-99379849D01*
X71888009Y-99379845D01*
X71753302Y-99329603D01*
X71753295Y-99329601D01*
X71693767Y-99323200D01*
X70895923Y-99323200D01*
X70895923Y-100387698D01*
X70788238Y-100338520D01*
X70681686Y-100323200D01*
X70610160Y-100323200D01*
X70503608Y-100338520D01*
X70395923Y-100387698D01*
X70395923Y-99323200D01*
X69598078Y-99323200D01*
X69538550Y-99329601D01*
X69538543Y-99329603D01*
X69403836Y-99379845D01*
X69403829Y-99379849D01*
X69288735Y-99466009D01*
X69288732Y-99466012D01*
X69202572Y-99581106D01*
X69202568Y-99581113D01*
X69152326Y-99715820D01*
X69152324Y-99715827D01*
X69145923Y-99775355D01*
X69145923Y-100573200D01*
X70212237Y-100573200D01*
X70186430Y-100613356D01*
X70145923Y-100751311D01*
X70145923Y-100895089D01*
X70186430Y-101033044D01*
X70212237Y-101073200D01*
X69145923Y-101073200D01*
X69145923Y-101871044D01*
X68884600Y-101871044D01*
X68884600Y-96944332D01*
X68886339Y-96928580D01*
X68886068Y-96928555D01*
X68886800Y-96920799D01*
X68886802Y-96920792D01*
X68884661Y-96852668D01*
X68884600Y-96848773D01*
X68884600Y-96820847D01*
X68884600Y-96820844D01*
X68884082Y-96816747D01*
X68883165Y-96805098D01*
X68882791Y-96793202D01*
X68881774Y-96760811D01*
X68876074Y-96741192D01*
X68872131Y-96722146D01*
X68869984Y-96705153D01*
X68869574Y-96701903D01*
X68853256Y-96660690D01*
X68849486Y-96649675D01*
X68837119Y-96607107D01*
X68826720Y-96589524D01*
X68818166Y-96572063D01*
X68810652Y-96553083D01*
X68784608Y-96517237D01*
X68778198Y-96507478D01*
X68761577Y-96479373D01*
X68755642Y-96469338D01*
X68741208Y-96454904D01*
X68728571Y-96440109D01*
X68716572Y-96423593D01*
X68716569Y-96423591D01*
X68716569Y-96423590D01*
X68682425Y-96395343D01*
X68673785Y-96387481D01*
X68496899Y-96210595D01*
X68463414Y-96149272D01*
X68468398Y-96079580D01*
X68501184Y-96035008D01*
X68499440Y-96033264D01*
X68504959Y-96027743D01*
X68504962Y-96027742D01*
X68519402Y-96013300D01*
X68534192Y-96000670D01*
X68550707Y-95988672D01*
X68578955Y-95954524D01*
X68586810Y-95945893D01*
X68664687Y-95868018D01*
X68726010Y-95834533D01*
X68752367Y-95831700D01*
X68809087Y-95831700D01*
X68995888Y-95791994D01*
X69170352Y-95714318D01*
X69324853Y-95602066D01*
X69452640Y-95460144D01*
X69548127Y-95294756D01*
X69607142Y-95113128D01*
X69627104Y-94923200D01*
X69607142Y-94733272D01*
X69548127Y-94551644D01*
X69452640Y-94386256D01*
X69324853Y-94244334D01*
X69170352Y-94132082D01*
X68995888Y-94054406D01*
X68995886Y-94054405D01*
X68809087Y-94014700D01*
X68618113Y-94014700D01*
X68431314Y-94054405D01*
X68279962Y-94121791D01*
X68210712Y-94131075D01*
X68147435Y-94101446D01*
X68110223Y-94042311D01*
X68106169Y-93995907D01*
X68113599Y-93923183D01*
X68113600Y-93923173D01*
X68113600Y-93773200D01*
X66787600Y-93773200D01*
X66720561Y-93753515D01*
X66674806Y-93700711D01*
X66663600Y-93649200D01*
X66663600Y-92423200D01*
X67163600Y-92423200D01*
X67163600Y-93273200D01*
X68113599Y-93273200D01*
X79088601Y-93273200D01*
X79088601Y-93548186D01*
X79099094Y-93650897D01*
X79154241Y-93817319D01*
X79154243Y-93817324D01*
X79246284Y-93966545D01*
X79370254Y-94090515D01*
X79519475Y-94182556D01*
X79519480Y-94182558D01*
X79685902Y-94237705D01*
X79685909Y-94237706D01*
X79788619Y-94248199D01*
X79926099Y-94248199D01*
X79926100Y-94248198D01*
X79926100Y-93273200D01*
X79088601Y-93273200D01*
X68113599Y-93273200D01*
X68113599Y-93123228D01*
X68113598Y-93123213D01*
X68103105Y-93020502D01*
X68047958Y-92854080D01*
X68047956Y-92854075D01*
X67998071Y-92773200D01*
X79088600Y-92773200D01*
X79926100Y-92773200D01*
X79926100Y-91798200D01*
X79788627Y-91798200D01*
X79788612Y-91798201D01*
X79685902Y-91808694D01*
X79519480Y-91863841D01*
X79519475Y-91863843D01*
X79370254Y-91955884D01*
X79246284Y-92079854D01*
X79154243Y-92229075D01*
X79154241Y-92229080D01*
X79099094Y-92395502D01*
X79099093Y-92395509D01*
X79088600Y-92498213D01*
X79088600Y-92773200D01*
X67998071Y-92773200D01*
X67955915Y-92704854D01*
X67831945Y-92580884D01*
X67682724Y-92488843D01*
X67682719Y-92488841D01*
X67516297Y-92433694D01*
X67516290Y-92433693D01*
X67413586Y-92423200D01*
X67163600Y-92423200D01*
X66663600Y-92423200D01*
X66413629Y-92423200D01*
X66413612Y-92423201D01*
X66310902Y-92433694D01*
X66144480Y-92488841D01*
X66144475Y-92488843D01*
X65995257Y-92580882D01*
X65907291Y-92668848D01*
X65845967Y-92702332D01*
X65776276Y-92697348D01*
X65731929Y-92668847D01*
X65637253Y-92574171D01*
X65637252Y-92574170D01*
X65522346Y-92503295D01*
X65486340Y-92481086D01*
X65486335Y-92481084D01*
X65318027Y-92425313D01*
X65214152Y-92414700D01*
X65214145Y-92414700D01*
X64452366Y-92414700D01*
X64385327Y-92395015D01*
X64364685Y-92378381D01*
X61933821Y-89947517D01*
X61445109Y-89458805D01*
X115487259Y-89458805D01*
X115507785Y-89706529D01*
X115507787Y-89706538D01*
X115568812Y-89947517D01*
X115668666Y-90175164D01*
X115768964Y-90328682D01*
X116509323Y-89588323D01*
X116532907Y-89668644D01*
X116610639Y-89789598D01*
X116719300Y-89883752D01*
X116850085Y-89943480D01*
X116859866Y-89944886D01*
X116122342Y-90682409D01*
X116169168Y-90718855D01*
X116169170Y-90718856D01*
X116387785Y-90837164D01*
X116387796Y-90837169D01*
X116622906Y-90917883D01*
X116868107Y-90958800D01*
X117116693Y-90958800D01*
X117361893Y-90917883D01*
X117597003Y-90837169D01*
X117597014Y-90837164D01*
X117815628Y-90718857D01*
X117815631Y-90718855D01*
X117862456Y-90682409D01*
X117124933Y-89944886D01*
X117134715Y-89943480D01*
X117265500Y-89883752D01*
X117374161Y-89789598D01*
X117451893Y-89668644D01*
X117475476Y-89588324D01*
X118215834Y-90328682D01*
X118316131Y-90175169D01*
X118415987Y-89947517D01*
X118477012Y-89706538D01*
X118477014Y-89706529D01*
X118497541Y-89458805D01*
X118497541Y-89458794D01*
X118477014Y-89211070D01*
X118477012Y-89211061D01*
X118415987Y-88970082D01*
X118316131Y-88742430D01*
X118215834Y-88588916D01*
X117475476Y-89329275D01*
X117451893Y-89248956D01*
X117374161Y-89128002D01*
X117265500Y-89033848D01*
X117134715Y-88974120D01*
X117124934Y-88972713D01*
X117862457Y-88235190D01*
X117862456Y-88235189D01*
X117815629Y-88198743D01*
X117597014Y-88080435D01*
X117597003Y-88080430D01*
X117361893Y-87999716D01*
X117116693Y-87958800D01*
X116868107Y-87958800D01*
X116622906Y-87999716D01*
X116387796Y-88080430D01*
X116387790Y-88080432D01*
X116169161Y-88198749D01*
X116122342Y-88235188D01*
X116122342Y-88235190D01*
X116859866Y-88972713D01*
X116850085Y-88974120D01*
X116719300Y-89033848D01*
X116610639Y-89128002D01*
X116532907Y-89248956D01*
X116509323Y-89329275D01*
X115768964Y-88588916D01*
X115668667Y-88742432D01*
X115568812Y-88970082D01*
X115507787Y-89211061D01*
X115507785Y-89211070D01*
X115487259Y-89458794D01*
X115487259Y-89458805D01*
X61445109Y-89458805D01*
X59489888Y-87503583D01*
X59479987Y-87491223D01*
X59479777Y-87491398D01*
X59474801Y-87485384D01*
X59474800Y-87485382D01*
X59425115Y-87438725D01*
X59422350Y-87436045D01*
X59402566Y-87416261D01*
X59399304Y-87413731D01*
X59390419Y-87406143D01*
X59358121Y-87375814D01*
X59358119Y-87375812D01*
X59340231Y-87365978D01*
X59323970Y-87355297D01*
X59307839Y-87342784D01*
X59267175Y-87325188D01*
X59256685Y-87320049D01*
X59217860Y-87298705D01*
X59217856Y-87298704D01*
X59198087Y-87293628D01*
X59179681Y-87287326D01*
X59160944Y-87279218D01*
X59160945Y-87279218D01*
X59117183Y-87272287D01*
X59105747Y-87269919D01*
X59090993Y-87266131D01*
X59062832Y-87258900D01*
X59062830Y-87258900D01*
X59042416Y-87258900D01*
X59023017Y-87257373D01*
X59002858Y-87254180D01*
X59002857Y-87254180D01*
X58958743Y-87258350D01*
X58947074Y-87258900D01*
X54488500Y-87258900D01*
X54421461Y-87239215D01*
X54375706Y-87186411D01*
X54364500Y-87134900D01*
X54364500Y-86443762D01*
X54364499Y-86443745D01*
X54358905Y-86391722D01*
X54357989Y-86383199D01*
X54357827Y-86382765D01*
X54335522Y-86322964D01*
X54306889Y-86246196D01*
X54219261Y-86129139D01*
X54102204Y-86041511D01*
X53965203Y-85990411D01*
X53904654Y-85983900D01*
X53904638Y-85983900D01*
X52625366Y-85983900D01*
X52558327Y-85964215D01*
X52512572Y-85911411D01*
X52502628Y-85842253D01*
X52531653Y-85778697D01*
X52537685Y-85772219D01*
X54086703Y-84223201D01*
X67408491Y-84223201D01*
X67428900Y-84508562D01*
X67489709Y-84788095D01*
X67589691Y-85056158D01*
X67726791Y-85307238D01*
X67726796Y-85307246D01*
X67833482Y-85449761D01*
X67833483Y-85449762D01*
X68643874Y-84639371D01*
X68685101Y-84717134D01*
X68808314Y-84862192D01*
X68959830Y-84977371D01*
X68996169Y-84994183D01*
X68187036Y-85803315D01*
X68329560Y-85910007D01*
X68329561Y-85910008D01*
X68580642Y-86047108D01*
X68580641Y-86047108D01*
X68848704Y-86147090D01*
X69128237Y-86207899D01*
X69413599Y-86228309D01*
X69413601Y-86228309D01*
X69698962Y-86207899D01*
X69978495Y-86147090D01*
X70246558Y-86047108D01*
X70497647Y-85910003D01*
X70640161Y-85803316D01*
X70640162Y-85803315D01*
X69830426Y-84993578D01*
X69946250Y-84923889D01*
X70084425Y-84793004D01*
X70186462Y-84642509D01*
X70993715Y-85449762D01*
X70993716Y-85449761D01*
X71100403Y-85307247D01*
X71237508Y-85056158D01*
X71337490Y-84788095D01*
X71398299Y-84508562D01*
X71418709Y-84223201D01*
X107408491Y-84223201D01*
X107428900Y-84508562D01*
X107489709Y-84788095D01*
X107589691Y-85056158D01*
X107726791Y-85307238D01*
X107726796Y-85307246D01*
X107833482Y-85449761D01*
X107833483Y-85449762D01*
X108643874Y-84639371D01*
X108685101Y-84717134D01*
X108808314Y-84862192D01*
X108959830Y-84977371D01*
X108996169Y-84994183D01*
X108187036Y-85803315D01*
X108329560Y-85910007D01*
X108329561Y-85910008D01*
X108580642Y-86047108D01*
X108580641Y-86047108D01*
X108848704Y-86147090D01*
X109128237Y-86207899D01*
X109413599Y-86228309D01*
X109413601Y-86228309D01*
X109698962Y-86207899D01*
X109978495Y-86147090D01*
X110246558Y-86047108D01*
X110497647Y-85910003D01*
X110640161Y-85803316D01*
X110640162Y-85803315D01*
X109830426Y-84993578D01*
X109946250Y-84923889D01*
X110084425Y-84793004D01*
X110186462Y-84642509D01*
X110993715Y-85449762D01*
X110993716Y-85449761D01*
X111100403Y-85307247D01*
X111237508Y-85056158D01*
X111337490Y-84788095D01*
X111398299Y-84508562D01*
X111418709Y-84223201D01*
X111418709Y-84223198D01*
X111398299Y-83937837D01*
X111337490Y-83658304D01*
X111237508Y-83390241D01*
X111100408Y-83139161D01*
X111100407Y-83139160D01*
X110993715Y-82996636D01*
X110183325Y-83807026D01*
X110142099Y-83729266D01*
X110018886Y-83584208D01*
X109867370Y-83469029D01*
X109831029Y-83452216D01*
X110640162Y-82643083D01*
X110640161Y-82643082D01*
X110497646Y-82536396D01*
X110497638Y-82536391D01*
X110246557Y-82399291D01*
X110246558Y-82399291D01*
X109978495Y-82299309D01*
X109698962Y-82238500D01*
X109413601Y-82218091D01*
X109413599Y-82218091D01*
X109128237Y-82238500D01*
X108848704Y-82299309D01*
X108580641Y-82399291D01*
X108329561Y-82536391D01*
X108329553Y-82536396D01*
X108187037Y-82643082D01*
X108187036Y-82643083D01*
X108996774Y-83452820D01*
X108880950Y-83522511D01*
X108742775Y-83653396D01*
X108640737Y-83803890D01*
X107833483Y-82996636D01*
X107833482Y-82996637D01*
X107726796Y-83139153D01*
X107726791Y-83139161D01*
X107589691Y-83390241D01*
X107489709Y-83658304D01*
X107428900Y-83937837D01*
X107408491Y-84223198D01*
X107408491Y-84223201D01*
X71418709Y-84223201D01*
X71418709Y-84223198D01*
X71398299Y-83937837D01*
X71337490Y-83658304D01*
X71237508Y-83390241D01*
X71100408Y-83139161D01*
X71100407Y-83139160D01*
X70993715Y-82996636D01*
X70183325Y-83807026D01*
X70142099Y-83729266D01*
X70018886Y-83584208D01*
X69867370Y-83469029D01*
X69831029Y-83452216D01*
X70640162Y-82643083D01*
X70640161Y-82643082D01*
X70497646Y-82536396D01*
X70497638Y-82536391D01*
X70246557Y-82399291D01*
X70246558Y-82399291D01*
X69978495Y-82299309D01*
X69698962Y-82238500D01*
X69413601Y-82218091D01*
X69413599Y-82218091D01*
X69128237Y-82238500D01*
X68848704Y-82299309D01*
X68580641Y-82399291D01*
X68329561Y-82536391D01*
X68329553Y-82536396D01*
X68187037Y-82643082D01*
X68187036Y-82643083D01*
X68996774Y-83452820D01*
X68880950Y-83522511D01*
X68742775Y-83653396D01*
X68640737Y-83803890D01*
X67833483Y-82996636D01*
X67833482Y-82996637D01*
X67726796Y-83139153D01*
X67726791Y-83139161D01*
X67589691Y-83390241D01*
X67489709Y-83658304D01*
X67428900Y-83937837D01*
X67408491Y-84223198D01*
X67408491Y-84223201D01*
X54086703Y-84223201D01*
X54134355Y-84175549D01*
X55789803Y-82520100D01*
X55851124Y-82486617D01*
X55920816Y-82491601D01*
X55958013Y-82513493D01*
X56005920Y-82554409D01*
X56006584Y-82554976D01*
X56006587Y-82554978D01*
X56006589Y-82554979D01*
X56209037Y-82679040D01*
X56209040Y-82679042D01*
X56428403Y-82769904D01*
X56428404Y-82769904D01*
X56428406Y-82769905D01*
X56659289Y-82825335D01*
X56896000Y-82843965D01*
X57132711Y-82825335D01*
X57363594Y-82769905D01*
X57363596Y-82769904D01*
X57363597Y-82769904D01*
X57582959Y-82679042D01*
X57582960Y-82679041D01*
X57582963Y-82679040D01*
X57785416Y-82554976D01*
X57965969Y-82400769D01*
X58120176Y-82220216D01*
X58244240Y-82017763D01*
X58335105Y-81798394D01*
X58390535Y-81567511D01*
X58409165Y-81330805D01*
X61334459Y-81330805D01*
X61354985Y-81578529D01*
X61354987Y-81578538D01*
X61416012Y-81819517D01*
X61515866Y-82047164D01*
X61616164Y-82200682D01*
X62356523Y-81460323D01*
X62380107Y-81540644D01*
X62457839Y-81661598D01*
X62566500Y-81755752D01*
X62697285Y-81815480D01*
X62707066Y-81816886D01*
X61969542Y-82554409D01*
X62016368Y-82590855D01*
X62016370Y-82590856D01*
X62234985Y-82709164D01*
X62234996Y-82709169D01*
X62470106Y-82789883D01*
X62715307Y-82830800D01*
X62963893Y-82830800D01*
X63209093Y-82789883D01*
X63444203Y-82709169D01*
X63444214Y-82709164D01*
X63662828Y-82590857D01*
X63662831Y-82590855D01*
X63709656Y-82554409D01*
X62972133Y-81816886D01*
X62981915Y-81815480D01*
X63112700Y-81755752D01*
X63221361Y-81661598D01*
X63299093Y-81540644D01*
X63322676Y-81460324D01*
X64063034Y-82200682D01*
X64163331Y-82047169D01*
X64263187Y-81819517D01*
X64324212Y-81578538D01*
X64324214Y-81578529D01*
X64344741Y-81330805D01*
X64344741Y-81330794D01*
X64324214Y-81083070D01*
X64324212Y-81083061D01*
X64263187Y-80842082D01*
X64163331Y-80614430D01*
X64063034Y-80460916D01*
X63322676Y-81201275D01*
X63299093Y-81120956D01*
X63221361Y-81000002D01*
X63112700Y-80905848D01*
X62981915Y-80846120D01*
X62972134Y-80844713D01*
X63709657Y-80107190D01*
X63709656Y-80107189D01*
X63662829Y-80070743D01*
X63444214Y-79952435D01*
X63444203Y-79952430D01*
X63209093Y-79871716D01*
X62963893Y-79830800D01*
X62715307Y-79830800D01*
X62470106Y-79871716D01*
X62234996Y-79952430D01*
X62234990Y-79952432D01*
X62016361Y-80070749D01*
X61969542Y-80107188D01*
X61969542Y-80107190D01*
X62707066Y-80844713D01*
X62697285Y-80846120D01*
X62566500Y-80905848D01*
X62457839Y-81000002D01*
X62380107Y-81120956D01*
X62356523Y-81201275D01*
X61616164Y-80460916D01*
X61515867Y-80614432D01*
X61416012Y-80842082D01*
X61354987Y-81083061D01*
X61354985Y-81083070D01*
X61334459Y-81330794D01*
X61334459Y-81330805D01*
X58409165Y-81330805D01*
X58409165Y-81330800D01*
X58390535Y-81094089D01*
X58335105Y-80863206D01*
X58335104Y-80863203D01*
X58335104Y-80863202D01*
X58244242Y-80643840D01*
X58244240Y-80643837D01*
X58120179Y-80441389D01*
X58120178Y-80441386D01*
X58085340Y-80400597D01*
X57965969Y-80260831D01*
X57786078Y-80107189D01*
X57785413Y-80106621D01*
X57785410Y-80106620D01*
X57582962Y-79982559D01*
X57582959Y-79982557D01*
X57363596Y-79891695D01*
X57132714Y-79836265D01*
X56896000Y-79817635D01*
X56659285Y-79836265D01*
X56428404Y-79891695D01*
X56428402Y-79891695D01*
X56209040Y-79982557D01*
X56209037Y-79982559D01*
X56006589Y-80106620D01*
X56006586Y-80106621D01*
X55826031Y-80260831D01*
X55671821Y-80441386D01*
X55671820Y-80441389D01*
X55547759Y-80643837D01*
X55547757Y-80643840D01*
X55456895Y-80863202D01*
X55456894Y-80863205D01*
X55402507Y-81089746D01*
X55369614Y-81148480D01*
X50436579Y-86081514D01*
X50424220Y-86091418D01*
X50424393Y-86091627D01*
X50418382Y-86096600D01*
X50371738Y-86146269D01*
X50369033Y-86149060D01*
X50349273Y-86168821D01*
X50349258Y-86168838D01*
X50346717Y-86172113D01*
X50339153Y-86180967D01*
X50308820Y-86213271D01*
X50308812Y-86213281D01*
X50298979Y-86231167D01*
X50288303Y-86247420D01*
X50275786Y-86263557D01*
X50275785Y-86263560D01*
X50258185Y-86304229D01*
X50253048Y-86314715D01*
X50231703Y-86353541D01*
X50231703Y-86353542D01*
X50226625Y-86373320D01*
X50220325Y-86391722D01*
X50212218Y-86410457D01*
X50205288Y-86454209D01*
X50202920Y-86465645D01*
X50191900Y-86508565D01*
X50191900Y-86528984D01*
X50190373Y-86548383D01*
X50187180Y-86568541D01*
X50187180Y-86568542D01*
X45269065Y-86568542D01*
X45266456Y-83037792D01*
X45286091Y-82970739D01*
X45338861Y-82924945D01*
X45408012Y-82914950D01*
X45471589Y-82943928D01*
X45509407Y-83002678D01*
X45512822Y-83017640D01*
X45516913Y-83042596D01*
X45516919Y-83042622D01*
X45614095Y-83392620D01*
X45614097Y-83392627D01*
X45748552Y-83730084D01*
X45748561Y-83730102D01*
X45918716Y-84051047D01*
X45918718Y-84051051D01*
X46122570Y-84351709D01*
X46122577Y-84351719D01*
X46254369Y-84506875D01*
X46254370Y-84506875D01*
X47495666Y-83265580D01*
X47658530Y-83456270D01*
X47849218Y-83619132D01*
X46605288Y-84863062D01*
X46605288Y-84863064D01*
X46621470Y-84878392D01*
X46621471Y-84878393D01*
X46910666Y-85098232D01*
X46910682Y-85098243D01*
X47221922Y-85285509D01*
X47221935Y-85285516D01*
X47551605Y-85438039D01*
X47551610Y-85438040D01*
X47895861Y-85554032D01*
X48250635Y-85632124D01*
X48611766Y-85671399D01*
X48611774Y-85671400D01*
X48975026Y-85671400D01*
X48975033Y-85671399D01*
X49336164Y-85632124D01*
X49690938Y-85554032D01*
X50035189Y-85438040D01*
X50035194Y-85438039D01*
X50364864Y-85285516D01*
X50364877Y-85285509D01*
X50676117Y-85098243D01*
X50676133Y-85098232D01*
X50965329Y-84878392D01*
X50981510Y-84863064D01*
X50981510Y-84863063D01*
X49737580Y-83619133D01*
X49928270Y-83456270D01*
X50091133Y-83265580D01*
X51332428Y-84506875D01*
X51332429Y-84506875D01*
X51464227Y-84351711D01*
X51464238Y-84351697D01*
X51668081Y-84051051D01*
X51668083Y-84051047D01*
X51838238Y-83730102D01*
X51838247Y-83730084D01*
X51972702Y-83392627D01*
X51972704Y-83392620D01*
X52069880Y-83042622D01*
X52069882Y-83042614D01*
X52128653Y-82684128D01*
X52148320Y-82321402D01*
X52148320Y-82321397D01*
X52128653Y-81958671D01*
X52069882Y-81600185D01*
X52069880Y-81600177D01*
X51972704Y-81250179D01*
X51972702Y-81250172D01*
X51838247Y-80912715D01*
X51838238Y-80912697D01*
X51668083Y-80591752D01*
X51668081Y-80591748D01*
X51464229Y-80291090D01*
X51464222Y-80291080D01*
X51332429Y-80135923D01*
X51332428Y-80135923D01*
X50091132Y-81377218D01*
X49928270Y-81186530D01*
X49737580Y-81023666D01*
X50981510Y-79779736D01*
X50981510Y-79779734D01*
X50965329Y-79764407D01*
X50965328Y-79764406D01*
X50676133Y-79544567D01*
X50676117Y-79544556D01*
X50364877Y-79357290D01*
X50364864Y-79357283D01*
X50035194Y-79204760D01*
X50035189Y-79204759D01*
X49690940Y-79088768D01*
X49343987Y-79012397D01*
X49282747Y-78978761D01*
X49249413Y-78917355D01*
X49254569Y-78847676D01*
X49296578Y-78791846D01*
X49362103Y-78767591D01*
X49370656Y-78767297D01*
X95491382Y-78782983D01*
G37*
%TD.AperFunction*%
%TA.AperFunction,Conductor*%
G36*
X47277530Y-145356070D02*
G01*
X47468218Y-145518932D01*
X46224288Y-146762862D01*
X46224288Y-146762864D01*
X46240470Y-146778192D01*
X46240471Y-146778193D01*
X46529666Y-146998032D01*
X46529669Y-146998034D01*
X46768887Y-147141966D01*
X46816182Y-147193396D01*
X46828165Y-147262230D01*
X46801030Y-147326616D01*
X46743394Y-147366110D01*
X46704833Y-147372217D01*
X45437769Y-147370926D01*
X45370749Y-147351173D01*
X45325048Y-147298323D01*
X45313896Y-147247024D01*
X45312992Y-146023336D01*
X45332626Y-145956287D01*
X45385396Y-145910493D01*
X45454547Y-145900498D01*
X45518124Y-145929476D01*
X45539624Y-145953662D01*
X45741570Y-146251509D01*
X45741577Y-146251519D01*
X45873369Y-146406675D01*
X45873370Y-146406675D01*
X47114666Y-145165380D01*
X47277530Y-145356070D01*
G37*
%TD.AperFunction*%
%TA.AperFunction,Conductor*%
G36*
X48217981Y-78766904D02*
G01*
X48285011Y-78786611D01*
X48330748Y-78839431D01*
X48340668Y-78908593D01*
X48311621Y-78972139D01*
X48252830Y-79009893D01*
X48244593Y-79012005D01*
X47895859Y-79088768D01*
X47551610Y-79204759D01*
X47551605Y-79204760D01*
X47221935Y-79357283D01*
X47221922Y-79357290D01*
X46910682Y-79544556D01*
X46910666Y-79544567D01*
X46621475Y-79764402D01*
X46605288Y-79779735D01*
X46605287Y-79779735D01*
X47849219Y-81023666D01*
X47658530Y-81186530D01*
X47495666Y-81377218D01*
X46254370Y-80135922D01*
X46254369Y-80135923D01*
X46122577Y-80291080D01*
X46122570Y-80291090D01*
X45918718Y-80591748D01*
X45918716Y-80591752D01*
X45748561Y-80912697D01*
X45748552Y-80912715D01*
X45614097Y-81250172D01*
X45614095Y-81250179D01*
X45516919Y-81600177D01*
X45516914Y-81600198D01*
X45511768Y-81631588D01*
X45481496Y-81694559D01*
X45421985Y-81731168D01*
X45352129Y-81729790D01*
X45294107Y-81690865D01*
X45266340Y-81626749D01*
X45265402Y-81611625D01*
X45263391Y-78890031D01*
X45283026Y-78822980D01*
X45335796Y-78777186D01*
X45387431Y-78765942D01*
X48217981Y-78766904D01*
G37*
%TD.AperFunction*%
%TD*%
M02*
