%TF.GenerationSoftware,KiCad,Pcbnew,7.0.11-7.0.11~ubuntu22.04.1*%
%TF.CreationDate,2024-09-03T10:01:49-07:00*%
%TF.ProjectId,audio_pwr_amp_r3,61756469-6f5f-4707-9772-5f616d705f72,rev?*%
%TF.SameCoordinates,Original*%
%TF.FileFunction,Legend,Top*%
%TF.FilePolarity,Positive*%
%FSLAX46Y46*%
G04 Gerber Fmt 4.6, Leading zero omitted, Abs format (unit mm)*
G04 Created by KiCad (PCBNEW 7.0.11-7.0.11~ubuntu22.04.1) date 2024-09-03 10:01:49*
%MOMM*%
%LPD*%
G01*
G04 APERTURE LIST*
%ADD10C,0.300000*%
%ADD11C,0.150000*%
%ADD12C,0.203200*%
%ADD13C,0.120000*%
%ADD14C,0.100000*%
G04 APERTURE END LIST*
D10*
X80168110Y-130424028D02*
X80168110Y-129424028D01*
X80168110Y-129709742D02*
X80239539Y-129566885D01*
X80239539Y-129566885D02*
X80310968Y-129495457D01*
X80310968Y-129495457D02*
X80453825Y-129424028D01*
X80453825Y-129424028D02*
X80596682Y-129424028D01*
X81096681Y-130281171D02*
X81168110Y-130352600D01*
X81168110Y-130352600D02*
X81096681Y-130424028D01*
X81096681Y-130424028D02*
X81025253Y-130352600D01*
X81025253Y-130352600D02*
X81096681Y-130281171D01*
X81096681Y-130281171D02*
X81096681Y-130424028D01*
X81668110Y-128924028D02*
X82596682Y-128924028D01*
X82596682Y-128924028D02*
X82096682Y-129495457D01*
X82096682Y-129495457D02*
X82310967Y-129495457D01*
X82310967Y-129495457D02*
X82453825Y-129566885D01*
X82453825Y-129566885D02*
X82525253Y-129638314D01*
X82525253Y-129638314D02*
X82596682Y-129781171D01*
X82596682Y-129781171D02*
X82596682Y-130138314D01*
X82596682Y-130138314D02*
X82525253Y-130281171D01*
X82525253Y-130281171D02*
X82453825Y-130352600D01*
X82453825Y-130352600D02*
X82310967Y-130424028D01*
X82310967Y-130424028D02*
X81882396Y-130424028D01*
X81882396Y-130424028D02*
X81739539Y-130352600D01*
X81739539Y-130352600D02*
X81668110Y-130281171D01*
D11*
X59378950Y-102693019D02*
X59188474Y-102693019D01*
X59188474Y-102693019D02*
X59093236Y-102740638D01*
X59093236Y-102740638D02*
X59045617Y-102788257D01*
X59045617Y-102788257D02*
X58950379Y-102931114D01*
X58950379Y-102931114D02*
X58902760Y-103121590D01*
X58902760Y-103121590D02*
X58902760Y-103502542D01*
X58902760Y-103502542D02*
X58950379Y-103597780D01*
X58950379Y-103597780D02*
X58997998Y-103645400D01*
X58997998Y-103645400D02*
X59093236Y-103693019D01*
X59093236Y-103693019D02*
X59283712Y-103693019D01*
X59283712Y-103693019D02*
X59378950Y-103645400D01*
X59378950Y-103645400D02*
X59426569Y-103597780D01*
X59426569Y-103597780D02*
X59474188Y-103502542D01*
X59474188Y-103502542D02*
X59474188Y-103264447D01*
X59474188Y-103264447D02*
X59426569Y-103169209D01*
X59426569Y-103169209D02*
X59378950Y-103121590D01*
X59378950Y-103121590D02*
X59283712Y-103073971D01*
X59283712Y-103073971D02*
X59093236Y-103073971D01*
X59093236Y-103073971D02*
X58997998Y-103121590D01*
X58997998Y-103121590D02*
X58950379Y-103169209D01*
X58950379Y-103169209D02*
X58902760Y-103264447D01*
X60093236Y-102693019D02*
X60188474Y-102693019D01*
X60188474Y-102693019D02*
X60283712Y-102740638D01*
X60283712Y-102740638D02*
X60331331Y-102788257D01*
X60331331Y-102788257D02*
X60378950Y-102883495D01*
X60378950Y-102883495D02*
X60426569Y-103073971D01*
X60426569Y-103073971D02*
X60426569Y-103312066D01*
X60426569Y-103312066D02*
X60378950Y-103502542D01*
X60378950Y-103502542D02*
X60331331Y-103597780D01*
X60331331Y-103597780D02*
X60283712Y-103645400D01*
X60283712Y-103645400D02*
X60188474Y-103693019D01*
X60188474Y-103693019D02*
X60093236Y-103693019D01*
X60093236Y-103693019D02*
X59997998Y-103645400D01*
X59997998Y-103645400D02*
X59950379Y-103597780D01*
X59950379Y-103597780D02*
X59902760Y-103502542D01*
X59902760Y-103502542D02*
X59855141Y-103312066D01*
X59855141Y-103312066D02*
X59855141Y-103073971D01*
X59855141Y-103073971D02*
X59902760Y-102883495D01*
X59902760Y-102883495D02*
X59950379Y-102788257D01*
X59950379Y-102788257D02*
X59997998Y-102740638D01*
X59997998Y-102740638D02*
X60093236Y-102693019D01*
X52150379Y-125112066D02*
X52912284Y-125112066D01*
X53912283Y-125493019D02*
X53340855Y-125493019D01*
X53626569Y-125493019D02*
X53626569Y-124493019D01*
X53626569Y-124493019D02*
X53531331Y-124635876D01*
X53531331Y-124635876D02*
X53436093Y-124731114D01*
X53436093Y-124731114D02*
X53340855Y-124778733D01*
X54293236Y-124588257D02*
X54340855Y-124540638D01*
X54340855Y-124540638D02*
X54436093Y-124493019D01*
X54436093Y-124493019D02*
X54674188Y-124493019D01*
X54674188Y-124493019D02*
X54769426Y-124540638D01*
X54769426Y-124540638D02*
X54817045Y-124588257D01*
X54817045Y-124588257D02*
X54864664Y-124683495D01*
X54864664Y-124683495D02*
X54864664Y-124778733D01*
X54864664Y-124778733D02*
X54817045Y-124921590D01*
X54817045Y-124921590D02*
X54245617Y-125493019D01*
X54245617Y-125493019D02*
X54864664Y-125493019D01*
X55150379Y-124493019D02*
X55483712Y-125493019D01*
X55483712Y-125493019D02*
X55817045Y-124493019D01*
X56912284Y-125493019D02*
X56912284Y-124493019D01*
X56912284Y-124493019D02*
X57293236Y-124493019D01*
X57293236Y-124493019D02*
X57388474Y-124540638D01*
X57388474Y-124540638D02*
X57436093Y-124588257D01*
X57436093Y-124588257D02*
X57483712Y-124683495D01*
X57483712Y-124683495D02*
X57483712Y-124826352D01*
X57483712Y-124826352D02*
X57436093Y-124921590D01*
X57436093Y-124921590D02*
X57388474Y-124969209D01*
X57388474Y-124969209D02*
X57293236Y-125016828D01*
X57293236Y-125016828D02*
X56912284Y-125016828D01*
X57817046Y-124493019D02*
X58055141Y-125493019D01*
X58055141Y-125493019D02*
X58245617Y-124778733D01*
X58245617Y-124778733D02*
X58436093Y-125493019D01*
X58436093Y-125493019D02*
X58674189Y-124493019D01*
X59626569Y-125493019D02*
X59293236Y-125016828D01*
X59055141Y-125493019D02*
X59055141Y-124493019D01*
X59055141Y-124493019D02*
X59436093Y-124493019D01*
X59436093Y-124493019D02*
X59531331Y-124540638D01*
X59531331Y-124540638D02*
X59578950Y-124588257D01*
X59578950Y-124588257D02*
X59626569Y-124683495D01*
X59626569Y-124683495D02*
X59626569Y-124826352D01*
X59626569Y-124826352D02*
X59578950Y-124921590D01*
X59578950Y-124921590D02*
X59531331Y-124969209D01*
X59531331Y-124969209D02*
X59436093Y-125016828D01*
X59436093Y-125016828D02*
X59055141Y-125016828D01*
X52050379Y-120712066D02*
X52812284Y-120712066D01*
X52431331Y-121093019D02*
X52431331Y-120331114D01*
X53812283Y-121093019D02*
X53240855Y-121093019D01*
X53526569Y-121093019D02*
X53526569Y-120093019D01*
X53526569Y-120093019D02*
X53431331Y-120235876D01*
X53431331Y-120235876D02*
X53336093Y-120331114D01*
X53336093Y-120331114D02*
X53240855Y-120378733D01*
X54193236Y-120188257D02*
X54240855Y-120140638D01*
X54240855Y-120140638D02*
X54336093Y-120093019D01*
X54336093Y-120093019D02*
X54574188Y-120093019D01*
X54574188Y-120093019D02*
X54669426Y-120140638D01*
X54669426Y-120140638D02*
X54717045Y-120188257D01*
X54717045Y-120188257D02*
X54764664Y-120283495D01*
X54764664Y-120283495D02*
X54764664Y-120378733D01*
X54764664Y-120378733D02*
X54717045Y-120521590D01*
X54717045Y-120521590D02*
X54145617Y-121093019D01*
X54145617Y-121093019D02*
X54764664Y-121093019D01*
X55050379Y-120093019D02*
X55383712Y-121093019D01*
X55383712Y-121093019D02*
X55717045Y-120093019D01*
X56812284Y-121093019D02*
X56812284Y-120093019D01*
X56812284Y-120093019D02*
X57193236Y-120093019D01*
X57193236Y-120093019D02*
X57288474Y-120140638D01*
X57288474Y-120140638D02*
X57336093Y-120188257D01*
X57336093Y-120188257D02*
X57383712Y-120283495D01*
X57383712Y-120283495D02*
X57383712Y-120426352D01*
X57383712Y-120426352D02*
X57336093Y-120521590D01*
X57336093Y-120521590D02*
X57288474Y-120569209D01*
X57288474Y-120569209D02*
X57193236Y-120616828D01*
X57193236Y-120616828D02*
X56812284Y-120616828D01*
X57717046Y-120093019D02*
X57955141Y-121093019D01*
X57955141Y-121093019D02*
X58145617Y-120378733D01*
X58145617Y-120378733D02*
X58336093Y-121093019D01*
X58336093Y-121093019D02*
X58574189Y-120093019D01*
X59526569Y-121093019D02*
X59193236Y-120616828D01*
X58955141Y-121093019D02*
X58955141Y-120093019D01*
X58955141Y-120093019D02*
X59336093Y-120093019D01*
X59336093Y-120093019D02*
X59431331Y-120140638D01*
X59431331Y-120140638D02*
X59478950Y-120188257D01*
X59478950Y-120188257D02*
X59526569Y-120283495D01*
X59526569Y-120283495D02*
X59526569Y-120426352D01*
X59526569Y-120426352D02*
X59478950Y-120521590D01*
X59478950Y-120521590D02*
X59431331Y-120569209D01*
X59431331Y-120569209D02*
X59336093Y-120616828D01*
X59336093Y-120616828D02*
X58955141Y-120616828D01*
D10*
X60968110Y-145024028D02*
X60968110Y-143524028D01*
X61682396Y-144024028D02*
X61682396Y-145024028D01*
X61682396Y-144166885D02*
X61753825Y-144095457D01*
X61753825Y-144095457D02*
X61896682Y-144024028D01*
X61896682Y-144024028D02*
X62110968Y-144024028D01*
X62110968Y-144024028D02*
X62253825Y-144095457D01*
X62253825Y-144095457D02*
X62325254Y-144238314D01*
X62325254Y-144238314D02*
X62325254Y-145024028D01*
X62968111Y-144952600D02*
X63110968Y-145024028D01*
X63110968Y-145024028D02*
X63396682Y-145024028D01*
X63396682Y-145024028D02*
X63539539Y-144952600D01*
X63539539Y-144952600D02*
X63610968Y-144809742D01*
X63610968Y-144809742D02*
X63610968Y-144738314D01*
X63610968Y-144738314D02*
X63539539Y-144595457D01*
X63539539Y-144595457D02*
X63396682Y-144524028D01*
X63396682Y-144524028D02*
X63182397Y-144524028D01*
X63182397Y-144524028D02*
X63039539Y-144452600D01*
X63039539Y-144452600D02*
X62968111Y-144309742D01*
X62968111Y-144309742D02*
X62968111Y-144238314D01*
X62968111Y-144238314D02*
X63039539Y-144095457D01*
X63039539Y-144095457D02*
X63182397Y-144024028D01*
X63182397Y-144024028D02*
X63396682Y-144024028D01*
X63396682Y-144024028D02*
X63539539Y-144095457D01*
X64039540Y-144024028D02*
X64610968Y-144024028D01*
X64253825Y-143524028D02*
X64253825Y-144809742D01*
X64253825Y-144809742D02*
X64325254Y-144952600D01*
X64325254Y-144952600D02*
X64468111Y-145024028D01*
X64468111Y-145024028D02*
X64610968Y-145024028D01*
X65110968Y-145024028D02*
X65110968Y-144024028D01*
X65110968Y-144309742D02*
X65182397Y-144166885D01*
X65182397Y-144166885D02*
X65253826Y-144095457D01*
X65253826Y-144095457D02*
X65396683Y-144024028D01*
X65396683Y-144024028D02*
X65539540Y-144024028D01*
X66682397Y-144024028D02*
X66682397Y-145024028D01*
X66039539Y-144024028D02*
X66039539Y-144809742D01*
X66039539Y-144809742D02*
X66110968Y-144952600D01*
X66110968Y-144952600D02*
X66253825Y-145024028D01*
X66253825Y-145024028D02*
X66468111Y-145024028D01*
X66468111Y-145024028D02*
X66610968Y-144952600D01*
X66610968Y-144952600D02*
X66682397Y-144881171D01*
X67396682Y-145024028D02*
X67396682Y-144024028D01*
X67396682Y-144166885D02*
X67468111Y-144095457D01*
X67468111Y-144095457D02*
X67610968Y-144024028D01*
X67610968Y-144024028D02*
X67825254Y-144024028D01*
X67825254Y-144024028D02*
X67968111Y-144095457D01*
X67968111Y-144095457D02*
X68039540Y-144238314D01*
X68039540Y-144238314D02*
X68039540Y-145024028D01*
X68039540Y-144238314D02*
X68110968Y-144095457D01*
X68110968Y-144095457D02*
X68253825Y-144024028D01*
X68253825Y-144024028D02*
X68468111Y-144024028D01*
X68468111Y-144024028D02*
X68610968Y-144095457D01*
X68610968Y-144095457D02*
X68682397Y-144238314D01*
X68682397Y-144238314D02*
X68682397Y-145024028D01*
X69968111Y-144952600D02*
X69825254Y-145024028D01*
X69825254Y-145024028D02*
X69539540Y-145024028D01*
X69539540Y-145024028D02*
X69396682Y-144952600D01*
X69396682Y-144952600D02*
X69325254Y-144809742D01*
X69325254Y-144809742D02*
X69325254Y-144238314D01*
X69325254Y-144238314D02*
X69396682Y-144095457D01*
X69396682Y-144095457D02*
X69539540Y-144024028D01*
X69539540Y-144024028D02*
X69825254Y-144024028D01*
X69825254Y-144024028D02*
X69968111Y-144095457D01*
X69968111Y-144095457D02*
X70039540Y-144238314D01*
X70039540Y-144238314D02*
X70039540Y-144381171D01*
X70039540Y-144381171D02*
X69325254Y-144524028D01*
X70682396Y-144024028D02*
X70682396Y-145024028D01*
X70682396Y-144166885D02*
X70753825Y-144095457D01*
X70753825Y-144095457D02*
X70896682Y-144024028D01*
X70896682Y-144024028D02*
X71110968Y-144024028D01*
X71110968Y-144024028D02*
X71253825Y-144095457D01*
X71253825Y-144095457D02*
X71325254Y-144238314D01*
X71325254Y-144238314D02*
X71325254Y-145024028D01*
X71825254Y-144024028D02*
X72396682Y-144024028D01*
X72039539Y-143524028D02*
X72039539Y-144809742D01*
X72039539Y-144809742D02*
X72110968Y-144952600D01*
X72110968Y-144952600D02*
X72253825Y-145024028D01*
X72253825Y-145024028D02*
X72396682Y-145024028D01*
X73539540Y-145024028D02*
X73539540Y-144238314D01*
X73539540Y-144238314D02*
X73468111Y-144095457D01*
X73468111Y-144095457D02*
X73325254Y-144024028D01*
X73325254Y-144024028D02*
X73039540Y-144024028D01*
X73039540Y-144024028D02*
X72896682Y-144095457D01*
X73539540Y-144952600D02*
X73396682Y-145024028D01*
X73396682Y-145024028D02*
X73039540Y-145024028D01*
X73039540Y-145024028D02*
X72896682Y-144952600D01*
X72896682Y-144952600D02*
X72825254Y-144809742D01*
X72825254Y-144809742D02*
X72825254Y-144666885D01*
X72825254Y-144666885D02*
X72896682Y-144524028D01*
X72896682Y-144524028D02*
X73039540Y-144452600D01*
X73039540Y-144452600D02*
X73396682Y-144452600D01*
X73396682Y-144452600D02*
X73539540Y-144381171D01*
X74039540Y-144024028D02*
X74610968Y-144024028D01*
X74253825Y-143524028D02*
X74253825Y-144809742D01*
X74253825Y-144809742D02*
X74325254Y-144952600D01*
X74325254Y-144952600D02*
X74468111Y-145024028D01*
X74468111Y-145024028D02*
X74610968Y-145024028D01*
X75110968Y-145024028D02*
X75110968Y-144024028D01*
X75110968Y-143524028D02*
X75039540Y-143595457D01*
X75039540Y-143595457D02*
X75110968Y-143666885D01*
X75110968Y-143666885D02*
X75182397Y-143595457D01*
X75182397Y-143595457D02*
X75110968Y-143524028D01*
X75110968Y-143524028D02*
X75110968Y-143666885D01*
X76039540Y-145024028D02*
X75896683Y-144952600D01*
X75896683Y-144952600D02*
X75825254Y-144881171D01*
X75825254Y-144881171D02*
X75753826Y-144738314D01*
X75753826Y-144738314D02*
X75753826Y-144309742D01*
X75753826Y-144309742D02*
X75825254Y-144166885D01*
X75825254Y-144166885D02*
X75896683Y-144095457D01*
X75896683Y-144095457D02*
X76039540Y-144024028D01*
X76039540Y-144024028D02*
X76253826Y-144024028D01*
X76253826Y-144024028D02*
X76396683Y-144095457D01*
X76396683Y-144095457D02*
X76468112Y-144166885D01*
X76468112Y-144166885D02*
X76539540Y-144309742D01*
X76539540Y-144309742D02*
X76539540Y-144738314D01*
X76539540Y-144738314D02*
X76468112Y-144881171D01*
X76468112Y-144881171D02*
X76396683Y-144952600D01*
X76396683Y-144952600D02*
X76253826Y-145024028D01*
X76253826Y-145024028D02*
X76039540Y-145024028D01*
X77182397Y-144024028D02*
X77182397Y-145024028D01*
X77182397Y-144166885D02*
X77253826Y-144095457D01*
X77253826Y-144095457D02*
X77396683Y-144024028D01*
X77396683Y-144024028D02*
X77610969Y-144024028D01*
X77610969Y-144024028D02*
X77753826Y-144095457D01*
X77753826Y-144095457D02*
X77825255Y-144238314D01*
X77825255Y-144238314D02*
X77825255Y-145024028D01*
X79610969Y-144595457D02*
X80325255Y-144595457D01*
X79468112Y-145024028D02*
X79968112Y-143524028D01*
X79968112Y-143524028D02*
X80468112Y-145024028D01*
X81610969Y-144024028D02*
X81610969Y-145024028D01*
X80968111Y-144024028D02*
X80968111Y-144809742D01*
X80968111Y-144809742D02*
X81039540Y-144952600D01*
X81039540Y-144952600D02*
X81182397Y-145024028D01*
X81182397Y-145024028D02*
X81396683Y-145024028D01*
X81396683Y-145024028D02*
X81539540Y-144952600D01*
X81539540Y-144952600D02*
X81610969Y-144881171D01*
X82968112Y-145024028D02*
X82968112Y-143524028D01*
X82968112Y-144952600D02*
X82825254Y-145024028D01*
X82825254Y-145024028D02*
X82539540Y-145024028D01*
X82539540Y-145024028D02*
X82396683Y-144952600D01*
X82396683Y-144952600D02*
X82325254Y-144881171D01*
X82325254Y-144881171D02*
X82253826Y-144738314D01*
X82253826Y-144738314D02*
X82253826Y-144309742D01*
X82253826Y-144309742D02*
X82325254Y-144166885D01*
X82325254Y-144166885D02*
X82396683Y-144095457D01*
X82396683Y-144095457D02*
X82539540Y-144024028D01*
X82539540Y-144024028D02*
X82825254Y-144024028D01*
X82825254Y-144024028D02*
X82968112Y-144095457D01*
X83682397Y-145024028D02*
X83682397Y-144024028D01*
X83682397Y-143524028D02*
X83610969Y-143595457D01*
X83610969Y-143595457D02*
X83682397Y-143666885D01*
X83682397Y-143666885D02*
X83753826Y-143595457D01*
X83753826Y-143595457D02*
X83682397Y-143524028D01*
X83682397Y-143524028D02*
X83682397Y-143666885D01*
X84610969Y-145024028D02*
X84468112Y-144952600D01*
X84468112Y-144952600D02*
X84396683Y-144881171D01*
X84396683Y-144881171D02*
X84325255Y-144738314D01*
X84325255Y-144738314D02*
X84325255Y-144309742D01*
X84325255Y-144309742D02*
X84396683Y-144166885D01*
X84396683Y-144166885D02*
X84468112Y-144095457D01*
X84468112Y-144095457D02*
X84610969Y-144024028D01*
X84610969Y-144024028D02*
X84825255Y-144024028D01*
X84825255Y-144024028D02*
X84968112Y-144095457D01*
X84968112Y-144095457D02*
X85039541Y-144166885D01*
X85039541Y-144166885D02*
X85110969Y-144309742D01*
X85110969Y-144309742D02*
X85110969Y-144738314D01*
X85110969Y-144738314D02*
X85039541Y-144881171D01*
X85039541Y-144881171D02*
X84968112Y-144952600D01*
X84968112Y-144952600D02*
X84825255Y-145024028D01*
X84825255Y-145024028D02*
X84610969Y-145024028D01*
X86896683Y-145024028D02*
X86896683Y-143524028D01*
X86896683Y-143524028D02*
X87468112Y-143524028D01*
X87468112Y-143524028D02*
X87610969Y-143595457D01*
X87610969Y-143595457D02*
X87682398Y-143666885D01*
X87682398Y-143666885D02*
X87753826Y-143809742D01*
X87753826Y-143809742D02*
X87753826Y-144024028D01*
X87753826Y-144024028D02*
X87682398Y-144166885D01*
X87682398Y-144166885D02*
X87610969Y-144238314D01*
X87610969Y-144238314D02*
X87468112Y-144309742D01*
X87468112Y-144309742D02*
X86896683Y-144309742D01*
X88253826Y-143524028D02*
X88610969Y-145024028D01*
X88610969Y-145024028D02*
X88896683Y-143952600D01*
X88896683Y-143952600D02*
X89182398Y-145024028D01*
X89182398Y-145024028D02*
X89539541Y-143524028D01*
X90968112Y-145024028D02*
X90468112Y-144309742D01*
X90110969Y-145024028D02*
X90110969Y-143524028D01*
X90110969Y-143524028D02*
X90682398Y-143524028D01*
X90682398Y-143524028D02*
X90825255Y-143595457D01*
X90825255Y-143595457D02*
X90896684Y-143666885D01*
X90896684Y-143666885D02*
X90968112Y-143809742D01*
X90968112Y-143809742D02*
X90968112Y-144024028D01*
X90968112Y-144024028D02*
X90896684Y-144166885D01*
X90896684Y-144166885D02*
X90825255Y-144238314D01*
X90825255Y-144238314D02*
X90682398Y-144309742D01*
X90682398Y-144309742D02*
X90110969Y-144309742D01*
X92682398Y-144595457D02*
X93396684Y-144595457D01*
X92539541Y-145024028D02*
X93039541Y-143524028D01*
X93039541Y-143524028D02*
X93539541Y-145024028D01*
X94039540Y-145024028D02*
X94039540Y-143524028D01*
X94039540Y-143524028D02*
X94539540Y-144595457D01*
X94539540Y-144595457D02*
X95039540Y-143524028D01*
X95039540Y-143524028D02*
X95039540Y-145024028D01*
X95753826Y-145024028D02*
X95753826Y-143524028D01*
X95753826Y-143524028D02*
X96325255Y-143524028D01*
X96325255Y-143524028D02*
X96468112Y-143595457D01*
X96468112Y-143595457D02*
X96539541Y-143666885D01*
X96539541Y-143666885D02*
X96610969Y-143809742D01*
X96610969Y-143809742D02*
X96610969Y-144024028D01*
X96610969Y-144024028D02*
X96539541Y-144166885D01*
X96539541Y-144166885D02*
X96468112Y-144238314D01*
X96468112Y-144238314D02*
X96325255Y-144309742D01*
X96325255Y-144309742D02*
X95753826Y-144309742D01*
D11*
X47555141Y-105293019D02*
X48174188Y-105293019D01*
X48174188Y-105293019D02*
X47840855Y-105673971D01*
X47840855Y-105673971D02*
X47983712Y-105673971D01*
X47983712Y-105673971D02*
X48078950Y-105721590D01*
X48078950Y-105721590D02*
X48126569Y-105769209D01*
X48126569Y-105769209D02*
X48174188Y-105864447D01*
X48174188Y-105864447D02*
X48174188Y-106102542D01*
X48174188Y-106102542D02*
X48126569Y-106197780D01*
X48126569Y-106197780D02*
X48078950Y-106245400D01*
X48078950Y-106245400D02*
X47983712Y-106293019D01*
X47983712Y-106293019D02*
X47697998Y-106293019D01*
X47697998Y-106293019D02*
X47602760Y-106245400D01*
X47602760Y-106245400D02*
X47555141Y-106197780D01*
X48793236Y-105293019D02*
X48888474Y-105293019D01*
X48888474Y-105293019D02*
X48983712Y-105340638D01*
X48983712Y-105340638D02*
X49031331Y-105388257D01*
X49031331Y-105388257D02*
X49078950Y-105483495D01*
X49078950Y-105483495D02*
X49126569Y-105673971D01*
X49126569Y-105673971D02*
X49126569Y-105912066D01*
X49126569Y-105912066D02*
X49078950Y-106102542D01*
X49078950Y-106102542D02*
X49031331Y-106197780D01*
X49031331Y-106197780D02*
X48983712Y-106245400D01*
X48983712Y-106245400D02*
X48888474Y-106293019D01*
X48888474Y-106293019D02*
X48793236Y-106293019D01*
X48793236Y-106293019D02*
X48697998Y-106245400D01*
X48697998Y-106245400D02*
X48650379Y-106197780D01*
X48650379Y-106197780D02*
X48602760Y-106102542D01*
X48602760Y-106102542D02*
X48555141Y-105912066D01*
X48555141Y-105912066D02*
X48555141Y-105673971D01*
X48555141Y-105673971D02*
X48602760Y-105483495D01*
X48602760Y-105483495D02*
X48650379Y-105388257D01*
X48650379Y-105388257D02*
X48697998Y-105340638D01*
X48697998Y-105340638D02*
X48793236Y-105293019D01*
X46136160Y-109099457D02*
X46183779Y-109051838D01*
X46183779Y-109051838D02*
X46279017Y-109004219D01*
X46279017Y-109004219D02*
X46517112Y-109004219D01*
X46517112Y-109004219D02*
X46612350Y-109051838D01*
X46612350Y-109051838D02*
X46659969Y-109099457D01*
X46659969Y-109099457D02*
X46707588Y-109194695D01*
X46707588Y-109194695D02*
X46707588Y-109289933D01*
X46707588Y-109289933D02*
X46659969Y-109432790D01*
X46659969Y-109432790D02*
X46088541Y-110004219D01*
X46088541Y-110004219D02*
X46707588Y-110004219D01*
X47326636Y-109004219D02*
X47421874Y-109004219D01*
X47421874Y-109004219D02*
X47517112Y-109051838D01*
X47517112Y-109051838D02*
X47564731Y-109099457D01*
X47564731Y-109099457D02*
X47612350Y-109194695D01*
X47612350Y-109194695D02*
X47659969Y-109385171D01*
X47659969Y-109385171D02*
X47659969Y-109623266D01*
X47659969Y-109623266D02*
X47612350Y-109813742D01*
X47612350Y-109813742D02*
X47564731Y-109908980D01*
X47564731Y-109908980D02*
X47517112Y-109956600D01*
X47517112Y-109956600D02*
X47421874Y-110004219D01*
X47421874Y-110004219D02*
X47326636Y-110004219D01*
X47326636Y-110004219D02*
X47231398Y-109956600D01*
X47231398Y-109956600D02*
X47183779Y-109908980D01*
X47183779Y-109908980D02*
X47136160Y-109813742D01*
X47136160Y-109813742D02*
X47088541Y-109623266D01*
X47088541Y-109623266D02*
X47088541Y-109385171D01*
X47088541Y-109385171D02*
X47136160Y-109194695D01*
X47136160Y-109194695D02*
X47183779Y-109099457D01*
X47183779Y-109099457D02*
X47231398Y-109051838D01*
X47231398Y-109051838D02*
X47326636Y-109004219D01*
X63626498Y-114175019D02*
X63816974Y-114175019D01*
X63816974Y-114175019D02*
X63912212Y-114127400D01*
X63912212Y-114127400D02*
X63959831Y-114079780D01*
X63959831Y-114079780D02*
X64055069Y-113936923D01*
X64055069Y-113936923D02*
X64102688Y-113746447D01*
X64102688Y-113746447D02*
X64102688Y-113365495D01*
X64102688Y-113365495D02*
X64055069Y-113270257D01*
X64055069Y-113270257D02*
X64007450Y-113222638D01*
X64007450Y-113222638D02*
X63912212Y-113175019D01*
X63912212Y-113175019D02*
X63721736Y-113175019D01*
X63721736Y-113175019D02*
X63626498Y-113222638D01*
X63626498Y-113222638D02*
X63578879Y-113270257D01*
X63578879Y-113270257D02*
X63531260Y-113365495D01*
X63531260Y-113365495D02*
X63531260Y-113603590D01*
X63531260Y-113603590D02*
X63578879Y-113698828D01*
X63578879Y-113698828D02*
X63626498Y-113746447D01*
X63626498Y-113746447D02*
X63721736Y-113794066D01*
X63721736Y-113794066D02*
X63912212Y-113794066D01*
X63912212Y-113794066D02*
X64007450Y-113746447D01*
X64007450Y-113746447D02*
X64055069Y-113698828D01*
X64055069Y-113698828D02*
X64102688Y-113603590D01*
X64721736Y-113175019D02*
X64816974Y-113175019D01*
X64816974Y-113175019D02*
X64912212Y-113222638D01*
X64912212Y-113222638D02*
X64959831Y-113270257D01*
X64959831Y-113270257D02*
X65007450Y-113365495D01*
X65007450Y-113365495D02*
X65055069Y-113555971D01*
X65055069Y-113555971D02*
X65055069Y-113794066D01*
X65055069Y-113794066D02*
X65007450Y-113984542D01*
X65007450Y-113984542D02*
X64959831Y-114079780D01*
X64959831Y-114079780D02*
X64912212Y-114127400D01*
X64912212Y-114127400D02*
X64816974Y-114175019D01*
X64816974Y-114175019D02*
X64721736Y-114175019D01*
X64721736Y-114175019D02*
X64626498Y-114127400D01*
X64626498Y-114127400D02*
X64578879Y-114079780D01*
X64578879Y-114079780D02*
X64531260Y-113984542D01*
X64531260Y-113984542D02*
X64483641Y-113794066D01*
X64483641Y-113794066D02*
X64483641Y-113555971D01*
X64483641Y-113555971D02*
X64531260Y-113365495D01*
X64531260Y-113365495D02*
X64578879Y-113270257D01*
X64578879Y-113270257D02*
X64626498Y-113222638D01*
X64626498Y-113222638D02*
X64721736Y-113175019D01*
X48940855Y-116593019D02*
X49036093Y-116593019D01*
X49036093Y-116593019D02*
X49131331Y-116640638D01*
X49131331Y-116640638D02*
X49178950Y-116688257D01*
X49178950Y-116688257D02*
X49226569Y-116783495D01*
X49226569Y-116783495D02*
X49274188Y-116973971D01*
X49274188Y-116973971D02*
X49274188Y-117212066D01*
X49274188Y-117212066D02*
X49226569Y-117402542D01*
X49226569Y-117402542D02*
X49178950Y-117497780D01*
X49178950Y-117497780D02*
X49131331Y-117545400D01*
X49131331Y-117545400D02*
X49036093Y-117593019D01*
X49036093Y-117593019D02*
X48940855Y-117593019D01*
X48940855Y-117593019D02*
X48845617Y-117545400D01*
X48845617Y-117545400D02*
X48797998Y-117497780D01*
X48797998Y-117497780D02*
X48750379Y-117402542D01*
X48750379Y-117402542D02*
X48702760Y-117212066D01*
X48702760Y-117212066D02*
X48702760Y-116973971D01*
X48702760Y-116973971D02*
X48750379Y-116783495D01*
X48750379Y-116783495D02*
X48797998Y-116688257D01*
X48797998Y-116688257D02*
X48845617Y-116640638D01*
X48845617Y-116640638D02*
X48940855Y-116593019D01*
X61955141Y-105293019D02*
X62621807Y-105293019D01*
X62621807Y-105293019D02*
X62193236Y-106293019D01*
X63193236Y-105293019D02*
X63288474Y-105293019D01*
X63288474Y-105293019D02*
X63383712Y-105340638D01*
X63383712Y-105340638D02*
X63431331Y-105388257D01*
X63431331Y-105388257D02*
X63478950Y-105483495D01*
X63478950Y-105483495D02*
X63526569Y-105673971D01*
X63526569Y-105673971D02*
X63526569Y-105912066D01*
X63526569Y-105912066D02*
X63478950Y-106102542D01*
X63478950Y-106102542D02*
X63431331Y-106197780D01*
X63431331Y-106197780D02*
X63383712Y-106245400D01*
X63383712Y-106245400D02*
X63288474Y-106293019D01*
X63288474Y-106293019D02*
X63193236Y-106293019D01*
X63193236Y-106293019D02*
X63097998Y-106245400D01*
X63097998Y-106245400D02*
X63050379Y-106197780D01*
X63050379Y-106197780D02*
X63002760Y-106102542D01*
X63002760Y-106102542D02*
X62955141Y-105912066D01*
X62955141Y-105912066D02*
X62955141Y-105673971D01*
X62955141Y-105673971D02*
X63002760Y-105483495D01*
X63002760Y-105483495D02*
X63050379Y-105388257D01*
X63050379Y-105388257D02*
X63097998Y-105340638D01*
X63097998Y-105340638D02*
X63193236Y-105293019D01*
X52526569Y-100911019D02*
X52050379Y-100911019D01*
X52050379Y-100911019D02*
X52050379Y-99911019D01*
X53240855Y-100863400D02*
X53145617Y-100911019D01*
X53145617Y-100911019D02*
X52955141Y-100911019D01*
X52955141Y-100911019D02*
X52859903Y-100863400D01*
X52859903Y-100863400D02*
X52812284Y-100768161D01*
X52812284Y-100768161D02*
X52812284Y-100387209D01*
X52812284Y-100387209D02*
X52859903Y-100291971D01*
X52859903Y-100291971D02*
X52955141Y-100244352D01*
X52955141Y-100244352D02*
X53145617Y-100244352D01*
X53145617Y-100244352D02*
X53240855Y-100291971D01*
X53240855Y-100291971D02*
X53288474Y-100387209D01*
X53288474Y-100387209D02*
X53288474Y-100482447D01*
X53288474Y-100482447D02*
X52812284Y-100577685D01*
X53621808Y-100244352D02*
X53859903Y-100911019D01*
X53859903Y-100911019D02*
X54097998Y-100244352D01*
X54859903Y-100863400D02*
X54764665Y-100911019D01*
X54764665Y-100911019D02*
X54574189Y-100911019D01*
X54574189Y-100911019D02*
X54478951Y-100863400D01*
X54478951Y-100863400D02*
X54431332Y-100768161D01*
X54431332Y-100768161D02*
X54431332Y-100387209D01*
X54431332Y-100387209D02*
X54478951Y-100291971D01*
X54478951Y-100291971D02*
X54574189Y-100244352D01*
X54574189Y-100244352D02*
X54764665Y-100244352D01*
X54764665Y-100244352D02*
X54859903Y-100291971D01*
X54859903Y-100291971D02*
X54907522Y-100387209D01*
X54907522Y-100387209D02*
X54907522Y-100482447D01*
X54907522Y-100482447D02*
X54431332Y-100577685D01*
X55478951Y-100911019D02*
X55383713Y-100863400D01*
X55383713Y-100863400D02*
X55336094Y-100768161D01*
X55336094Y-100768161D02*
X55336094Y-99911019D01*
X56574190Y-100625304D02*
X57050380Y-100625304D01*
X56478952Y-100911019D02*
X56812285Y-99911019D01*
X56812285Y-99911019D02*
X57145618Y-100911019D01*
X57907523Y-100911019D02*
X57907523Y-99911019D01*
X57907523Y-100863400D02*
X57812285Y-100911019D01*
X57812285Y-100911019D02*
X57621809Y-100911019D01*
X57621809Y-100911019D02*
X57526571Y-100863400D01*
X57526571Y-100863400D02*
X57478952Y-100815780D01*
X57478952Y-100815780D02*
X57431333Y-100720542D01*
X57431333Y-100720542D02*
X57431333Y-100434828D01*
X57431333Y-100434828D02*
X57478952Y-100339590D01*
X57478952Y-100339590D02*
X57526571Y-100291971D01*
X57526571Y-100291971D02*
X57621809Y-100244352D01*
X57621809Y-100244352D02*
X57812285Y-100244352D01*
X57812285Y-100244352D02*
X57907523Y-100291971D01*
X58383714Y-100244352D02*
X58383714Y-101101495D01*
X58383714Y-101101495D02*
X58336095Y-101196733D01*
X58336095Y-101196733D02*
X58240857Y-101244352D01*
X58240857Y-101244352D02*
X58193238Y-101244352D01*
X58383714Y-99911019D02*
X58336095Y-99958638D01*
X58336095Y-99958638D02*
X58383714Y-100006257D01*
X58383714Y-100006257D02*
X58431333Y-99958638D01*
X58431333Y-99958638D02*
X58383714Y-99911019D01*
X58383714Y-99911019D02*
X58383714Y-100006257D01*
X62151188Y-117360019D02*
X61579760Y-117360019D01*
X61865474Y-117360019D02*
X61865474Y-116360019D01*
X61865474Y-116360019D02*
X61770236Y-116502876D01*
X61770236Y-116502876D02*
X61674998Y-116598114D01*
X61674998Y-116598114D02*
X61579760Y-116645733D01*
X62770236Y-116360019D02*
X62865474Y-116360019D01*
X62865474Y-116360019D02*
X62960712Y-116407638D01*
X62960712Y-116407638D02*
X63008331Y-116455257D01*
X63008331Y-116455257D02*
X63055950Y-116550495D01*
X63055950Y-116550495D02*
X63103569Y-116740971D01*
X63103569Y-116740971D02*
X63103569Y-116979066D01*
X63103569Y-116979066D02*
X63055950Y-117169542D01*
X63055950Y-117169542D02*
X63008331Y-117264780D01*
X63008331Y-117264780D02*
X62960712Y-117312400D01*
X62960712Y-117312400D02*
X62865474Y-117360019D01*
X62865474Y-117360019D02*
X62770236Y-117360019D01*
X62770236Y-117360019D02*
X62674998Y-117312400D01*
X62674998Y-117312400D02*
X62627379Y-117264780D01*
X62627379Y-117264780D02*
X62579760Y-117169542D01*
X62579760Y-117169542D02*
X62532141Y-116979066D01*
X62532141Y-116979066D02*
X62532141Y-116740971D01*
X62532141Y-116740971D02*
X62579760Y-116550495D01*
X62579760Y-116550495D02*
X62627379Y-116455257D01*
X62627379Y-116455257D02*
X62674998Y-116407638D01*
X62674998Y-116407638D02*
X62770236Y-116360019D01*
X63722617Y-116360019D02*
X63817855Y-116360019D01*
X63817855Y-116360019D02*
X63913093Y-116407638D01*
X63913093Y-116407638D02*
X63960712Y-116455257D01*
X63960712Y-116455257D02*
X64008331Y-116550495D01*
X64008331Y-116550495D02*
X64055950Y-116740971D01*
X64055950Y-116740971D02*
X64055950Y-116979066D01*
X64055950Y-116979066D02*
X64008331Y-117169542D01*
X64008331Y-117169542D02*
X63960712Y-117264780D01*
X63960712Y-117264780D02*
X63913093Y-117312400D01*
X63913093Y-117312400D02*
X63817855Y-117360019D01*
X63817855Y-117360019D02*
X63722617Y-117360019D01*
X63722617Y-117360019D02*
X63627379Y-117312400D01*
X63627379Y-117312400D02*
X63579760Y-117264780D01*
X63579760Y-117264780D02*
X63532141Y-117169542D01*
X63532141Y-117169542D02*
X63484522Y-116979066D01*
X63484522Y-116979066D02*
X63484522Y-116740971D01*
X63484522Y-116740971D02*
X63532141Y-116550495D01*
X63532141Y-116550495D02*
X63579760Y-116455257D01*
X63579760Y-116455257D02*
X63627379Y-116407638D01*
X63627379Y-116407638D02*
X63722617Y-116360019D01*
X55476729Y-101463909D02*
X55000539Y-101463909D01*
X55000539Y-101463909D02*
X54952920Y-101940099D01*
X54952920Y-101940099D02*
X55000539Y-101892480D01*
X55000539Y-101892480D02*
X55095777Y-101844861D01*
X55095777Y-101844861D02*
X55333872Y-101844861D01*
X55333872Y-101844861D02*
X55429110Y-101892480D01*
X55429110Y-101892480D02*
X55476729Y-101940099D01*
X55476729Y-101940099D02*
X55524348Y-102035337D01*
X55524348Y-102035337D02*
X55524348Y-102273432D01*
X55524348Y-102273432D02*
X55476729Y-102368670D01*
X55476729Y-102368670D02*
X55429110Y-102416290D01*
X55429110Y-102416290D02*
X55333872Y-102463909D01*
X55333872Y-102463909D02*
X55095777Y-102463909D01*
X55095777Y-102463909D02*
X55000539Y-102416290D01*
X55000539Y-102416290D02*
X54952920Y-102368670D01*
X56143396Y-101463909D02*
X56238634Y-101463909D01*
X56238634Y-101463909D02*
X56333872Y-101511528D01*
X56333872Y-101511528D02*
X56381491Y-101559147D01*
X56381491Y-101559147D02*
X56429110Y-101654385D01*
X56429110Y-101654385D02*
X56476729Y-101844861D01*
X56476729Y-101844861D02*
X56476729Y-102082956D01*
X56476729Y-102082956D02*
X56429110Y-102273432D01*
X56429110Y-102273432D02*
X56381491Y-102368670D01*
X56381491Y-102368670D02*
X56333872Y-102416290D01*
X56333872Y-102416290D02*
X56238634Y-102463909D01*
X56238634Y-102463909D02*
X56143396Y-102463909D01*
X56143396Y-102463909D02*
X56048158Y-102416290D01*
X56048158Y-102416290D02*
X56000539Y-102368670D01*
X56000539Y-102368670D02*
X55952920Y-102273432D01*
X55952920Y-102273432D02*
X55905301Y-102082956D01*
X55905301Y-102082956D02*
X55905301Y-101844861D01*
X55905301Y-101844861D02*
X55952920Y-101654385D01*
X55952920Y-101654385D02*
X56000539Y-101559147D01*
X56000539Y-101559147D02*
X56048158Y-101511528D01*
X56048158Y-101511528D02*
X56143396Y-101463909D01*
X63793236Y-109621590D02*
X63697998Y-109573971D01*
X63697998Y-109573971D02*
X63650379Y-109526352D01*
X63650379Y-109526352D02*
X63602760Y-109431114D01*
X63602760Y-109431114D02*
X63602760Y-109383495D01*
X63602760Y-109383495D02*
X63650379Y-109288257D01*
X63650379Y-109288257D02*
X63697998Y-109240638D01*
X63697998Y-109240638D02*
X63793236Y-109193019D01*
X63793236Y-109193019D02*
X63983712Y-109193019D01*
X63983712Y-109193019D02*
X64078950Y-109240638D01*
X64078950Y-109240638D02*
X64126569Y-109288257D01*
X64126569Y-109288257D02*
X64174188Y-109383495D01*
X64174188Y-109383495D02*
X64174188Y-109431114D01*
X64174188Y-109431114D02*
X64126569Y-109526352D01*
X64126569Y-109526352D02*
X64078950Y-109573971D01*
X64078950Y-109573971D02*
X63983712Y-109621590D01*
X63983712Y-109621590D02*
X63793236Y-109621590D01*
X63793236Y-109621590D02*
X63697998Y-109669209D01*
X63697998Y-109669209D02*
X63650379Y-109716828D01*
X63650379Y-109716828D02*
X63602760Y-109812066D01*
X63602760Y-109812066D02*
X63602760Y-110002542D01*
X63602760Y-110002542D02*
X63650379Y-110097780D01*
X63650379Y-110097780D02*
X63697998Y-110145400D01*
X63697998Y-110145400D02*
X63793236Y-110193019D01*
X63793236Y-110193019D02*
X63983712Y-110193019D01*
X63983712Y-110193019D02*
X64078950Y-110145400D01*
X64078950Y-110145400D02*
X64126569Y-110097780D01*
X64126569Y-110097780D02*
X64174188Y-110002542D01*
X64174188Y-110002542D02*
X64174188Y-109812066D01*
X64174188Y-109812066D02*
X64126569Y-109716828D01*
X64126569Y-109716828D02*
X64078950Y-109669209D01*
X64078950Y-109669209D02*
X63983712Y-109621590D01*
X64793236Y-109193019D02*
X64888474Y-109193019D01*
X64888474Y-109193019D02*
X64983712Y-109240638D01*
X64983712Y-109240638D02*
X65031331Y-109288257D01*
X65031331Y-109288257D02*
X65078950Y-109383495D01*
X65078950Y-109383495D02*
X65126569Y-109573971D01*
X65126569Y-109573971D02*
X65126569Y-109812066D01*
X65126569Y-109812066D02*
X65078950Y-110002542D01*
X65078950Y-110002542D02*
X65031331Y-110097780D01*
X65031331Y-110097780D02*
X64983712Y-110145400D01*
X64983712Y-110145400D02*
X64888474Y-110193019D01*
X64888474Y-110193019D02*
X64793236Y-110193019D01*
X64793236Y-110193019D02*
X64697998Y-110145400D01*
X64697998Y-110145400D02*
X64650379Y-110097780D01*
X64650379Y-110097780D02*
X64602760Y-110002542D01*
X64602760Y-110002542D02*
X64555141Y-109812066D01*
X64555141Y-109812066D02*
X64555141Y-109573971D01*
X64555141Y-109573971D02*
X64602760Y-109383495D01*
X64602760Y-109383495D02*
X64650379Y-109288257D01*
X64650379Y-109288257D02*
X64697998Y-109240638D01*
X64697998Y-109240638D02*
X64793236Y-109193019D01*
D10*
X70139539Y-130624028D02*
X70425253Y-130624028D01*
X70425253Y-130624028D02*
X70568110Y-130552600D01*
X70568110Y-130552600D02*
X70639539Y-130481171D01*
X70639539Y-130481171D02*
X70782396Y-130266885D01*
X70782396Y-130266885D02*
X70853825Y-129981171D01*
X70853825Y-129981171D02*
X70853825Y-129409742D01*
X70853825Y-129409742D02*
X70782396Y-129266885D01*
X70782396Y-129266885D02*
X70710968Y-129195457D01*
X70710968Y-129195457D02*
X70568110Y-129124028D01*
X70568110Y-129124028D02*
X70282396Y-129124028D01*
X70282396Y-129124028D02*
X70139539Y-129195457D01*
X70139539Y-129195457D02*
X70068110Y-129266885D01*
X70068110Y-129266885D02*
X69996682Y-129409742D01*
X69996682Y-129409742D02*
X69996682Y-129766885D01*
X69996682Y-129766885D02*
X70068110Y-129909742D01*
X70068110Y-129909742D02*
X70139539Y-129981171D01*
X70139539Y-129981171D02*
X70282396Y-130052600D01*
X70282396Y-130052600D02*
X70568110Y-130052600D01*
X70568110Y-130052600D02*
X70710968Y-129981171D01*
X70710968Y-129981171D02*
X70782396Y-129909742D01*
X70782396Y-129909742D02*
X70853825Y-129766885D01*
X72568110Y-129052600D02*
X71282396Y-130981171D01*
X72996682Y-129266885D02*
X73068110Y-129195457D01*
X73068110Y-129195457D02*
X73210968Y-129124028D01*
X73210968Y-129124028D02*
X73568110Y-129124028D01*
X73568110Y-129124028D02*
X73710968Y-129195457D01*
X73710968Y-129195457D02*
X73782396Y-129266885D01*
X73782396Y-129266885D02*
X73853825Y-129409742D01*
X73853825Y-129409742D02*
X73853825Y-129552600D01*
X73853825Y-129552600D02*
X73782396Y-129766885D01*
X73782396Y-129766885D02*
X72925253Y-130624028D01*
X72925253Y-130624028D02*
X73853825Y-130624028D01*
X75568110Y-129052600D02*
X74282396Y-130981171D01*
X75996682Y-129266885D02*
X76068110Y-129195457D01*
X76068110Y-129195457D02*
X76210968Y-129124028D01*
X76210968Y-129124028D02*
X76568110Y-129124028D01*
X76568110Y-129124028D02*
X76710968Y-129195457D01*
X76710968Y-129195457D02*
X76782396Y-129266885D01*
X76782396Y-129266885D02*
X76853825Y-129409742D01*
X76853825Y-129409742D02*
X76853825Y-129552600D01*
X76853825Y-129552600D02*
X76782396Y-129766885D01*
X76782396Y-129766885D02*
X75925253Y-130624028D01*
X75925253Y-130624028D02*
X76853825Y-130624028D01*
X78139539Y-129624028D02*
X78139539Y-130624028D01*
X77782396Y-129052600D02*
X77425253Y-130124028D01*
X77425253Y-130124028D02*
X78353824Y-130124028D01*
X46568110Y-99124028D02*
X46568110Y-97624028D01*
X47282396Y-98124028D02*
X47282396Y-99124028D01*
X47282396Y-98266885D02*
X47353825Y-98195457D01*
X47353825Y-98195457D02*
X47496682Y-98124028D01*
X47496682Y-98124028D02*
X47710968Y-98124028D01*
X47710968Y-98124028D02*
X47853825Y-98195457D01*
X47853825Y-98195457D02*
X47925254Y-98338314D01*
X47925254Y-98338314D02*
X47925254Y-99124028D01*
X48639539Y-98124028D02*
X48639539Y-99624028D01*
X48639539Y-98195457D02*
X48782397Y-98124028D01*
X48782397Y-98124028D02*
X49068111Y-98124028D01*
X49068111Y-98124028D02*
X49210968Y-98195457D01*
X49210968Y-98195457D02*
X49282397Y-98266885D01*
X49282397Y-98266885D02*
X49353825Y-98409742D01*
X49353825Y-98409742D02*
X49353825Y-98838314D01*
X49353825Y-98838314D02*
X49282397Y-98981171D01*
X49282397Y-98981171D02*
X49210968Y-99052600D01*
X49210968Y-99052600D02*
X49068111Y-99124028D01*
X49068111Y-99124028D02*
X48782397Y-99124028D01*
X48782397Y-99124028D02*
X48639539Y-99052600D01*
X50639540Y-98124028D02*
X50639540Y-99124028D01*
X49996682Y-98124028D02*
X49996682Y-98909742D01*
X49996682Y-98909742D02*
X50068111Y-99052600D01*
X50068111Y-99052600D02*
X50210968Y-99124028D01*
X50210968Y-99124028D02*
X50425254Y-99124028D01*
X50425254Y-99124028D02*
X50568111Y-99052600D01*
X50568111Y-99052600D02*
X50639540Y-98981171D01*
X51139540Y-98124028D02*
X51710968Y-98124028D01*
X51353825Y-97624028D02*
X51353825Y-98909742D01*
X51353825Y-98909742D02*
X51425254Y-99052600D01*
X51425254Y-99052600D02*
X51568111Y-99124028D01*
X51568111Y-99124028D02*
X51710968Y-99124028D01*
D12*
X68363284Y-127063707D02*
X67770617Y-127063707D01*
X67770617Y-127995040D02*
X67770617Y-126217040D01*
X67770617Y-126217040D02*
X68617284Y-126217040D01*
X69633284Y-126217040D02*
X69971950Y-126217040D01*
X69971950Y-126217040D02*
X70141284Y-126301707D01*
X70141284Y-126301707D02*
X70310617Y-126471040D01*
X70310617Y-126471040D02*
X70395284Y-126809707D01*
X70395284Y-126809707D02*
X70395284Y-127402374D01*
X70395284Y-127402374D02*
X70310617Y-127741040D01*
X70310617Y-127741040D02*
X70141284Y-127910374D01*
X70141284Y-127910374D02*
X69971950Y-127995040D01*
X69971950Y-127995040D02*
X69633284Y-127995040D01*
X69633284Y-127995040D02*
X69463950Y-127910374D01*
X69463950Y-127910374D02*
X69294617Y-127741040D01*
X69294617Y-127741040D02*
X69209950Y-127402374D01*
X69209950Y-127402374D02*
X69209950Y-126809707D01*
X69209950Y-126809707D02*
X69294617Y-126471040D01*
X69294617Y-126471040D02*
X69463950Y-126301707D01*
X69463950Y-126301707D02*
X69633284Y-126217040D01*
X72511951Y-127995040D02*
X72511951Y-126217040D01*
X72511951Y-126217040D02*
X72935284Y-126217040D01*
X72935284Y-126217040D02*
X73189284Y-126301707D01*
X73189284Y-126301707D02*
X73358618Y-126471040D01*
X73358618Y-126471040D02*
X73443284Y-126640374D01*
X73443284Y-126640374D02*
X73527951Y-126979040D01*
X73527951Y-126979040D02*
X73527951Y-127233040D01*
X73527951Y-127233040D02*
X73443284Y-127571707D01*
X73443284Y-127571707D02*
X73358618Y-127741040D01*
X73358618Y-127741040D02*
X73189284Y-127910374D01*
X73189284Y-127910374D02*
X72935284Y-127995040D01*
X72935284Y-127995040D02*
X72511951Y-127995040D01*
X74967284Y-127910374D02*
X74797951Y-127995040D01*
X74797951Y-127995040D02*
X74459284Y-127995040D01*
X74459284Y-127995040D02*
X74289951Y-127910374D01*
X74289951Y-127910374D02*
X74205284Y-127741040D01*
X74205284Y-127741040D02*
X74205284Y-127063707D01*
X74205284Y-127063707D02*
X74289951Y-126894374D01*
X74289951Y-126894374D02*
X74459284Y-126809707D01*
X74459284Y-126809707D02*
X74797951Y-126809707D01*
X74797951Y-126809707D02*
X74967284Y-126894374D01*
X74967284Y-126894374D02*
X75051951Y-127063707D01*
X75051951Y-127063707D02*
X75051951Y-127233040D01*
X75051951Y-127233040D02*
X74205284Y-127402374D01*
X75729284Y-127910374D02*
X75898618Y-127995040D01*
X75898618Y-127995040D02*
X76237284Y-127995040D01*
X76237284Y-127995040D02*
X76406618Y-127910374D01*
X76406618Y-127910374D02*
X76491284Y-127741040D01*
X76491284Y-127741040D02*
X76491284Y-127656374D01*
X76491284Y-127656374D02*
X76406618Y-127487040D01*
X76406618Y-127487040D02*
X76237284Y-127402374D01*
X76237284Y-127402374D02*
X75983284Y-127402374D01*
X75983284Y-127402374D02*
X75813951Y-127317707D01*
X75813951Y-127317707D02*
X75729284Y-127148374D01*
X75729284Y-127148374D02*
X75729284Y-127063707D01*
X75729284Y-127063707D02*
X75813951Y-126894374D01*
X75813951Y-126894374D02*
X75983284Y-126809707D01*
X75983284Y-126809707D02*
X76237284Y-126809707D01*
X76237284Y-126809707D02*
X76406618Y-126894374D01*
X77253284Y-127995040D02*
X77253284Y-126809707D01*
X77253284Y-126217040D02*
X77168617Y-126301707D01*
X77168617Y-126301707D02*
X77253284Y-126386374D01*
X77253284Y-126386374D02*
X77337951Y-126301707D01*
X77337951Y-126301707D02*
X77253284Y-126217040D01*
X77253284Y-126217040D02*
X77253284Y-126386374D01*
X78861951Y-126809707D02*
X78861951Y-128249040D01*
X78861951Y-128249040D02*
X78777284Y-128418374D01*
X78777284Y-128418374D02*
X78692618Y-128503040D01*
X78692618Y-128503040D02*
X78523284Y-128587707D01*
X78523284Y-128587707D02*
X78269284Y-128587707D01*
X78269284Y-128587707D02*
X78099951Y-128503040D01*
X78861951Y-127910374D02*
X78692618Y-127995040D01*
X78692618Y-127995040D02*
X78353951Y-127995040D01*
X78353951Y-127995040D02*
X78184618Y-127910374D01*
X78184618Y-127910374D02*
X78099951Y-127825707D01*
X78099951Y-127825707D02*
X78015284Y-127656374D01*
X78015284Y-127656374D02*
X78015284Y-127148374D01*
X78015284Y-127148374D02*
X78099951Y-126979040D01*
X78099951Y-126979040D02*
X78184618Y-126894374D01*
X78184618Y-126894374D02*
X78353951Y-126809707D01*
X78353951Y-126809707D02*
X78692618Y-126809707D01*
X78692618Y-126809707D02*
X78861951Y-126894374D01*
X79708618Y-126809707D02*
X79708618Y-127995040D01*
X79708618Y-126979040D02*
X79793285Y-126894374D01*
X79793285Y-126894374D02*
X79962618Y-126809707D01*
X79962618Y-126809707D02*
X80216618Y-126809707D01*
X80216618Y-126809707D02*
X80385951Y-126894374D01*
X80385951Y-126894374D02*
X80470618Y-127063707D01*
X80470618Y-127063707D02*
X80470618Y-127995040D01*
X82502619Y-126217040D02*
X82925952Y-127995040D01*
X82925952Y-127995040D02*
X83264619Y-126725040D01*
X83264619Y-126725040D02*
X83603285Y-127995040D01*
X83603285Y-127995040D02*
X84026619Y-126217040D01*
X84957952Y-127995040D02*
X84788619Y-127910374D01*
X84788619Y-127910374D02*
X84703952Y-127825707D01*
X84703952Y-127825707D02*
X84619285Y-127656374D01*
X84619285Y-127656374D02*
X84619285Y-127148374D01*
X84619285Y-127148374D02*
X84703952Y-126979040D01*
X84703952Y-126979040D02*
X84788619Y-126894374D01*
X84788619Y-126894374D02*
X84957952Y-126809707D01*
X84957952Y-126809707D02*
X85211952Y-126809707D01*
X85211952Y-126809707D02*
X85381285Y-126894374D01*
X85381285Y-126894374D02*
X85465952Y-126979040D01*
X85465952Y-126979040D02*
X85550619Y-127148374D01*
X85550619Y-127148374D02*
X85550619Y-127656374D01*
X85550619Y-127656374D02*
X85465952Y-127825707D01*
X85465952Y-127825707D02*
X85381285Y-127910374D01*
X85381285Y-127910374D02*
X85211952Y-127995040D01*
X85211952Y-127995040D02*
X84957952Y-127995040D01*
X86312619Y-127995040D02*
X86312619Y-126809707D01*
X86312619Y-127148374D02*
X86397286Y-126979040D01*
X86397286Y-126979040D02*
X86481952Y-126894374D01*
X86481952Y-126894374D02*
X86651286Y-126809707D01*
X86651286Y-126809707D02*
X86820619Y-126809707D01*
X87413286Y-127995040D02*
X87413286Y-126217040D01*
X87582619Y-127317707D02*
X88090619Y-127995040D01*
X88090619Y-126809707D02*
X87413286Y-127487040D01*
X88767952Y-127910374D02*
X88937286Y-127995040D01*
X88937286Y-127995040D02*
X89275952Y-127995040D01*
X89275952Y-127995040D02*
X89445286Y-127910374D01*
X89445286Y-127910374D02*
X89529952Y-127741040D01*
X89529952Y-127741040D02*
X89529952Y-127656374D01*
X89529952Y-127656374D02*
X89445286Y-127487040D01*
X89445286Y-127487040D02*
X89275952Y-127402374D01*
X89275952Y-127402374D02*
X89021952Y-127402374D01*
X89021952Y-127402374D02*
X88852619Y-127317707D01*
X88852619Y-127317707D02*
X88767952Y-127148374D01*
X88767952Y-127148374D02*
X88767952Y-127063707D01*
X88767952Y-127063707D02*
X88852619Y-126894374D01*
X88852619Y-126894374D02*
X89021952Y-126809707D01*
X89021952Y-126809707D02*
X89275952Y-126809707D01*
X89275952Y-126809707D02*
X89445286Y-126894374D01*
D11*
X46330379Y-138822466D02*
X47092284Y-138822466D01*
X46711331Y-139203419D02*
X46711331Y-138441514D01*
X48092283Y-139203419D02*
X47520855Y-139203419D01*
X47806569Y-139203419D02*
X47806569Y-138203419D01*
X47806569Y-138203419D02*
X47711331Y-138346276D01*
X47711331Y-138346276D02*
X47616093Y-138441514D01*
X47616093Y-138441514D02*
X47520855Y-138489133D01*
X48473236Y-138298657D02*
X48520855Y-138251038D01*
X48520855Y-138251038D02*
X48616093Y-138203419D01*
X48616093Y-138203419D02*
X48854188Y-138203419D01*
X48854188Y-138203419D02*
X48949426Y-138251038D01*
X48949426Y-138251038D02*
X48997045Y-138298657D01*
X48997045Y-138298657D02*
X49044664Y-138393895D01*
X49044664Y-138393895D02*
X49044664Y-138489133D01*
X49044664Y-138489133D02*
X48997045Y-138631990D01*
X48997045Y-138631990D02*
X48425617Y-139203419D01*
X48425617Y-139203419D02*
X49044664Y-139203419D01*
X49330379Y-138203419D02*
X49663712Y-139203419D01*
X49663712Y-139203419D02*
X49997045Y-138203419D01*
X51092284Y-139203419D02*
X51092284Y-138203419D01*
X51092284Y-138203419D02*
X51473236Y-138203419D01*
X51473236Y-138203419D02*
X51568474Y-138251038D01*
X51568474Y-138251038D02*
X51616093Y-138298657D01*
X51616093Y-138298657D02*
X51663712Y-138393895D01*
X51663712Y-138393895D02*
X51663712Y-138536752D01*
X51663712Y-138536752D02*
X51616093Y-138631990D01*
X51616093Y-138631990D02*
X51568474Y-138679609D01*
X51568474Y-138679609D02*
X51473236Y-138727228D01*
X51473236Y-138727228D02*
X51092284Y-138727228D01*
X51997046Y-138203419D02*
X52235141Y-139203419D01*
X52235141Y-139203419D02*
X52425617Y-138489133D01*
X52425617Y-138489133D02*
X52616093Y-139203419D01*
X52616093Y-139203419D02*
X52854189Y-138203419D01*
X53806569Y-139203419D02*
X53473236Y-138727228D01*
X53235141Y-139203419D02*
X53235141Y-138203419D01*
X53235141Y-138203419D02*
X53616093Y-138203419D01*
X53616093Y-138203419D02*
X53711331Y-138251038D01*
X53711331Y-138251038D02*
X53758950Y-138298657D01*
X53758950Y-138298657D02*
X53806569Y-138393895D01*
X53806569Y-138393895D02*
X53806569Y-138536752D01*
X53806569Y-138536752D02*
X53758950Y-138631990D01*
X53758950Y-138631990D02*
X53711331Y-138679609D01*
X53711331Y-138679609D02*
X53616093Y-138727228D01*
X53616093Y-138727228D02*
X53235141Y-138727228D01*
X51278950Y-102926352D02*
X51278950Y-103593019D01*
X51040855Y-102545400D02*
X50802760Y-103259685D01*
X50802760Y-103259685D02*
X51421807Y-103259685D01*
X51993236Y-102593019D02*
X52088474Y-102593019D01*
X52088474Y-102593019D02*
X52183712Y-102640638D01*
X52183712Y-102640638D02*
X52231331Y-102688257D01*
X52231331Y-102688257D02*
X52278950Y-102783495D01*
X52278950Y-102783495D02*
X52326569Y-102973971D01*
X52326569Y-102973971D02*
X52326569Y-103212066D01*
X52326569Y-103212066D02*
X52278950Y-103402542D01*
X52278950Y-103402542D02*
X52231331Y-103497780D01*
X52231331Y-103497780D02*
X52183712Y-103545400D01*
X52183712Y-103545400D02*
X52088474Y-103593019D01*
X52088474Y-103593019D02*
X51993236Y-103593019D01*
X51993236Y-103593019D02*
X51897998Y-103545400D01*
X51897998Y-103545400D02*
X51850379Y-103497780D01*
X51850379Y-103497780D02*
X51802760Y-103402542D01*
X51802760Y-103402542D02*
X51755141Y-103212066D01*
X51755141Y-103212066D02*
X51755141Y-102973971D01*
X51755141Y-102973971D02*
X51802760Y-102783495D01*
X51802760Y-102783495D02*
X51850379Y-102688257D01*
X51850379Y-102688257D02*
X51897998Y-102640638D01*
X51897998Y-102640638D02*
X51993236Y-102593019D01*
D10*
X105453825Y-102724028D02*
X105953825Y-104224028D01*
X105953825Y-104224028D02*
X106453825Y-102724028D01*
X108882396Y-102795457D02*
X108739539Y-102724028D01*
X108739539Y-102724028D02*
X108525253Y-102724028D01*
X108525253Y-102724028D02*
X108310967Y-102795457D01*
X108310967Y-102795457D02*
X108168110Y-102938314D01*
X108168110Y-102938314D02*
X108096681Y-103081171D01*
X108096681Y-103081171D02*
X108025253Y-103366885D01*
X108025253Y-103366885D02*
X108025253Y-103581171D01*
X108025253Y-103581171D02*
X108096681Y-103866885D01*
X108096681Y-103866885D02*
X108168110Y-104009742D01*
X108168110Y-104009742D02*
X108310967Y-104152600D01*
X108310967Y-104152600D02*
X108525253Y-104224028D01*
X108525253Y-104224028D02*
X108668110Y-104224028D01*
X108668110Y-104224028D02*
X108882396Y-104152600D01*
X108882396Y-104152600D02*
X108953824Y-104081171D01*
X108953824Y-104081171D02*
X108953824Y-103581171D01*
X108953824Y-103581171D02*
X108668110Y-103581171D01*
X110239539Y-104224028D02*
X110239539Y-103438314D01*
X110239539Y-103438314D02*
X110168110Y-103295457D01*
X110168110Y-103295457D02*
X110025253Y-103224028D01*
X110025253Y-103224028D02*
X109739539Y-103224028D01*
X109739539Y-103224028D02*
X109596681Y-103295457D01*
X110239539Y-104152600D02*
X110096681Y-104224028D01*
X110096681Y-104224028D02*
X109739539Y-104224028D01*
X109739539Y-104224028D02*
X109596681Y-104152600D01*
X109596681Y-104152600D02*
X109525253Y-104009742D01*
X109525253Y-104009742D02*
X109525253Y-103866885D01*
X109525253Y-103866885D02*
X109596681Y-103724028D01*
X109596681Y-103724028D02*
X109739539Y-103652600D01*
X109739539Y-103652600D02*
X110096681Y-103652600D01*
X110096681Y-103652600D02*
X110239539Y-103581171D01*
X110953824Y-104224028D02*
X110953824Y-103224028D01*
X110953824Y-102724028D02*
X110882396Y-102795457D01*
X110882396Y-102795457D02*
X110953824Y-102866885D01*
X110953824Y-102866885D02*
X111025253Y-102795457D01*
X111025253Y-102795457D02*
X110953824Y-102724028D01*
X110953824Y-102724028D02*
X110953824Y-102866885D01*
X111668110Y-103224028D02*
X111668110Y-104224028D01*
X111668110Y-103366885D02*
X111739539Y-103295457D01*
X111739539Y-103295457D02*
X111882396Y-103224028D01*
X111882396Y-103224028D02*
X112096682Y-103224028D01*
X112096682Y-103224028D02*
X112239539Y-103295457D01*
X112239539Y-103295457D02*
X112310968Y-103438314D01*
X112310968Y-103438314D02*
X112310968Y-104224028D01*
X113025253Y-104081171D02*
X113096682Y-104152600D01*
X113096682Y-104152600D02*
X113025253Y-104224028D01*
X113025253Y-104224028D02*
X112953825Y-104152600D01*
X112953825Y-104152600D02*
X113025253Y-104081171D01*
X113025253Y-104081171D02*
X113025253Y-104224028D01*
X113025253Y-103295457D02*
X113096682Y-103366885D01*
X113096682Y-103366885D02*
X113025253Y-103438314D01*
X113025253Y-103438314D02*
X112953825Y-103366885D01*
X112953825Y-103366885D02*
X113025253Y-103295457D01*
X113025253Y-103295457D02*
X113025253Y-103438314D01*
X115668111Y-104224028D02*
X114810968Y-104224028D01*
X115239539Y-104224028D02*
X115239539Y-102724028D01*
X115239539Y-102724028D02*
X115096682Y-102938314D01*
X115096682Y-102938314D02*
X114953825Y-103081171D01*
X114953825Y-103081171D02*
X114810968Y-103152600D01*
X116596682Y-102724028D02*
X116739539Y-102724028D01*
X116739539Y-102724028D02*
X116882396Y-102795457D01*
X116882396Y-102795457D02*
X116953825Y-102866885D01*
X116953825Y-102866885D02*
X117025253Y-103009742D01*
X117025253Y-103009742D02*
X117096682Y-103295457D01*
X117096682Y-103295457D02*
X117096682Y-103652600D01*
X117096682Y-103652600D02*
X117025253Y-103938314D01*
X117025253Y-103938314D02*
X116953825Y-104081171D01*
X116953825Y-104081171D02*
X116882396Y-104152600D01*
X116882396Y-104152600D02*
X116739539Y-104224028D01*
X116739539Y-104224028D02*
X116596682Y-104224028D01*
X116596682Y-104224028D02*
X116453825Y-104152600D01*
X116453825Y-104152600D02*
X116382396Y-104081171D01*
X116382396Y-104081171D02*
X116310967Y-103938314D01*
X116310967Y-103938314D02*
X116239539Y-103652600D01*
X116239539Y-103652600D02*
X116239539Y-103295457D01*
X116239539Y-103295457D02*
X116310967Y-103009742D01*
X116310967Y-103009742D02*
X116382396Y-102866885D01*
X116382396Y-102866885D02*
X116453825Y-102795457D01*
X116453825Y-102795457D02*
X116596682Y-102724028D01*
X117739538Y-104081171D02*
X117810967Y-104152600D01*
X117810967Y-104152600D02*
X117739538Y-104224028D01*
X117739538Y-104224028D02*
X117668110Y-104152600D01*
X117668110Y-104152600D02*
X117739538Y-104081171D01*
X117739538Y-104081171D02*
X117739538Y-104224028D01*
X118739539Y-102724028D02*
X118882396Y-102724028D01*
X118882396Y-102724028D02*
X119025253Y-102795457D01*
X119025253Y-102795457D02*
X119096682Y-102866885D01*
X119096682Y-102866885D02*
X119168110Y-103009742D01*
X119168110Y-103009742D02*
X119239539Y-103295457D01*
X119239539Y-103295457D02*
X119239539Y-103652600D01*
X119239539Y-103652600D02*
X119168110Y-103938314D01*
X119168110Y-103938314D02*
X119096682Y-104081171D01*
X119096682Y-104081171D02*
X119025253Y-104152600D01*
X119025253Y-104152600D02*
X118882396Y-104224028D01*
X118882396Y-104224028D02*
X118739539Y-104224028D01*
X118739539Y-104224028D02*
X118596682Y-104152600D01*
X118596682Y-104152600D02*
X118525253Y-104081171D01*
X118525253Y-104081171D02*
X118453824Y-103938314D01*
X118453824Y-103938314D02*
X118382396Y-103652600D01*
X118382396Y-103652600D02*
X118382396Y-103295457D01*
X118382396Y-103295457D02*
X118453824Y-103009742D01*
X118453824Y-103009742D02*
X118525253Y-102866885D01*
X118525253Y-102866885D02*
X118596682Y-102795457D01*
X118596682Y-102795457D02*
X118739539Y-102724028D01*
D11*
X47074188Y-113893019D02*
X46502760Y-113893019D01*
X46788474Y-113893019D02*
X46788474Y-112893019D01*
X46788474Y-112893019D02*
X46693236Y-113035876D01*
X46693236Y-113035876D02*
X46597998Y-113131114D01*
X46597998Y-113131114D02*
X46502760Y-113178733D01*
X47693236Y-112893019D02*
X47788474Y-112893019D01*
X47788474Y-112893019D02*
X47883712Y-112940638D01*
X47883712Y-112940638D02*
X47931331Y-112988257D01*
X47931331Y-112988257D02*
X47978950Y-113083495D01*
X47978950Y-113083495D02*
X48026569Y-113273971D01*
X48026569Y-113273971D02*
X48026569Y-113512066D01*
X48026569Y-113512066D02*
X47978950Y-113702542D01*
X47978950Y-113702542D02*
X47931331Y-113797780D01*
X47931331Y-113797780D02*
X47883712Y-113845400D01*
X47883712Y-113845400D02*
X47788474Y-113893019D01*
X47788474Y-113893019D02*
X47693236Y-113893019D01*
X47693236Y-113893019D02*
X47597998Y-113845400D01*
X47597998Y-113845400D02*
X47550379Y-113797780D01*
X47550379Y-113797780D02*
X47502760Y-113702542D01*
X47502760Y-113702542D02*
X47455141Y-113512066D01*
X47455141Y-113512066D02*
X47455141Y-113273971D01*
X47455141Y-113273971D02*
X47502760Y-113083495D01*
X47502760Y-113083495D02*
X47550379Y-112988257D01*
X47550379Y-112988257D02*
X47597998Y-112940638D01*
X47597998Y-112940638D02*
X47693236Y-112893019D01*
X87835505Y-82198019D02*
X87835505Y-81198019D01*
X87835505Y-81674209D02*
X88406933Y-81674209D01*
X88406933Y-82198019D02*
X88406933Y-81198019D01*
X88835505Y-82150400D02*
X88978362Y-82198019D01*
X88978362Y-82198019D02*
X89216457Y-82198019D01*
X89216457Y-82198019D02*
X89311695Y-82150400D01*
X89311695Y-82150400D02*
X89359314Y-82102780D01*
X89359314Y-82102780D02*
X89406933Y-82007542D01*
X89406933Y-82007542D02*
X89406933Y-81912304D01*
X89406933Y-81912304D02*
X89359314Y-81817066D01*
X89359314Y-81817066D02*
X89311695Y-81769447D01*
X89311695Y-81769447D02*
X89216457Y-81721828D01*
X89216457Y-81721828D02*
X89025981Y-81674209D01*
X89025981Y-81674209D02*
X88930743Y-81626590D01*
X88930743Y-81626590D02*
X88883124Y-81578971D01*
X88883124Y-81578971D02*
X88835505Y-81483733D01*
X88835505Y-81483733D02*
X88835505Y-81388495D01*
X88835505Y-81388495D02*
X88883124Y-81293257D01*
X88883124Y-81293257D02*
X88930743Y-81245638D01*
X88930743Y-81245638D02*
X89025981Y-81198019D01*
X89025981Y-81198019D02*
X89264076Y-81198019D01*
X89264076Y-81198019D02*
X89406933Y-81245638D01*
X90359314Y-82198019D02*
X89787886Y-82198019D01*
X90073600Y-82198019D02*
X90073600Y-81198019D01*
X90073600Y-81198019D02*
X89978362Y-81340876D01*
X89978362Y-81340876D02*
X89883124Y-81436114D01*
X89883124Y-81436114D02*
X89787886Y-81483733D01*
X115703504Y-124161057D02*
X115751124Y-124208676D01*
X115751124Y-124208676D02*
X115798743Y-124351533D01*
X115798743Y-124351533D02*
X115798743Y-124446771D01*
X115798743Y-124446771D02*
X115751124Y-124589628D01*
X115751124Y-124589628D02*
X115655885Y-124684866D01*
X115655885Y-124684866D02*
X115560647Y-124732485D01*
X115560647Y-124732485D02*
X115370171Y-124780104D01*
X115370171Y-124780104D02*
X115227314Y-124780104D01*
X115227314Y-124780104D02*
X115036838Y-124732485D01*
X115036838Y-124732485D02*
X114941600Y-124684866D01*
X114941600Y-124684866D02*
X114846362Y-124589628D01*
X114846362Y-124589628D02*
X114798743Y-124446771D01*
X114798743Y-124446771D02*
X114798743Y-124351533D01*
X114798743Y-124351533D02*
X114846362Y-124208676D01*
X114846362Y-124208676D02*
X114893981Y-124161057D01*
X115798743Y-123208676D02*
X115798743Y-123780104D01*
X115798743Y-123494390D02*
X114798743Y-123494390D01*
X114798743Y-123494390D02*
X114941600Y-123589628D01*
X114941600Y-123589628D02*
X115036838Y-123684866D01*
X115036838Y-123684866D02*
X115084457Y-123780104D01*
X114798743Y-122351533D02*
X114798743Y-122542009D01*
X114798743Y-122542009D02*
X114846362Y-122637247D01*
X114846362Y-122637247D02*
X114893981Y-122684866D01*
X114893981Y-122684866D02*
X115036838Y-122780104D01*
X115036838Y-122780104D02*
X115227314Y-122827723D01*
X115227314Y-122827723D02*
X115608266Y-122827723D01*
X115608266Y-122827723D02*
X115703504Y-122780104D01*
X115703504Y-122780104D02*
X115751124Y-122732485D01*
X115751124Y-122732485D02*
X115798743Y-122637247D01*
X115798743Y-122637247D02*
X115798743Y-122446771D01*
X115798743Y-122446771D02*
X115751124Y-122351533D01*
X115751124Y-122351533D02*
X115703504Y-122303914D01*
X115703504Y-122303914D02*
X115608266Y-122256295D01*
X115608266Y-122256295D02*
X115370171Y-122256295D01*
X115370171Y-122256295D02*
X115274933Y-122303914D01*
X115274933Y-122303914D02*
X115227314Y-122351533D01*
X115227314Y-122351533D02*
X115179695Y-122446771D01*
X115179695Y-122446771D02*
X115179695Y-122637247D01*
X115179695Y-122637247D02*
X115227314Y-122732485D01*
X115227314Y-122732485D02*
X115274933Y-122780104D01*
X115274933Y-122780104D02*
X115370171Y-122827723D01*
X75289790Y-138597066D02*
X76051695Y-138597066D01*
X77051694Y-138978019D02*
X76480266Y-138978019D01*
X76765980Y-138978019D02*
X76765980Y-137978019D01*
X76765980Y-137978019D02*
X76670742Y-138120876D01*
X76670742Y-138120876D02*
X76575504Y-138216114D01*
X76575504Y-138216114D02*
X76480266Y-138263733D01*
X77432647Y-138073257D02*
X77480266Y-138025638D01*
X77480266Y-138025638D02*
X77575504Y-137978019D01*
X77575504Y-137978019D02*
X77813599Y-137978019D01*
X77813599Y-137978019D02*
X77908837Y-138025638D01*
X77908837Y-138025638D02*
X77956456Y-138073257D01*
X77956456Y-138073257D02*
X78004075Y-138168495D01*
X78004075Y-138168495D02*
X78004075Y-138263733D01*
X78004075Y-138263733D02*
X77956456Y-138406590D01*
X77956456Y-138406590D02*
X77385028Y-138978019D01*
X77385028Y-138978019D02*
X78004075Y-138978019D01*
X78289790Y-137978019D02*
X78623123Y-138978019D01*
X78623123Y-138978019D02*
X78956456Y-137978019D01*
X79146933Y-138311352D02*
X79527885Y-138311352D01*
X79289790Y-137978019D02*
X79289790Y-138835161D01*
X79289790Y-138835161D02*
X79337409Y-138930400D01*
X79337409Y-138930400D02*
X79432647Y-138978019D01*
X79432647Y-138978019D02*
X79527885Y-138978019D01*
X80385028Y-138978019D02*
X79813600Y-138978019D01*
X80099314Y-138978019D02*
X80099314Y-137978019D01*
X80099314Y-137978019D02*
X80004076Y-138120876D01*
X80004076Y-138120876D02*
X79908838Y-138216114D01*
X79908838Y-138216114D02*
X79813600Y-138263733D01*
X55081752Y-83970019D02*
X55081752Y-82970019D01*
X55557942Y-83303352D02*
X55557942Y-83970019D01*
X55557942Y-83398590D02*
X55605561Y-83350971D01*
X55605561Y-83350971D02*
X55700799Y-83303352D01*
X55700799Y-83303352D02*
X55843656Y-83303352D01*
X55843656Y-83303352D02*
X55938894Y-83350971D01*
X55938894Y-83350971D02*
X55986513Y-83446209D01*
X55986513Y-83446209D02*
X55986513Y-83970019D01*
X56462704Y-83303352D02*
X56462704Y-84303352D01*
X56462704Y-83350971D02*
X56557942Y-83303352D01*
X56557942Y-83303352D02*
X56748418Y-83303352D01*
X56748418Y-83303352D02*
X56843656Y-83350971D01*
X56843656Y-83350971D02*
X56891275Y-83398590D01*
X56891275Y-83398590D02*
X56938894Y-83493828D01*
X56938894Y-83493828D02*
X56938894Y-83779542D01*
X56938894Y-83779542D02*
X56891275Y-83874780D01*
X56891275Y-83874780D02*
X56843656Y-83922400D01*
X56843656Y-83922400D02*
X56748418Y-83970019D01*
X56748418Y-83970019D02*
X56557942Y-83970019D01*
X56557942Y-83970019D02*
X56462704Y-83922400D01*
X57796037Y-83303352D02*
X57796037Y-83970019D01*
X57367466Y-83303352D02*
X57367466Y-83827161D01*
X57367466Y-83827161D02*
X57415085Y-83922400D01*
X57415085Y-83922400D02*
X57510323Y-83970019D01*
X57510323Y-83970019D02*
X57653180Y-83970019D01*
X57653180Y-83970019D02*
X57748418Y-83922400D01*
X57748418Y-83922400D02*
X57796037Y-83874780D01*
X58129371Y-83303352D02*
X58510323Y-83303352D01*
X58272228Y-82970019D02*
X58272228Y-83827161D01*
X58272228Y-83827161D02*
X58319847Y-83922400D01*
X58319847Y-83922400D02*
X58415085Y-83970019D01*
X58415085Y-83970019D02*
X58510323Y-83970019D01*
X59367466Y-83970019D02*
X58796038Y-83970019D01*
X59081752Y-83970019D02*
X59081752Y-82970019D01*
X59081752Y-82970019D02*
X58986514Y-83112876D01*
X58986514Y-83112876D02*
X58891276Y-83208114D01*
X58891276Y-83208114D02*
X58796038Y-83255733D01*
X84075504Y-139625638D02*
X83980266Y-139578019D01*
X83980266Y-139578019D02*
X83837409Y-139578019D01*
X83837409Y-139578019D02*
X83694552Y-139625638D01*
X83694552Y-139625638D02*
X83599314Y-139720876D01*
X83599314Y-139720876D02*
X83551695Y-139816114D01*
X83551695Y-139816114D02*
X83504076Y-140006590D01*
X83504076Y-140006590D02*
X83504076Y-140149447D01*
X83504076Y-140149447D02*
X83551695Y-140339923D01*
X83551695Y-140339923D02*
X83599314Y-140435161D01*
X83599314Y-140435161D02*
X83694552Y-140530400D01*
X83694552Y-140530400D02*
X83837409Y-140578019D01*
X83837409Y-140578019D02*
X83932647Y-140578019D01*
X83932647Y-140578019D02*
X84075504Y-140530400D01*
X84075504Y-140530400D02*
X84123123Y-140482780D01*
X84123123Y-140482780D02*
X84123123Y-140149447D01*
X84123123Y-140149447D02*
X83932647Y-140149447D01*
X84551695Y-140578019D02*
X84551695Y-139578019D01*
X84551695Y-139578019D02*
X85123123Y-140578019D01*
X85123123Y-140578019D02*
X85123123Y-139578019D01*
X85599314Y-140578019D02*
X85599314Y-139578019D01*
X85599314Y-139578019D02*
X85837409Y-139578019D01*
X85837409Y-139578019D02*
X85980266Y-139625638D01*
X85980266Y-139625638D02*
X86075504Y-139720876D01*
X86075504Y-139720876D02*
X86123123Y-139816114D01*
X86123123Y-139816114D02*
X86170742Y-140006590D01*
X86170742Y-140006590D02*
X86170742Y-140149447D01*
X86170742Y-140149447D02*
X86123123Y-140339923D01*
X86123123Y-140339923D02*
X86075504Y-140435161D01*
X86075504Y-140435161D02*
X85980266Y-140530400D01*
X85980266Y-140530400D02*
X85837409Y-140578019D01*
X85837409Y-140578019D02*
X85599314Y-140578019D01*
X87027885Y-139578019D02*
X86837409Y-139578019D01*
X86837409Y-139578019D02*
X86742171Y-139625638D01*
X86742171Y-139625638D02*
X86694552Y-139673257D01*
X86694552Y-139673257D02*
X86599314Y-139816114D01*
X86599314Y-139816114D02*
X86551695Y-140006590D01*
X86551695Y-140006590D02*
X86551695Y-140387542D01*
X86551695Y-140387542D02*
X86599314Y-140482780D01*
X86599314Y-140482780D02*
X86646933Y-140530400D01*
X86646933Y-140530400D02*
X86742171Y-140578019D01*
X86742171Y-140578019D02*
X86932647Y-140578019D01*
X86932647Y-140578019D02*
X87027885Y-140530400D01*
X87027885Y-140530400D02*
X87075504Y-140482780D01*
X87075504Y-140482780D02*
X87123123Y-140387542D01*
X87123123Y-140387542D02*
X87123123Y-140149447D01*
X87123123Y-140149447D02*
X87075504Y-140054209D01*
X87075504Y-140054209D02*
X87027885Y-140006590D01*
X87027885Y-140006590D02*
X86932647Y-139958971D01*
X86932647Y-139958971D02*
X86742171Y-139958971D01*
X86742171Y-139958971D02*
X86646933Y-140006590D01*
X86646933Y-140006590D02*
X86599314Y-140054209D01*
X86599314Y-140054209D02*
X86551695Y-140149447D01*
X52075505Y-126978019D02*
X52075505Y-125978019D01*
X52075505Y-125978019D02*
X52313600Y-125978019D01*
X52313600Y-125978019D02*
X52456457Y-126025638D01*
X52456457Y-126025638D02*
X52551695Y-126120876D01*
X52551695Y-126120876D02*
X52599314Y-126216114D01*
X52599314Y-126216114D02*
X52646933Y-126406590D01*
X52646933Y-126406590D02*
X52646933Y-126549447D01*
X52646933Y-126549447D02*
X52599314Y-126739923D01*
X52599314Y-126739923D02*
X52551695Y-126835161D01*
X52551695Y-126835161D02*
X52456457Y-126930400D01*
X52456457Y-126930400D02*
X52313600Y-126978019D01*
X52313600Y-126978019D02*
X52075505Y-126978019D01*
X53599314Y-126978019D02*
X53027886Y-126978019D01*
X53313600Y-126978019D02*
X53313600Y-125978019D01*
X53313600Y-125978019D02*
X53218362Y-126120876D01*
X53218362Y-126120876D02*
X53123124Y-126216114D01*
X53123124Y-126216114D02*
X53027886Y-126263733D01*
X64400742Y-134556019D02*
X64067409Y-134079828D01*
X63829314Y-134556019D02*
X63829314Y-133556019D01*
X63829314Y-133556019D02*
X64210266Y-133556019D01*
X64210266Y-133556019D02*
X64305504Y-133603638D01*
X64305504Y-133603638D02*
X64353123Y-133651257D01*
X64353123Y-133651257D02*
X64400742Y-133746495D01*
X64400742Y-133746495D02*
X64400742Y-133889352D01*
X64400742Y-133889352D02*
X64353123Y-133984590D01*
X64353123Y-133984590D02*
X64305504Y-134032209D01*
X64305504Y-134032209D02*
X64210266Y-134079828D01*
X64210266Y-134079828D02*
X63829314Y-134079828D01*
X65353123Y-134556019D02*
X64781695Y-134556019D01*
X65067409Y-134556019D02*
X65067409Y-133556019D01*
X65067409Y-133556019D02*
X64972171Y-133698876D01*
X64972171Y-133698876D02*
X64876933Y-133794114D01*
X64876933Y-133794114D02*
X64781695Y-133841733D01*
X65972171Y-133556019D02*
X66067409Y-133556019D01*
X66067409Y-133556019D02*
X66162647Y-133603638D01*
X66162647Y-133603638D02*
X66210266Y-133651257D01*
X66210266Y-133651257D02*
X66257885Y-133746495D01*
X66257885Y-133746495D02*
X66305504Y-133936971D01*
X66305504Y-133936971D02*
X66305504Y-134175066D01*
X66305504Y-134175066D02*
X66257885Y-134365542D01*
X66257885Y-134365542D02*
X66210266Y-134460780D01*
X66210266Y-134460780D02*
X66162647Y-134508400D01*
X66162647Y-134508400D02*
X66067409Y-134556019D01*
X66067409Y-134556019D02*
X65972171Y-134556019D01*
X65972171Y-134556019D02*
X65876933Y-134508400D01*
X65876933Y-134508400D02*
X65829314Y-134460780D01*
X65829314Y-134460780D02*
X65781695Y-134365542D01*
X65781695Y-134365542D02*
X65734076Y-134175066D01*
X65734076Y-134175066D02*
X65734076Y-133936971D01*
X65734076Y-133936971D02*
X65781695Y-133746495D01*
X65781695Y-133746495D02*
X65829314Y-133651257D01*
X65829314Y-133651257D02*
X65876933Y-133603638D01*
X65876933Y-133603638D02*
X65972171Y-133556019D01*
X63703761Y-129383257D02*
X63608523Y-129335638D01*
X63608523Y-129335638D02*
X63513285Y-129240400D01*
X63513285Y-129240400D02*
X63370428Y-129097542D01*
X63370428Y-129097542D02*
X63275190Y-129049923D01*
X63275190Y-129049923D02*
X63179952Y-129049923D01*
X63227571Y-129288019D02*
X63132333Y-129240400D01*
X63132333Y-129240400D02*
X63037095Y-129145161D01*
X63037095Y-129145161D02*
X62989476Y-128954685D01*
X62989476Y-128954685D02*
X62989476Y-128621352D01*
X62989476Y-128621352D02*
X63037095Y-128430876D01*
X63037095Y-128430876D02*
X63132333Y-128335638D01*
X63132333Y-128335638D02*
X63227571Y-128288019D01*
X63227571Y-128288019D02*
X63418047Y-128288019D01*
X63418047Y-128288019D02*
X63513285Y-128335638D01*
X63513285Y-128335638D02*
X63608523Y-128430876D01*
X63608523Y-128430876D02*
X63656142Y-128621352D01*
X63656142Y-128621352D02*
X63656142Y-128954685D01*
X63656142Y-128954685D02*
X63608523Y-129145161D01*
X63608523Y-129145161D02*
X63513285Y-129240400D01*
X63513285Y-129240400D02*
X63418047Y-129288019D01*
X63418047Y-129288019D02*
X63227571Y-129288019D01*
X64608523Y-129288019D02*
X64037095Y-129288019D01*
X64322809Y-129288019D02*
X64322809Y-128288019D01*
X64322809Y-128288019D02*
X64227571Y-128430876D01*
X64227571Y-128430876D02*
X64132333Y-128526114D01*
X64132333Y-128526114D02*
X64037095Y-128573733D01*
X66546933Y-92178019D02*
X66213600Y-91701828D01*
X65975505Y-92178019D02*
X65975505Y-91178019D01*
X65975505Y-91178019D02*
X66356457Y-91178019D01*
X66356457Y-91178019D02*
X66451695Y-91225638D01*
X66451695Y-91225638D02*
X66499314Y-91273257D01*
X66499314Y-91273257D02*
X66546933Y-91368495D01*
X66546933Y-91368495D02*
X66546933Y-91511352D01*
X66546933Y-91511352D02*
X66499314Y-91606590D01*
X66499314Y-91606590D02*
X66451695Y-91654209D01*
X66451695Y-91654209D02*
X66356457Y-91701828D01*
X66356457Y-91701828D02*
X65975505Y-91701828D01*
X67451695Y-91178019D02*
X66975505Y-91178019D01*
X66975505Y-91178019D02*
X66927886Y-91654209D01*
X66927886Y-91654209D02*
X66975505Y-91606590D01*
X66975505Y-91606590D02*
X67070743Y-91558971D01*
X67070743Y-91558971D02*
X67308838Y-91558971D01*
X67308838Y-91558971D02*
X67404076Y-91606590D01*
X67404076Y-91606590D02*
X67451695Y-91654209D01*
X67451695Y-91654209D02*
X67499314Y-91749447D01*
X67499314Y-91749447D02*
X67499314Y-91987542D01*
X67499314Y-91987542D02*
X67451695Y-92082780D01*
X67451695Y-92082780D02*
X67404076Y-92130400D01*
X67404076Y-92130400D02*
X67308838Y-92178019D01*
X67308838Y-92178019D02*
X67070743Y-92178019D01*
X67070743Y-92178019D02*
X66975505Y-92130400D01*
X66975505Y-92130400D02*
X66927886Y-92082780D01*
X72979256Y-94932780D02*
X72931637Y-94980400D01*
X72931637Y-94980400D02*
X72788780Y-95028019D01*
X72788780Y-95028019D02*
X72693542Y-95028019D01*
X72693542Y-95028019D02*
X72550685Y-94980400D01*
X72550685Y-94980400D02*
X72455447Y-94885161D01*
X72455447Y-94885161D02*
X72407828Y-94789923D01*
X72407828Y-94789923D02*
X72360209Y-94599447D01*
X72360209Y-94599447D02*
X72360209Y-94456590D01*
X72360209Y-94456590D02*
X72407828Y-94266114D01*
X72407828Y-94266114D02*
X72455447Y-94170876D01*
X72455447Y-94170876D02*
X72550685Y-94075638D01*
X72550685Y-94075638D02*
X72693542Y-94028019D01*
X72693542Y-94028019D02*
X72788780Y-94028019D01*
X72788780Y-94028019D02*
X72931637Y-94075638D01*
X72931637Y-94075638D02*
X72979256Y-94123257D01*
X73884018Y-94028019D02*
X73407828Y-94028019D01*
X73407828Y-94028019D02*
X73360209Y-94504209D01*
X73360209Y-94504209D02*
X73407828Y-94456590D01*
X73407828Y-94456590D02*
X73503066Y-94408971D01*
X73503066Y-94408971D02*
X73741161Y-94408971D01*
X73741161Y-94408971D02*
X73836399Y-94456590D01*
X73836399Y-94456590D02*
X73884018Y-94504209D01*
X73884018Y-94504209D02*
X73931637Y-94599447D01*
X73931637Y-94599447D02*
X73931637Y-94837542D01*
X73931637Y-94837542D02*
X73884018Y-94932780D01*
X73884018Y-94932780D02*
X73836399Y-94980400D01*
X73836399Y-94980400D02*
X73741161Y-95028019D01*
X73741161Y-95028019D02*
X73503066Y-95028019D01*
X73503066Y-95028019D02*
X73407828Y-94980400D01*
X73407828Y-94980400D02*
X73360209Y-94932780D01*
X53336366Y-84770219D02*
X53336366Y-85484504D01*
X53336366Y-85484504D02*
X53288747Y-85627361D01*
X53288747Y-85627361D02*
X53193509Y-85722600D01*
X53193509Y-85722600D02*
X53050652Y-85770219D01*
X53050652Y-85770219D02*
X52955414Y-85770219D01*
X54336366Y-85770219D02*
X53764938Y-85770219D01*
X54050652Y-85770219D02*
X54050652Y-84770219D01*
X54050652Y-84770219D02*
X53955414Y-84913076D01*
X53955414Y-84913076D02*
X53860176Y-85008314D01*
X53860176Y-85008314D02*
X53764938Y-85055933D01*
X109888419Y-110956533D02*
X110602704Y-110956533D01*
X110602704Y-110956533D02*
X110745561Y-111004152D01*
X110745561Y-111004152D02*
X110840800Y-111099390D01*
X110840800Y-111099390D02*
X110888419Y-111242247D01*
X110888419Y-111242247D02*
X110888419Y-111337485D01*
X109983657Y-110527961D02*
X109936038Y-110480342D01*
X109936038Y-110480342D02*
X109888419Y-110385104D01*
X109888419Y-110385104D02*
X109888419Y-110147009D01*
X109888419Y-110147009D02*
X109936038Y-110051771D01*
X109936038Y-110051771D02*
X109983657Y-110004152D01*
X109983657Y-110004152D02*
X110078895Y-109956533D01*
X110078895Y-109956533D02*
X110174133Y-109956533D01*
X110174133Y-109956533D02*
X110316990Y-110004152D01*
X110316990Y-110004152D02*
X110888419Y-110575580D01*
X110888419Y-110575580D02*
X110888419Y-109956533D01*
X54975504Y-141725638D02*
X54880266Y-141678019D01*
X54880266Y-141678019D02*
X54737409Y-141678019D01*
X54737409Y-141678019D02*
X54594552Y-141725638D01*
X54594552Y-141725638D02*
X54499314Y-141820876D01*
X54499314Y-141820876D02*
X54451695Y-141916114D01*
X54451695Y-141916114D02*
X54404076Y-142106590D01*
X54404076Y-142106590D02*
X54404076Y-142249447D01*
X54404076Y-142249447D02*
X54451695Y-142439923D01*
X54451695Y-142439923D02*
X54499314Y-142535161D01*
X54499314Y-142535161D02*
X54594552Y-142630400D01*
X54594552Y-142630400D02*
X54737409Y-142678019D01*
X54737409Y-142678019D02*
X54832647Y-142678019D01*
X54832647Y-142678019D02*
X54975504Y-142630400D01*
X54975504Y-142630400D02*
X55023123Y-142582780D01*
X55023123Y-142582780D02*
X55023123Y-142249447D01*
X55023123Y-142249447D02*
X54832647Y-142249447D01*
X55451695Y-142678019D02*
X55451695Y-141678019D01*
X55451695Y-141678019D02*
X56023123Y-142678019D01*
X56023123Y-142678019D02*
X56023123Y-141678019D01*
X56499314Y-142678019D02*
X56499314Y-141678019D01*
X56499314Y-141678019D02*
X56737409Y-141678019D01*
X56737409Y-141678019D02*
X56880266Y-141725638D01*
X56880266Y-141725638D02*
X56975504Y-141820876D01*
X56975504Y-141820876D02*
X57023123Y-141916114D01*
X57023123Y-141916114D02*
X57070742Y-142106590D01*
X57070742Y-142106590D02*
X57070742Y-142249447D01*
X57070742Y-142249447D02*
X57023123Y-142439923D01*
X57023123Y-142439923D02*
X56975504Y-142535161D01*
X56975504Y-142535161D02*
X56880266Y-142630400D01*
X56880266Y-142630400D02*
X56737409Y-142678019D01*
X56737409Y-142678019D02*
X56499314Y-142678019D01*
X57975504Y-141678019D02*
X57499314Y-141678019D01*
X57499314Y-141678019D02*
X57451695Y-142154209D01*
X57451695Y-142154209D02*
X57499314Y-142106590D01*
X57499314Y-142106590D02*
X57594552Y-142058971D01*
X57594552Y-142058971D02*
X57832647Y-142058971D01*
X57832647Y-142058971D02*
X57927885Y-142106590D01*
X57927885Y-142106590D02*
X57975504Y-142154209D01*
X57975504Y-142154209D02*
X58023123Y-142249447D01*
X58023123Y-142249447D02*
X58023123Y-142487542D01*
X58023123Y-142487542D02*
X57975504Y-142582780D01*
X57975504Y-142582780D02*
X57927885Y-142630400D01*
X57927885Y-142630400D02*
X57832647Y-142678019D01*
X57832647Y-142678019D02*
X57594552Y-142678019D01*
X57594552Y-142678019D02*
X57499314Y-142630400D01*
X57499314Y-142630400D02*
X57451695Y-142582780D01*
X69946933Y-107182780D02*
X69899314Y-107230400D01*
X69899314Y-107230400D02*
X69756457Y-107278019D01*
X69756457Y-107278019D02*
X69661219Y-107278019D01*
X69661219Y-107278019D02*
X69518362Y-107230400D01*
X69518362Y-107230400D02*
X69423124Y-107135161D01*
X69423124Y-107135161D02*
X69375505Y-107039923D01*
X69375505Y-107039923D02*
X69327886Y-106849447D01*
X69327886Y-106849447D02*
X69327886Y-106706590D01*
X69327886Y-106706590D02*
X69375505Y-106516114D01*
X69375505Y-106516114D02*
X69423124Y-106420876D01*
X69423124Y-106420876D02*
X69518362Y-106325638D01*
X69518362Y-106325638D02*
X69661219Y-106278019D01*
X69661219Y-106278019D02*
X69756457Y-106278019D01*
X69756457Y-106278019D02*
X69899314Y-106325638D01*
X69899314Y-106325638D02*
X69946933Y-106373257D01*
X70280267Y-106278019D02*
X70899314Y-106278019D01*
X70899314Y-106278019D02*
X70565981Y-106658971D01*
X70565981Y-106658971D02*
X70708838Y-106658971D01*
X70708838Y-106658971D02*
X70804076Y-106706590D01*
X70804076Y-106706590D02*
X70851695Y-106754209D01*
X70851695Y-106754209D02*
X70899314Y-106849447D01*
X70899314Y-106849447D02*
X70899314Y-107087542D01*
X70899314Y-107087542D02*
X70851695Y-107182780D01*
X70851695Y-107182780D02*
X70804076Y-107230400D01*
X70804076Y-107230400D02*
X70708838Y-107278019D01*
X70708838Y-107278019D02*
X70423124Y-107278019D01*
X70423124Y-107278019D02*
X70327886Y-107230400D01*
X70327886Y-107230400D02*
X70280267Y-107182780D01*
X66646933Y-101082780D02*
X66599314Y-101130400D01*
X66599314Y-101130400D02*
X66456457Y-101178019D01*
X66456457Y-101178019D02*
X66361219Y-101178019D01*
X66361219Y-101178019D02*
X66218362Y-101130400D01*
X66218362Y-101130400D02*
X66123124Y-101035161D01*
X66123124Y-101035161D02*
X66075505Y-100939923D01*
X66075505Y-100939923D02*
X66027886Y-100749447D01*
X66027886Y-100749447D02*
X66027886Y-100606590D01*
X66027886Y-100606590D02*
X66075505Y-100416114D01*
X66075505Y-100416114D02*
X66123124Y-100320876D01*
X66123124Y-100320876D02*
X66218362Y-100225638D01*
X66218362Y-100225638D02*
X66361219Y-100178019D01*
X66361219Y-100178019D02*
X66456457Y-100178019D01*
X66456457Y-100178019D02*
X66599314Y-100225638D01*
X66599314Y-100225638D02*
X66646933Y-100273257D01*
X67504076Y-100511352D02*
X67504076Y-101178019D01*
X67265981Y-100130400D02*
X67027886Y-100844685D01*
X67027886Y-100844685D02*
X67646933Y-100844685D01*
X112932647Y-97378019D02*
X113123123Y-97378019D01*
X113123123Y-97378019D02*
X113218361Y-97425638D01*
X113218361Y-97425638D02*
X113313599Y-97520876D01*
X113313599Y-97520876D02*
X113361218Y-97711352D01*
X113361218Y-97711352D02*
X113361218Y-98044685D01*
X113361218Y-98044685D02*
X113313599Y-98235161D01*
X113313599Y-98235161D02*
X113218361Y-98330400D01*
X113218361Y-98330400D02*
X113123123Y-98378019D01*
X113123123Y-98378019D02*
X112932647Y-98378019D01*
X112932647Y-98378019D02*
X112837409Y-98330400D01*
X112837409Y-98330400D02*
X112742171Y-98235161D01*
X112742171Y-98235161D02*
X112694552Y-98044685D01*
X112694552Y-98044685D02*
X112694552Y-97711352D01*
X112694552Y-97711352D02*
X112742171Y-97520876D01*
X112742171Y-97520876D02*
X112837409Y-97425638D01*
X112837409Y-97425638D02*
X112932647Y-97378019D01*
X113789790Y-97378019D02*
X113789790Y-98187542D01*
X113789790Y-98187542D02*
X113837409Y-98282780D01*
X113837409Y-98282780D02*
X113885028Y-98330400D01*
X113885028Y-98330400D02*
X113980266Y-98378019D01*
X113980266Y-98378019D02*
X114170742Y-98378019D01*
X114170742Y-98378019D02*
X114265980Y-98330400D01*
X114265980Y-98330400D02*
X114313599Y-98282780D01*
X114313599Y-98282780D02*
X114361218Y-98187542D01*
X114361218Y-98187542D02*
X114361218Y-97378019D01*
X114694552Y-97378019D02*
X115265980Y-97378019D01*
X114980266Y-98378019D02*
X114980266Y-97378019D01*
X115599314Y-98378019D02*
X115599314Y-97378019D01*
X115599314Y-97378019D02*
X115980266Y-97378019D01*
X115980266Y-97378019D02*
X116075504Y-97425638D01*
X116075504Y-97425638D02*
X116123123Y-97473257D01*
X116123123Y-97473257D02*
X116170742Y-97568495D01*
X116170742Y-97568495D02*
X116170742Y-97711352D01*
X116170742Y-97711352D02*
X116123123Y-97806590D01*
X116123123Y-97806590D02*
X116075504Y-97854209D01*
X116075504Y-97854209D02*
X115980266Y-97901828D01*
X115980266Y-97901828D02*
X115599314Y-97901828D01*
X116599314Y-97378019D02*
X116599314Y-98187542D01*
X116599314Y-98187542D02*
X116646933Y-98282780D01*
X116646933Y-98282780D02*
X116694552Y-98330400D01*
X116694552Y-98330400D02*
X116789790Y-98378019D01*
X116789790Y-98378019D02*
X116980266Y-98378019D01*
X116980266Y-98378019D02*
X117075504Y-98330400D01*
X117075504Y-98330400D02*
X117123123Y-98282780D01*
X117123123Y-98282780D02*
X117170742Y-98187542D01*
X117170742Y-98187542D02*
X117170742Y-97378019D01*
X117504076Y-97378019D02*
X118075504Y-97378019D01*
X117789790Y-98378019D02*
X117789790Y-97378019D01*
X118361219Y-97473257D02*
X118408838Y-97425638D01*
X118408838Y-97425638D02*
X118504076Y-97378019D01*
X118504076Y-97378019D02*
X118742171Y-97378019D01*
X118742171Y-97378019D02*
X118837409Y-97425638D01*
X118837409Y-97425638D02*
X118885028Y-97473257D01*
X118885028Y-97473257D02*
X118932647Y-97568495D01*
X118932647Y-97568495D02*
X118932647Y-97663733D01*
X118932647Y-97663733D02*
X118885028Y-97806590D01*
X118885028Y-97806590D02*
X118313600Y-98378019D01*
X118313600Y-98378019D02*
X118932647Y-98378019D01*
X68389790Y-138597066D02*
X69151695Y-138597066D01*
X68770742Y-138978019D02*
X68770742Y-138216114D01*
X70151694Y-138978019D02*
X69580266Y-138978019D01*
X69865980Y-138978019D02*
X69865980Y-137978019D01*
X69865980Y-137978019D02*
X69770742Y-138120876D01*
X69770742Y-138120876D02*
X69675504Y-138216114D01*
X69675504Y-138216114D02*
X69580266Y-138263733D01*
X70532647Y-138073257D02*
X70580266Y-138025638D01*
X70580266Y-138025638D02*
X70675504Y-137978019D01*
X70675504Y-137978019D02*
X70913599Y-137978019D01*
X70913599Y-137978019D02*
X71008837Y-138025638D01*
X71008837Y-138025638D02*
X71056456Y-138073257D01*
X71056456Y-138073257D02*
X71104075Y-138168495D01*
X71104075Y-138168495D02*
X71104075Y-138263733D01*
X71104075Y-138263733D02*
X71056456Y-138406590D01*
X71056456Y-138406590D02*
X70485028Y-138978019D01*
X70485028Y-138978019D02*
X71104075Y-138978019D01*
X71389790Y-137978019D02*
X71723123Y-138978019D01*
X71723123Y-138978019D02*
X72056456Y-137978019D01*
X72246933Y-138311352D02*
X72627885Y-138311352D01*
X72389790Y-137978019D02*
X72389790Y-138835161D01*
X72389790Y-138835161D02*
X72437409Y-138930400D01*
X72437409Y-138930400D02*
X72532647Y-138978019D01*
X72532647Y-138978019D02*
X72627885Y-138978019D01*
X73485028Y-138978019D02*
X72913600Y-138978019D01*
X73199314Y-138978019D02*
X73199314Y-137978019D01*
X73199314Y-137978019D02*
X73104076Y-138120876D01*
X73104076Y-138120876D02*
X73008838Y-138216114D01*
X73008838Y-138216114D02*
X72913600Y-138263733D01*
X59070742Y-122678019D02*
X58737409Y-122201828D01*
X58499314Y-122678019D02*
X58499314Y-121678019D01*
X58499314Y-121678019D02*
X58880266Y-121678019D01*
X58880266Y-121678019D02*
X58975504Y-121725638D01*
X58975504Y-121725638D02*
X59023123Y-121773257D01*
X59023123Y-121773257D02*
X59070742Y-121868495D01*
X59070742Y-121868495D02*
X59070742Y-122011352D01*
X59070742Y-122011352D02*
X59023123Y-122106590D01*
X59023123Y-122106590D02*
X58975504Y-122154209D01*
X58975504Y-122154209D02*
X58880266Y-122201828D01*
X58880266Y-122201828D02*
X58499314Y-122201828D01*
X60023123Y-122678019D02*
X59451695Y-122678019D01*
X59737409Y-122678019D02*
X59737409Y-121678019D01*
X59737409Y-121678019D02*
X59642171Y-121820876D01*
X59642171Y-121820876D02*
X59546933Y-121916114D01*
X59546933Y-121916114D02*
X59451695Y-121963733D01*
X60975504Y-122678019D02*
X60404076Y-122678019D01*
X60689790Y-122678019D02*
X60689790Y-121678019D01*
X60689790Y-121678019D02*
X60594552Y-121820876D01*
X60594552Y-121820876D02*
X60499314Y-121916114D01*
X60499314Y-121916114D02*
X60404076Y-121963733D01*
X93552533Y-99775180D02*
X93504914Y-99822800D01*
X93504914Y-99822800D02*
X93362057Y-99870419D01*
X93362057Y-99870419D02*
X93266819Y-99870419D01*
X93266819Y-99870419D02*
X93123962Y-99822800D01*
X93123962Y-99822800D02*
X93028724Y-99727561D01*
X93028724Y-99727561D02*
X92981105Y-99632323D01*
X92981105Y-99632323D02*
X92933486Y-99441847D01*
X92933486Y-99441847D02*
X92933486Y-99298990D01*
X92933486Y-99298990D02*
X92981105Y-99108514D01*
X92981105Y-99108514D02*
X93028724Y-99013276D01*
X93028724Y-99013276D02*
X93123962Y-98918038D01*
X93123962Y-98918038D02*
X93266819Y-98870419D01*
X93266819Y-98870419D02*
X93362057Y-98870419D01*
X93362057Y-98870419D02*
X93504914Y-98918038D01*
X93504914Y-98918038D02*
X93552533Y-98965657D01*
X94504914Y-99870419D02*
X93933486Y-99870419D01*
X94219200Y-99870419D02*
X94219200Y-98870419D01*
X94219200Y-98870419D02*
X94123962Y-99013276D01*
X94123962Y-99013276D02*
X94028724Y-99108514D01*
X94028724Y-99108514D02*
X93933486Y-99156133D01*
X83521533Y-108410280D02*
X83473914Y-108457900D01*
X83473914Y-108457900D02*
X83331057Y-108505519D01*
X83331057Y-108505519D02*
X83235819Y-108505519D01*
X83235819Y-108505519D02*
X83092962Y-108457900D01*
X83092962Y-108457900D02*
X82997724Y-108362661D01*
X82997724Y-108362661D02*
X82950105Y-108267423D01*
X82950105Y-108267423D02*
X82902486Y-108076947D01*
X82902486Y-108076947D02*
X82902486Y-107934090D01*
X82902486Y-107934090D02*
X82950105Y-107743614D01*
X82950105Y-107743614D02*
X82997724Y-107648376D01*
X82997724Y-107648376D02*
X83092962Y-107553138D01*
X83092962Y-107553138D02*
X83235819Y-107505519D01*
X83235819Y-107505519D02*
X83331057Y-107505519D01*
X83331057Y-107505519D02*
X83473914Y-107553138D01*
X83473914Y-107553138D02*
X83521533Y-107600757D01*
X84092962Y-107934090D02*
X83997724Y-107886471D01*
X83997724Y-107886471D02*
X83950105Y-107838852D01*
X83950105Y-107838852D02*
X83902486Y-107743614D01*
X83902486Y-107743614D02*
X83902486Y-107695995D01*
X83902486Y-107695995D02*
X83950105Y-107600757D01*
X83950105Y-107600757D02*
X83997724Y-107553138D01*
X83997724Y-107553138D02*
X84092962Y-107505519D01*
X84092962Y-107505519D02*
X84283438Y-107505519D01*
X84283438Y-107505519D02*
X84378676Y-107553138D01*
X84378676Y-107553138D02*
X84426295Y-107600757D01*
X84426295Y-107600757D02*
X84473914Y-107695995D01*
X84473914Y-107695995D02*
X84473914Y-107743614D01*
X84473914Y-107743614D02*
X84426295Y-107838852D01*
X84426295Y-107838852D02*
X84378676Y-107886471D01*
X84378676Y-107886471D02*
X84283438Y-107934090D01*
X84283438Y-107934090D02*
X84092962Y-107934090D01*
X84092962Y-107934090D02*
X83997724Y-107981709D01*
X83997724Y-107981709D02*
X83950105Y-108029328D01*
X83950105Y-108029328D02*
X83902486Y-108124566D01*
X83902486Y-108124566D02*
X83902486Y-108315042D01*
X83902486Y-108315042D02*
X83950105Y-108410280D01*
X83950105Y-108410280D02*
X83997724Y-108457900D01*
X83997724Y-108457900D02*
X84092962Y-108505519D01*
X84092962Y-108505519D02*
X84283438Y-108505519D01*
X84283438Y-108505519D02*
X84378676Y-108457900D01*
X84378676Y-108457900D02*
X84426295Y-108410280D01*
X84426295Y-108410280D02*
X84473914Y-108315042D01*
X84473914Y-108315042D02*
X84473914Y-108124566D01*
X84473914Y-108124566D02*
X84426295Y-108029328D01*
X84426295Y-108029328D02*
X84378676Y-107981709D01*
X84378676Y-107981709D02*
X84283438Y-107934090D01*
X95870742Y-92382780D02*
X95823123Y-92430400D01*
X95823123Y-92430400D02*
X95680266Y-92478019D01*
X95680266Y-92478019D02*
X95585028Y-92478019D01*
X95585028Y-92478019D02*
X95442171Y-92430400D01*
X95442171Y-92430400D02*
X95346933Y-92335161D01*
X95346933Y-92335161D02*
X95299314Y-92239923D01*
X95299314Y-92239923D02*
X95251695Y-92049447D01*
X95251695Y-92049447D02*
X95251695Y-91906590D01*
X95251695Y-91906590D02*
X95299314Y-91716114D01*
X95299314Y-91716114D02*
X95346933Y-91620876D01*
X95346933Y-91620876D02*
X95442171Y-91525638D01*
X95442171Y-91525638D02*
X95585028Y-91478019D01*
X95585028Y-91478019D02*
X95680266Y-91478019D01*
X95680266Y-91478019D02*
X95823123Y-91525638D01*
X95823123Y-91525638D02*
X95870742Y-91573257D01*
X96251695Y-91573257D02*
X96299314Y-91525638D01*
X96299314Y-91525638D02*
X96394552Y-91478019D01*
X96394552Y-91478019D02*
X96632647Y-91478019D01*
X96632647Y-91478019D02*
X96727885Y-91525638D01*
X96727885Y-91525638D02*
X96775504Y-91573257D01*
X96775504Y-91573257D02*
X96823123Y-91668495D01*
X96823123Y-91668495D02*
X96823123Y-91763733D01*
X96823123Y-91763733D02*
X96775504Y-91906590D01*
X96775504Y-91906590D02*
X96204076Y-92478019D01*
X96204076Y-92478019D02*
X96823123Y-92478019D01*
X97204076Y-91573257D02*
X97251695Y-91525638D01*
X97251695Y-91525638D02*
X97346933Y-91478019D01*
X97346933Y-91478019D02*
X97585028Y-91478019D01*
X97585028Y-91478019D02*
X97680266Y-91525638D01*
X97680266Y-91525638D02*
X97727885Y-91573257D01*
X97727885Y-91573257D02*
X97775504Y-91668495D01*
X97775504Y-91668495D02*
X97775504Y-91763733D01*
X97775504Y-91763733D02*
X97727885Y-91906590D01*
X97727885Y-91906590D02*
X97156457Y-92478019D01*
X97156457Y-92478019D02*
X97775504Y-92478019D01*
X83721533Y-106005519D02*
X83388200Y-105529328D01*
X83150105Y-106005519D02*
X83150105Y-105005519D01*
X83150105Y-105005519D02*
X83531057Y-105005519D01*
X83531057Y-105005519D02*
X83626295Y-105053138D01*
X83626295Y-105053138D02*
X83673914Y-105100757D01*
X83673914Y-105100757D02*
X83721533Y-105195995D01*
X83721533Y-105195995D02*
X83721533Y-105338852D01*
X83721533Y-105338852D02*
X83673914Y-105434090D01*
X83673914Y-105434090D02*
X83626295Y-105481709D01*
X83626295Y-105481709D02*
X83531057Y-105529328D01*
X83531057Y-105529328D02*
X83150105Y-105529328D01*
X84292962Y-105434090D02*
X84197724Y-105386471D01*
X84197724Y-105386471D02*
X84150105Y-105338852D01*
X84150105Y-105338852D02*
X84102486Y-105243614D01*
X84102486Y-105243614D02*
X84102486Y-105195995D01*
X84102486Y-105195995D02*
X84150105Y-105100757D01*
X84150105Y-105100757D02*
X84197724Y-105053138D01*
X84197724Y-105053138D02*
X84292962Y-105005519D01*
X84292962Y-105005519D02*
X84483438Y-105005519D01*
X84483438Y-105005519D02*
X84578676Y-105053138D01*
X84578676Y-105053138D02*
X84626295Y-105100757D01*
X84626295Y-105100757D02*
X84673914Y-105195995D01*
X84673914Y-105195995D02*
X84673914Y-105243614D01*
X84673914Y-105243614D02*
X84626295Y-105338852D01*
X84626295Y-105338852D02*
X84578676Y-105386471D01*
X84578676Y-105386471D02*
X84483438Y-105434090D01*
X84483438Y-105434090D02*
X84292962Y-105434090D01*
X84292962Y-105434090D02*
X84197724Y-105481709D01*
X84197724Y-105481709D02*
X84150105Y-105529328D01*
X84150105Y-105529328D02*
X84102486Y-105624566D01*
X84102486Y-105624566D02*
X84102486Y-105815042D01*
X84102486Y-105815042D02*
X84150105Y-105910280D01*
X84150105Y-105910280D02*
X84197724Y-105957900D01*
X84197724Y-105957900D02*
X84292962Y-106005519D01*
X84292962Y-106005519D02*
X84483438Y-106005519D01*
X84483438Y-106005519D02*
X84578676Y-105957900D01*
X84578676Y-105957900D02*
X84626295Y-105910280D01*
X84626295Y-105910280D02*
X84673914Y-105815042D01*
X84673914Y-105815042D02*
X84673914Y-105624566D01*
X84673914Y-105624566D02*
X84626295Y-105529328D01*
X84626295Y-105529328D02*
X84578676Y-105481709D01*
X84578676Y-105481709D02*
X84483438Y-105434090D01*
X115874943Y-132898657D02*
X115398752Y-133231990D01*
X115874943Y-133470085D02*
X114874943Y-133470085D01*
X114874943Y-133470085D02*
X114874943Y-133089133D01*
X114874943Y-133089133D02*
X114922562Y-132993895D01*
X114922562Y-132993895D02*
X114970181Y-132946276D01*
X114970181Y-132946276D02*
X115065419Y-132898657D01*
X115065419Y-132898657D02*
X115208276Y-132898657D01*
X115208276Y-132898657D02*
X115303514Y-132946276D01*
X115303514Y-132946276D02*
X115351133Y-132993895D01*
X115351133Y-132993895D02*
X115398752Y-133089133D01*
X115398752Y-133089133D02*
X115398752Y-133470085D01*
X115874943Y-131946276D02*
X115874943Y-132517704D01*
X115874943Y-132231990D02*
X114874943Y-132231990D01*
X114874943Y-132231990D02*
X115017800Y-132327228D01*
X115017800Y-132327228D02*
X115113038Y-132422466D01*
X115113038Y-132422466D02*
X115160657Y-132517704D01*
X114970181Y-131565323D02*
X114922562Y-131517704D01*
X114922562Y-131517704D02*
X114874943Y-131422466D01*
X114874943Y-131422466D02*
X114874943Y-131184371D01*
X114874943Y-131184371D02*
X114922562Y-131089133D01*
X114922562Y-131089133D02*
X114970181Y-131041514D01*
X114970181Y-131041514D02*
X115065419Y-130993895D01*
X115065419Y-130993895D02*
X115160657Y-130993895D01*
X115160657Y-130993895D02*
X115303514Y-131041514D01*
X115303514Y-131041514D02*
X115874943Y-131612942D01*
X115874943Y-131612942D02*
X115874943Y-130993895D01*
X91570742Y-126267280D02*
X91523123Y-126314900D01*
X91523123Y-126314900D02*
X91380266Y-126362519D01*
X91380266Y-126362519D02*
X91285028Y-126362519D01*
X91285028Y-126362519D02*
X91142171Y-126314900D01*
X91142171Y-126314900D02*
X91046933Y-126219661D01*
X91046933Y-126219661D02*
X90999314Y-126124423D01*
X90999314Y-126124423D02*
X90951695Y-125933947D01*
X90951695Y-125933947D02*
X90951695Y-125791090D01*
X90951695Y-125791090D02*
X90999314Y-125600614D01*
X90999314Y-125600614D02*
X91046933Y-125505376D01*
X91046933Y-125505376D02*
X91142171Y-125410138D01*
X91142171Y-125410138D02*
X91285028Y-125362519D01*
X91285028Y-125362519D02*
X91380266Y-125362519D01*
X91380266Y-125362519D02*
X91523123Y-125410138D01*
X91523123Y-125410138D02*
X91570742Y-125457757D01*
X91951695Y-125457757D02*
X91999314Y-125410138D01*
X91999314Y-125410138D02*
X92094552Y-125362519D01*
X92094552Y-125362519D02*
X92332647Y-125362519D01*
X92332647Y-125362519D02*
X92427885Y-125410138D01*
X92427885Y-125410138D02*
X92475504Y-125457757D01*
X92475504Y-125457757D02*
X92523123Y-125552995D01*
X92523123Y-125552995D02*
X92523123Y-125648233D01*
X92523123Y-125648233D02*
X92475504Y-125791090D01*
X92475504Y-125791090D02*
X91904076Y-126362519D01*
X91904076Y-126362519D02*
X92523123Y-126362519D01*
X93142171Y-125362519D02*
X93237409Y-125362519D01*
X93237409Y-125362519D02*
X93332647Y-125410138D01*
X93332647Y-125410138D02*
X93380266Y-125457757D01*
X93380266Y-125457757D02*
X93427885Y-125552995D01*
X93427885Y-125552995D02*
X93475504Y-125743471D01*
X93475504Y-125743471D02*
X93475504Y-125981566D01*
X93475504Y-125981566D02*
X93427885Y-126172042D01*
X93427885Y-126172042D02*
X93380266Y-126267280D01*
X93380266Y-126267280D02*
X93332647Y-126314900D01*
X93332647Y-126314900D02*
X93237409Y-126362519D01*
X93237409Y-126362519D02*
X93142171Y-126362519D01*
X93142171Y-126362519D02*
X93046933Y-126314900D01*
X93046933Y-126314900D02*
X92999314Y-126267280D01*
X92999314Y-126267280D02*
X92951695Y-126172042D01*
X92951695Y-126172042D02*
X92904076Y-125981566D01*
X92904076Y-125981566D02*
X92904076Y-125743471D01*
X92904076Y-125743471D02*
X92951695Y-125552995D01*
X92951695Y-125552995D02*
X92999314Y-125457757D01*
X92999314Y-125457757D02*
X93046933Y-125410138D01*
X93046933Y-125410138D02*
X93142171Y-125362519D01*
X63246933Y-127378019D02*
X62913600Y-126901828D01*
X62675505Y-127378019D02*
X62675505Y-126378019D01*
X62675505Y-126378019D02*
X63056457Y-126378019D01*
X63056457Y-126378019D02*
X63151695Y-126425638D01*
X63151695Y-126425638D02*
X63199314Y-126473257D01*
X63199314Y-126473257D02*
X63246933Y-126568495D01*
X63246933Y-126568495D02*
X63246933Y-126711352D01*
X63246933Y-126711352D02*
X63199314Y-126806590D01*
X63199314Y-126806590D02*
X63151695Y-126854209D01*
X63151695Y-126854209D02*
X63056457Y-126901828D01*
X63056457Y-126901828D02*
X62675505Y-126901828D01*
X63723124Y-127378019D02*
X63913600Y-127378019D01*
X63913600Y-127378019D02*
X64008838Y-127330400D01*
X64008838Y-127330400D02*
X64056457Y-127282780D01*
X64056457Y-127282780D02*
X64151695Y-127139923D01*
X64151695Y-127139923D02*
X64199314Y-126949447D01*
X64199314Y-126949447D02*
X64199314Y-126568495D01*
X64199314Y-126568495D02*
X64151695Y-126473257D01*
X64151695Y-126473257D02*
X64104076Y-126425638D01*
X64104076Y-126425638D02*
X64008838Y-126378019D01*
X64008838Y-126378019D02*
X63818362Y-126378019D01*
X63818362Y-126378019D02*
X63723124Y-126425638D01*
X63723124Y-126425638D02*
X63675505Y-126473257D01*
X63675505Y-126473257D02*
X63627886Y-126568495D01*
X63627886Y-126568495D02*
X63627886Y-126806590D01*
X63627886Y-126806590D02*
X63675505Y-126901828D01*
X63675505Y-126901828D02*
X63723124Y-126949447D01*
X63723124Y-126949447D02*
X63818362Y-126997066D01*
X63818362Y-126997066D02*
X64008838Y-126997066D01*
X64008838Y-126997066D02*
X64104076Y-126949447D01*
X64104076Y-126949447D02*
X64151695Y-126901828D01*
X64151695Y-126901828D02*
X64199314Y-126806590D01*
X61275504Y-83225638D02*
X61180266Y-83178019D01*
X61180266Y-83178019D02*
X61037409Y-83178019D01*
X61037409Y-83178019D02*
X60894552Y-83225638D01*
X60894552Y-83225638D02*
X60799314Y-83320876D01*
X60799314Y-83320876D02*
X60751695Y-83416114D01*
X60751695Y-83416114D02*
X60704076Y-83606590D01*
X60704076Y-83606590D02*
X60704076Y-83749447D01*
X60704076Y-83749447D02*
X60751695Y-83939923D01*
X60751695Y-83939923D02*
X60799314Y-84035161D01*
X60799314Y-84035161D02*
X60894552Y-84130400D01*
X60894552Y-84130400D02*
X61037409Y-84178019D01*
X61037409Y-84178019D02*
X61132647Y-84178019D01*
X61132647Y-84178019D02*
X61275504Y-84130400D01*
X61275504Y-84130400D02*
X61323123Y-84082780D01*
X61323123Y-84082780D02*
X61323123Y-83749447D01*
X61323123Y-83749447D02*
X61132647Y-83749447D01*
X61751695Y-84178019D02*
X61751695Y-83178019D01*
X61751695Y-83178019D02*
X62323123Y-84178019D01*
X62323123Y-84178019D02*
X62323123Y-83178019D01*
X62799314Y-84178019D02*
X62799314Y-83178019D01*
X62799314Y-83178019D02*
X63037409Y-83178019D01*
X63037409Y-83178019D02*
X63180266Y-83225638D01*
X63180266Y-83225638D02*
X63275504Y-83320876D01*
X63275504Y-83320876D02*
X63323123Y-83416114D01*
X63323123Y-83416114D02*
X63370742Y-83606590D01*
X63370742Y-83606590D02*
X63370742Y-83749447D01*
X63370742Y-83749447D02*
X63323123Y-83939923D01*
X63323123Y-83939923D02*
X63275504Y-84035161D01*
X63275504Y-84035161D02*
X63180266Y-84130400D01*
X63180266Y-84130400D02*
X63037409Y-84178019D01*
X63037409Y-84178019D02*
X62799314Y-84178019D01*
X64227885Y-83511352D02*
X64227885Y-84178019D01*
X63989790Y-83130400D02*
X63751695Y-83844685D01*
X63751695Y-83844685D02*
X64370742Y-83844685D01*
X66546933Y-103278019D02*
X66213600Y-102801828D01*
X65975505Y-103278019D02*
X65975505Y-102278019D01*
X65975505Y-102278019D02*
X66356457Y-102278019D01*
X66356457Y-102278019D02*
X66451695Y-102325638D01*
X66451695Y-102325638D02*
X66499314Y-102373257D01*
X66499314Y-102373257D02*
X66546933Y-102468495D01*
X66546933Y-102468495D02*
X66546933Y-102611352D01*
X66546933Y-102611352D02*
X66499314Y-102706590D01*
X66499314Y-102706590D02*
X66451695Y-102754209D01*
X66451695Y-102754209D02*
X66356457Y-102801828D01*
X66356457Y-102801828D02*
X65975505Y-102801828D01*
X66927886Y-102373257D02*
X66975505Y-102325638D01*
X66975505Y-102325638D02*
X67070743Y-102278019D01*
X67070743Y-102278019D02*
X67308838Y-102278019D01*
X67308838Y-102278019D02*
X67404076Y-102325638D01*
X67404076Y-102325638D02*
X67451695Y-102373257D01*
X67451695Y-102373257D02*
X67499314Y-102468495D01*
X67499314Y-102468495D02*
X67499314Y-102563733D01*
X67499314Y-102563733D02*
X67451695Y-102706590D01*
X67451695Y-102706590D02*
X66880267Y-103278019D01*
X66880267Y-103278019D02*
X67499314Y-103278019D01*
X66546933Y-98978019D02*
X66213600Y-98501828D01*
X65975505Y-98978019D02*
X65975505Y-97978019D01*
X65975505Y-97978019D02*
X66356457Y-97978019D01*
X66356457Y-97978019D02*
X66451695Y-98025638D01*
X66451695Y-98025638D02*
X66499314Y-98073257D01*
X66499314Y-98073257D02*
X66546933Y-98168495D01*
X66546933Y-98168495D02*
X66546933Y-98311352D01*
X66546933Y-98311352D02*
X66499314Y-98406590D01*
X66499314Y-98406590D02*
X66451695Y-98454209D01*
X66451695Y-98454209D02*
X66356457Y-98501828D01*
X66356457Y-98501828D02*
X65975505Y-98501828D01*
X67499314Y-98978019D02*
X66927886Y-98978019D01*
X67213600Y-98978019D02*
X67213600Y-97978019D01*
X67213600Y-97978019D02*
X67118362Y-98120876D01*
X67118362Y-98120876D02*
X67023124Y-98216114D01*
X67023124Y-98216114D02*
X66927886Y-98263733D01*
X64419933Y-92285619D02*
X64086600Y-91809428D01*
X63848505Y-92285619D02*
X63848505Y-91285619D01*
X63848505Y-91285619D02*
X64229457Y-91285619D01*
X64229457Y-91285619D02*
X64324695Y-91333238D01*
X64324695Y-91333238D02*
X64372314Y-91380857D01*
X64372314Y-91380857D02*
X64419933Y-91476095D01*
X64419933Y-91476095D02*
X64419933Y-91618952D01*
X64419933Y-91618952D02*
X64372314Y-91714190D01*
X64372314Y-91714190D02*
X64324695Y-91761809D01*
X64324695Y-91761809D02*
X64229457Y-91809428D01*
X64229457Y-91809428D02*
X63848505Y-91809428D01*
X64753267Y-91285619D02*
X65372314Y-91285619D01*
X65372314Y-91285619D02*
X65038981Y-91666571D01*
X65038981Y-91666571D02*
X65181838Y-91666571D01*
X65181838Y-91666571D02*
X65277076Y-91714190D01*
X65277076Y-91714190D02*
X65324695Y-91761809D01*
X65324695Y-91761809D02*
X65372314Y-91857047D01*
X65372314Y-91857047D02*
X65372314Y-92095142D01*
X65372314Y-92095142D02*
X65324695Y-92190380D01*
X65324695Y-92190380D02*
X65277076Y-92238000D01*
X65277076Y-92238000D02*
X65181838Y-92285619D01*
X65181838Y-92285619D02*
X64896124Y-92285619D01*
X64896124Y-92285619D02*
X64800886Y-92238000D01*
X64800886Y-92238000D02*
X64753267Y-92190380D01*
X55318361Y-118378019D02*
X54985028Y-117901828D01*
X54746933Y-118378019D02*
X54746933Y-117378019D01*
X54746933Y-117378019D02*
X55127885Y-117378019D01*
X55127885Y-117378019D02*
X55223123Y-117425638D01*
X55223123Y-117425638D02*
X55270742Y-117473257D01*
X55270742Y-117473257D02*
X55318361Y-117568495D01*
X55318361Y-117568495D02*
X55318361Y-117711352D01*
X55318361Y-117711352D02*
X55270742Y-117806590D01*
X55270742Y-117806590D02*
X55223123Y-117854209D01*
X55223123Y-117854209D02*
X55127885Y-117901828D01*
X55127885Y-117901828D02*
X54746933Y-117901828D01*
X55604076Y-117378019D02*
X55937409Y-118378019D01*
X55937409Y-118378019D02*
X56270742Y-117378019D01*
X57127885Y-118378019D02*
X56556457Y-118378019D01*
X56842171Y-118378019D02*
X56842171Y-117378019D01*
X56842171Y-117378019D02*
X56746933Y-117520876D01*
X56746933Y-117520876D02*
X56651695Y-117616114D01*
X56651695Y-117616114D02*
X56556457Y-117663733D01*
X85598666Y-132278180D02*
X85551047Y-132325800D01*
X85551047Y-132325800D02*
X85408190Y-132373419D01*
X85408190Y-132373419D02*
X85312952Y-132373419D01*
X85312952Y-132373419D02*
X85170095Y-132325800D01*
X85170095Y-132325800D02*
X85074857Y-132230561D01*
X85074857Y-132230561D02*
X85027238Y-132135323D01*
X85027238Y-132135323D02*
X84979619Y-131944847D01*
X84979619Y-131944847D02*
X84979619Y-131801990D01*
X84979619Y-131801990D02*
X85027238Y-131611514D01*
X85027238Y-131611514D02*
X85074857Y-131516276D01*
X85074857Y-131516276D02*
X85170095Y-131421038D01*
X85170095Y-131421038D02*
X85312952Y-131373419D01*
X85312952Y-131373419D02*
X85408190Y-131373419D01*
X85408190Y-131373419D02*
X85551047Y-131421038D01*
X85551047Y-131421038D02*
X85598666Y-131468657D01*
X86551047Y-132373419D02*
X85979619Y-132373419D01*
X86265333Y-132373419D02*
X86265333Y-131373419D01*
X86265333Y-131373419D02*
X86170095Y-131516276D01*
X86170095Y-131516276D02*
X86074857Y-131611514D01*
X86074857Y-131611514D02*
X85979619Y-131659133D01*
X87503428Y-132373419D02*
X86932000Y-132373419D01*
X87217714Y-132373419D02*
X87217714Y-131373419D01*
X87217714Y-131373419D02*
X87122476Y-131516276D01*
X87122476Y-131516276D02*
X87027238Y-131611514D01*
X87027238Y-131611514D02*
X86932000Y-131659133D01*
X87770742Y-120278019D02*
X87437409Y-119801828D01*
X87199314Y-120278019D02*
X87199314Y-119278019D01*
X87199314Y-119278019D02*
X87580266Y-119278019D01*
X87580266Y-119278019D02*
X87675504Y-119325638D01*
X87675504Y-119325638D02*
X87723123Y-119373257D01*
X87723123Y-119373257D02*
X87770742Y-119468495D01*
X87770742Y-119468495D02*
X87770742Y-119611352D01*
X87770742Y-119611352D02*
X87723123Y-119706590D01*
X87723123Y-119706590D02*
X87675504Y-119754209D01*
X87675504Y-119754209D02*
X87580266Y-119801828D01*
X87580266Y-119801828D02*
X87199314Y-119801828D01*
X88723123Y-120278019D02*
X88151695Y-120278019D01*
X88437409Y-120278019D02*
X88437409Y-119278019D01*
X88437409Y-119278019D02*
X88342171Y-119420876D01*
X88342171Y-119420876D02*
X88246933Y-119516114D01*
X88246933Y-119516114D02*
X88151695Y-119563733D01*
X89056457Y-119278019D02*
X89675504Y-119278019D01*
X89675504Y-119278019D02*
X89342171Y-119658971D01*
X89342171Y-119658971D02*
X89485028Y-119658971D01*
X89485028Y-119658971D02*
X89580266Y-119706590D01*
X89580266Y-119706590D02*
X89627885Y-119754209D01*
X89627885Y-119754209D02*
X89675504Y-119849447D01*
X89675504Y-119849447D02*
X89675504Y-120087542D01*
X89675504Y-120087542D02*
X89627885Y-120182780D01*
X89627885Y-120182780D02*
X89580266Y-120230400D01*
X89580266Y-120230400D02*
X89485028Y-120278019D01*
X89485028Y-120278019D02*
X89199314Y-120278019D01*
X89199314Y-120278019D02*
X89104076Y-120230400D01*
X89104076Y-120230400D02*
X89056457Y-120182780D01*
X81043333Y-95349480D02*
X80995714Y-95397100D01*
X80995714Y-95397100D02*
X80852857Y-95444719D01*
X80852857Y-95444719D02*
X80757619Y-95444719D01*
X80757619Y-95444719D02*
X80614762Y-95397100D01*
X80614762Y-95397100D02*
X80519524Y-95301861D01*
X80519524Y-95301861D02*
X80471905Y-95206623D01*
X80471905Y-95206623D02*
X80424286Y-95016147D01*
X80424286Y-95016147D02*
X80424286Y-94873290D01*
X80424286Y-94873290D02*
X80471905Y-94682814D01*
X80471905Y-94682814D02*
X80519524Y-94587576D01*
X80519524Y-94587576D02*
X80614762Y-94492338D01*
X80614762Y-94492338D02*
X80757619Y-94444719D01*
X80757619Y-94444719D02*
X80852857Y-94444719D01*
X80852857Y-94444719D02*
X80995714Y-94492338D01*
X80995714Y-94492338D02*
X81043333Y-94539957D01*
X81900476Y-94444719D02*
X81710000Y-94444719D01*
X81710000Y-94444719D02*
X81614762Y-94492338D01*
X81614762Y-94492338D02*
X81567143Y-94539957D01*
X81567143Y-94539957D02*
X81471905Y-94682814D01*
X81471905Y-94682814D02*
X81424286Y-94873290D01*
X81424286Y-94873290D02*
X81424286Y-95254242D01*
X81424286Y-95254242D02*
X81471905Y-95349480D01*
X81471905Y-95349480D02*
X81519524Y-95397100D01*
X81519524Y-95397100D02*
X81614762Y-95444719D01*
X81614762Y-95444719D02*
X81805238Y-95444719D01*
X81805238Y-95444719D02*
X81900476Y-95397100D01*
X81900476Y-95397100D02*
X81948095Y-95349480D01*
X81948095Y-95349480D02*
X81995714Y-95254242D01*
X81995714Y-95254242D02*
X81995714Y-95016147D01*
X81995714Y-95016147D02*
X81948095Y-94920909D01*
X81948095Y-94920909D02*
X81900476Y-94873290D01*
X81900476Y-94873290D02*
X81805238Y-94825671D01*
X81805238Y-94825671D02*
X81614762Y-94825671D01*
X81614762Y-94825671D02*
X81519524Y-94873290D01*
X81519524Y-94873290D02*
X81471905Y-94920909D01*
X81471905Y-94920909D02*
X81424286Y-95016147D01*
X83421533Y-103610280D02*
X83373914Y-103657900D01*
X83373914Y-103657900D02*
X83231057Y-103705519D01*
X83231057Y-103705519D02*
X83135819Y-103705519D01*
X83135819Y-103705519D02*
X82992962Y-103657900D01*
X82992962Y-103657900D02*
X82897724Y-103562661D01*
X82897724Y-103562661D02*
X82850105Y-103467423D01*
X82850105Y-103467423D02*
X82802486Y-103276947D01*
X82802486Y-103276947D02*
X82802486Y-103134090D01*
X82802486Y-103134090D02*
X82850105Y-102943614D01*
X82850105Y-102943614D02*
X82897724Y-102848376D01*
X82897724Y-102848376D02*
X82992962Y-102753138D01*
X82992962Y-102753138D02*
X83135819Y-102705519D01*
X83135819Y-102705519D02*
X83231057Y-102705519D01*
X83231057Y-102705519D02*
X83373914Y-102753138D01*
X83373914Y-102753138D02*
X83421533Y-102800757D01*
X83754867Y-102705519D02*
X84421533Y-102705519D01*
X84421533Y-102705519D02*
X83992962Y-103705519D01*
X66686742Y-140042419D02*
X66353409Y-139566228D01*
X66115314Y-140042419D02*
X66115314Y-139042419D01*
X66115314Y-139042419D02*
X66496266Y-139042419D01*
X66496266Y-139042419D02*
X66591504Y-139090038D01*
X66591504Y-139090038D02*
X66639123Y-139137657D01*
X66639123Y-139137657D02*
X66686742Y-139232895D01*
X66686742Y-139232895D02*
X66686742Y-139375752D01*
X66686742Y-139375752D02*
X66639123Y-139470990D01*
X66639123Y-139470990D02*
X66591504Y-139518609D01*
X66591504Y-139518609D02*
X66496266Y-139566228D01*
X66496266Y-139566228D02*
X66115314Y-139566228D01*
X67639123Y-140042419D02*
X67067695Y-140042419D01*
X67353409Y-140042419D02*
X67353409Y-139042419D01*
X67353409Y-139042419D02*
X67258171Y-139185276D01*
X67258171Y-139185276D02*
X67162933Y-139280514D01*
X67162933Y-139280514D02*
X67067695Y-139328133D01*
X68496266Y-139375752D02*
X68496266Y-140042419D01*
X68258171Y-138994800D02*
X68020076Y-139709085D01*
X68020076Y-139709085D02*
X68639123Y-139709085D01*
X61596492Y-140118530D02*
X61548873Y-140166150D01*
X61548873Y-140166150D02*
X61406016Y-140213769D01*
X61406016Y-140213769D02*
X61310778Y-140213769D01*
X61310778Y-140213769D02*
X61167921Y-140166150D01*
X61167921Y-140166150D02*
X61072683Y-140070911D01*
X61072683Y-140070911D02*
X61025064Y-139975673D01*
X61025064Y-139975673D02*
X60977445Y-139785197D01*
X60977445Y-139785197D02*
X60977445Y-139642340D01*
X60977445Y-139642340D02*
X61025064Y-139451864D01*
X61025064Y-139451864D02*
X61072683Y-139356626D01*
X61072683Y-139356626D02*
X61167921Y-139261388D01*
X61167921Y-139261388D02*
X61310778Y-139213769D01*
X61310778Y-139213769D02*
X61406016Y-139213769D01*
X61406016Y-139213769D02*
X61548873Y-139261388D01*
X61548873Y-139261388D02*
X61596492Y-139309007D01*
X62548873Y-140213769D02*
X61977445Y-140213769D01*
X62263159Y-140213769D02*
X62263159Y-139213769D01*
X62263159Y-139213769D02*
X62167921Y-139356626D01*
X62167921Y-139356626D02*
X62072683Y-139451864D01*
X62072683Y-139451864D02*
X61977445Y-139499483D01*
X63167921Y-139213769D02*
X63263159Y-139213769D01*
X63263159Y-139213769D02*
X63358397Y-139261388D01*
X63358397Y-139261388D02*
X63406016Y-139309007D01*
X63406016Y-139309007D02*
X63453635Y-139404245D01*
X63453635Y-139404245D02*
X63501254Y-139594721D01*
X63501254Y-139594721D02*
X63501254Y-139832816D01*
X63501254Y-139832816D02*
X63453635Y-140023292D01*
X63453635Y-140023292D02*
X63406016Y-140118530D01*
X63406016Y-140118530D02*
X63358397Y-140166150D01*
X63358397Y-140166150D02*
X63263159Y-140213769D01*
X63263159Y-140213769D02*
X63167921Y-140213769D01*
X63167921Y-140213769D02*
X63072683Y-140166150D01*
X63072683Y-140166150D02*
X63025064Y-140118530D01*
X63025064Y-140118530D02*
X62977445Y-140023292D01*
X62977445Y-140023292D02*
X62929826Y-139832816D01*
X62929826Y-139832816D02*
X62929826Y-139594721D01*
X62929826Y-139594721D02*
X62977445Y-139404245D01*
X62977445Y-139404245D02*
X63025064Y-139309007D01*
X63025064Y-139309007D02*
X63072683Y-139261388D01*
X63072683Y-139261388D02*
X63167921Y-139213769D01*
X115754304Y-86963238D02*
X115659066Y-86915619D01*
X115659066Y-86915619D02*
X115516209Y-86915619D01*
X115516209Y-86915619D02*
X115373352Y-86963238D01*
X115373352Y-86963238D02*
X115278114Y-87058476D01*
X115278114Y-87058476D02*
X115230495Y-87153714D01*
X115230495Y-87153714D02*
X115182876Y-87344190D01*
X115182876Y-87344190D02*
X115182876Y-87487047D01*
X115182876Y-87487047D02*
X115230495Y-87677523D01*
X115230495Y-87677523D02*
X115278114Y-87772761D01*
X115278114Y-87772761D02*
X115373352Y-87868000D01*
X115373352Y-87868000D02*
X115516209Y-87915619D01*
X115516209Y-87915619D02*
X115611447Y-87915619D01*
X115611447Y-87915619D02*
X115754304Y-87868000D01*
X115754304Y-87868000D02*
X115801923Y-87820380D01*
X115801923Y-87820380D02*
X115801923Y-87487047D01*
X115801923Y-87487047D02*
X115611447Y-87487047D01*
X116230495Y-87915619D02*
X116230495Y-86915619D01*
X116230495Y-86915619D02*
X116801923Y-87915619D01*
X116801923Y-87915619D02*
X116801923Y-86915619D01*
X117278114Y-87915619D02*
X117278114Y-86915619D01*
X117278114Y-86915619D02*
X117516209Y-86915619D01*
X117516209Y-86915619D02*
X117659066Y-86963238D01*
X117659066Y-86963238D02*
X117754304Y-87058476D01*
X117754304Y-87058476D02*
X117801923Y-87153714D01*
X117801923Y-87153714D02*
X117849542Y-87344190D01*
X117849542Y-87344190D02*
X117849542Y-87487047D01*
X117849542Y-87487047D02*
X117801923Y-87677523D01*
X117801923Y-87677523D02*
X117754304Y-87772761D01*
X117754304Y-87772761D02*
X117659066Y-87868000D01*
X117659066Y-87868000D02*
X117516209Y-87915619D01*
X117516209Y-87915619D02*
X117278114Y-87915619D01*
X118182876Y-86915619D02*
X118801923Y-86915619D01*
X118801923Y-86915619D02*
X118468590Y-87296571D01*
X118468590Y-87296571D02*
X118611447Y-87296571D01*
X118611447Y-87296571D02*
X118706685Y-87344190D01*
X118706685Y-87344190D02*
X118754304Y-87391809D01*
X118754304Y-87391809D02*
X118801923Y-87487047D01*
X118801923Y-87487047D02*
X118801923Y-87725142D01*
X118801923Y-87725142D02*
X118754304Y-87820380D01*
X118754304Y-87820380D02*
X118706685Y-87868000D01*
X118706685Y-87868000D02*
X118611447Y-87915619D01*
X118611447Y-87915619D02*
X118325733Y-87915619D01*
X118325733Y-87915619D02*
X118230495Y-87868000D01*
X118230495Y-87868000D02*
X118182876Y-87820380D01*
X90382533Y-105755619D02*
X90049200Y-105279428D01*
X89811105Y-105755619D02*
X89811105Y-104755619D01*
X89811105Y-104755619D02*
X90192057Y-104755619D01*
X90192057Y-104755619D02*
X90287295Y-104803238D01*
X90287295Y-104803238D02*
X90334914Y-104850857D01*
X90334914Y-104850857D02*
X90382533Y-104946095D01*
X90382533Y-104946095D02*
X90382533Y-105088952D01*
X90382533Y-105088952D02*
X90334914Y-105184190D01*
X90334914Y-105184190D02*
X90287295Y-105231809D01*
X90287295Y-105231809D02*
X90192057Y-105279428D01*
X90192057Y-105279428D02*
X89811105Y-105279428D01*
X90715867Y-104755619D02*
X91382533Y-104755619D01*
X91382533Y-104755619D02*
X90953962Y-105755619D01*
X93570742Y-132882780D02*
X93523123Y-132930400D01*
X93523123Y-132930400D02*
X93380266Y-132978019D01*
X93380266Y-132978019D02*
X93285028Y-132978019D01*
X93285028Y-132978019D02*
X93142171Y-132930400D01*
X93142171Y-132930400D02*
X93046933Y-132835161D01*
X93046933Y-132835161D02*
X92999314Y-132739923D01*
X92999314Y-132739923D02*
X92951695Y-132549447D01*
X92951695Y-132549447D02*
X92951695Y-132406590D01*
X92951695Y-132406590D02*
X92999314Y-132216114D01*
X92999314Y-132216114D02*
X93046933Y-132120876D01*
X93046933Y-132120876D02*
X93142171Y-132025638D01*
X93142171Y-132025638D02*
X93285028Y-131978019D01*
X93285028Y-131978019D02*
X93380266Y-131978019D01*
X93380266Y-131978019D02*
X93523123Y-132025638D01*
X93523123Y-132025638D02*
X93570742Y-132073257D01*
X94523123Y-132978019D02*
X93951695Y-132978019D01*
X94237409Y-132978019D02*
X94237409Y-131978019D01*
X94237409Y-131978019D02*
X94142171Y-132120876D01*
X94142171Y-132120876D02*
X94046933Y-132216114D01*
X94046933Y-132216114D02*
X93951695Y-132263733D01*
X95380266Y-132311352D02*
X95380266Y-132978019D01*
X95142171Y-131930400D02*
X94904076Y-132644685D01*
X94904076Y-132644685D02*
X95523123Y-132644685D01*
X69570742Y-119182780D02*
X69523123Y-119230400D01*
X69523123Y-119230400D02*
X69380266Y-119278019D01*
X69380266Y-119278019D02*
X69285028Y-119278019D01*
X69285028Y-119278019D02*
X69142171Y-119230400D01*
X69142171Y-119230400D02*
X69046933Y-119135161D01*
X69046933Y-119135161D02*
X68999314Y-119039923D01*
X68999314Y-119039923D02*
X68951695Y-118849447D01*
X68951695Y-118849447D02*
X68951695Y-118706590D01*
X68951695Y-118706590D02*
X68999314Y-118516114D01*
X68999314Y-118516114D02*
X69046933Y-118420876D01*
X69046933Y-118420876D02*
X69142171Y-118325638D01*
X69142171Y-118325638D02*
X69285028Y-118278019D01*
X69285028Y-118278019D02*
X69380266Y-118278019D01*
X69380266Y-118278019D02*
X69523123Y-118325638D01*
X69523123Y-118325638D02*
X69570742Y-118373257D01*
X70523123Y-119278019D02*
X69951695Y-119278019D01*
X70237409Y-119278019D02*
X70237409Y-118278019D01*
X70237409Y-118278019D02*
X70142171Y-118420876D01*
X70142171Y-118420876D02*
X70046933Y-118516114D01*
X70046933Y-118516114D02*
X69951695Y-118563733D01*
X70904076Y-118373257D02*
X70951695Y-118325638D01*
X70951695Y-118325638D02*
X71046933Y-118278019D01*
X71046933Y-118278019D02*
X71285028Y-118278019D01*
X71285028Y-118278019D02*
X71380266Y-118325638D01*
X71380266Y-118325638D02*
X71427885Y-118373257D01*
X71427885Y-118373257D02*
X71475504Y-118468495D01*
X71475504Y-118468495D02*
X71475504Y-118563733D01*
X71475504Y-118563733D02*
X71427885Y-118706590D01*
X71427885Y-118706590D02*
X70856457Y-119278019D01*
X70856457Y-119278019D02*
X71475504Y-119278019D01*
X90995118Y-120493680D02*
X90947499Y-120541300D01*
X90947499Y-120541300D02*
X90804642Y-120588919D01*
X90804642Y-120588919D02*
X90709404Y-120588919D01*
X90709404Y-120588919D02*
X90566547Y-120541300D01*
X90566547Y-120541300D02*
X90471309Y-120446061D01*
X90471309Y-120446061D02*
X90423690Y-120350823D01*
X90423690Y-120350823D02*
X90376071Y-120160347D01*
X90376071Y-120160347D02*
X90376071Y-120017490D01*
X90376071Y-120017490D02*
X90423690Y-119827014D01*
X90423690Y-119827014D02*
X90471309Y-119731776D01*
X90471309Y-119731776D02*
X90566547Y-119636538D01*
X90566547Y-119636538D02*
X90709404Y-119588919D01*
X90709404Y-119588919D02*
X90804642Y-119588919D01*
X90804642Y-119588919D02*
X90947499Y-119636538D01*
X90947499Y-119636538D02*
X90995118Y-119684157D01*
X91947499Y-120588919D02*
X91376071Y-120588919D01*
X91661785Y-120588919D02*
X91661785Y-119588919D01*
X91661785Y-119588919D02*
X91566547Y-119731776D01*
X91566547Y-119731776D02*
X91471309Y-119827014D01*
X91471309Y-119827014D02*
X91376071Y-119874633D01*
X92423690Y-120588919D02*
X92614166Y-120588919D01*
X92614166Y-120588919D02*
X92709404Y-120541300D01*
X92709404Y-120541300D02*
X92757023Y-120493680D01*
X92757023Y-120493680D02*
X92852261Y-120350823D01*
X92852261Y-120350823D02*
X92899880Y-120160347D01*
X92899880Y-120160347D02*
X92899880Y-119779395D01*
X92899880Y-119779395D02*
X92852261Y-119684157D01*
X92852261Y-119684157D02*
X92804642Y-119636538D01*
X92804642Y-119636538D02*
X92709404Y-119588919D01*
X92709404Y-119588919D02*
X92518928Y-119588919D01*
X92518928Y-119588919D02*
X92423690Y-119636538D01*
X92423690Y-119636538D02*
X92376071Y-119684157D01*
X92376071Y-119684157D02*
X92328452Y-119779395D01*
X92328452Y-119779395D02*
X92328452Y-120017490D01*
X92328452Y-120017490D02*
X92376071Y-120112728D01*
X92376071Y-120112728D02*
X92423690Y-120160347D01*
X92423690Y-120160347D02*
X92518928Y-120207966D01*
X92518928Y-120207966D02*
X92709404Y-120207966D01*
X92709404Y-120207966D02*
X92804642Y-120160347D01*
X92804642Y-120160347D02*
X92852261Y-120112728D01*
X92852261Y-120112728D02*
X92899880Y-120017490D01*
X55780266Y-139378019D02*
X55780266Y-140092304D01*
X55780266Y-140092304D02*
X55732647Y-140235161D01*
X55732647Y-140235161D02*
X55637409Y-140330400D01*
X55637409Y-140330400D02*
X55494552Y-140378019D01*
X55494552Y-140378019D02*
X55399314Y-140378019D01*
X56161219Y-139378019D02*
X56780266Y-139378019D01*
X56780266Y-139378019D02*
X56446933Y-139758971D01*
X56446933Y-139758971D02*
X56589790Y-139758971D01*
X56589790Y-139758971D02*
X56685028Y-139806590D01*
X56685028Y-139806590D02*
X56732647Y-139854209D01*
X56732647Y-139854209D02*
X56780266Y-139949447D01*
X56780266Y-139949447D02*
X56780266Y-140187542D01*
X56780266Y-140187542D02*
X56732647Y-140282780D01*
X56732647Y-140282780D02*
X56685028Y-140330400D01*
X56685028Y-140330400D02*
X56589790Y-140378019D01*
X56589790Y-140378019D02*
X56304076Y-140378019D01*
X56304076Y-140378019D02*
X56208838Y-140330400D01*
X56208838Y-140330400D02*
X56161219Y-140282780D01*
X92093466Y-140179780D02*
X92045847Y-140227400D01*
X92045847Y-140227400D02*
X91902990Y-140275019D01*
X91902990Y-140275019D02*
X91807752Y-140275019D01*
X91807752Y-140275019D02*
X91664895Y-140227400D01*
X91664895Y-140227400D02*
X91569657Y-140132161D01*
X91569657Y-140132161D02*
X91522038Y-140036923D01*
X91522038Y-140036923D02*
X91474419Y-139846447D01*
X91474419Y-139846447D02*
X91474419Y-139703590D01*
X91474419Y-139703590D02*
X91522038Y-139513114D01*
X91522038Y-139513114D02*
X91569657Y-139417876D01*
X91569657Y-139417876D02*
X91664895Y-139322638D01*
X91664895Y-139322638D02*
X91807752Y-139275019D01*
X91807752Y-139275019D02*
X91902990Y-139275019D01*
X91902990Y-139275019D02*
X92045847Y-139322638D01*
X92045847Y-139322638D02*
X92093466Y-139370257D01*
X93045847Y-140275019D02*
X92474419Y-140275019D01*
X92760133Y-140275019D02*
X92760133Y-139275019D01*
X92760133Y-139275019D02*
X92664895Y-139417876D01*
X92664895Y-139417876D02*
X92569657Y-139513114D01*
X92569657Y-139513114D02*
X92474419Y-139560733D01*
X93379181Y-139275019D02*
X93998228Y-139275019D01*
X93998228Y-139275019D02*
X93664895Y-139655971D01*
X93664895Y-139655971D02*
X93807752Y-139655971D01*
X93807752Y-139655971D02*
X93902990Y-139703590D01*
X93902990Y-139703590D02*
X93950609Y-139751209D01*
X93950609Y-139751209D02*
X93998228Y-139846447D01*
X93998228Y-139846447D02*
X93998228Y-140084542D01*
X93998228Y-140084542D02*
X93950609Y-140179780D01*
X93950609Y-140179780D02*
X93902990Y-140227400D01*
X93902990Y-140227400D02*
X93807752Y-140275019D01*
X93807752Y-140275019D02*
X93522038Y-140275019D01*
X93522038Y-140275019D02*
X93426800Y-140227400D01*
X93426800Y-140227400D02*
X93379181Y-140179780D01*
X96770742Y-132782780D02*
X96723123Y-132830400D01*
X96723123Y-132830400D02*
X96580266Y-132878019D01*
X96580266Y-132878019D02*
X96485028Y-132878019D01*
X96485028Y-132878019D02*
X96342171Y-132830400D01*
X96342171Y-132830400D02*
X96246933Y-132735161D01*
X96246933Y-132735161D02*
X96199314Y-132639923D01*
X96199314Y-132639923D02*
X96151695Y-132449447D01*
X96151695Y-132449447D02*
X96151695Y-132306590D01*
X96151695Y-132306590D02*
X96199314Y-132116114D01*
X96199314Y-132116114D02*
X96246933Y-132020876D01*
X96246933Y-132020876D02*
X96342171Y-131925638D01*
X96342171Y-131925638D02*
X96485028Y-131878019D01*
X96485028Y-131878019D02*
X96580266Y-131878019D01*
X96580266Y-131878019D02*
X96723123Y-131925638D01*
X96723123Y-131925638D02*
X96770742Y-131973257D01*
X97151695Y-131973257D02*
X97199314Y-131925638D01*
X97199314Y-131925638D02*
X97294552Y-131878019D01*
X97294552Y-131878019D02*
X97532647Y-131878019D01*
X97532647Y-131878019D02*
X97627885Y-131925638D01*
X97627885Y-131925638D02*
X97675504Y-131973257D01*
X97675504Y-131973257D02*
X97723123Y-132068495D01*
X97723123Y-132068495D02*
X97723123Y-132163733D01*
X97723123Y-132163733D02*
X97675504Y-132306590D01*
X97675504Y-132306590D02*
X97104076Y-132878019D01*
X97104076Y-132878019D02*
X97723123Y-132878019D01*
X98675504Y-132878019D02*
X98104076Y-132878019D01*
X98389790Y-132878019D02*
X98389790Y-131878019D01*
X98389790Y-131878019D02*
X98294552Y-132020876D01*
X98294552Y-132020876D02*
X98199314Y-132116114D01*
X98199314Y-132116114D02*
X98104076Y-132163733D01*
X115754304Y-128275857D02*
X115801924Y-128323476D01*
X115801924Y-128323476D02*
X115849543Y-128466333D01*
X115849543Y-128466333D02*
X115849543Y-128561571D01*
X115849543Y-128561571D02*
X115801924Y-128704428D01*
X115801924Y-128704428D02*
X115706685Y-128799666D01*
X115706685Y-128799666D02*
X115611447Y-128847285D01*
X115611447Y-128847285D02*
X115420971Y-128894904D01*
X115420971Y-128894904D02*
X115278114Y-128894904D01*
X115278114Y-128894904D02*
X115087638Y-128847285D01*
X115087638Y-128847285D02*
X114992400Y-128799666D01*
X114992400Y-128799666D02*
X114897162Y-128704428D01*
X114897162Y-128704428D02*
X114849543Y-128561571D01*
X114849543Y-128561571D02*
X114849543Y-128466333D01*
X114849543Y-128466333D02*
X114897162Y-128323476D01*
X114897162Y-128323476D02*
X114944781Y-128275857D01*
X115849543Y-127323476D02*
X115849543Y-127894904D01*
X115849543Y-127609190D02*
X114849543Y-127609190D01*
X114849543Y-127609190D02*
X114992400Y-127704428D01*
X114992400Y-127704428D02*
X115087638Y-127799666D01*
X115087638Y-127799666D02*
X115135257Y-127894904D01*
X115278114Y-126752047D02*
X115230495Y-126847285D01*
X115230495Y-126847285D02*
X115182876Y-126894904D01*
X115182876Y-126894904D02*
X115087638Y-126942523D01*
X115087638Y-126942523D02*
X115040019Y-126942523D01*
X115040019Y-126942523D02*
X114944781Y-126894904D01*
X114944781Y-126894904D02*
X114897162Y-126847285D01*
X114897162Y-126847285D02*
X114849543Y-126752047D01*
X114849543Y-126752047D02*
X114849543Y-126561571D01*
X114849543Y-126561571D02*
X114897162Y-126466333D01*
X114897162Y-126466333D02*
X114944781Y-126418714D01*
X114944781Y-126418714D02*
X115040019Y-126371095D01*
X115040019Y-126371095D02*
X115087638Y-126371095D01*
X115087638Y-126371095D02*
X115182876Y-126418714D01*
X115182876Y-126418714D02*
X115230495Y-126466333D01*
X115230495Y-126466333D02*
X115278114Y-126561571D01*
X115278114Y-126561571D02*
X115278114Y-126752047D01*
X115278114Y-126752047D02*
X115325733Y-126847285D01*
X115325733Y-126847285D02*
X115373352Y-126894904D01*
X115373352Y-126894904D02*
X115468590Y-126942523D01*
X115468590Y-126942523D02*
X115659066Y-126942523D01*
X115659066Y-126942523D02*
X115754304Y-126894904D01*
X115754304Y-126894904D02*
X115801924Y-126847285D01*
X115801924Y-126847285D02*
X115849543Y-126752047D01*
X115849543Y-126752047D02*
X115849543Y-126561571D01*
X115849543Y-126561571D02*
X115801924Y-126466333D01*
X115801924Y-126466333D02*
X115754304Y-126418714D01*
X115754304Y-126418714D02*
X115659066Y-126371095D01*
X115659066Y-126371095D02*
X115468590Y-126371095D01*
X115468590Y-126371095D02*
X115373352Y-126418714D01*
X115373352Y-126418714D02*
X115325733Y-126466333D01*
X115325733Y-126466333D02*
X115278114Y-126561571D01*
X87160333Y-99318519D02*
X86827000Y-98842328D01*
X86588905Y-99318519D02*
X86588905Y-98318519D01*
X86588905Y-98318519D02*
X86969857Y-98318519D01*
X86969857Y-98318519D02*
X87065095Y-98366138D01*
X87065095Y-98366138D02*
X87112714Y-98413757D01*
X87112714Y-98413757D02*
X87160333Y-98508995D01*
X87160333Y-98508995D02*
X87160333Y-98651852D01*
X87160333Y-98651852D02*
X87112714Y-98747090D01*
X87112714Y-98747090D02*
X87065095Y-98794709D01*
X87065095Y-98794709D02*
X86969857Y-98842328D01*
X86969857Y-98842328D02*
X86588905Y-98842328D01*
X88017476Y-98318519D02*
X87827000Y-98318519D01*
X87827000Y-98318519D02*
X87731762Y-98366138D01*
X87731762Y-98366138D02*
X87684143Y-98413757D01*
X87684143Y-98413757D02*
X87588905Y-98556614D01*
X87588905Y-98556614D02*
X87541286Y-98747090D01*
X87541286Y-98747090D02*
X87541286Y-99128042D01*
X87541286Y-99128042D02*
X87588905Y-99223280D01*
X87588905Y-99223280D02*
X87636524Y-99270900D01*
X87636524Y-99270900D02*
X87731762Y-99318519D01*
X87731762Y-99318519D02*
X87922238Y-99318519D01*
X87922238Y-99318519D02*
X88017476Y-99270900D01*
X88017476Y-99270900D02*
X88065095Y-99223280D01*
X88065095Y-99223280D02*
X88112714Y-99128042D01*
X88112714Y-99128042D02*
X88112714Y-98889947D01*
X88112714Y-98889947D02*
X88065095Y-98794709D01*
X88065095Y-98794709D02*
X88017476Y-98747090D01*
X88017476Y-98747090D02*
X87922238Y-98699471D01*
X87922238Y-98699471D02*
X87731762Y-98699471D01*
X87731762Y-98699471D02*
X87636524Y-98747090D01*
X87636524Y-98747090D02*
X87588905Y-98794709D01*
X87588905Y-98794709D02*
X87541286Y-98889947D01*
X103480266Y-118354209D02*
X103146933Y-118354209D01*
X103146933Y-118878019D02*
X103146933Y-117878019D01*
X103146933Y-117878019D02*
X103623123Y-117878019D01*
X104337409Y-118354209D02*
X104480266Y-118401828D01*
X104480266Y-118401828D02*
X104527885Y-118449447D01*
X104527885Y-118449447D02*
X104575504Y-118544685D01*
X104575504Y-118544685D02*
X104575504Y-118687542D01*
X104575504Y-118687542D02*
X104527885Y-118782780D01*
X104527885Y-118782780D02*
X104480266Y-118830400D01*
X104480266Y-118830400D02*
X104385028Y-118878019D01*
X104385028Y-118878019D02*
X104004076Y-118878019D01*
X104004076Y-118878019D02*
X104004076Y-117878019D01*
X104004076Y-117878019D02*
X104337409Y-117878019D01*
X104337409Y-117878019D02*
X104432647Y-117925638D01*
X104432647Y-117925638D02*
X104480266Y-117973257D01*
X104480266Y-117973257D02*
X104527885Y-118068495D01*
X104527885Y-118068495D02*
X104527885Y-118163733D01*
X104527885Y-118163733D02*
X104480266Y-118258971D01*
X104480266Y-118258971D02*
X104432647Y-118306590D01*
X104432647Y-118306590D02*
X104337409Y-118354209D01*
X104337409Y-118354209D02*
X104004076Y-118354209D01*
X104956457Y-117973257D02*
X105004076Y-117925638D01*
X105004076Y-117925638D02*
X105099314Y-117878019D01*
X105099314Y-117878019D02*
X105337409Y-117878019D01*
X105337409Y-117878019D02*
X105432647Y-117925638D01*
X105432647Y-117925638D02*
X105480266Y-117973257D01*
X105480266Y-117973257D02*
X105527885Y-118068495D01*
X105527885Y-118068495D02*
X105527885Y-118163733D01*
X105527885Y-118163733D02*
X105480266Y-118306590D01*
X105480266Y-118306590D02*
X104908838Y-118878019D01*
X104908838Y-118878019D02*
X105527885Y-118878019D01*
X78294190Y-136056009D02*
X77960857Y-136056009D01*
X77960857Y-136579819D02*
X77960857Y-135579819D01*
X77960857Y-135579819D02*
X78437047Y-135579819D01*
X79151333Y-136056009D02*
X79294190Y-136103628D01*
X79294190Y-136103628D02*
X79341809Y-136151247D01*
X79341809Y-136151247D02*
X79389428Y-136246485D01*
X79389428Y-136246485D02*
X79389428Y-136389342D01*
X79389428Y-136389342D02*
X79341809Y-136484580D01*
X79341809Y-136484580D02*
X79294190Y-136532200D01*
X79294190Y-136532200D02*
X79198952Y-136579819D01*
X79198952Y-136579819D02*
X78818000Y-136579819D01*
X78818000Y-136579819D02*
X78818000Y-135579819D01*
X78818000Y-135579819D02*
X79151333Y-135579819D01*
X79151333Y-135579819D02*
X79246571Y-135627438D01*
X79246571Y-135627438D02*
X79294190Y-135675057D01*
X79294190Y-135675057D02*
X79341809Y-135770295D01*
X79341809Y-135770295D02*
X79341809Y-135865533D01*
X79341809Y-135865533D02*
X79294190Y-135960771D01*
X79294190Y-135960771D02*
X79246571Y-136008390D01*
X79246571Y-136008390D02*
X79151333Y-136056009D01*
X79151333Y-136056009D02*
X78818000Y-136056009D01*
X80341809Y-136579819D02*
X79770381Y-136579819D01*
X80056095Y-136579819D02*
X80056095Y-135579819D01*
X80056095Y-135579819D02*
X79960857Y-135722676D01*
X79960857Y-135722676D02*
X79865619Y-135817914D01*
X79865619Y-135817914D02*
X79770381Y-135865533D01*
X100146933Y-92482780D02*
X100099314Y-92530400D01*
X100099314Y-92530400D02*
X99956457Y-92578019D01*
X99956457Y-92578019D02*
X99861219Y-92578019D01*
X99861219Y-92578019D02*
X99718362Y-92530400D01*
X99718362Y-92530400D02*
X99623124Y-92435161D01*
X99623124Y-92435161D02*
X99575505Y-92339923D01*
X99575505Y-92339923D02*
X99527886Y-92149447D01*
X99527886Y-92149447D02*
X99527886Y-92006590D01*
X99527886Y-92006590D02*
X99575505Y-91816114D01*
X99575505Y-91816114D02*
X99623124Y-91720876D01*
X99623124Y-91720876D02*
X99718362Y-91625638D01*
X99718362Y-91625638D02*
X99861219Y-91578019D01*
X99861219Y-91578019D02*
X99956457Y-91578019D01*
X99956457Y-91578019D02*
X100099314Y-91625638D01*
X100099314Y-91625638D02*
X100146933Y-91673257D01*
X100527886Y-91673257D02*
X100575505Y-91625638D01*
X100575505Y-91625638D02*
X100670743Y-91578019D01*
X100670743Y-91578019D02*
X100908838Y-91578019D01*
X100908838Y-91578019D02*
X101004076Y-91625638D01*
X101004076Y-91625638D02*
X101051695Y-91673257D01*
X101051695Y-91673257D02*
X101099314Y-91768495D01*
X101099314Y-91768495D02*
X101099314Y-91863733D01*
X101099314Y-91863733D02*
X101051695Y-92006590D01*
X101051695Y-92006590D02*
X100480267Y-92578019D01*
X100480267Y-92578019D02*
X101099314Y-92578019D01*
X82051695Y-89078019D02*
X82051695Y-89887542D01*
X82051695Y-89887542D02*
X82099314Y-89982780D01*
X82099314Y-89982780D02*
X82146933Y-90030400D01*
X82146933Y-90030400D02*
X82242171Y-90078019D01*
X82242171Y-90078019D02*
X82432647Y-90078019D01*
X82432647Y-90078019D02*
X82527885Y-90030400D01*
X82527885Y-90030400D02*
X82575504Y-89982780D01*
X82575504Y-89982780D02*
X82623123Y-89887542D01*
X82623123Y-89887542D02*
X82623123Y-89078019D01*
X83623123Y-90078019D02*
X83051695Y-90078019D01*
X83337409Y-90078019D02*
X83337409Y-89078019D01*
X83337409Y-89078019D02*
X83242171Y-89220876D01*
X83242171Y-89220876D02*
X83146933Y-89316114D01*
X83146933Y-89316114D02*
X83051695Y-89363733D01*
X52375505Y-122778019D02*
X52375505Y-121778019D01*
X52375505Y-121778019D02*
X52613600Y-121778019D01*
X52613600Y-121778019D02*
X52756457Y-121825638D01*
X52756457Y-121825638D02*
X52851695Y-121920876D01*
X52851695Y-121920876D02*
X52899314Y-122016114D01*
X52899314Y-122016114D02*
X52946933Y-122206590D01*
X52946933Y-122206590D02*
X52946933Y-122349447D01*
X52946933Y-122349447D02*
X52899314Y-122539923D01*
X52899314Y-122539923D02*
X52851695Y-122635161D01*
X52851695Y-122635161D02*
X52756457Y-122730400D01*
X52756457Y-122730400D02*
X52613600Y-122778019D01*
X52613600Y-122778019D02*
X52375505Y-122778019D01*
X53327886Y-121873257D02*
X53375505Y-121825638D01*
X53375505Y-121825638D02*
X53470743Y-121778019D01*
X53470743Y-121778019D02*
X53708838Y-121778019D01*
X53708838Y-121778019D02*
X53804076Y-121825638D01*
X53804076Y-121825638D02*
X53851695Y-121873257D01*
X53851695Y-121873257D02*
X53899314Y-121968495D01*
X53899314Y-121968495D02*
X53899314Y-122063733D01*
X53899314Y-122063733D02*
X53851695Y-122206590D01*
X53851695Y-122206590D02*
X53280267Y-122778019D01*
X53280267Y-122778019D02*
X53899314Y-122778019D01*
X94070742Y-117882780D02*
X94023123Y-117930400D01*
X94023123Y-117930400D02*
X93880266Y-117978019D01*
X93880266Y-117978019D02*
X93785028Y-117978019D01*
X93785028Y-117978019D02*
X93642171Y-117930400D01*
X93642171Y-117930400D02*
X93546933Y-117835161D01*
X93546933Y-117835161D02*
X93499314Y-117739923D01*
X93499314Y-117739923D02*
X93451695Y-117549447D01*
X93451695Y-117549447D02*
X93451695Y-117406590D01*
X93451695Y-117406590D02*
X93499314Y-117216114D01*
X93499314Y-117216114D02*
X93546933Y-117120876D01*
X93546933Y-117120876D02*
X93642171Y-117025638D01*
X93642171Y-117025638D02*
X93785028Y-116978019D01*
X93785028Y-116978019D02*
X93880266Y-116978019D01*
X93880266Y-116978019D02*
X94023123Y-117025638D01*
X94023123Y-117025638D02*
X94070742Y-117073257D01*
X95023123Y-117978019D02*
X94451695Y-117978019D01*
X94737409Y-117978019D02*
X94737409Y-116978019D01*
X94737409Y-116978019D02*
X94642171Y-117120876D01*
X94642171Y-117120876D02*
X94546933Y-117216114D01*
X94546933Y-117216114D02*
X94451695Y-117263733D01*
X95927885Y-116978019D02*
X95451695Y-116978019D01*
X95451695Y-116978019D02*
X95404076Y-117454209D01*
X95404076Y-117454209D02*
X95451695Y-117406590D01*
X95451695Y-117406590D02*
X95546933Y-117358971D01*
X95546933Y-117358971D02*
X95785028Y-117358971D01*
X95785028Y-117358971D02*
X95880266Y-117406590D01*
X95880266Y-117406590D02*
X95927885Y-117454209D01*
X95927885Y-117454209D02*
X95975504Y-117549447D01*
X95975504Y-117549447D02*
X95975504Y-117787542D01*
X95975504Y-117787542D02*
X95927885Y-117882780D01*
X95927885Y-117882780D02*
X95880266Y-117930400D01*
X95880266Y-117930400D02*
X95785028Y-117978019D01*
X95785028Y-117978019D02*
X95546933Y-117978019D01*
X95546933Y-117978019D02*
X95451695Y-117930400D01*
X95451695Y-117930400D02*
X95404076Y-117882780D01*
D13*
%TO.C,HS1*%
X65457259Y-79243206D02*
X66457259Y-79243206D01*
X65457259Y-89223200D02*
X65457259Y-79243206D01*
X66457259Y-82783206D02*
X66457259Y-79243206D01*
X66457259Y-86033206D02*
X66473600Y-89203200D01*
D14*
X66457259Y-86033206D02*
X111763600Y-86033206D01*
D13*
X66473600Y-89223200D02*
X65457259Y-89223200D01*
X73673600Y-79193200D02*
X74673600Y-79193200D01*
X73673600Y-84203200D02*
X73673600Y-79203200D01*
X74673600Y-84203200D02*
X74673600Y-79203200D01*
X78643600Y-84223200D02*
X78643600Y-79273200D01*
X78653600Y-79273200D02*
X79653600Y-79273200D01*
X79643600Y-84223200D02*
X79643600Y-79273200D01*
X84538600Y-79223200D02*
X85538600Y-79223200D01*
X84538600Y-84223200D02*
X84538600Y-79223200D01*
X85538600Y-84223200D02*
X85538600Y-79223200D01*
X94023600Y-79203200D02*
X95023600Y-79203200D01*
X94023600Y-84203200D02*
X94023600Y-79203200D01*
X95023600Y-84203200D02*
X95023600Y-79203200D01*
X100413600Y-79223200D02*
X101413600Y-79223200D01*
X100413600Y-84223200D02*
X100413600Y-79223200D01*
X101413600Y-84223200D02*
X101413600Y-79223200D01*
X105133600Y-84153200D02*
X105133600Y-79223200D01*
X105143600Y-79223200D02*
X106143600Y-79223200D01*
X106143600Y-84223200D02*
X106143600Y-79273200D01*
X107793600Y-84223200D02*
X71210796Y-84223200D01*
X111763600Y-79108200D02*
X112763600Y-79108200D01*
X111763600Y-82578200D02*
X111763600Y-79108200D01*
X111763600Y-85898200D02*
X111763600Y-89108200D01*
X112763600Y-84108200D02*
X112763600Y-79108200D01*
X112783600Y-82148200D02*
X112783600Y-89108200D01*
X112783600Y-89108200D02*
X111763600Y-89108200D01*
X71255103Y-84206018D02*
G75*
G03*
X68843600Y-82763200I-1701503J-107183D01*
G01*
%TO.C,C16*%
X112907124Y-123906452D02*
X112907124Y-123383948D01*
X114377124Y-123906452D02*
X114377124Y-123383948D01*
%TO.C,-12Vt1*%
X79713600Y-140923200D02*
G75*
G03*
X77313600Y-140923200I-1200000J0D01*
G01*
X77313600Y-140923200D02*
G75*
G03*
X79713600Y-140923200I1200000J0D01*
G01*
%TO.C,Input1*%
X58096000Y-81330800D02*
G75*
G03*
X55696000Y-81330800I-1200000J0D01*
G01*
X55696000Y-81330800D02*
G75*
G03*
X58096000Y-81330800I1200000J0D01*
G01*
%TO.C,GND6*%
X89813600Y-140923200D02*
G75*
G03*
X87413600Y-140923200I-1200000J0D01*
G01*
X87413600Y-140923200D02*
G75*
G03*
X89813600Y-140923200I1200000J0D01*
G01*
%TO.C,D1*%
X51508300Y-126277800D02*
X51508300Y-124007800D01*
X51508300Y-124007800D02*
X47448300Y-124007800D01*
X47448300Y-126277800D02*
X51508300Y-126277800D01*
%TO.C,R10*%
X65905600Y-136541136D02*
X65905600Y-136995264D01*
X64435600Y-136541136D02*
X64435600Y-136995264D01*
%TO.C,Q1*%
X64838100Y-132918000D02*
X65488100Y-132918000D01*
X64838100Y-132918000D02*
X64188100Y-132918000D01*
X64838100Y-129798000D02*
X65488100Y-129798000D01*
X64838100Y-129798000D02*
X64188100Y-129798000D01*
X66240600Y-133198000D02*
X65760600Y-133198000D01*
X66000600Y-132868000D01*
X66240600Y-133198000D01*
G36*
X66240600Y-133198000D02*
G01*
X65760600Y-133198000D01*
X66000600Y-132868000D01*
X66240600Y-133198000D01*
G37*
%TO.C,R5*%
X67648600Y-94296136D02*
X67648600Y-94750264D01*
X66178600Y-94296136D02*
X66178600Y-94750264D01*
%TO.C,C5*%
X67666277Y-97948200D02*
X68666277Y-97948200D01*
X68166277Y-97448200D02*
X68166277Y-98448200D01*
X73145923Y-95743200D02*
X73145923Y-105903200D01*
X73185923Y-95743200D02*
X73185923Y-105903200D01*
X73225923Y-95743200D02*
X73225923Y-105903200D01*
X73265923Y-95744200D02*
X73265923Y-105902200D01*
X73305923Y-95745200D02*
X73305923Y-105901200D01*
X73345923Y-95746200D02*
X73345923Y-105900200D01*
X73385923Y-95748200D02*
X73385923Y-105898200D01*
X73425923Y-95750200D02*
X73425923Y-105896200D01*
X73465923Y-95753200D02*
X73465923Y-105893200D01*
X73505923Y-95755200D02*
X73505923Y-105891200D01*
X73545923Y-95758200D02*
X73545923Y-105888200D01*
X73585923Y-95761200D02*
X73585923Y-105885200D01*
X73625923Y-95765200D02*
X73625923Y-105881200D01*
X73665923Y-95769200D02*
X73665923Y-105877200D01*
X73705923Y-95773200D02*
X73705923Y-105873200D01*
X73745923Y-95778200D02*
X73745923Y-105868200D01*
X73785923Y-95783200D02*
X73785923Y-105863200D01*
X73825923Y-95788200D02*
X73825923Y-105858200D01*
X73866923Y-95793200D02*
X73866923Y-105853200D01*
X73906923Y-95799200D02*
X73906923Y-105847200D01*
X73946923Y-95805200D02*
X73946923Y-105841200D01*
X73986923Y-95812200D02*
X73986923Y-105834200D01*
X74026923Y-95819200D02*
X74026923Y-105827200D01*
X74066923Y-95826200D02*
X74066923Y-105820200D01*
X74106923Y-95833200D02*
X74106923Y-105813200D01*
X74146923Y-95841200D02*
X74146923Y-105805200D01*
X74186923Y-95849200D02*
X74186923Y-105797200D01*
X74226923Y-95858200D02*
X74226923Y-105788200D01*
X74266923Y-95867200D02*
X74266923Y-105779200D01*
X74306923Y-95876200D02*
X74306923Y-105770200D01*
X74346923Y-95885200D02*
X74346923Y-105761200D01*
X74386923Y-95895200D02*
X74386923Y-105751200D01*
X74426923Y-95905200D02*
X74426923Y-99582200D01*
X74426923Y-102064200D02*
X74426923Y-105741200D01*
X74466923Y-95916200D02*
X74466923Y-99582200D01*
X74466923Y-102064200D02*
X74466923Y-105730200D01*
X74506923Y-95926200D02*
X74506923Y-99582200D01*
X74506923Y-102064200D02*
X74506923Y-105720200D01*
X74546923Y-95938200D02*
X74546923Y-99582200D01*
X74546923Y-102064200D02*
X74546923Y-105708200D01*
X74586923Y-95949200D02*
X74586923Y-99582200D01*
X74586923Y-102064200D02*
X74586923Y-105697200D01*
X74626923Y-95961200D02*
X74626923Y-99582200D01*
X74626923Y-102064200D02*
X74626923Y-105685200D01*
X74666923Y-95973200D02*
X74666923Y-99582200D01*
X74666923Y-102064200D02*
X74666923Y-105673200D01*
X74706923Y-95986200D02*
X74706923Y-99582200D01*
X74706923Y-102064200D02*
X74706923Y-105660200D01*
X74746923Y-95999200D02*
X74746923Y-99582200D01*
X74746923Y-102064200D02*
X74746923Y-105647200D01*
X74786923Y-96012200D02*
X74786923Y-99582200D01*
X74786923Y-102064200D02*
X74786923Y-105634200D01*
X74826923Y-96026200D02*
X74826923Y-99582200D01*
X74826923Y-102064200D02*
X74826923Y-105620200D01*
X74866923Y-96040200D02*
X74866923Y-99582200D01*
X74866923Y-102064200D02*
X74866923Y-105606200D01*
X74906923Y-96055200D02*
X74906923Y-99582200D01*
X74906923Y-102064200D02*
X74906923Y-105591200D01*
X74946923Y-96069200D02*
X74946923Y-99582200D01*
X74946923Y-102064200D02*
X74946923Y-105577200D01*
X74986923Y-96085200D02*
X74986923Y-99582200D01*
X74986923Y-102064200D02*
X74986923Y-105561200D01*
X75026923Y-96100200D02*
X75026923Y-99582200D01*
X75026923Y-102064200D02*
X75026923Y-105546200D01*
X75066923Y-96116200D02*
X75066923Y-99582200D01*
X75066923Y-102064200D02*
X75066923Y-105530200D01*
X75106923Y-96133200D02*
X75106923Y-99582200D01*
X75106923Y-102064200D02*
X75106923Y-105513200D01*
X75146923Y-96149200D02*
X75146923Y-99582200D01*
X75146923Y-102064200D02*
X75146923Y-105497200D01*
X75186923Y-96166200D02*
X75186923Y-99582200D01*
X75186923Y-102064200D02*
X75186923Y-105480200D01*
X75226923Y-96184200D02*
X75226923Y-99582200D01*
X75226923Y-102064200D02*
X75226923Y-105462200D01*
X75266923Y-96202200D02*
X75266923Y-99582200D01*
X75266923Y-102064200D02*
X75266923Y-105444200D01*
X75306923Y-96220200D02*
X75306923Y-99582200D01*
X75306923Y-102064200D02*
X75306923Y-105426200D01*
X75346923Y-96239200D02*
X75346923Y-99582200D01*
X75346923Y-102064200D02*
X75346923Y-105407200D01*
X75386923Y-96259200D02*
X75386923Y-99582200D01*
X75386923Y-102064200D02*
X75386923Y-105387200D01*
X75426923Y-96278200D02*
X75426923Y-99582200D01*
X75426923Y-102064200D02*
X75426923Y-105368200D01*
X75466923Y-96298200D02*
X75466923Y-99582200D01*
X75466923Y-102064200D02*
X75466923Y-105348200D01*
X75506923Y-96319200D02*
X75506923Y-99582200D01*
X75506923Y-102064200D02*
X75506923Y-105327200D01*
X75546923Y-96340200D02*
X75546923Y-99582200D01*
X75546923Y-102064200D02*
X75546923Y-105306200D01*
X75586923Y-96361200D02*
X75586923Y-99582200D01*
X75586923Y-102064200D02*
X75586923Y-105285200D01*
X75626923Y-96383200D02*
X75626923Y-99582200D01*
X75626923Y-102064200D02*
X75626923Y-105263200D01*
X75666923Y-96406200D02*
X75666923Y-99582200D01*
X75666923Y-102064200D02*
X75666923Y-105240200D01*
X75706923Y-96428200D02*
X75706923Y-99582200D01*
X75706923Y-102064200D02*
X75706923Y-105218200D01*
X75746923Y-96452200D02*
X75746923Y-99582200D01*
X75746923Y-102064200D02*
X75746923Y-105194200D01*
X75786923Y-96476200D02*
X75786923Y-99582200D01*
X75786923Y-102064200D02*
X75786923Y-105170200D01*
X75826923Y-96500200D02*
X75826923Y-99582200D01*
X75826923Y-102064200D02*
X75826923Y-105146200D01*
X75866923Y-96525200D02*
X75866923Y-99582200D01*
X75866923Y-102064200D02*
X75866923Y-105121200D01*
X75906923Y-96550200D02*
X75906923Y-99582200D01*
X75906923Y-102064200D02*
X75906923Y-105096200D01*
X75946923Y-96576200D02*
X75946923Y-99582200D01*
X75946923Y-102064200D02*
X75946923Y-105070200D01*
X75986923Y-96602200D02*
X75986923Y-99582200D01*
X75986923Y-102064200D02*
X75986923Y-105044200D01*
X76026923Y-96629200D02*
X76026923Y-99582200D01*
X76026923Y-102064200D02*
X76026923Y-105017200D01*
X76066923Y-96657200D02*
X76066923Y-99582200D01*
X76066923Y-102064200D02*
X76066923Y-104989200D01*
X76106923Y-96685200D02*
X76106923Y-99582200D01*
X76106923Y-102064200D02*
X76106923Y-104961200D01*
X76146923Y-96713200D02*
X76146923Y-99582200D01*
X76146923Y-102064200D02*
X76146923Y-104933200D01*
X76186923Y-96743200D02*
X76186923Y-99582200D01*
X76186923Y-102064200D02*
X76186923Y-104903200D01*
X76226923Y-96773200D02*
X76226923Y-99582200D01*
X76226923Y-102064200D02*
X76226923Y-104873200D01*
X76266923Y-96803200D02*
X76266923Y-99582200D01*
X76266923Y-102064200D02*
X76266923Y-104843200D01*
X76306923Y-96834200D02*
X76306923Y-99582200D01*
X76306923Y-102064200D02*
X76306923Y-104812200D01*
X76346923Y-96866200D02*
X76346923Y-99582200D01*
X76346923Y-102064200D02*
X76346923Y-104780200D01*
X76386923Y-96898200D02*
X76386923Y-99582200D01*
X76386923Y-102064200D02*
X76386923Y-104748200D01*
X76426923Y-96931200D02*
X76426923Y-99582200D01*
X76426923Y-102064200D02*
X76426923Y-104715200D01*
X76466923Y-96965200D02*
X76466923Y-99582200D01*
X76466923Y-102064200D02*
X76466923Y-104681200D01*
X76506923Y-96999200D02*
X76506923Y-99582200D01*
X76506923Y-102064200D02*
X76506923Y-104647200D01*
X76546923Y-97034200D02*
X76546923Y-99582200D01*
X76546923Y-102064200D02*
X76546923Y-104612200D01*
X76586923Y-97070200D02*
X76586923Y-99582200D01*
X76586923Y-102064200D02*
X76586923Y-104576200D01*
X76626923Y-97107200D02*
X76626923Y-99582200D01*
X76626923Y-102064200D02*
X76626923Y-104539200D01*
X76666923Y-97144200D02*
X76666923Y-99582200D01*
X76666923Y-102064200D02*
X76666923Y-104502200D01*
X76706923Y-97183200D02*
X76706923Y-99582200D01*
X76706923Y-102064200D02*
X76706923Y-104463200D01*
X76746923Y-97222200D02*
X76746923Y-99582200D01*
X76746923Y-102064200D02*
X76746923Y-104424200D01*
X76786923Y-97262200D02*
X76786923Y-99582200D01*
X76786923Y-102064200D02*
X76786923Y-104384200D01*
X76826923Y-97303200D02*
X76826923Y-99582200D01*
X76826923Y-102064200D02*
X76826923Y-104343200D01*
X76866923Y-97345200D02*
X76866923Y-99582200D01*
X76866923Y-102064200D02*
X76866923Y-104301200D01*
X76906923Y-97387200D02*
X76906923Y-104259200D01*
X76946923Y-97431200D02*
X76946923Y-104215200D01*
X76986923Y-97476200D02*
X76986923Y-104170200D01*
X77026923Y-97522200D02*
X77026923Y-104124200D01*
X77066923Y-97569200D02*
X77066923Y-104077200D01*
X77106923Y-97617200D02*
X77106923Y-104029200D01*
X77146923Y-97667200D02*
X77146923Y-103979200D01*
X77186923Y-97717200D02*
X77186923Y-103929200D01*
X77226923Y-97769200D02*
X77226923Y-103877200D01*
X77266923Y-97823200D02*
X77266923Y-103823200D01*
X77306923Y-97878200D02*
X77306923Y-103768200D01*
X77346923Y-97934200D02*
X77346923Y-103712200D01*
X77386923Y-97993200D02*
X77386923Y-103653200D01*
X77426923Y-98053200D02*
X77426923Y-103593200D01*
X77466923Y-98114200D02*
X77466923Y-103532200D01*
X77506923Y-98178200D02*
X77506923Y-103468200D01*
X77546923Y-98244200D02*
X77546923Y-103402200D01*
X77586923Y-98313200D02*
X77586923Y-103333200D01*
X77626923Y-98384200D02*
X77626923Y-103262200D01*
X77666923Y-98458200D02*
X77666923Y-103188200D01*
X77706923Y-98534200D02*
X77706923Y-103112200D01*
X77746923Y-98614200D02*
X77746923Y-103032200D01*
X77786923Y-98698200D02*
X77786923Y-102948200D01*
X77826923Y-98786200D02*
X77826923Y-102860200D01*
X77866923Y-98879200D02*
X77866923Y-102767200D01*
X77906923Y-98977200D02*
X77906923Y-102669200D01*
X77946923Y-99081200D02*
X77946923Y-102565200D01*
X77986923Y-99193200D02*
X77986923Y-102453200D01*
X78026923Y-99313200D02*
X78026923Y-102333200D01*
X78066923Y-99445200D02*
X78066923Y-102201200D01*
X78106923Y-99593200D02*
X78106923Y-102053200D01*
X78146923Y-99761200D02*
X78146923Y-101885200D01*
X78186923Y-99961200D02*
X78186923Y-101685200D01*
X78226923Y-100224200D02*
X78226923Y-101422200D01*
X78265923Y-100823200D02*
G75*
G03*
X68025923Y-100823200I-5120000J0D01*
G01*
X68025923Y-100823200D02*
G75*
G03*
X78265923Y-100823200I5120000J0D01*
G01*
%TO.C,J1*%
X48256000Y-94692400D02*
X48256000Y-94192400D01*
X49456000Y-94692400D02*
X49456000Y-96692400D01*
X49456000Y-94692400D02*
X48256000Y-94692400D01*
X52056000Y-94692400D02*
X52056000Y-96692400D01*
X58556000Y-94692400D02*
X52056000Y-94692400D01*
X62956000Y-94692400D02*
X61756000Y-94692400D01*
X45756000Y-94192400D02*
X45756000Y-88992400D01*
X48256000Y-94192400D02*
X45756000Y-94192400D01*
X45756000Y-88992400D02*
X48256000Y-88992400D01*
X48256000Y-88992400D02*
X48256000Y-88492400D01*
X48256000Y-88492400D02*
X51456000Y-88492400D01*
X54056000Y-88492400D02*
X62956000Y-88492400D01*
X62956000Y-88492400D02*
X62956000Y-94692400D01*
%TO.C,C9*%
X90824948Y-100389300D02*
X91347452Y-100389300D01*
X90824948Y-101859300D02*
X91347452Y-101859300D01*
%TO.C,J2*%
X111703600Y-115703200D02*
X119323600Y-115703200D01*
X119323600Y-115703200D02*
X119323600Y-105543200D01*
X111703600Y-105543200D02*
X111703600Y-115703200D01*
X118053600Y-105543200D02*
X118053600Y-115703200D01*
X119323600Y-105543200D02*
X111703600Y-105543200D01*
%TO.C,U2*%
X112010324Y-125155000D02*
X99170324Y-125155000D01*
X112010324Y-125155000D02*
X112010324Y-144335000D01*
X99170324Y-125155000D02*
X99170324Y-144335000D01*
X112010324Y-144335000D02*
X99170324Y-144335000D01*
%TO.C,GND5*%
X55313600Y-144123200D02*
G75*
G03*
X52913600Y-144123200I-1200000J0D01*
G01*
X52913600Y-144123200D02*
G75*
G03*
X55313600Y-144123200I1200000J0D01*
G01*
%TO.C,C3*%
X67474852Y-107358200D02*
X66952348Y-107358200D01*
X67474852Y-105888200D02*
X66952348Y-105888200D01*
%TO.C,C4*%
X64116852Y-101293600D02*
X63594348Y-101293600D01*
X64116852Y-99823600D02*
X63594348Y-99823600D01*
%TO.C,OUTPUT2*%
X118040600Y-100523200D02*
G75*
G03*
X115640600Y-100523200I-1200000J0D01*
G01*
X115640600Y-100523200D02*
G75*
G03*
X118040600Y-100523200I1200000J0D01*
G01*
%TO.C,+12Vt1*%
X72013600Y-140923200D02*
G75*
G03*
X69613600Y-140923200I-1200000J0D01*
G01*
X69613600Y-140923200D02*
G75*
G03*
X72013600Y-140923200I1200000J0D01*
G01*
%TO.C,R11*%
X62586536Y-120288200D02*
X63040664Y-120288200D01*
X62586536Y-121758200D02*
X63040664Y-121758200D01*
%TO.C,C1*%
X94366277Y-97658200D02*
X95366277Y-97658200D01*
X94866277Y-97158200D02*
X94866277Y-98158200D01*
X99845923Y-95453200D02*
X99845923Y-105613200D01*
X99885923Y-95453200D02*
X99885923Y-105613200D01*
X99925923Y-95453200D02*
X99925923Y-105613200D01*
X99965923Y-95454200D02*
X99965923Y-105612200D01*
X100005923Y-95455200D02*
X100005923Y-105611200D01*
X100045923Y-95456200D02*
X100045923Y-105610200D01*
X100085923Y-95458200D02*
X100085923Y-105608200D01*
X100125923Y-95460200D02*
X100125923Y-105606200D01*
X100165923Y-95463200D02*
X100165923Y-105603200D01*
X100205923Y-95465200D02*
X100205923Y-105601200D01*
X100245923Y-95468200D02*
X100245923Y-105598200D01*
X100285923Y-95471200D02*
X100285923Y-105595200D01*
X100325923Y-95475200D02*
X100325923Y-105591200D01*
X100365923Y-95479200D02*
X100365923Y-105587200D01*
X100405923Y-95483200D02*
X100405923Y-105583200D01*
X100445923Y-95488200D02*
X100445923Y-105578200D01*
X100485923Y-95493200D02*
X100485923Y-105573200D01*
X100525923Y-95498200D02*
X100525923Y-105568200D01*
X100566923Y-95503200D02*
X100566923Y-105563200D01*
X100606923Y-95509200D02*
X100606923Y-105557200D01*
X100646923Y-95515200D02*
X100646923Y-105551200D01*
X100686923Y-95522200D02*
X100686923Y-105544200D01*
X100726923Y-95529200D02*
X100726923Y-105537200D01*
X100766923Y-95536200D02*
X100766923Y-105530200D01*
X100806923Y-95543200D02*
X100806923Y-105523200D01*
X100846923Y-95551200D02*
X100846923Y-105515200D01*
X100886923Y-95559200D02*
X100886923Y-105507200D01*
X100926923Y-95568200D02*
X100926923Y-105498200D01*
X100966923Y-95577200D02*
X100966923Y-105489200D01*
X101006923Y-95586200D02*
X101006923Y-105480200D01*
X101046923Y-95595200D02*
X101046923Y-105471200D01*
X101086923Y-95605200D02*
X101086923Y-105461200D01*
X101126923Y-95615200D02*
X101126923Y-99292200D01*
X101126923Y-101774200D02*
X101126923Y-105451200D01*
X101166923Y-95626200D02*
X101166923Y-99292200D01*
X101166923Y-101774200D02*
X101166923Y-105440200D01*
X101206923Y-95636200D02*
X101206923Y-99292200D01*
X101206923Y-101774200D02*
X101206923Y-105430200D01*
X101246923Y-95648200D02*
X101246923Y-99292200D01*
X101246923Y-101774200D02*
X101246923Y-105418200D01*
X101286923Y-95659200D02*
X101286923Y-99292200D01*
X101286923Y-101774200D02*
X101286923Y-105407200D01*
X101326923Y-95671200D02*
X101326923Y-99292200D01*
X101326923Y-101774200D02*
X101326923Y-105395200D01*
X101366923Y-95683200D02*
X101366923Y-99292200D01*
X101366923Y-101774200D02*
X101366923Y-105383200D01*
X101406923Y-95696200D02*
X101406923Y-99292200D01*
X101406923Y-101774200D02*
X101406923Y-105370200D01*
X101446923Y-95709200D02*
X101446923Y-99292200D01*
X101446923Y-101774200D02*
X101446923Y-105357200D01*
X101486923Y-95722200D02*
X101486923Y-99292200D01*
X101486923Y-101774200D02*
X101486923Y-105344200D01*
X101526923Y-95736200D02*
X101526923Y-99292200D01*
X101526923Y-101774200D02*
X101526923Y-105330200D01*
X101566923Y-95750200D02*
X101566923Y-99292200D01*
X101566923Y-101774200D02*
X101566923Y-105316200D01*
X101606923Y-95765200D02*
X101606923Y-99292200D01*
X101606923Y-101774200D02*
X101606923Y-105301200D01*
X101646923Y-95779200D02*
X101646923Y-99292200D01*
X101646923Y-101774200D02*
X101646923Y-105287200D01*
X101686923Y-95795200D02*
X101686923Y-99292200D01*
X101686923Y-101774200D02*
X101686923Y-105271200D01*
X101726923Y-95810200D02*
X101726923Y-99292200D01*
X101726923Y-101774200D02*
X101726923Y-105256200D01*
X101766923Y-95826200D02*
X101766923Y-99292200D01*
X101766923Y-101774200D02*
X101766923Y-105240200D01*
X101806923Y-95843200D02*
X101806923Y-99292200D01*
X101806923Y-101774200D02*
X101806923Y-105223200D01*
X101846923Y-95859200D02*
X101846923Y-99292200D01*
X101846923Y-101774200D02*
X101846923Y-105207200D01*
X101886923Y-95876200D02*
X101886923Y-99292200D01*
X101886923Y-101774200D02*
X101886923Y-105190200D01*
X101926923Y-95894200D02*
X101926923Y-99292200D01*
X101926923Y-101774200D02*
X101926923Y-105172200D01*
X101966923Y-95912200D02*
X101966923Y-99292200D01*
X101966923Y-101774200D02*
X101966923Y-105154200D01*
X102006923Y-95930200D02*
X102006923Y-99292200D01*
X102006923Y-101774200D02*
X102006923Y-105136200D01*
X102046923Y-95949200D02*
X102046923Y-99292200D01*
X102046923Y-101774200D02*
X102046923Y-105117200D01*
X102086923Y-95969200D02*
X102086923Y-99292200D01*
X102086923Y-101774200D02*
X102086923Y-105097200D01*
X102126923Y-95988200D02*
X102126923Y-99292200D01*
X102126923Y-101774200D02*
X102126923Y-105078200D01*
X102166923Y-96008200D02*
X102166923Y-99292200D01*
X102166923Y-101774200D02*
X102166923Y-105058200D01*
X102206923Y-96029200D02*
X102206923Y-99292200D01*
X102206923Y-101774200D02*
X102206923Y-105037200D01*
X102246923Y-96050200D02*
X102246923Y-99292200D01*
X102246923Y-101774200D02*
X102246923Y-105016200D01*
X102286923Y-96071200D02*
X102286923Y-99292200D01*
X102286923Y-101774200D02*
X102286923Y-104995200D01*
X102326923Y-96093200D02*
X102326923Y-99292200D01*
X102326923Y-101774200D02*
X102326923Y-104973200D01*
X102366923Y-96116200D02*
X102366923Y-99292200D01*
X102366923Y-101774200D02*
X102366923Y-104950200D01*
X102406923Y-96138200D02*
X102406923Y-99292200D01*
X102406923Y-101774200D02*
X102406923Y-104928200D01*
X102446923Y-96162200D02*
X102446923Y-99292200D01*
X102446923Y-101774200D02*
X102446923Y-104904200D01*
X102486923Y-96186200D02*
X102486923Y-99292200D01*
X102486923Y-101774200D02*
X102486923Y-104880200D01*
X102526923Y-96210200D02*
X102526923Y-99292200D01*
X102526923Y-101774200D02*
X102526923Y-104856200D01*
X102566923Y-96235200D02*
X102566923Y-99292200D01*
X102566923Y-101774200D02*
X102566923Y-104831200D01*
X102606923Y-96260200D02*
X102606923Y-99292200D01*
X102606923Y-101774200D02*
X102606923Y-104806200D01*
X102646923Y-96286200D02*
X102646923Y-99292200D01*
X102646923Y-101774200D02*
X102646923Y-104780200D01*
X102686923Y-96312200D02*
X102686923Y-99292200D01*
X102686923Y-101774200D02*
X102686923Y-104754200D01*
X102726923Y-96339200D02*
X102726923Y-99292200D01*
X102726923Y-101774200D02*
X102726923Y-104727200D01*
X102766923Y-96367200D02*
X102766923Y-99292200D01*
X102766923Y-101774200D02*
X102766923Y-104699200D01*
X102806923Y-96395200D02*
X102806923Y-99292200D01*
X102806923Y-101774200D02*
X102806923Y-104671200D01*
X102846923Y-96423200D02*
X102846923Y-99292200D01*
X102846923Y-101774200D02*
X102846923Y-104643200D01*
X102886923Y-96453200D02*
X102886923Y-99292200D01*
X102886923Y-101774200D02*
X102886923Y-104613200D01*
X102926923Y-96483200D02*
X102926923Y-99292200D01*
X102926923Y-101774200D02*
X102926923Y-104583200D01*
X102966923Y-96513200D02*
X102966923Y-99292200D01*
X102966923Y-101774200D02*
X102966923Y-104553200D01*
X103006923Y-96544200D02*
X103006923Y-99292200D01*
X103006923Y-101774200D02*
X103006923Y-104522200D01*
X103046923Y-96576200D02*
X103046923Y-99292200D01*
X103046923Y-101774200D02*
X103046923Y-104490200D01*
X103086923Y-96608200D02*
X103086923Y-99292200D01*
X103086923Y-101774200D02*
X103086923Y-104458200D01*
X103126923Y-96641200D02*
X103126923Y-99292200D01*
X103126923Y-101774200D02*
X103126923Y-104425200D01*
X103166923Y-96675200D02*
X103166923Y-99292200D01*
X103166923Y-101774200D02*
X103166923Y-104391200D01*
X103206923Y-96709200D02*
X103206923Y-99292200D01*
X103206923Y-101774200D02*
X103206923Y-104357200D01*
X103246923Y-96744200D02*
X103246923Y-99292200D01*
X103246923Y-101774200D02*
X103246923Y-104322200D01*
X103286923Y-96780200D02*
X103286923Y-99292200D01*
X103286923Y-101774200D02*
X103286923Y-104286200D01*
X103326923Y-96817200D02*
X103326923Y-99292200D01*
X103326923Y-101774200D02*
X103326923Y-104249200D01*
X103366923Y-96854200D02*
X103366923Y-99292200D01*
X103366923Y-101774200D02*
X103366923Y-104212200D01*
X103406923Y-96893200D02*
X103406923Y-99292200D01*
X103406923Y-101774200D02*
X103406923Y-104173200D01*
X103446923Y-96932200D02*
X103446923Y-99292200D01*
X103446923Y-101774200D02*
X103446923Y-104134200D01*
X103486923Y-96972200D02*
X103486923Y-99292200D01*
X103486923Y-101774200D02*
X103486923Y-104094200D01*
X103526923Y-97013200D02*
X103526923Y-99292200D01*
X103526923Y-101774200D02*
X103526923Y-104053200D01*
X103566923Y-97055200D02*
X103566923Y-99292200D01*
X103566923Y-101774200D02*
X103566923Y-104011200D01*
X103606923Y-97097200D02*
X103606923Y-103969200D01*
X103646923Y-97141200D02*
X103646923Y-103925200D01*
X103686923Y-97186200D02*
X103686923Y-103880200D01*
X103726923Y-97232200D02*
X103726923Y-103834200D01*
X103766923Y-97279200D02*
X103766923Y-103787200D01*
X103806923Y-97327200D02*
X103806923Y-103739200D01*
X103846923Y-97377200D02*
X103846923Y-103689200D01*
X103886923Y-97427200D02*
X103886923Y-103639200D01*
X103926923Y-97479200D02*
X103926923Y-103587200D01*
X103966923Y-97533200D02*
X103966923Y-103533200D01*
X104006923Y-97588200D02*
X104006923Y-103478200D01*
X104046923Y-97644200D02*
X104046923Y-103422200D01*
X104086923Y-97703200D02*
X104086923Y-103363200D01*
X104126923Y-97763200D02*
X104126923Y-103303200D01*
X104166923Y-97824200D02*
X104166923Y-103242200D01*
X104206923Y-97888200D02*
X104206923Y-103178200D01*
X104246923Y-97954200D02*
X104246923Y-103112200D01*
X104286923Y-98023200D02*
X104286923Y-103043200D01*
X104326923Y-98094200D02*
X104326923Y-102972200D01*
X104366923Y-98168200D02*
X104366923Y-102898200D01*
X104406923Y-98244200D02*
X104406923Y-102822200D01*
X104446923Y-98324200D02*
X104446923Y-102742200D01*
X104486923Y-98408200D02*
X104486923Y-102658200D01*
X104526923Y-98496200D02*
X104526923Y-102570200D01*
X104566923Y-98589200D02*
X104566923Y-102477200D01*
X104606923Y-98687200D02*
X104606923Y-102379200D01*
X104646923Y-98791200D02*
X104646923Y-102275200D01*
X104686923Y-98903200D02*
X104686923Y-102163200D01*
X104726923Y-99023200D02*
X104726923Y-102043200D01*
X104766923Y-99155200D02*
X104766923Y-101911200D01*
X104806923Y-99303200D02*
X104806923Y-101763200D01*
X104846923Y-99471200D02*
X104846923Y-101595200D01*
X104886923Y-99671200D02*
X104886923Y-101395200D01*
X104926923Y-99934200D02*
X104926923Y-101132200D01*
X104965923Y-100533200D02*
G75*
G03*
X94725923Y-100533200I-5120000J0D01*
G01*
X94725923Y-100533200D02*
G75*
G03*
X104965923Y-100533200I5120000J0D01*
G01*
%TO.C,C8*%
X87999452Y-108960700D02*
X86576948Y-108960700D01*
X87999452Y-107140700D02*
X86576948Y-107140700D01*
%TO.C,C22*%
X96252348Y-92988200D02*
X96774852Y-92988200D01*
X96252348Y-94458200D02*
X96774852Y-94458200D01*
%TO.C,R8*%
X87015264Y-106285700D02*
X86561136Y-106285700D01*
X87015264Y-104815700D02*
X86561136Y-104815700D01*
%TO.C,R12*%
X112856324Y-132533664D02*
X112856324Y-132079536D01*
X114326324Y-132533664D02*
X114326324Y-132079536D01*
%TO.C,C20*%
X92011952Y-124763100D02*
X91489448Y-124763100D01*
X92011952Y-123293100D02*
X91489448Y-123293100D01*
%TO.C,R9*%
X62486536Y-124388200D02*
X62940664Y-124388200D01*
X62486536Y-125858200D02*
X62940664Y-125858200D01*
%TO.C,GND4*%
X64039600Y-81330800D02*
G75*
G03*
X61639600Y-81330800I-1200000J0D01*
G01*
X61639600Y-81330800D02*
G75*
G03*
X64039600Y-81330800I1200000J0D01*
G01*
%TO.C,R2*%
X63586536Y-102088200D02*
X64040664Y-102088200D01*
X63586536Y-103558200D02*
X64040664Y-103558200D01*
%TO.C,R1*%
X64031864Y-99160000D02*
X63577736Y-99160000D01*
X64031864Y-97690000D02*
X63577736Y-97690000D01*
%TO.C,R3*%
X63978600Y-94750264D02*
X63978600Y-94296136D01*
X65448600Y-94750264D02*
X65448600Y-94296136D01*
%TO.C,RV1*%
X48643600Y-112199200D02*
X47977600Y-112234200D01*
X48719600Y-110737200D02*
X46744600Y-110424200D01*
X48719600Y-110737200D02*
X46744600Y-110424200D01*
X48975600Y-113995200D02*
X47073600Y-114613200D01*
X48975600Y-113995200D02*
X47073600Y-114613200D01*
X49238600Y-108985200D02*
X48629600Y-108714200D01*
X49570600Y-115332200D02*
X48993600Y-115666200D01*
X49970600Y-107718200D02*
X48352600Y-106542200D01*
X49970600Y-107718200D02*
X48352600Y-106542200D01*
X50683600Y-116782200D02*
X49268600Y-118196200D01*
X50683600Y-116782200D02*
X49268600Y-118196200D01*
X51228600Y-106393200D02*
X50809600Y-105875200D01*
X52455600Y-105596200D02*
X51548600Y-103814200D01*
X52455600Y-105596200D02*
X51548600Y-103814200D01*
X54178600Y-104986200D02*
X54039600Y-104334200D01*
X55633600Y-104833200D02*
X55633600Y-102833200D01*
X55633600Y-104833200D02*
X55633600Y-102833200D01*
X57445600Y-105072200D02*
X57618600Y-104428200D01*
X58811600Y-105596200D02*
X59719600Y-103814200D01*
X58811600Y-105596200D02*
X59719600Y-103814200D01*
X60317600Y-106631200D02*
X60763600Y-106136200D01*
X60583600Y-116783200D02*
X61997600Y-118197200D01*
X60583600Y-116783200D02*
X61997600Y-118197200D01*
X61296600Y-107719200D02*
X62914600Y-106543200D01*
X61296600Y-107719200D02*
X62914600Y-106543200D01*
X61504600Y-115645200D02*
X62063600Y-116008200D01*
X62168600Y-109324200D02*
X62790600Y-109086200D01*
X62290600Y-113996200D02*
X64193600Y-114614200D01*
X62290600Y-113996200D02*
X64193600Y-114614200D01*
X62547600Y-110738200D02*
X64522600Y-110425200D01*
X62547600Y-110738200D02*
X64522600Y-110425200D01*
X62595600Y-112565200D02*
X63258600Y-112634200D01*
D14*
X60593850Y-116793800D02*
G75*
G03*
X50796031Y-116671579I-4837266J5002755D01*
G01*
D13*
%TO.C,C11*%
X82180272Y-131183600D02*
X82702776Y-131183600D01*
X82180272Y-132653600D02*
X82702776Y-132653600D01*
%TO.C,R13*%
X87778600Y-122850264D02*
X87778600Y-122396136D01*
X89248600Y-122850264D02*
X89248600Y-122396136D01*
%TO.C,C6*%
X80952348Y-92288200D02*
X81474852Y-92288200D01*
X80952348Y-93758200D02*
X81474852Y-93758200D01*
%TO.C,C7*%
X86956852Y-104058200D02*
X86434348Y-104058200D01*
X86956852Y-102588200D02*
X86434348Y-102588200D01*
%TO.C,R14*%
X68166200Y-136515736D02*
X68166200Y-136969864D01*
X66696200Y-136515736D02*
X66696200Y-136969864D01*
%TO.C,C10*%
X62113950Y-137023002D02*
X62113950Y-136500498D01*
X63583950Y-137023002D02*
X63583950Y-136500498D01*
%TO.C,GND3*%
X118192400Y-89458800D02*
G75*
G03*
X115792400Y-89458800I-1200000J0D01*
G01*
X115792400Y-89458800D02*
G75*
G03*
X118192400Y-89458800I1200000J0D01*
G01*
%TO.C,R7*%
X90833736Y-102700700D02*
X91287864Y-102700700D01*
X90833736Y-104170700D02*
X91287864Y-104170700D01*
%TO.C,C14*%
X94034924Y-129979852D02*
X94034924Y-129457348D01*
X95504924Y-129979852D02*
X95504924Y-129457348D01*
%TO.C,C12*%
X67866277Y-110348200D02*
X68866277Y-110348200D01*
X68366277Y-109848200D02*
X68366277Y-110848200D01*
X73345923Y-108143200D02*
X73345923Y-118303200D01*
X73385923Y-108143200D02*
X73385923Y-118303200D01*
X73425923Y-108143200D02*
X73425923Y-118303200D01*
X73465923Y-108144200D02*
X73465923Y-118302200D01*
X73505923Y-108145200D02*
X73505923Y-118301200D01*
X73545923Y-108146200D02*
X73545923Y-118300200D01*
X73585923Y-108148200D02*
X73585923Y-118298200D01*
X73625923Y-108150200D02*
X73625923Y-118296200D01*
X73665923Y-108153200D02*
X73665923Y-118293200D01*
X73705923Y-108155200D02*
X73705923Y-118291200D01*
X73745923Y-108158200D02*
X73745923Y-118288200D01*
X73785923Y-108161200D02*
X73785923Y-118285200D01*
X73825923Y-108165200D02*
X73825923Y-118281200D01*
X73865923Y-108169200D02*
X73865923Y-118277200D01*
X73905923Y-108173200D02*
X73905923Y-118273200D01*
X73945923Y-108178200D02*
X73945923Y-118268200D01*
X73985923Y-108183200D02*
X73985923Y-118263200D01*
X74025923Y-108188200D02*
X74025923Y-118258200D01*
X74066923Y-108193200D02*
X74066923Y-118253200D01*
X74106923Y-108199200D02*
X74106923Y-118247200D01*
X74146923Y-108205200D02*
X74146923Y-118241200D01*
X74186923Y-108212200D02*
X74186923Y-118234200D01*
X74226923Y-108219200D02*
X74226923Y-118227200D01*
X74266923Y-108226200D02*
X74266923Y-118220200D01*
X74306923Y-108233200D02*
X74306923Y-118213200D01*
X74346923Y-108241200D02*
X74346923Y-118205200D01*
X74386923Y-108249200D02*
X74386923Y-118197200D01*
X74426923Y-108258200D02*
X74426923Y-118188200D01*
X74466923Y-108267200D02*
X74466923Y-118179200D01*
X74506923Y-108276200D02*
X74506923Y-118170200D01*
X74546923Y-108285200D02*
X74546923Y-118161200D01*
X74586923Y-108295200D02*
X74586923Y-118151200D01*
X74626923Y-108305200D02*
X74626923Y-111982200D01*
X74626923Y-114464200D02*
X74626923Y-118141200D01*
X74666923Y-108316200D02*
X74666923Y-111982200D01*
X74666923Y-114464200D02*
X74666923Y-118130200D01*
X74706923Y-108326200D02*
X74706923Y-111982200D01*
X74706923Y-114464200D02*
X74706923Y-118120200D01*
X74746923Y-108338200D02*
X74746923Y-111982200D01*
X74746923Y-114464200D02*
X74746923Y-118108200D01*
X74786923Y-108349200D02*
X74786923Y-111982200D01*
X74786923Y-114464200D02*
X74786923Y-118097200D01*
X74826923Y-108361200D02*
X74826923Y-111982200D01*
X74826923Y-114464200D02*
X74826923Y-118085200D01*
X74866923Y-108373200D02*
X74866923Y-111982200D01*
X74866923Y-114464200D02*
X74866923Y-118073200D01*
X74906923Y-108386200D02*
X74906923Y-111982200D01*
X74906923Y-114464200D02*
X74906923Y-118060200D01*
X74946923Y-108399200D02*
X74946923Y-111982200D01*
X74946923Y-114464200D02*
X74946923Y-118047200D01*
X74986923Y-108412200D02*
X74986923Y-111982200D01*
X74986923Y-114464200D02*
X74986923Y-118034200D01*
X75026923Y-108426200D02*
X75026923Y-111982200D01*
X75026923Y-114464200D02*
X75026923Y-118020200D01*
X75066923Y-108440200D02*
X75066923Y-111982200D01*
X75066923Y-114464200D02*
X75066923Y-118006200D01*
X75106923Y-108455200D02*
X75106923Y-111982200D01*
X75106923Y-114464200D02*
X75106923Y-117991200D01*
X75146923Y-108469200D02*
X75146923Y-111982200D01*
X75146923Y-114464200D02*
X75146923Y-117977200D01*
X75186923Y-108485200D02*
X75186923Y-111982200D01*
X75186923Y-114464200D02*
X75186923Y-117961200D01*
X75226923Y-108500200D02*
X75226923Y-111982200D01*
X75226923Y-114464200D02*
X75226923Y-117946200D01*
X75266923Y-108516200D02*
X75266923Y-111982200D01*
X75266923Y-114464200D02*
X75266923Y-117930200D01*
X75306923Y-108533200D02*
X75306923Y-111982200D01*
X75306923Y-114464200D02*
X75306923Y-117913200D01*
X75346923Y-108549200D02*
X75346923Y-111982200D01*
X75346923Y-114464200D02*
X75346923Y-117897200D01*
X75386923Y-108566200D02*
X75386923Y-111982200D01*
X75386923Y-114464200D02*
X75386923Y-117880200D01*
X75426923Y-108584200D02*
X75426923Y-111982200D01*
X75426923Y-114464200D02*
X75426923Y-117862200D01*
X75466923Y-108602200D02*
X75466923Y-111982200D01*
X75466923Y-114464200D02*
X75466923Y-117844200D01*
X75506923Y-108620200D02*
X75506923Y-111982200D01*
X75506923Y-114464200D02*
X75506923Y-117826200D01*
X75546923Y-108639200D02*
X75546923Y-111982200D01*
X75546923Y-114464200D02*
X75546923Y-117807200D01*
X75586923Y-108659200D02*
X75586923Y-111982200D01*
X75586923Y-114464200D02*
X75586923Y-117787200D01*
X75626923Y-108678200D02*
X75626923Y-111982200D01*
X75626923Y-114464200D02*
X75626923Y-117768200D01*
X75666923Y-108698200D02*
X75666923Y-111982200D01*
X75666923Y-114464200D02*
X75666923Y-117748200D01*
X75706923Y-108719200D02*
X75706923Y-111982200D01*
X75706923Y-114464200D02*
X75706923Y-117727200D01*
X75746923Y-108740200D02*
X75746923Y-111982200D01*
X75746923Y-114464200D02*
X75746923Y-117706200D01*
X75786923Y-108761200D02*
X75786923Y-111982200D01*
X75786923Y-114464200D02*
X75786923Y-117685200D01*
X75826923Y-108783200D02*
X75826923Y-111982200D01*
X75826923Y-114464200D02*
X75826923Y-117663200D01*
X75866923Y-108806200D02*
X75866923Y-111982200D01*
X75866923Y-114464200D02*
X75866923Y-117640200D01*
X75906923Y-108828200D02*
X75906923Y-111982200D01*
X75906923Y-114464200D02*
X75906923Y-117618200D01*
X75946923Y-108852200D02*
X75946923Y-111982200D01*
X75946923Y-114464200D02*
X75946923Y-117594200D01*
X75986923Y-108876200D02*
X75986923Y-111982200D01*
X75986923Y-114464200D02*
X75986923Y-117570200D01*
X76026923Y-108900200D02*
X76026923Y-111982200D01*
X76026923Y-114464200D02*
X76026923Y-117546200D01*
X76066923Y-108925200D02*
X76066923Y-111982200D01*
X76066923Y-114464200D02*
X76066923Y-117521200D01*
X76106923Y-108950200D02*
X76106923Y-111982200D01*
X76106923Y-114464200D02*
X76106923Y-117496200D01*
X76146923Y-108976200D02*
X76146923Y-111982200D01*
X76146923Y-114464200D02*
X76146923Y-117470200D01*
X76186923Y-109002200D02*
X76186923Y-111982200D01*
X76186923Y-114464200D02*
X76186923Y-117444200D01*
X76226923Y-109029200D02*
X76226923Y-111982200D01*
X76226923Y-114464200D02*
X76226923Y-117417200D01*
X76266923Y-109057200D02*
X76266923Y-111982200D01*
X76266923Y-114464200D02*
X76266923Y-117389200D01*
X76306923Y-109085200D02*
X76306923Y-111982200D01*
X76306923Y-114464200D02*
X76306923Y-117361200D01*
X76346923Y-109113200D02*
X76346923Y-111982200D01*
X76346923Y-114464200D02*
X76346923Y-117333200D01*
X76386923Y-109143200D02*
X76386923Y-111982200D01*
X76386923Y-114464200D02*
X76386923Y-117303200D01*
X76426923Y-109173200D02*
X76426923Y-111982200D01*
X76426923Y-114464200D02*
X76426923Y-117273200D01*
X76466923Y-109203200D02*
X76466923Y-111982200D01*
X76466923Y-114464200D02*
X76466923Y-117243200D01*
X76506923Y-109234200D02*
X76506923Y-111982200D01*
X76506923Y-114464200D02*
X76506923Y-117212200D01*
X76546923Y-109266200D02*
X76546923Y-111982200D01*
X76546923Y-114464200D02*
X76546923Y-117180200D01*
X76586923Y-109298200D02*
X76586923Y-111982200D01*
X76586923Y-114464200D02*
X76586923Y-117148200D01*
X76626923Y-109331200D02*
X76626923Y-111982200D01*
X76626923Y-114464200D02*
X76626923Y-117115200D01*
X76666923Y-109365200D02*
X76666923Y-111982200D01*
X76666923Y-114464200D02*
X76666923Y-117081200D01*
X76706923Y-109399200D02*
X76706923Y-111982200D01*
X76706923Y-114464200D02*
X76706923Y-117047200D01*
X76746923Y-109434200D02*
X76746923Y-111982200D01*
X76746923Y-114464200D02*
X76746923Y-117012200D01*
X76786923Y-109470200D02*
X76786923Y-111982200D01*
X76786923Y-114464200D02*
X76786923Y-116976200D01*
X76826923Y-109507200D02*
X76826923Y-111982200D01*
X76826923Y-114464200D02*
X76826923Y-116939200D01*
X76866923Y-109544200D02*
X76866923Y-111982200D01*
X76866923Y-114464200D02*
X76866923Y-116902200D01*
X76906923Y-109583200D02*
X76906923Y-111982200D01*
X76906923Y-114464200D02*
X76906923Y-116863200D01*
X76946923Y-109622200D02*
X76946923Y-111982200D01*
X76946923Y-114464200D02*
X76946923Y-116824200D01*
X76986923Y-109662200D02*
X76986923Y-111982200D01*
X76986923Y-114464200D02*
X76986923Y-116784200D01*
X77026923Y-109703200D02*
X77026923Y-111982200D01*
X77026923Y-114464200D02*
X77026923Y-116743200D01*
X77066923Y-109745200D02*
X77066923Y-111982200D01*
X77066923Y-114464200D02*
X77066923Y-116701200D01*
X77106923Y-109787200D02*
X77106923Y-116659200D01*
X77146923Y-109831200D02*
X77146923Y-116615200D01*
X77186923Y-109876200D02*
X77186923Y-116570200D01*
X77226923Y-109922200D02*
X77226923Y-116524200D01*
X77266923Y-109969200D02*
X77266923Y-116477200D01*
X77306923Y-110017200D02*
X77306923Y-116429200D01*
X77346923Y-110067200D02*
X77346923Y-116379200D01*
X77386923Y-110117200D02*
X77386923Y-116329200D01*
X77426923Y-110169200D02*
X77426923Y-116277200D01*
X77466923Y-110223200D02*
X77466923Y-116223200D01*
X77506923Y-110278200D02*
X77506923Y-116168200D01*
X77546923Y-110334200D02*
X77546923Y-116112200D01*
X77586923Y-110393200D02*
X77586923Y-116053200D01*
X77626923Y-110453200D02*
X77626923Y-115993200D01*
X77666923Y-110514200D02*
X77666923Y-115932200D01*
X77706923Y-110578200D02*
X77706923Y-115868200D01*
X77746923Y-110644200D02*
X77746923Y-115802200D01*
X77786923Y-110713200D02*
X77786923Y-115733200D01*
X77826923Y-110784200D02*
X77826923Y-115662200D01*
X77866923Y-110858200D02*
X77866923Y-115588200D01*
X77906923Y-110934200D02*
X77906923Y-115512200D01*
X77946923Y-111014200D02*
X77946923Y-115432200D01*
X77986923Y-111098200D02*
X77986923Y-115348200D01*
X78026923Y-111186200D02*
X78026923Y-115260200D01*
X78066923Y-111279200D02*
X78066923Y-115167200D01*
X78106923Y-111377200D02*
X78106923Y-115069200D01*
X78146923Y-111481200D02*
X78146923Y-114965200D01*
X78186923Y-111593200D02*
X78186923Y-114853200D01*
X78226923Y-111713200D02*
X78226923Y-114733200D01*
X78266923Y-111845200D02*
X78266923Y-114601200D01*
X78306923Y-111993200D02*
X78306923Y-114453200D01*
X78346923Y-112161200D02*
X78346923Y-114285200D01*
X78386923Y-112361200D02*
X78386923Y-114085200D01*
X78426923Y-112624200D02*
X78426923Y-113822200D01*
X78465923Y-113223200D02*
G75*
G03*
X68225923Y-113223200I-5120000J0D01*
G01*
X68225923Y-113223200D02*
G75*
G03*
X78465923Y-113223200I5120000J0D01*
G01*
%TO.C,C19*%
X91514848Y-121108700D02*
X92037352Y-121108700D01*
X91514848Y-122578700D02*
X92037352Y-122578700D01*
%TO.C,J3*%
X60913600Y-127423200D02*
X59613600Y-127423200D01*
X60613600Y-127723200D02*
X60613600Y-129723200D01*
X46113600Y-127723200D02*
X60613600Y-127723200D01*
X60913600Y-129123200D02*
X60913600Y-127423200D01*
X60613600Y-134923200D02*
X60613600Y-136923200D01*
X60613600Y-136923200D02*
X59313600Y-136923200D01*
X54713600Y-136923200D02*
X46113600Y-136923200D01*
X46113600Y-136923200D02*
X46113600Y-127723200D01*
%TO.C,C13*%
X96502776Y-140453600D02*
X95980272Y-140453600D01*
X96502776Y-138983600D02*
X95980272Y-138983600D01*
%TO.C,C21*%
X97917924Y-129492848D02*
X97917924Y-130015352D01*
X96447924Y-129492848D02*
X96447924Y-130015352D01*
%TO.C,C18*%
X112856324Y-127970452D02*
X112856324Y-127447948D01*
X114326324Y-127970452D02*
X114326324Y-127447948D01*
%TO.C,R6*%
X86417736Y-100149800D02*
X86871864Y-100149800D01*
X86417736Y-101619800D02*
X86871864Y-101619800D01*
%TO.C,FB2*%
X95788600Y-119353200D02*
X110028600Y-119353200D01*
X95788600Y-120483200D02*
X95788600Y-119353200D01*
X95788600Y-122963200D02*
X95788600Y-124093200D01*
X95788600Y-124093200D02*
X110028600Y-124093200D01*
X110028600Y-119353200D02*
X110028600Y-120483200D01*
X110028600Y-124093200D02*
X110028600Y-122963200D01*
%TO.C,FB1*%
X96666524Y-138088600D02*
X82426524Y-138088600D01*
X96666524Y-136958600D02*
X96666524Y-138088600D01*
X96666524Y-134478600D02*
X96666524Y-133348600D01*
X96666524Y-133348600D02*
X82426524Y-133348600D01*
X82426524Y-138088600D02*
X82426524Y-136958600D01*
X82426524Y-133348600D02*
X82426524Y-134478600D01*
%TO.C,C2*%
X100674852Y-94458200D02*
X100152348Y-94458200D01*
X100674852Y-92988200D02*
X100152348Y-92988200D01*
%TO.C,U1*%
X84013000Y-86631300D02*
X84013000Y-91272300D01*
X84013000Y-86631300D02*
X94254000Y-86631300D01*
X84013000Y-88140300D02*
X94254000Y-88140300D01*
X84013000Y-91272300D02*
X86369000Y-91272300D01*
X85734000Y-91272300D02*
X85734000Y-93902300D01*
X87284000Y-86631300D02*
X87284000Y-88140300D01*
X88499000Y-91272300D02*
X89769000Y-91272300D01*
X89134000Y-91272300D02*
X89134000Y-93886300D01*
X90984000Y-86631300D02*
X90984000Y-88140300D01*
X91899000Y-91272300D02*
X94254000Y-91272300D01*
X92534000Y-91272300D02*
X92534000Y-93886300D01*
X94254000Y-86631300D02*
X94254000Y-91272300D01*
%TO.C,D2*%
X46766100Y-119588200D02*
X46766100Y-121858200D01*
X46766100Y-121858200D02*
X50826100Y-121858200D01*
X50826100Y-119588200D02*
X46766100Y-119588200D01*
%TO.C,C15*%
X94366277Y-110348200D02*
X95366277Y-110348200D01*
X94866277Y-109848200D02*
X94866277Y-110848200D01*
X99845923Y-108143200D02*
X99845923Y-118303200D01*
X99885923Y-108143200D02*
X99885923Y-118303200D01*
X99925923Y-108143200D02*
X99925923Y-118303200D01*
X99965923Y-108144200D02*
X99965923Y-118302200D01*
X100005923Y-108145200D02*
X100005923Y-118301200D01*
X100045923Y-108146200D02*
X100045923Y-118300200D01*
X100085923Y-108148200D02*
X100085923Y-118298200D01*
X100125923Y-108150200D02*
X100125923Y-118296200D01*
X100165923Y-108153200D02*
X100165923Y-118293200D01*
X100205923Y-108155200D02*
X100205923Y-118291200D01*
X100245923Y-108158200D02*
X100245923Y-118288200D01*
X100285923Y-108161200D02*
X100285923Y-118285200D01*
X100325923Y-108165200D02*
X100325923Y-118281200D01*
X100365923Y-108169200D02*
X100365923Y-118277200D01*
X100405923Y-108173200D02*
X100405923Y-118273200D01*
X100445923Y-108178200D02*
X100445923Y-118268200D01*
X100485923Y-108183200D02*
X100485923Y-118263200D01*
X100525923Y-108188200D02*
X100525923Y-118258200D01*
X100566923Y-108193200D02*
X100566923Y-118253200D01*
X100606923Y-108199200D02*
X100606923Y-118247200D01*
X100646923Y-108205200D02*
X100646923Y-118241200D01*
X100686923Y-108212200D02*
X100686923Y-118234200D01*
X100726923Y-108219200D02*
X100726923Y-118227200D01*
X100766923Y-108226200D02*
X100766923Y-118220200D01*
X100806923Y-108233200D02*
X100806923Y-118213200D01*
X100846923Y-108241200D02*
X100846923Y-118205200D01*
X100886923Y-108249200D02*
X100886923Y-118197200D01*
X100926923Y-108258200D02*
X100926923Y-118188200D01*
X100966923Y-108267200D02*
X100966923Y-118179200D01*
X101006923Y-108276200D02*
X101006923Y-118170200D01*
X101046923Y-108285200D02*
X101046923Y-118161200D01*
X101086923Y-108295200D02*
X101086923Y-118151200D01*
X101126923Y-108305200D02*
X101126923Y-111982200D01*
X101126923Y-114464200D02*
X101126923Y-118141200D01*
X101166923Y-108316200D02*
X101166923Y-111982200D01*
X101166923Y-114464200D02*
X101166923Y-118130200D01*
X101206923Y-108326200D02*
X101206923Y-111982200D01*
X101206923Y-114464200D02*
X101206923Y-118120200D01*
X101246923Y-108338200D02*
X101246923Y-111982200D01*
X101246923Y-114464200D02*
X101246923Y-118108200D01*
X101286923Y-108349200D02*
X101286923Y-111982200D01*
X101286923Y-114464200D02*
X101286923Y-118097200D01*
X101326923Y-108361200D02*
X101326923Y-111982200D01*
X101326923Y-114464200D02*
X101326923Y-118085200D01*
X101366923Y-108373200D02*
X101366923Y-111982200D01*
X101366923Y-114464200D02*
X101366923Y-118073200D01*
X101406923Y-108386200D02*
X101406923Y-111982200D01*
X101406923Y-114464200D02*
X101406923Y-118060200D01*
X101446923Y-108399200D02*
X101446923Y-111982200D01*
X101446923Y-114464200D02*
X101446923Y-118047200D01*
X101486923Y-108412200D02*
X101486923Y-111982200D01*
X101486923Y-114464200D02*
X101486923Y-118034200D01*
X101526923Y-108426200D02*
X101526923Y-111982200D01*
X101526923Y-114464200D02*
X101526923Y-118020200D01*
X101566923Y-108440200D02*
X101566923Y-111982200D01*
X101566923Y-114464200D02*
X101566923Y-118006200D01*
X101606923Y-108455200D02*
X101606923Y-111982200D01*
X101606923Y-114464200D02*
X101606923Y-117991200D01*
X101646923Y-108469200D02*
X101646923Y-111982200D01*
X101646923Y-114464200D02*
X101646923Y-117977200D01*
X101686923Y-108485200D02*
X101686923Y-111982200D01*
X101686923Y-114464200D02*
X101686923Y-117961200D01*
X101726923Y-108500200D02*
X101726923Y-111982200D01*
X101726923Y-114464200D02*
X101726923Y-117946200D01*
X101766923Y-108516200D02*
X101766923Y-111982200D01*
X101766923Y-114464200D02*
X101766923Y-117930200D01*
X101806923Y-108533200D02*
X101806923Y-111982200D01*
X101806923Y-114464200D02*
X101806923Y-117913200D01*
X101846923Y-108549200D02*
X101846923Y-111982200D01*
X101846923Y-114464200D02*
X101846923Y-117897200D01*
X101886923Y-108566200D02*
X101886923Y-111982200D01*
X101886923Y-114464200D02*
X101886923Y-117880200D01*
X101926923Y-108584200D02*
X101926923Y-111982200D01*
X101926923Y-114464200D02*
X101926923Y-117862200D01*
X101966923Y-108602200D02*
X101966923Y-111982200D01*
X101966923Y-114464200D02*
X101966923Y-117844200D01*
X102006923Y-108620200D02*
X102006923Y-111982200D01*
X102006923Y-114464200D02*
X102006923Y-117826200D01*
X102046923Y-108639200D02*
X102046923Y-111982200D01*
X102046923Y-114464200D02*
X102046923Y-117807200D01*
X102086923Y-108659200D02*
X102086923Y-111982200D01*
X102086923Y-114464200D02*
X102086923Y-117787200D01*
X102126923Y-108678200D02*
X102126923Y-111982200D01*
X102126923Y-114464200D02*
X102126923Y-117768200D01*
X102166923Y-108698200D02*
X102166923Y-111982200D01*
X102166923Y-114464200D02*
X102166923Y-117748200D01*
X102206923Y-108719200D02*
X102206923Y-111982200D01*
X102206923Y-114464200D02*
X102206923Y-117727200D01*
X102246923Y-108740200D02*
X102246923Y-111982200D01*
X102246923Y-114464200D02*
X102246923Y-117706200D01*
X102286923Y-108761200D02*
X102286923Y-111982200D01*
X102286923Y-114464200D02*
X102286923Y-117685200D01*
X102326923Y-108783200D02*
X102326923Y-111982200D01*
X102326923Y-114464200D02*
X102326923Y-117663200D01*
X102366923Y-108806200D02*
X102366923Y-111982200D01*
X102366923Y-114464200D02*
X102366923Y-117640200D01*
X102406923Y-108828200D02*
X102406923Y-111982200D01*
X102406923Y-114464200D02*
X102406923Y-117618200D01*
X102446923Y-108852200D02*
X102446923Y-111982200D01*
X102446923Y-114464200D02*
X102446923Y-117594200D01*
X102486923Y-108876200D02*
X102486923Y-111982200D01*
X102486923Y-114464200D02*
X102486923Y-117570200D01*
X102526923Y-108900200D02*
X102526923Y-111982200D01*
X102526923Y-114464200D02*
X102526923Y-117546200D01*
X102566923Y-108925200D02*
X102566923Y-111982200D01*
X102566923Y-114464200D02*
X102566923Y-117521200D01*
X102606923Y-108950200D02*
X102606923Y-111982200D01*
X102606923Y-114464200D02*
X102606923Y-117496200D01*
X102646923Y-108976200D02*
X102646923Y-111982200D01*
X102646923Y-114464200D02*
X102646923Y-117470200D01*
X102686923Y-109002200D02*
X102686923Y-111982200D01*
X102686923Y-114464200D02*
X102686923Y-117444200D01*
X102726923Y-109029200D02*
X102726923Y-111982200D01*
X102726923Y-114464200D02*
X102726923Y-117417200D01*
X102766923Y-109057200D02*
X102766923Y-111982200D01*
X102766923Y-114464200D02*
X102766923Y-117389200D01*
X102806923Y-109085200D02*
X102806923Y-111982200D01*
X102806923Y-114464200D02*
X102806923Y-117361200D01*
X102846923Y-109113200D02*
X102846923Y-111982200D01*
X102846923Y-114464200D02*
X102846923Y-117333200D01*
X102886923Y-109143200D02*
X102886923Y-111982200D01*
X102886923Y-114464200D02*
X102886923Y-117303200D01*
X102926923Y-109173200D02*
X102926923Y-111982200D01*
X102926923Y-114464200D02*
X102926923Y-117273200D01*
X102966923Y-109203200D02*
X102966923Y-111982200D01*
X102966923Y-114464200D02*
X102966923Y-117243200D01*
X103006923Y-109234200D02*
X103006923Y-111982200D01*
X103006923Y-114464200D02*
X103006923Y-117212200D01*
X103046923Y-109266200D02*
X103046923Y-111982200D01*
X103046923Y-114464200D02*
X103046923Y-117180200D01*
X103086923Y-109298200D02*
X103086923Y-111982200D01*
X103086923Y-114464200D02*
X103086923Y-117148200D01*
X103126923Y-109331200D02*
X103126923Y-111982200D01*
X103126923Y-114464200D02*
X103126923Y-117115200D01*
X103166923Y-109365200D02*
X103166923Y-111982200D01*
X103166923Y-114464200D02*
X103166923Y-117081200D01*
X103206923Y-109399200D02*
X103206923Y-111982200D01*
X103206923Y-114464200D02*
X103206923Y-117047200D01*
X103246923Y-109434200D02*
X103246923Y-111982200D01*
X103246923Y-114464200D02*
X103246923Y-117012200D01*
X103286923Y-109470200D02*
X103286923Y-111982200D01*
X103286923Y-114464200D02*
X103286923Y-116976200D01*
X103326923Y-109507200D02*
X103326923Y-111982200D01*
X103326923Y-114464200D02*
X103326923Y-116939200D01*
X103366923Y-109544200D02*
X103366923Y-111982200D01*
X103366923Y-114464200D02*
X103366923Y-116902200D01*
X103406923Y-109583200D02*
X103406923Y-111982200D01*
X103406923Y-114464200D02*
X103406923Y-116863200D01*
X103446923Y-109622200D02*
X103446923Y-111982200D01*
X103446923Y-114464200D02*
X103446923Y-116824200D01*
X103486923Y-109662200D02*
X103486923Y-111982200D01*
X103486923Y-114464200D02*
X103486923Y-116784200D01*
X103526923Y-109703200D02*
X103526923Y-111982200D01*
X103526923Y-114464200D02*
X103526923Y-116743200D01*
X103566923Y-109745200D02*
X103566923Y-111982200D01*
X103566923Y-114464200D02*
X103566923Y-116701200D01*
X103606923Y-109787200D02*
X103606923Y-116659200D01*
X103646923Y-109831200D02*
X103646923Y-116615200D01*
X103686923Y-109876200D02*
X103686923Y-116570200D01*
X103726923Y-109922200D02*
X103726923Y-116524200D01*
X103766923Y-109969200D02*
X103766923Y-116477200D01*
X103806923Y-110017200D02*
X103806923Y-116429200D01*
X103846923Y-110067200D02*
X103846923Y-116379200D01*
X103886923Y-110117200D02*
X103886923Y-116329200D01*
X103926923Y-110169200D02*
X103926923Y-116277200D01*
X103966923Y-110223200D02*
X103966923Y-116223200D01*
X104006923Y-110278200D02*
X104006923Y-116168200D01*
X104046923Y-110334200D02*
X104046923Y-116112200D01*
X104086923Y-110393200D02*
X104086923Y-116053200D01*
X104126923Y-110453200D02*
X104126923Y-115993200D01*
X104166923Y-110514200D02*
X104166923Y-115932200D01*
X104206923Y-110578200D02*
X104206923Y-115868200D01*
X104246923Y-110644200D02*
X104246923Y-115802200D01*
X104286923Y-110713200D02*
X104286923Y-115733200D01*
X104326923Y-110784200D02*
X104326923Y-115662200D01*
X104366923Y-110858200D02*
X104366923Y-115588200D01*
X104406923Y-110934200D02*
X104406923Y-115512200D01*
X104446923Y-111014200D02*
X104446923Y-115432200D01*
X104486923Y-111098200D02*
X104486923Y-115348200D01*
X104526923Y-111186200D02*
X104526923Y-115260200D01*
X104566923Y-111279200D02*
X104566923Y-115167200D01*
X104606923Y-111377200D02*
X104606923Y-115069200D01*
X104646923Y-111481200D02*
X104646923Y-114965200D01*
X104686923Y-111593200D02*
X104686923Y-114853200D01*
X104726923Y-111713200D02*
X104726923Y-114733200D01*
X104766923Y-111845200D02*
X104766923Y-114601200D01*
X104806923Y-111993200D02*
X104806923Y-114453200D01*
X104846923Y-112161200D02*
X104846923Y-114285200D01*
X104886923Y-112361200D02*
X104886923Y-114085200D01*
X104926923Y-112624200D02*
X104926923Y-113822200D01*
X104965923Y-113223200D02*
G75*
G03*
X94725923Y-113223200I-5120000J0D01*
G01*
X94725923Y-113223200D02*
G75*
G03*
X104965923Y-113223200I5120000J0D01*
G01*
%TD*%
M02*
