%TF.GenerationSoftware,KiCad,Pcbnew,7.0.11-7.0.11~ubuntu22.04.1*%
%TF.CreationDate,2024-09-03T10:01:50-07:00*%
%TF.ProjectId,audio_pwr_amp_r3,61756469-6f5f-4707-9772-5f616d705f72,rev?*%
%TF.SameCoordinates,Original*%
%TF.FileFunction,Soldermask,Top*%
%TF.FilePolarity,Negative*%
%FSLAX46Y46*%
G04 Gerber Fmt 4.6, Leading zero omitted, Abs format (unit mm)*
G04 Created by KiCad (PCBNEW 7.0.11-7.0.11~ubuntu22.04.1) date 2024-09-03 10:01:50*
%MOMM*%
%LPD*%
G01*
G04 APERTURE LIST*
G04 Aperture macros list*
%AMRoundRect*
0 Rectangle with rounded corners*
0 $1 Rounding radius*
0 $2 $3 $4 $5 $6 $7 $8 $9 X,Y pos of 4 corners*
0 Add a 4 corners polygon primitive as box body*
4,1,4,$2,$3,$4,$5,$6,$7,$8,$9,$2,$3,0*
0 Add four circle primitives for the rounded corners*
1,1,$1+$1,$2,$3*
1,1,$1+$1,$4,$5*
1,1,$1+$1,$6,$7*
1,1,$1+$1,$8,$9*
0 Add four rect primitives between the rounded corners*
20,1,$1+$1,$2,$3,$4,$5,0*
20,1,$1+$1,$4,$5,$6,$7,0*
20,1,$1+$1,$6,$7,$8,$9,0*
20,1,$1+$1,$8,$9,$2,$3,0*%
G04 Aperture macros list end*
%ADD10C,3.000000*%
%ADD11RoundRect,0.250000X0.475000X-0.337500X0.475000X0.337500X-0.475000X0.337500X-0.475000X-0.337500X0*%
%ADD12C,2.000000*%
%ADD13RoundRect,0.250001X0.462499X0.624999X-0.462499X0.624999X-0.462499X-0.624999X0.462499X-0.624999X0*%
%ADD14RoundRect,0.250000X-0.450000X0.350000X-0.450000X-0.350000X0.450000X-0.350000X0.450000X0.350000X0*%
%ADD15RoundRect,0.150000X0.587500X0.150000X-0.587500X0.150000X-0.587500X-0.150000X0.587500X-0.150000X0*%
%ADD16C,3.600000*%
%ADD17C,5.700000*%
%ADD18R,2.000000X2.000000*%
%ADD19C,1.700000*%
%ADD20R,2.200000X2.800000*%
%ADD21R,2.800000X2.800000*%
%ADD22RoundRect,0.250000X-0.337500X-0.475000X0.337500X-0.475000X0.337500X0.475000X-0.337500X0.475000X0*%
%ADD23R,3.000000X3.000000*%
%ADD24RoundRect,0.625000X-0.625000X0.625000X-0.625000X-0.625000X0.625000X-0.625000X0.625000X0.625000X0*%
%ADD25C,2.500000*%
%ADD26RoundRect,0.250000X0.337500X0.475000X-0.337500X0.475000X-0.337500X-0.475000X0.337500X-0.475000X0*%
%ADD27RoundRect,0.250000X-0.350000X-0.450000X0.350000X-0.450000X0.350000X0.450000X-0.350000X0.450000X0*%
%ADD28RoundRect,0.250000X0.412500X0.650000X-0.412500X0.650000X-0.412500X-0.650000X0.412500X-0.650000X0*%
%ADD29RoundRect,0.250000X0.350000X0.450000X-0.350000X0.450000X-0.350000X-0.450000X0.350000X-0.450000X0*%
%ADD30RoundRect,0.250000X0.450000X-0.350000X0.450000X0.350000X-0.450000X0.350000X-0.450000X-0.350000X0*%
%ADD31C,1.440000*%
%ADD32R,2.000000X4.600000*%
%ADD33O,2.000000X4.200000*%
%ADD34O,4.200000X2.000000*%
%ADD35RoundRect,0.250000X-0.475000X0.337500X-0.475000X-0.337500X0.475000X-0.337500X0.475000X0.337500X0*%
%ADD36O,2.000000X2.000000*%
%ADD37R,1.800000X1.800000*%
%ADD38O,1.800000X1.800000*%
%ADD39RoundRect,0.250001X-0.462499X-0.624999X0.462499X-0.624999X0.462499X0.624999X-0.462499X0.624999X0*%
G04 APERTURE END LIST*
D10*
%TO.C,HS1*%
X69413600Y-84223200D03*
X109413600Y-84223200D03*
%TD*%
D11*
%TO.C,C16*%
X113642124Y-124682700D03*
X113642124Y-122607700D03*
%TD*%
D12*
%TO.C,-12Vt1*%
X78513600Y-140923200D03*
%TD*%
%TO.C,Input1*%
X56896000Y-81330800D03*
%TD*%
%TO.C,GND6*%
X88613600Y-140923200D03*
%TD*%
D13*
%TO.C,D1*%
X50535800Y-125142800D03*
X47560800Y-125142800D03*
%TD*%
D14*
%TO.C,R10*%
X65170600Y-135768200D03*
X65170600Y-137768200D03*
%TD*%
D15*
%TO.C,Q1*%
X65775600Y-132308000D03*
X65775600Y-130408000D03*
X63900600Y-131358000D03*
%TD*%
D14*
%TO.C,R5*%
X66913600Y-93523200D03*
X66913600Y-95523200D03*
%TD*%
D16*
%TO.C,H4*%
X116484400Y-82499200D03*
D17*
X116484400Y-82499200D03*
%TD*%
D18*
%TO.C,C5*%
X70645923Y-100823200D03*
D12*
X75645923Y-100823200D03*
%TD*%
D19*
%TO.C,J1*%
X51856000Y-91592400D03*
X58856000Y-91592400D03*
D20*
X52756000Y-87892400D03*
X50756000Y-95292400D03*
D21*
X60156000Y-95292400D03*
%TD*%
D22*
%TO.C,C9*%
X90048700Y-101124300D03*
X92123700Y-101124300D03*
%TD*%
D23*
%TO.C,J2*%
X115513600Y-113163200D03*
D10*
X115513600Y-108083200D03*
%TD*%
D24*
%TO.C,U2*%
X110350324Y-126805000D03*
D25*
X104000324Y-126805000D03*
X100830324Y-126805000D03*
X100830324Y-142695000D03*
X110350324Y-142685000D03*
%TD*%
D12*
%TO.C,GND5*%
X54113600Y-144123200D03*
%TD*%
D26*
%TO.C,C3*%
X68251100Y-106623200D03*
X66176100Y-106623200D03*
%TD*%
%TO.C,C4*%
X64893100Y-100558600D03*
X62818100Y-100558600D03*
%TD*%
D12*
%TO.C,OUTPUT2*%
X116840600Y-100523200D03*
%TD*%
%TO.C,+12Vt1*%
X70813600Y-140923200D03*
%TD*%
D27*
%TO.C,R11*%
X61813600Y-121023200D03*
X63813600Y-121023200D03*
%TD*%
D18*
%TO.C,C1*%
X97345923Y-100533200D03*
D12*
X102345923Y-100533200D03*
%TD*%
D28*
%TO.C,C8*%
X88850700Y-108050700D03*
X85725700Y-108050700D03*
%TD*%
D22*
%TO.C,C22*%
X95476100Y-93723200D03*
X97551100Y-93723200D03*
%TD*%
D29*
%TO.C,R8*%
X87788200Y-105550700D03*
X85788200Y-105550700D03*
%TD*%
D30*
%TO.C,R12*%
X113591324Y-133306600D03*
X113591324Y-131306600D03*
%TD*%
D26*
%TO.C,C20*%
X92788200Y-124028100D03*
X90713200Y-124028100D03*
%TD*%
D27*
%TO.C,R9*%
X61713600Y-125123200D03*
X63713600Y-125123200D03*
%TD*%
D12*
%TO.C,GND4*%
X62839600Y-81330800D03*
%TD*%
D27*
%TO.C,R2*%
X62813600Y-102823200D03*
X64813600Y-102823200D03*
%TD*%
D16*
%TO.C,H3*%
X116613600Y-143923200D03*
D17*
X116613600Y-143923200D03*
%TD*%
D29*
%TO.C,R1*%
X64804800Y-98425000D03*
X62804800Y-98425000D03*
%TD*%
D30*
%TO.C,R3*%
X64713600Y-95523200D03*
X64713600Y-93523200D03*
%TD*%
D31*
%TO.C,RV1*%
X58213600Y-111823200D03*
X55673600Y-109283200D03*
X53133600Y-111823200D03*
%TD*%
D22*
%TO.C,C11*%
X81404024Y-131918600D03*
X83479024Y-131918600D03*
%TD*%
D30*
%TO.C,R13*%
X88513600Y-123623200D03*
X88513600Y-121623200D03*
%TD*%
D22*
%TO.C,C6*%
X80176100Y-93023200D03*
X82251100Y-93023200D03*
%TD*%
D26*
%TO.C,C7*%
X87733100Y-103323200D03*
X85658100Y-103323200D03*
%TD*%
D14*
%TO.C,R14*%
X67431200Y-135742800D03*
X67431200Y-137742800D03*
%TD*%
D11*
%TO.C,C10*%
X62848950Y-137799250D03*
X62848950Y-135724250D03*
%TD*%
D12*
%TO.C,GND3*%
X116992400Y-89458800D03*
%TD*%
D27*
%TO.C,R7*%
X90060800Y-103435700D03*
X92060800Y-103435700D03*
%TD*%
D11*
%TO.C,C14*%
X94769924Y-130756100D03*
X94769924Y-128681100D03*
%TD*%
D18*
%TO.C,C12*%
X70845923Y-113223200D03*
D12*
X75845923Y-113223200D03*
%TD*%
D22*
%TO.C,C19*%
X90738600Y-121843700D03*
X92813600Y-121843700D03*
%TD*%
D19*
%TO.C,J3*%
X49913600Y-132323200D03*
D32*
X59913600Y-132323200D03*
D33*
X53613600Y-132323200D03*
D34*
X57013600Y-137123200D03*
%TD*%
D26*
%TO.C,C13*%
X97279024Y-139718600D03*
X95204024Y-139718600D03*
%TD*%
D16*
%TO.C,H1*%
X48412400Y-144221200D03*
D17*
X48412400Y-144221200D03*
%TD*%
D35*
%TO.C,C21*%
X97182924Y-128716600D03*
X97182924Y-130791600D03*
%TD*%
D11*
%TO.C,C18*%
X113591324Y-128746700D03*
X113591324Y-126671700D03*
%TD*%
D27*
%TO.C,R6*%
X85644800Y-100884800D03*
X87644800Y-100884800D03*
%TD*%
D12*
%TO.C,FB2*%
X95288600Y-121723200D03*
D36*
X110528600Y-121723200D03*
%TD*%
D12*
%TO.C,FB1*%
X97166524Y-135718600D03*
D36*
X81926524Y-135718600D03*
%TD*%
D26*
%TO.C,C2*%
X101451100Y-93723200D03*
X99376100Y-93723200D03*
%TD*%
D37*
%TO.C,U1*%
X85734000Y-94951300D03*
D38*
X87434000Y-91251300D03*
X89134000Y-94951300D03*
X90834000Y-91251300D03*
X92534000Y-94951300D03*
%TD*%
D39*
%TO.C,D2*%
X47738600Y-120723200D03*
X50713600Y-120723200D03*
%TD*%
D16*
%TO.C,H2*%
X48793400Y-82321400D03*
D17*
X48793400Y-82321400D03*
%TD*%
D18*
%TO.C,C15*%
X97345923Y-113223200D03*
D12*
X102345923Y-113223200D03*
%TD*%
M02*
