M48
; DRILL file {KiCad 7.0.11-7.0.11~ubuntu22.04.1} date Tue 03 Sep 2024 10:01:46 AM PDT
; FORMAT={-:-/ absolute / inch / decimal}
; #@! TF.CreationDate,2024-09-03T10:01:46-07:00
; #@! TF.GenerationSoftware,Kicad,Pcbnew,7.0.11-7.0.11~ubuntu22.04.1
; #@! TF.FileFunction,Plated,1,2,PTH
FMAT,2
INCH
; #@! TA.AperFunction,Plated,PTH,ViaDrill
T1C0.0157
; #@! TA.AperFunction,Plated,PTH,ComponentDrill
T2C0.0315
; #@! TA.AperFunction,Plated,PTH,ComponentDrill
T3C0.0394
; #@! TA.AperFunction,Plated,PTH,ComponentDrill
T4C0.0433
; #@! TA.AperFunction,Plated,PTH,ComponentDrill
T5C0.0551
; #@! TA.AperFunction,Plated,PTH,ComponentDrill
T6C0.0598
; #@! TA.AperFunction,Plated,PTH,ComponentDrill
T7C0.0689
; #@! TA.AperFunction,Plated,PTH,ComponentDrill
T8C0.1260
%
G90
G05
T1
X1.8726Y-4.0265
X1.9522Y-4.404
X1.9581Y-5.0923
X1.9679Y-5.299
X2.0867Y-5.571
X2.1777Y-3.6426
X2.1777Y-4.43
X2.2801Y-3.5206
X2.334Y-5.526
X2.4139Y-3.4537
X2.4218Y-3.96
X2.4468Y-5.2506
X2.473Y-3.7765
X2.5793Y-4.9261
X2.5871Y-5.56
X2.6029Y-3.2332
X2.6344Y-4.7529
X2.7053Y-3.7371
X2.7053Y-4.6269
X2.7289Y-5.4104
X2.784Y-3.465
X2.788Y-3.634
X2.8864Y-3.4537
X2.9179Y-3.6623
X2.935Y-4.766
X3.032Y-4.9261
X3.0471Y-3.6066
X3.1111Y-3.4676
X3.1462Y-4.2253
X3.1591Y-3.1716
X3.1861Y-3.5376
X3.2131Y-4.497
X3.2958Y-3.8631
X3.2958Y-4.2096
X3.3501Y-5.0342
X3.3667Y-3.5088
X3.4398Y-3.8097
X3.4561Y-3.1546
X3.5478Y-5.1466
X3.5557Y-3.5088
X3.5635Y-4.9576
X3.5771Y-3.9113
X3.5871Y-4.7214
X3.6147Y-4.3631
X3.662Y-4.2411
X3.6659Y-4.5285
X3.6895Y-3.6702
X3.7053Y-3.808
X3.8091Y-3.1606
X3.8312Y-3.4261
X3.8323Y-4.7783
X3.8903Y-3.5009
X3.91Y-5.2056
X3.9971Y-5.4379
X4.0596Y-3.7489
X4.1971Y-5.1789
X4.225Y-4.387
X4.2328Y-4.1151
X4.2361Y-5.6029
X4.2361Y-5.6529
X4.2421Y-5.5189
X4.252Y-3.188
X4.289Y-4.6582
X4.3141Y-5.5149
X4.323Y-5.7319
X4.3627Y-4.4379
X4.3627Y-4.5324
X4.3781Y-5.5179
X4.406Y-5.7319
X4.4257Y-4.5993
X4.426Y-3.794
X4.4561Y-5.6199
X4.4591Y-5.7009
X4.4681Y-5.5179
X4.4801Y-5.3569
X4.5832Y-4.6505
X4.662Y-4.5954
T2
X2.0919Y-4.4025
X2.1919Y-4.3025
X2.2919Y-4.4025
T3
X2.1305Y-5.6741
X2.24Y-3.202
X2.474Y-3.202
X2.7813Y-3.9694
X2.7879Y-5.5482
X2.7892Y-4.4576
X2.9782Y-3.9694
X2.9861Y-4.4576
X3.0911Y-5.5482
X3.2255Y-5.3433
X3.4887Y-5.5482
X3.7515Y-4.7923
X3.8255Y-5.3433
X3.8325Y-3.958
X3.8325Y-4.4576
X4.0294Y-3.958
X4.0294Y-4.4576
X4.3515Y-4.7923
X4.6Y-3.9576
X4.606Y-3.522
T4
X3.3754Y-3.7382
X3.4423Y-3.5926
X3.5092Y-3.7382
X3.5761Y-3.5926
X3.6431Y-3.7382
T5
X3.9697Y-4.9923
X3.9697Y-5.6179
X4.0945Y-4.9923
X4.3445Y-4.9923
X4.3445Y-5.6175
T6
X4.5478Y-4.2552
X4.5478Y-4.4552
T7
X2.7328Y-3.3159
X4.3076Y-3.3159
T8
X1.906Y-5.678
X1.921Y-3.241
X4.586Y-3.248
X4.5911Y-5.6663
T3
X2.1108Y-5.1663G85X2.1108Y-5.2529
G05
X2.2879Y-5.3986G85X2.2013Y-5.3986
G05
X2.3588Y-5.1584G85X2.3588Y-5.2608
G05
M30
