%TF.GenerationSoftware,KiCad,Pcbnew,7.0.11-7.0.11~ubuntu22.04.1*%
%TF.CreationDate,2024-09-03T10:01:50-07:00*%
%TF.ProjectId,audio_pwr_amp_r3,61756469-6f5f-4707-9772-5f616d705f72,rev?*%
%TF.SameCoordinates,Original*%
%TF.FileFunction,Soldermask,Bot*%
%TF.FilePolarity,Negative*%
%FSLAX46Y46*%
G04 Gerber Fmt 4.6, Leading zero omitted, Abs format (unit mm)*
G04 Created by KiCad (PCBNEW 7.0.11-7.0.11~ubuntu22.04.1) date 2024-09-03 10:01:50*
%MOMM*%
%LPD*%
G01*
G04 APERTURE LIST*
G04 Aperture macros list*
%AMRoundRect*
0 Rectangle with rounded corners*
0 $1 Rounding radius*
0 $2 $3 $4 $5 $6 $7 $8 $9 X,Y pos of 4 corners*
0 Add a 4 corners polygon primitive as box body*
4,1,4,$2,$3,$4,$5,$6,$7,$8,$9,$2,$3,0*
0 Add four circle primitives for the rounded corners*
1,1,$1+$1,$2,$3*
1,1,$1+$1,$4,$5*
1,1,$1+$1,$6,$7*
1,1,$1+$1,$8,$9*
0 Add four rect primitives between the rounded corners*
20,1,$1+$1,$2,$3,$4,$5,0*
20,1,$1+$1,$4,$5,$6,$7,0*
20,1,$1+$1,$6,$7,$8,$9,0*
20,1,$1+$1,$8,$9,$2,$3,0*%
G04 Aperture macros list end*
%ADD10C,3.000000*%
%ADD11C,2.000000*%
%ADD12C,3.600000*%
%ADD13C,5.700000*%
%ADD14R,2.000000X2.000000*%
%ADD15C,1.700000*%
%ADD16R,3.000000X3.000000*%
%ADD17RoundRect,0.625000X-0.625000X0.625000X-0.625000X-0.625000X0.625000X-0.625000X0.625000X0.625000X0*%
%ADD18C,2.500000*%
%ADD19C,1.440000*%
%ADD20R,2.000000X4.600000*%
%ADD21O,2.000000X4.200000*%
%ADD22O,4.200000X2.000000*%
%ADD23O,2.000000X2.000000*%
%ADD24R,1.800000X1.800000*%
%ADD25O,1.800000X1.800000*%
G04 APERTURE END LIST*
D10*
%TO.C,HS1*%
X69413600Y-84223200D03*
X109413600Y-84223200D03*
%TD*%
D11*
%TO.C,-12Vt1*%
X78513600Y-140923200D03*
%TD*%
%TO.C,Input1*%
X56896000Y-81330800D03*
%TD*%
%TO.C,GND6*%
X88613600Y-140923200D03*
%TD*%
D12*
%TO.C,H4*%
X116484400Y-82499200D03*
D13*
X116484400Y-82499200D03*
%TD*%
D14*
%TO.C,C5*%
X70645923Y-100823200D03*
D11*
X75645923Y-100823200D03*
%TD*%
D15*
%TO.C,J1*%
X51856000Y-91592400D03*
X58856000Y-91592400D03*
%TD*%
D16*
%TO.C,J2*%
X115513600Y-113163200D03*
D10*
X115513600Y-108083200D03*
%TD*%
D17*
%TO.C,U2*%
X110350324Y-126805000D03*
D18*
X104000324Y-126805000D03*
X100830324Y-126805000D03*
X100830324Y-142695000D03*
X110350324Y-142685000D03*
%TD*%
D11*
%TO.C,GND5*%
X54113600Y-144123200D03*
%TD*%
%TO.C,OUTPUT2*%
X116840600Y-100523200D03*
%TD*%
%TO.C,+12Vt1*%
X70813600Y-140923200D03*
%TD*%
D14*
%TO.C,C1*%
X97345923Y-100533200D03*
D11*
X102345923Y-100533200D03*
%TD*%
%TO.C,GND4*%
X62839600Y-81330800D03*
%TD*%
D12*
%TO.C,H3*%
X116613600Y-143923200D03*
D13*
X116613600Y-143923200D03*
%TD*%
D19*
%TO.C,RV1*%
X58213600Y-111823200D03*
X55673600Y-109283200D03*
X53133600Y-111823200D03*
%TD*%
D11*
%TO.C,GND3*%
X116992400Y-89458800D03*
%TD*%
D14*
%TO.C,C12*%
X70845923Y-113223200D03*
D11*
X75845923Y-113223200D03*
%TD*%
D15*
%TO.C,J3*%
X49913600Y-132323200D03*
D20*
X59913600Y-132323200D03*
D21*
X53613600Y-132323200D03*
D22*
X57013600Y-137123200D03*
%TD*%
D12*
%TO.C,H1*%
X48412400Y-144221200D03*
D13*
X48412400Y-144221200D03*
%TD*%
D11*
%TO.C,FB2*%
X95288600Y-121723200D03*
D23*
X110528600Y-121723200D03*
%TD*%
D11*
%TO.C,FB1*%
X97166524Y-135718600D03*
D23*
X81926524Y-135718600D03*
%TD*%
D24*
%TO.C,U1*%
X85734000Y-94951300D03*
D25*
X87434000Y-91251300D03*
X89134000Y-94951300D03*
X90834000Y-91251300D03*
X92534000Y-94951300D03*
%TD*%
D12*
%TO.C,H2*%
X48793400Y-82321400D03*
D13*
X48793400Y-82321400D03*
%TD*%
D14*
%TO.C,C15*%
X97345923Y-113223200D03*
D11*
X102345923Y-113223200D03*
%TD*%
M02*
