%TF.GenerationSoftware,KiCad,Pcbnew,7.0.11-7.0.11~ubuntu22.04.1*%
%TF.CreationDate,2024-09-03T10:01:49-07:00*%
%TF.ProjectId,audio_pwr_amp_r3,61756469-6f5f-4707-9772-5f616d705f72,rev?*%
%TF.SameCoordinates,Original*%
%TF.FileFunction,Copper,L2,Bot*%
%TF.FilePolarity,Positive*%
%FSLAX46Y46*%
G04 Gerber Fmt 4.6, Leading zero omitted, Abs format (unit mm)*
G04 Created by KiCad (PCBNEW 7.0.11-7.0.11~ubuntu22.04.1) date 2024-09-03 10:01:49*
%MOMM*%
%LPD*%
G01*
G04 APERTURE LIST*
G04 Aperture macros list*
%AMRoundRect*
0 Rectangle with rounded corners*
0 $1 Rounding radius*
0 $2 $3 $4 $5 $6 $7 $8 $9 X,Y pos of 4 corners*
0 Add a 4 corners polygon primitive as box body*
4,1,4,$2,$3,$4,$5,$6,$7,$8,$9,$2,$3,0*
0 Add four circle primitives for the rounded corners*
1,1,$1+$1,$2,$3*
1,1,$1+$1,$4,$5*
1,1,$1+$1,$6,$7*
1,1,$1+$1,$8,$9*
0 Add four rect primitives between the rounded corners*
20,1,$1+$1,$2,$3,$4,$5,0*
20,1,$1+$1,$4,$5,$6,$7,0*
20,1,$1+$1,$6,$7,$8,$9,0*
20,1,$1+$1,$8,$9,$2,$3,0*%
G04 Aperture macros list end*
%TA.AperFunction,ComponentPad*%
%ADD10C,3.000000*%
%TD*%
%TA.AperFunction,ComponentPad*%
%ADD11C,2.000000*%
%TD*%
%TA.AperFunction,ComponentPad*%
%ADD12C,3.600000*%
%TD*%
%TA.AperFunction,ConnectorPad*%
%ADD13C,5.700000*%
%TD*%
%TA.AperFunction,ComponentPad*%
%ADD14R,2.000000X2.000000*%
%TD*%
%TA.AperFunction,ComponentPad*%
%ADD15R,3.000000X3.000000*%
%TD*%
%TA.AperFunction,ComponentPad*%
%ADD16RoundRect,0.625000X-0.625000X0.625000X-0.625000X-0.625000X0.625000X-0.625000X0.625000X0.625000X0*%
%TD*%
%TA.AperFunction,ComponentPad*%
%ADD17C,2.500000*%
%TD*%
%TA.AperFunction,ComponentPad*%
%ADD18C,1.440000*%
%TD*%
%TA.AperFunction,ComponentPad*%
%ADD19R,2.000000X4.600000*%
%TD*%
%TA.AperFunction,ComponentPad*%
%ADD20O,2.000000X4.200000*%
%TD*%
%TA.AperFunction,ComponentPad*%
%ADD21O,4.200000X2.000000*%
%TD*%
%TA.AperFunction,ComponentPad*%
%ADD22O,2.000000X2.000000*%
%TD*%
%TA.AperFunction,ComponentPad*%
%ADD23R,1.800000X1.800000*%
%TD*%
%TA.AperFunction,ComponentPad*%
%ADD24O,1.800000X1.800000*%
%TD*%
%TA.AperFunction,ViaPad*%
%ADD25C,0.800000*%
%TD*%
%TA.AperFunction,Conductor*%
%ADD26C,0.508000*%
%TD*%
%TA.AperFunction,Conductor*%
%ADD27C,0.250000*%
%TD*%
G04 APERTURE END LIST*
D10*
%TO.P,HS1,1*%
%TO.N,GND*%
X69413600Y-84223200D03*
X109413600Y-84223200D03*
%TD*%
D11*
%TO.P,-12Vt1,1,1*%
%TO.N,-12V*%
X78513600Y-140923200D03*
%TD*%
%TO.P,Input1,1,1*%
%TO.N,Net-(C4-Pad1)*%
X56896000Y-81330800D03*
%TD*%
%TO.P,GND6,1,1*%
%TO.N,GND*%
X88613600Y-140923200D03*
%TD*%
D12*
%TO.P,H4,1,1*%
%TO.N,GND*%
X116484400Y-82499200D03*
D13*
X116484400Y-82499200D03*
%TD*%
D14*
%TO.P,C5,1*%
%TO.N,GND*%
X70645923Y-100823200D03*
D11*
%TO.P,C5,2*%
%TO.N,-12V*%
X75645923Y-100823200D03*
%TD*%
D15*
%TO.P,J2,1,Pin_1*%
%TO.N,GND*%
X115513600Y-113163200D03*
D10*
%TO.P,J2,2,Pin_2*%
%TO.N,Net-(J2-Pin_2)*%
X115513600Y-108083200D03*
%TD*%
D16*
%TO.P,U2,1,VO*%
%TO.N,Net-(U2-VO)*%
X110350324Y-126805000D03*
D17*
%TO.P,U2,2,VI*%
%TO.N,Net-(U2-VI)*%
X104000324Y-126805000D03*
%TO.P,U2,3,NC*%
%TO.N,unconnected-(U2-NC-Pad3)*%
X100830324Y-126805000D03*
%TO.P,U2,4,Vo_Adj*%
%TO.N,Net-(U2-Vo_Adj)*%
X100830324Y-142695000D03*
%TO.P,U2,5,GND*%
%TO.N,GND*%
X110350324Y-142685000D03*
%TD*%
D11*
%TO.P,GND5,1,1*%
%TO.N,GND*%
X54113600Y-144123200D03*
%TD*%
%TO.P,OUTPUT2,1,1*%
%TO.N,Net-(J2-Pin_2)*%
X116840600Y-100523200D03*
%TD*%
%TO.P,+12Vt1,1,1*%
%TO.N,+12V*%
X70813600Y-140923200D03*
%TD*%
D14*
%TO.P,C1,1*%
%TO.N,+12V*%
X97345923Y-100533200D03*
D11*
%TO.P,C1,2*%
%TO.N,GND*%
X102345923Y-100533200D03*
%TD*%
%TO.P,GND4,1,1*%
%TO.N,GND*%
X62839600Y-81330800D03*
%TD*%
D12*
%TO.P,H3,1,1*%
%TO.N,GND*%
X116613600Y-143923200D03*
D13*
X116613600Y-143923200D03*
%TD*%
D18*
%TO.P,RV1,1,1*%
%TO.N,GND*%
X58213600Y-111823200D03*
%TO.P,RV1,2,2*%
%TO.N,Net-(C3-Pad2)*%
X55673600Y-109283200D03*
%TO.P,RV1,3,3*%
%TO.N,Net-(R2-Pad1)*%
X53133600Y-111823200D03*
%TD*%
D11*
%TO.P,GND3,1,1*%
%TO.N,GND*%
X116992400Y-89458800D03*
%TD*%
D14*
%TO.P,C12,1*%
%TO.N,Net-(U2-VI)*%
X70845923Y-113223200D03*
D11*
%TO.P,C12,2*%
%TO.N,GND*%
X75845923Y-113223200D03*
%TD*%
D19*
%TO.P,J3,1*%
%TO.N,Net-(Q1-D)*%
X59913600Y-132323200D03*
D20*
%TO.P,J3,2*%
%TO.N,GND*%
X53613600Y-132323200D03*
D21*
%TO.P,J3,3*%
%TO.N,N/C*%
X57013600Y-137123200D03*
%TD*%
D12*
%TO.P,H1,1,1*%
%TO.N,GND*%
X48412400Y-144221200D03*
D13*
X48412400Y-144221200D03*
%TD*%
D11*
%TO.P,FB2,1*%
%TO.N,-12V*%
X95288600Y-121723200D03*
D22*
%TO.P,FB2,2*%
%TO.N,Net-(U2-VO)*%
X110528600Y-121723200D03*
%TD*%
D11*
%TO.P,FB1,1*%
%TO.N,Net-(U2-VI)*%
X97166524Y-135718600D03*
D22*
%TO.P,FB1,2*%
%TO.N,+12V*%
X81926524Y-135718600D03*
%TD*%
D23*
%TO.P,U1,1,+*%
%TO.N,Net-(U1-+)*%
X85734000Y-94951300D03*
D24*
%TO.P,U1,2,-*%
%TO.N,Net-(U1--)*%
X87434000Y-91251300D03*
%TO.P,U1,3,V-*%
%TO.N,-12V*%
X89134000Y-94951300D03*
%TO.P,U1,4*%
%TO.N,Net-(J2-Pin_2)*%
X90834000Y-91251300D03*
%TO.P,U1,5,V+*%
%TO.N,+12V*%
X92534000Y-94951300D03*
%TD*%
D12*
%TO.P,H2,1,1*%
%TO.N,GND*%
X48793400Y-82321400D03*
D13*
X48793400Y-82321400D03*
%TD*%
D14*
%TO.P,C15,1*%
%TO.N,GND*%
X97345923Y-113223200D03*
D11*
%TO.P,C15,2*%
%TO.N,Net-(U2-VO)*%
X102345923Y-113223200D03*
%TD*%
D25*
%TO.N,GND*%
X107315000Y-111429800D03*
X90513600Y-125923200D03*
X87786000Y-80126100D03*
X94113600Y-96723200D03*
X91813600Y-110823200D03*
X116413600Y-118123200D03*
X57913600Y-89423200D03*
X80242200Y-80557900D03*
X103113600Y-95223200D03*
X107596924Y-142314200D03*
X55313600Y-112523200D03*
X74549000Y-121056400D03*
X113489724Y-140155200D03*
X66113600Y-82123200D03*
X62813600Y-95923200D03*
X85091524Y-127868600D03*
X108000800Y-80975200D03*
X109805000Y-145590800D03*
X70815200Y-92303600D03*
X85513600Y-89123200D03*
X90857600Y-99346300D03*
X81613600Y-114223200D03*
X70713600Y-88011000D03*
X80928000Y-89854300D03*
X106606324Y-131544600D03*
X73313600Y-87723200D03*
X113794524Y-136065800D03*
X68713600Y-117523200D03*
X61313600Y-87723200D03*
X79023000Y-88076300D03*
X93013600Y-107723200D03*
X91113600Y-119923200D03*
X93713600Y-93223200D03*
X96752200Y-80278500D03*
X111203724Y-140155200D03*
X79913600Y-107323200D03*
X107596924Y-143584200D03*
X83713600Y-106923200D03*
X107749324Y-140180600D03*
X112420400Y-96367600D03*
X55313600Y-92523200D03*
X113261124Y-144803400D03*
X109578124Y-140079000D03*
X62148000Y-133364600D03*
X69313600Y-137423200D03*
X49735600Y-129343600D03*
X112413600Y-116823200D03*
X113184924Y-142746000D03*
X53002200Y-141503400D03*
X49585400Y-111861552D03*
X99313600Y-132223200D03*
X77397400Y-91606900D03*
X98813600Y-88923200D03*
X101526324Y-138123200D03*
X108941524Y-118318600D03*
X83713600Y-98123200D03*
X74113600Y-93023200D03*
X61513600Y-100584000D03*
X110813600Y-112723200D03*
X90313600Y-89123200D03*
X97313600Y-87023200D03*
X65713600Y-141223200D03*
X110813600Y-115123200D03*
X49985600Y-134593600D03*
X118413600Y-116723200D03*
X47563600Y-102273200D03*
X93113600Y-115023200D03*
X111913200Y-145590800D03*
X107513600Y-104523200D03*
X97341524Y-121368600D03*
X59283600Y-140360400D03*
%TO.N,+12V*%
X66913600Y-120723200D03*
%TO.N,Net-(U1-+)*%
X68713600Y-94923200D03*
%TO.N,-12V*%
X65513600Y-125123200D03*
X77013600Y-125123200D03*
%TO.N,Net-(U1--)*%
X87370200Y-96766600D03*
%TO.N,Net-(U2-VI)*%
X90113600Y-130723200D03*
%TD*%
D26*
%TO.N,+12V*%
X66913600Y-120853000D02*
X66913600Y-120723200D01*
X66932300Y-120834300D02*
X66913600Y-120853000D01*
X76413600Y-108023200D02*
X82933500Y-101503300D01*
X66913600Y-114423200D02*
X73313600Y-108023200D01*
X82933500Y-101503300D02*
X85982000Y-101503300D01*
X73313600Y-108023200D02*
X76413600Y-108023200D01*
X85982000Y-101503300D02*
X92534000Y-94951300D01*
X66913600Y-120723200D02*
X66913600Y-114423200D01*
D27*
%TO.N,Net-(U1-+)*%
X85734000Y-94951300D02*
X68741700Y-94951300D01*
X68741700Y-94951300D02*
X68713600Y-94923200D01*
%TO.N,-12V*%
X65513600Y-125123200D02*
X76913600Y-125123200D01*
%TO.N,Net-(U1--)*%
X87379600Y-96757200D02*
X87379600Y-90848500D01*
X87370200Y-96766600D02*
X87379600Y-96757200D01*
X87430400Y-90895700D02*
X87325200Y-91000900D01*
D26*
%TO.N,Net-(U2-VI)*%
X90113600Y-130723200D02*
X90013600Y-130723200D01*
X72513600Y-113223200D02*
X70845923Y-113223200D01*
X78713600Y-119423200D02*
X72513600Y-113223200D01*
X90013600Y-130723200D02*
X78713600Y-119423200D01*
%TD*%
%TA.AperFunction,Conductor*%
%TO.N,GND*%
G36*
X119152628Y-146108675D02*
G01*
X119152629Y-146108675D01*
X119284427Y-145953511D01*
X119284438Y-145953497D01*
X119488281Y-145652851D01*
X119488283Y-145652847D01*
X119658438Y-145331902D01*
X119658447Y-145331884D01*
X119792897Y-144994439D01*
X119793420Y-144992889D01*
X119793641Y-144992572D01*
X119794144Y-144991311D01*
X119794441Y-144991429D01*
X119833484Y-144935647D01*
X119898135Y-144909152D01*
X119966847Y-144921815D01*
X120017806Y-144969617D01*
X120034927Y-145032215D01*
X120040123Y-147373355D01*
X120020587Y-147440438D01*
X119967885Y-147486310D01*
X119915954Y-147497630D01*
X117054374Y-147493729D01*
X116987361Y-147473953D01*
X116941679Y-147421087D01*
X116931829Y-147351915D01*
X116960941Y-147288399D01*
X117019770Y-147250704D01*
X117041136Y-147246456D01*
X117156364Y-147233924D01*
X117511138Y-147155832D01*
X117855389Y-147039840D01*
X117855394Y-147039839D01*
X118185064Y-146887316D01*
X118185077Y-146887309D01*
X118496317Y-146700043D01*
X118496333Y-146700032D01*
X118785529Y-146480192D01*
X118801710Y-146464864D01*
X118801710Y-146464863D01*
X117557780Y-145220933D01*
X117748470Y-145058070D01*
X117911333Y-144867380D01*
X119152628Y-146108675D01*
G37*
%TD.AperFunction*%
%TA.AperFunction,Conductor*%
G36*
X119764360Y-78841515D02*
G01*
X119831384Y-78861245D01*
X119877103Y-78914080D01*
X119888274Y-78965240D01*
X119893586Y-81358437D01*
X119874050Y-81425520D01*
X119821348Y-81471392D01*
X119752211Y-81481489D01*
X119688591Y-81452605D01*
X119654393Y-81404609D01*
X119529247Y-81090515D01*
X119529238Y-81090497D01*
X119359083Y-80769552D01*
X119359081Y-80769548D01*
X119155229Y-80468890D01*
X119155222Y-80468880D01*
X119023429Y-80313723D01*
X119023428Y-80313723D01*
X117782132Y-81555018D01*
X117619270Y-81364330D01*
X117428580Y-81201466D01*
X118672510Y-79957536D01*
X118672510Y-79957534D01*
X118656329Y-79942207D01*
X118656328Y-79942206D01*
X118367133Y-79722367D01*
X118367117Y-79722356D01*
X118055877Y-79535090D01*
X118055864Y-79535083D01*
X117726194Y-79382560D01*
X117726189Y-79382559D01*
X117381938Y-79266567D01*
X117027164Y-79188475D01*
X116666033Y-79149200D01*
X116302766Y-79149200D01*
X115941635Y-79188475D01*
X115586861Y-79266567D01*
X115242610Y-79382559D01*
X115242605Y-79382560D01*
X114912935Y-79535083D01*
X114912922Y-79535090D01*
X114601682Y-79722356D01*
X114601666Y-79722367D01*
X114312475Y-79942202D01*
X114296288Y-79957535D01*
X114296287Y-79957535D01*
X115540219Y-81201466D01*
X115349530Y-81364330D01*
X115186666Y-81555018D01*
X113945370Y-80313722D01*
X113945369Y-80313723D01*
X113813577Y-80468880D01*
X113813570Y-80468890D01*
X113609718Y-80769548D01*
X113609716Y-80769552D01*
X113439561Y-81090497D01*
X113439552Y-81090515D01*
X113305097Y-81427972D01*
X113305095Y-81427979D01*
X113207919Y-81777977D01*
X113207917Y-81777985D01*
X113149146Y-82136471D01*
X113129480Y-82499197D01*
X113129480Y-82499202D01*
X113149146Y-82861928D01*
X113207917Y-83220414D01*
X113207919Y-83220422D01*
X113305095Y-83570420D01*
X113305097Y-83570427D01*
X113439552Y-83907884D01*
X113439561Y-83907902D01*
X113609716Y-84228847D01*
X113609718Y-84228851D01*
X113813570Y-84529509D01*
X113813577Y-84529519D01*
X113945369Y-84684675D01*
X113945370Y-84684675D01*
X115186666Y-83443380D01*
X115349530Y-83634070D01*
X115540218Y-83796932D01*
X114296288Y-85040862D01*
X114296288Y-85040864D01*
X114312470Y-85056192D01*
X114312471Y-85056193D01*
X114601666Y-85276032D01*
X114601682Y-85276043D01*
X114912922Y-85463309D01*
X114912935Y-85463316D01*
X115242605Y-85615839D01*
X115242610Y-85615840D01*
X115586861Y-85731832D01*
X115941635Y-85809924D01*
X116302766Y-85849199D01*
X116302774Y-85849200D01*
X116666026Y-85849200D01*
X116666033Y-85849199D01*
X117027164Y-85809924D01*
X117381938Y-85731832D01*
X117726189Y-85615840D01*
X117726194Y-85615839D01*
X118055864Y-85463316D01*
X118055877Y-85463309D01*
X118367117Y-85276043D01*
X118367133Y-85276032D01*
X118656329Y-85056192D01*
X118672510Y-85040864D01*
X118672510Y-85040863D01*
X117428580Y-83796933D01*
X117619270Y-83634070D01*
X117782133Y-83443380D01*
X119023428Y-84684675D01*
X119023429Y-84684675D01*
X119155227Y-84529511D01*
X119155238Y-84529497D01*
X119359081Y-84228851D01*
X119359083Y-84228847D01*
X119529238Y-83907902D01*
X119529247Y-83907884D01*
X119659428Y-83581152D01*
X119702528Y-83526160D01*
X119768517Y-83503199D01*
X119836444Y-83519560D01*
X119884743Y-83570048D01*
X119898621Y-83626774D01*
X120029973Y-142800474D01*
X120010437Y-142867557D01*
X119957735Y-142913429D01*
X119888598Y-142923526D01*
X119824978Y-142894642D01*
X119790780Y-142846646D01*
X119658447Y-142514515D01*
X119658438Y-142514497D01*
X119488283Y-142193550D01*
X119488281Y-142193548D01*
X119284429Y-141892890D01*
X119284422Y-141892880D01*
X119152629Y-141737723D01*
X119152628Y-141737723D01*
X117911332Y-142979018D01*
X117748470Y-142788330D01*
X117557780Y-142625466D01*
X118801710Y-141381536D01*
X118801710Y-141381534D01*
X118785529Y-141366207D01*
X118785528Y-141366206D01*
X118496333Y-141146367D01*
X118496317Y-141146356D01*
X118185077Y-140959090D01*
X118185064Y-140959083D01*
X117855394Y-140806560D01*
X117855389Y-140806559D01*
X117511138Y-140690567D01*
X117156364Y-140612475D01*
X116795233Y-140573200D01*
X116431966Y-140573200D01*
X116070835Y-140612475D01*
X115716061Y-140690567D01*
X115371810Y-140806559D01*
X115371805Y-140806560D01*
X115042135Y-140959083D01*
X115042122Y-140959090D01*
X114730882Y-141146356D01*
X114730866Y-141146367D01*
X114441675Y-141366202D01*
X114425488Y-141381535D01*
X114425487Y-141381535D01*
X115669419Y-142625466D01*
X115478730Y-142788330D01*
X115315866Y-142979018D01*
X114074570Y-141737722D01*
X114074569Y-141737723D01*
X113942777Y-141892880D01*
X113942770Y-141892890D01*
X113738918Y-142193548D01*
X113738917Y-142193550D01*
X113568761Y-142514497D01*
X113568752Y-142514515D01*
X113434297Y-142851972D01*
X113434295Y-142851979D01*
X113337119Y-143201977D01*
X113337117Y-143201985D01*
X113278346Y-143560471D01*
X113258680Y-143923197D01*
X113258680Y-143923202D01*
X113278346Y-144285928D01*
X113337117Y-144644414D01*
X113337119Y-144644422D01*
X113434295Y-144994420D01*
X113434297Y-144994427D01*
X113568752Y-145331884D01*
X113568761Y-145331902D01*
X113738916Y-145652847D01*
X113738918Y-145652851D01*
X113942770Y-145953509D01*
X113942777Y-145953519D01*
X114074569Y-146108675D01*
X114074570Y-146108675D01*
X115315866Y-144867380D01*
X115478730Y-145058070D01*
X115669418Y-145220932D01*
X114425488Y-146464862D01*
X114425488Y-146464864D01*
X114441670Y-146480192D01*
X114441671Y-146480193D01*
X114730866Y-146700032D01*
X114730882Y-146700043D01*
X115042122Y-146887309D01*
X115042135Y-146887316D01*
X115371805Y-147039839D01*
X115371810Y-147039840D01*
X115716061Y-147155832D01*
X116070835Y-147233924D01*
X116174866Y-147245238D01*
X116239385Y-147272055D01*
X116279162Y-147329496D01*
X116281570Y-147399324D01*
X116245844Y-147459370D01*
X116183327Y-147490568D01*
X116161291Y-147492511D01*
X50069497Y-147402406D01*
X50002484Y-147382630D01*
X49956802Y-147329764D01*
X49946952Y-147260592D01*
X49976064Y-147197076D01*
X50005738Y-147172155D01*
X50295130Y-146998034D01*
X50295133Y-146998032D01*
X50584329Y-146778192D01*
X50600510Y-146762864D01*
X50600510Y-146762863D01*
X49356580Y-145518933D01*
X49547270Y-145356070D01*
X49710133Y-145165380D01*
X50951428Y-146406675D01*
X50951429Y-146406675D01*
X51083227Y-146251511D01*
X51083238Y-146251497D01*
X51287083Y-145950850D01*
X51287083Y-145950847D01*
X51457238Y-145629902D01*
X51457247Y-145629884D01*
X51591702Y-145292427D01*
X51591704Y-145292420D01*
X51688880Y-144942422D01*
X51688882Y-144942414D01*
X51747653Y-144583928D01*
X51767320Y-144221202D01*
X51767320Y-144221197D01*
X51762007Y-144123205D01*
X52608459Y-144123205D01*
X52628985Y-144370929D01*
X52628987Y-144370938D01*
X52690012Y-144611917D01*
X52789866Y-144839564D01*
X52890164Y-144993082D01*
X53630523Y-144252723D01*
X53654107Y-144333044D01*
X53731839Y-144453998D01*
X53840500Y-144548152D01*
X53971285Y-144607880D01*
X53981066Y-144609286D01*
X53243542Y-145346809D01*
X53290368Y-145383255D01*
X53290370Y-145383256D01*
X53508985Y-145501564D01*
X53508996Y-145501569D01*
X53744106Y-145582283D01*
X53989307Y-145623200D01*
X54237893Y-145623200D01*
X54483093Y-145582283D01*
X54718203Y-145501569D01*
X54718214Y-145501564D01*
X54936828Y-145383257D01*
X54936831Y-145383255D01*
X54983656Y-145346809D01*
X54246133Y-144609286D01*
X54255915Y-144607880D01*
X54386700Y-144548152D01*
X54495361Y-144453998D01*
X54573093Y-144333044D01*
X54596676Y-144252724D01*
X55337034Y-144993082D01*
X55437331Y-144839569D01*
X55537187Y-144611917D01*
X55598212Y-144370938D01*
X55598214Y-144370929D01*
X55618741Y-144123205D01*
X55618741Y-144123194D01*
X55598214Y-143875470D01*
X55598212Y-143875461D01*
X55537187Y-143634482D01*
X55437331Y-143406830D01*
X55337034Y-143253316D01*
X54596676Y-143993675D01*
X54573093Y-143913356D01*
X54495361Y-143792402D01*
X54386700Y-143698248D01*
X54255915Y-143638520D01*
X54246134Y-143637113D01*
X54983657Y-142899590D01*
X54983656Y-142899589D01*
X54936829Y-142863143D01*
X54718214Y-142744835D01*
X54718203Y-142744830D01*
X54573066Y-142695004D01*
X99066893Y-142695004D01*
X99086588Y-142957823D01*
X99144786Y-143212806D01*
X99145237Y-143214780D01*
X99241528Y-143460124D01*
X99373309Y-143688376D01*
X99456267Y-143792402D01*
X99537641Y-143894442D01*
X99651057Y-143999676D01*
X99730843Y-144073706D01*
X99948609Y-144222176D01*
X100186070Y-144336532D01*
X100437924Y-144414218D01*
X100437925Y-144414218D01*
X100437928Y-144414219D01*
X100698535Y-144453499D01*
X100698540Y-144453499D01*
X100698543Y-144453500D01*
X100698544Y-144453500D01*
X100962104Y-144453500D01*
X100962105Y-144453500D01*
X100962112Y-144453499D01*
X101222719Y-144414219D01*
X101222720Y-144414218D01*
X101222724Y-144414218D01*
X101474578Y-144336532D01*
X101712040Y-144222176D01*
X101929805Y-144073706D01*
X102123010Y-143894438D01*
X102287339Y-143688376D01*
X102419120Y-143460124D01*
X102515411Y-143214780D01*
X102574059Y-142957826D01*
X102588135Y-142769995D01*
X102593755Y-142695004D01*
X102593755Y-142694995D01*
X102593006Y-142685004D01*
X108595417Y-142685004D01*
X108615016Y-142946545D01*
X108615017Y-142946550D01*
X108673382Y-143202270D01*
X108769207Y-143446426D01*
X108769206Y-143446426D01*
X108900351Y-143673573D01*
X108948198Y-143733571D01*
X109710183Y-142971586D01*
X109770004Y-143085566D01*
X109882729Y-143212806D01*
X110022629Y-143309371D01*
X110063865Y-143325010D01*
X109301154Y-144087720D01*
X109472870Y-144204793D01*
X109472874Y-144204795D01*
X109709178Y-144318594D01*
X109709182Y-144318595D01*
X109959818Y-144395907D01*
X109959824Y-144395909D01*
X110219172Y-144434999D01*
X110219181Y-144435000D01*
X110481467Y-144435000D01*
X110481475Y-144434999D01*
X110740823Y-144395909D01*
X110740829Y-144395907D01*
X110991467Y-144318595D01*
X111227769Y-144204798D01*
X111227771Y-144204797D01*
X111399492Y-144087720D01*
X110636781Y-143325010D01*
X110678019Y-143309371D01*
X110817919Y-143212806D01*
X110930644Y-143085566D01*
X110990464Y-142971587D01*
X111752449Y-143733572D01*
X111800295Y-143673573D01*
X111931440Y-143446426D01*
X112027265Y-143202270D01*
X112085630Y-142946550D01*
X112085631Y-142946545D01*
X112105231Y-142685004D01*
X112105231Y-142684995D01*
X112085631Y-142423454D01*
X112085630Y-142423449D01*
X112027265Y-142167729D01*
X111931440Y-141923573D01*
X111931441Y-141923573D01*
X111800296Y-141696426D01*
X111752448Y-141636427D01*
X110990463Y-142398412D01*
X110930644Y-142284434D01*
X110817919Y-142157194D01*
X110678019Y-142060629D01*
X110636781Y-142044989D01*
X111399492Y-141282278D01*
X111227778Y-141165206D01*
X111227769Y-141165201D01*
X110991466Y-141051404D01*
X110991468Y-141051404D01*
X110740829Y-140974092D01*
X110740823Y-140974090D01*
X110481475Y-140935000D01*
X110219172Y-140935000D01*
X109959824Y-140974090D01*
X109959818Y-140974092D01*
X109709182Y-141051404D01*
X109709178Y-141051405D01*
X109472871Y-141165205D01*
X109472863Y-141165210D01*
X109301154Y-141282277D01*
X110063866Y-142044989D01*
X110022629Y-142060629D01*
X109882729Y-142157194D01*
X109770004Y-142284434D01*
X109710184Y-142398412D01*
X108948199Y-141636427D01*
X108948198Y-141636427D01*
X108900352Y-141696425D01*
X108769207Y-141923573D01*
X108673382Y-142167729D01*
X108615017Y-142423449D01*
X108615016Y-142423454D01*
X108595417Y-142684995D01*
X108595417Y-142685004D01*
X102593006Y-142685004D01*
X102574059Y-142432176D01*
X102574059Y-142432174D01*
X102515411Y-142175220D01*
X102419120Y-141929876D01*
X102287339Y-141701624D01*
X102123010Y-141495562D01*
X102123009Y-141495561D01*
X102123006Y-141495557D01*
X101929805Y-141316294D01*
X101842969Y-141257090D01*
X101712040Y-141167824D01*
X101712036Y-141167822D01*
X101712035Y-141167821D01*
X101580669Y-141104559D01*
X101474578Y-141053468D01*
X101474572Y-141053466D01*
X101474564Y-141053463D01*
X101222729Y-140975783D01*
X101222719Y-140975780D01*
X100962112Y-140936500D01*
X100962105Y-140936500D01*
X100698543Y-140936500D01*
X100698535Y-140936500D01*
X100437928Y-140975780D01*
X100437922Y-140975782D01*
X100186069Y-141053468D01*
X99948612Y-141167822D01*
X99948608Y-141167824D01*
X99730845Y-141316292D01*
X99537641Y-141495557D01*
X99373309Y-141701624D01*
X99241528Y-141929875D01*
X99145239Y-142175214D01*
X99145234Y-142175231D01*
X99086588Y-142432176D01*
X99066893Y-142694995D01*
X99066893Y-142695004D01*
X54573066Y-142695004D01*
X54483093Y-142664116D01*
X54237893Y-142623200D01*
X53989307Y-142623200D01*
X53744106Y-142664116D01*
X53508996Y-142744830D01*
X53508990Y-142744832D01*
X53290361Y-142863149D01*
X53243542Y-142899588D01*
X53243542Y-142899590D01*
X53981066Y-143637113D01*
X53971285Y-143638520D01*
X53840500Y-143698248D01*
X53731839Y-143792402D01*
X53654107Y-143913356D01*
X53630523Y-143993675D01*
X52890164Y-143253316D01*
X52789867Y-143406832D01*
X52690012Y-143634482D01*
X52628987Y-143875461D01*
X52628985Y-143875470D01*
X52608459Y-144123194D01*
X52608459Y-144123205D01*
X51762007Y-144123205D01*
X51747653Y-143858471D01*
X51688882Y-143499985D01*
X51688880Y-143499977D01*
X51591704Y-143149979D01*
X51591702Y-143149972D01*
X51457247Y-142812515D01*
X51457238Y-142812497D01*
X51287083Y-142491552D01*
X51287081Y-142491548D01*
X51083229Y-142190890D01*
X51083222Y-142190880D01*
X50951429Y-142035723D01*
X50951428Y-142035723D01*
X49710132Y-143277018D01*
X49547270Y-143086330D01*
X49356580Y-142923466D01*
X50600510Y-141679536D01*
X50600510Y-141679534D01*
X50584329Y-141664207D01*
X50584328Y-141664206D01*
X50295133Y-141444367D01*
X50295117Y-141444356D01*
X49983877Y-141257090D01*
X49983864Y-141257083D01*
X49654194Y-141104560D01*
X49654189Y-141104559D01*
X49309938Y-140988567D01*
X49012974Y-140923200D01*
X69300435Y-140923200D01*
X69319065Y-141159914D01*
X69374495Y-141390795D01*
X69374495Y-141390797D01*
X69465357Y-141610159D01*
X69465359Y-141610162D01*
X69589420Y-141812610D01*
X69589421Y-141812613D01*
X69589424Y-141812616D01*
X69743631Y-141993169D01*
X69883397Y-142112540D01*
X69924186Y-142147378D01*
X69924188Y-142147378D01*
X69999533Y-142193550D01*
X70126637Y-142271440D01*
X70126640Y-142271442D01*
X70346003Y-142362304D01*
X70346004Y-142362304D01*
X70346006Y-142362305D01*
X70576889Y-142417735D01*
X70813600Y-142436365D01*
X71050311Y-142417735D01*
X71281194Y-142362305D01*
X71281196Y-142362304D01*
X71281197Y-142362304D01*
X71500559Y-142271442D01*
X71500560Y-142271441D01*
X71500563Y-142271440D01*
X71703016Y-142147376D01*
X71883569Y-141993169D01*
X72037776Y-141812616D01*
X72161840Y-141610163D01*
X72230515Y-141444367D01*
X72252704Y-141390797D01*
X72252704Y-141390796D01*
X72252705Y-141390794D01*
X72308135Y-141159911D01*
X72326765Y-140923200D01*
X77000435Y-140923200D01*
X77019065Y-141159914D01*
X77074495Y-141390795D01*
X77074495Y-141390797D01*
X77165357Y-141610159D01*
X77165359Y-141610162D01*
X77289420Y-141812610D01*
X77289421Y-141812613D01*
X77289424Y-141812616D01*
X77443631Y-141993169D01*
X77583397Y-142112540D01*
X77624186Y-142147378D01*
X77624188Y-142147378D01*
X77699533Y-142193550D01*
X77826637Y-142271440D01*
X77826640Y-142271442D01*
X78046003Y-142362304D01*
X78046004Y-142362304D01*
X78046006Y-142362305D01*
X78276889Y-142417735D01*
X78513600Y-142436365D01*
X78750311Y-142417735D01*
X78981194Y-142362305D01*
X78981196Y-142362304D01*
X78981197Y-142362304D01*
X79200559Y-142271442D01*
X79200560Y-142271441D01*
X79200563Y-142271440D01*
X79403016Y-142147376D01*
X79583569Y-141993169D01*
X79737776Y-141812616D01*
X79861840Y-141610163D01*
X79930515Y-141444367D01*
X79952704Y-141390797D01*
X79952704Y-141390796D01*
X79952705Y-141390794D01*
X80008135Y-141159911D01*
X80026765Y-140923205D01*
X87108459Y-140923205D01*
X87128985Y-141170929D01*
X87128987Y-141170938D01*
X87190012Y-141411917D01*
X87289866Y-141639564D01*
X87390164Y-141793082D01*
X88130523Y-141052723D01*
X88154107Y-141133044D01*
X88231839Y-141253998D01*
X88340500Y-141348152D01*
X88471285Y-141407880D01*
X88481066Y-141409286D01*
X87743542Y-142146809D01*
X87790368Y-142183255D01*
X87790370Y-142183256D01*
X88008985Y-142301564D01*
X88008996Y-142301569D01*
X88244106Y-142382283D01*
X88489307Y-142423200D01*
X88737893Y-142423200D01*
X88983093Y-142382283D01*
X89218203Y-142301569D01*
X89218214Y-142301564D01*
X89436828Y-142183257D01*
X89436831Y-142183255D01*
X89483656Y-142146809D01*
X88746133Y-141409286D01*
X88755915Y-141407880D01*
X88886700Y-141348152D01*
X88995361Y-141253998D01*
X89073093Y-141133044D01*
X89096676Y-141052724D01*
X89837034Y-141793082D01*
X89937331Y-141639569D01*
X90037187Y-141411917D01*
X90098212Y-141170938D01*
X90098214Y-141170929D01*
X90118741Y-140923205D01*
X90118741Y-140923194D01*
X90098214Y-140675470D01*
X90098212Y-140675461D01*
X90037187Y-140434482D01*
X89937331Y-140206830D01*
X89837034Y-140053316D01*
X89096676Y-140793675D01*
X89073093Y-140713356D01*
X88995361Y-140592402D01*
X88886700Y-140498248D01*
X88755915Y-140438520D01*
X88746134Y-140437113D01*
X89483657Y-139699590D01*
X89483656Y-139699589D01*
X89436829Y-139663143D01*
X89218214Y-139544835D01*
X89218203Y-139544830D01*
X88983093Y-139464116D01*
X88737893Y-139423200D01*
X88489307Y-139423200D01*
X88244106Y-139464116D01*
X88008996Y-139544830D01*
X88008990Y-139544832D01*
X87790361Y-139663149D01*
X87743542Y-139699588D01*
X87743542Y-139699590D01*
X88481066Y-140437113D01*
X88471285Y-140438520D01*
X88340500Y-140498248D01*
X88231839Y-140592402D01*
X88154107Y-140713356D01*
X88130523Y-140793675D01*
X87390164Y-140053316D01*
X87289867Y-140206832D01*
X87190012Y-140434482D01*
X87128987Y-140675461D01*
X87128985Y-140675470D01*
X87108459Y-140923194D01*
X87108459Y-140923205D01*
X80026765Y-140923205D01*
X80026765Y-140923200D01*
X80008135Y-140686489D01*
X79952705Y-140455606D01*
X79952704Y-140455603D01*
X79952704Y-140455602D01*
X79861842Y-140236240D01*
X79861840Y-140236237D01*
X79737779Y-140033789D01*
X79737778Y-140033786D01*
X79702940Y-139992997D01*
X79583569Y-139853231D01*
X79403678Y-139699589D01*
X79403013Y-139699021D01*
X79403010Y-139699020D01*
X79200562Y-139574959D01*
X79200559Y-139574957D01*
X78981196Y-139484095D01*
X78750314Y-139428665D01*
X78513600Y-139410035D01*
X78276885Y-139428665D01*
X78046004Y-139484095D01*
X78046002Y-139484095D01*
X77826640Y-139574957D01*
X77826637Y-139574959D01*
X77624189Y-139699020D01*
X77624186Y-139699021D01*
X77443631Y-139853231D01*
X77289421Y-140033786D01*
X77289420Y-140033789D01*
X77165359Y-140236237D01*
X77165357Y-140236240D01*
X77074495Y-140455602D01*
X77074495Y-140455604D01*
X77019065Y-140686485D01*
X77000435Y-140923200D01*
X72326765Y-140923200D01*
X72308135Y-140686489D01*
X72252705Y-140455606D01*
X72252704Y-140455603D01*
X72252704Y-140455602D01*
X72161842Y-140236240D01*
X72161840Y-140236237D01*
X72037779Y-140033789D01*
X72037778Y-140033786D01*
X72002940Y-139992997D01*
X71883569Y-139853231D01*
X71703678Y-139699589D01*
X71703013Y-139699021D01*
X71703010Y-139699020D01*
X71500562Y-139574959D01*
X71500559Y-139574957D01*
X71281196Y-139484095D01*
X71050314Y-139428665D01*
X70813600Y-139410035D01*
X70576885Y-139428665D01*
X70346004Y-139484095D01*
X70346002Y-139484095D01*
X70126640Y-139574957D01*
X70126637Y-139574959D01*
X69924189Y-139699020D01*
X69924186Y-139699021D01*
X69743631Y-139853231D01*
X69589421Y-140033786D01*
X69589420Y-140033789D01*
X69465359Y-140236237D01*
X69465357Y-140236240D01*
X69374495Y-140455602D01*
X69374495Y-140455604D01*
X69319065Y-140686485D01*
X69300435Y-140923200D01*
X49012974Y-140923200D01*
X48955164Y-140910475D01*
X48594033Y-140871200D01*
X48230766Y-140871200D01*
X47869635Y-140910475D01*
X47514861Y-140988567D01*
X47170610Y-141104559D01*
X47170605Y-141104560D01*
X46840935Y-141257083D01*
X46840922Y-141257090D01*
X46529682Y-141444356D01*
X46529666Y-141444367D01*
X46240475Y-141664202D01*
X46224288Y-141679535D01*
X46224287Y-141679535D01*
X47468219Y-142923466D01*
X47277530Y-143086330D01*
X47114666Y-143277018D01*
X45873370Y-142035722D01*
X45873369Y-142035723D01*
X45741577Y-142190880D01*
X45741569Y-142190891D01*
X45723997Y-142216807D01*
X45670082Y-142261247D01*
X45600699Y-142269483D01*
X45537878Y-142238900D01*
X45501564Y-142179209D01*
X45497368Y-142147685D01*
X45478991Y-137184133D01*
X54401418Y-137184133D01*
X54430776Y-137425921D01*
X54498537Y-137659856D01*
X54498538Y-137659859D01*
X54602951Y-137879907D01*
X54741307Y-138080348D01*
X54741308Y-138080349D01*
X54910022Y-138256000D01*
X55104729Y-138402313D01*
X55104731Y-138402314D01*
X55104735Y-138402317D01*
X55217034Y-138461256D01*
X55320392Y-138515503D01*
X55320394Y-138515503D01*
X55320395Y-138515504D01*
X55435906Y-138554067D01*
X55551417Y-138592631D01*
X55791818Y-138631700D01*
X55791821Y-138631700D01*
X58174387Y-138631700D01*
X58174397Y-138631700D01*
X58356368Y-138617010D01*
X58592848Y-138558723D01*
X58816916Y-138463256D01*
X59022768Y-138333083D01*
X59205074Y-138171575D01*
X59359110Y-137982914D01*
X59480889Y-137771987D01*
X59567256Y-137544257D01*
X59615974Y-137305621D01*
X59621935Y-137157704D01*
X59625781Y-137062267D01*
X59625781Y-137062261D01*
X59596423Y-136820478D01*
X59528662Y-136586543D01*
X59528661Y-136586538D01*
X59424250Y-136366496D01*
X59424249Y-136366495D01*
X59424248Y-136366492D01*
X59285892Y-136166051D01*
X59285891Y-136166050D01*
X59117177Y-135990399D01*
X58922470Y-135844086D01*
X58922466Y-135844083D01*
X58922465Y-135844083D01*
X58895646Y-135830007D01*
X58706807Y-135730896D01*
X58706803Y-135730895D01*
X58669975Y-135718600D01*
X80413359Y-135718600D01*
X80431989Y-135955314D01*
X80487419Y-136186195D01*
X80487419Y-136186197D01*
X80578281Y-136405559D01*
X80578283Y-136405562D01*
X80702344Y-136608010D01*
X80702345Y-136608013D01*
X80702348Y-136608016D01*
X80856555Y-136788569D01*
X80996321Y-136907940D01*
X81037110Y-136942778D01*
X81037113Y-136942779D01*
X81239561Y-137066840D01*
X81239564Y-137066842D01*
X81458927Y-137157704D01*
X81458928Y-137157704D01*
X81458930Y-137157705D01*
X81689813Y-137213135D01*
X81926524Y-137231765D01*
X82163235Y-137213135D01*
X82394118Y-137157705D01*
X82394120Y-137157704D01*
X82394121Y-137157704D01*
X82613483Y-137066842D01*
X82613484Y-137066841D01*
X82613487Y-137066840D01*
X82815940Y-136942776D01*
X82996493Y-136788569D01*
X83150700Y-136608016D01*
X83274764Y-136405563D01*
X83333615Y-136263485D01*
X83365628Y-136186197D01*
X83365628Y-136186196D01*
X83365629Y-136186194D01*
X83421059Y-135955311D01*
X83439689Y-135718600D01*
X95653359Y-135718600D01*
X95671989Y-135955314D01*
X95727419Y-136186195D01*
X95727419Y-136186197D01*
X95818281Y-136405559D01*
X95818283Y-136405562D01*
X95942344Y-136608010D01*
X95942345Y-136608013D01*
X95942348Y-136608016D01*
X96096555Y-136788569D01*
X96236321Y-136907940D01*
X96277110Y-136942778D01*
X96277113Y-136942779D01*
X96479561Y-137066840D01*
X96479564Y-137066842D01*
X96698927Y-137157704D01*
X96698928Y-137157704D01*
X96698930Y-137157705D01*
X96929813Y-137213135D01*
X97166524Y-137231765D01*
X97403235Y-137213135D01*
X97634118Y-137157705D01*
X97634120Y-137157704D01*
X97634121Y-137157704D01*
X97853483Y-137066842D01*
X97853484Y-137066841D01*
X97853487Y-137066840D01*
X98055940Y-136942776D01*
X98236493Y-136788569D01*
X98390700Y-136608016D01*
X98514764Y-136405563D01*
X98573615Y-136263485D01*
X98605628Y-136186197D01*
X98605628Y-136186196D01*
X98605629Y-136186194D01*
X98661059Y-135955311D01*
X98679689Y-135718600D01*
X98661059Y-135481889D01*
X98605629Y-135251006D01*
X98605628Y-135251003D01*
X98605628Y-135251002D01*
X98514766Y-135031640D01*
X98514764Y-135031637D01*
X98390703Y-134829189D01*
X98390702Y-134829186D01*
X98256327Y-134671854D01*
X98236493Y-134648631D01*
X98098265Y-134530573D01*
X98055937Y-134494421D01*
X98055934Y-134494420D01*
X97853486Y-134370359D01*
X97853483Y-134370357D01*
X97634120Y-134279495D01*
X97403238Y-134224065D01*
X97166524Y-134205435D01*
X96929809Y-134224065D01*
X96698928Y-134279495D01*
X96698926Y-134279495D01*
X96479564Y-134370357D01*
X96479561Y-134370359D01*
X96277113Y-134494420D01*
X96277110Y-134494421D01*
X96096555Y-134648631D01*
X95942345Y-134829186D01*
X95942344Y-134829189D01*
X95818283Y-135031637D01*
X95818281Y-135031640D01*
X95727419Y-135251002D01*
X95727419Y-135251004D01*
X95671989Y-135481885D01*
X95653359Y-135718600D01*
X83439689Y-135718600D01*
X83421059Y-135481889D01*
X83365629Y-135251006D01*
X83365628Y-135251003D01*
X83365628Y-135251002D01*
X83274766Y-135031640D01*
X83274764Y-135031637D01*
X83150703Y-134829189D01*
X83150702Y-134829186D01*
X83016327Y-134671854D01*
X82996493Y-134648631D01*
X82858265Y-134530573D01*
X82815937Y-134494421D01*
X82815934Y-134494420D01*
X82613486Y-134370359D01*
X82613483Y-134370357D01*
X82394120Y-134279495D01*
X82163238Y-134224065D01*
X81926524Y-134205435D01*
X81689809Y-134224065D01*
X81458928Y-134279495D01*
X81458926Y-134279495D01*
X81239564Y-134370357D01*
X81239561Y-134370359D01*
X81037113Y-134494420D01*
X81037110Y-134494421D01*
X80856555Y-134648631D01*
X80702345Y-134829186D01*
X80702344Y-134829189D01*
X80578283Y-135031637D01*
X80578281Y-135031640D01*
X80487419Y-135251002D01*
X80487419Y-135251004D01*
X80431989Y-135481885D01*
X80413359Y-135718600D01*
X58669975Y-135718600D01*
X58475782Y-135653768D01*
X58235382Y-135614700D01*
X58235379Y-135614700D01*
X55852803Y-135614700D01*
X55852793Y-135614700D01*
X55670832Y-135629389D01*
X55434349Y-135687677D01*
X55210292Y-135783139D01*
X55210284Y-135783143D01*
X55210284Y-135783144D01*
X55004432Y-135913317D01*
X54822126Y-136074825D01*
X54822124Y-136074826D01*
X54822122Y-136074829D01*
X54668089Y-136263485D01*
X54668087Y-136263489D01*
X54546315Y-136474403D01*
X54546310Y-136474413D01*
X54459945Y-136702138D01*
X54411226Y-136940774D01*
X54411225Y-136940782D01*
X54401418Y-137184132D01*
X54401418Y-137184133D01*
X45478991Y-137184133D01*
X45465297Y-133485254D01*
X52113600Y-133485254D01*
X52128985Y-133670930D01*
X52128987Y-133670938D01*
X52190012Y-133911917D01*
X52289867Y-134139567D01*
X52425832Y-134347678D01*
X52594192Y-134530564D01*
X52594202Y-134530573D01*
X52790362Y-134683251D01*
X52790371Y-134683257D01*
X53008985Y-134801564D01*
X53008996Y-134801569D01*
X53244107Y-134882283D01*
X53363599Y-134902223D01*
X53363600Y-134902222D01*
X53363600Y-133856886D01*
X53403756Y-133882693D01*
X53541711Y-133923200D01*
X53685489Y-133923200D01*
X53823444Y-133882693D01*
X53863600Y-133856886D01*
X53863600Y-134902223D01*
X53983092Y-134882283D01*
X54218203Y-134801569D01*
X54218214Y-134801564D01*
X54436828Y-134683257D01*
X54436837Y-134683251D01*
X54451480Y-134671854D01*
X58405100Y-134671854D01*
X58411611Y-134732402D01*
X58411611Y-134732404D01*
X58447710Y-134829186D01*
X58462711Y-134869404D01*
X58550339Y-134986461D01*
X58667396Y-135074089D01*
X58804399Y-135125189D01*
X58831650Y-135128118D01*
X58864945Y-135131699D01*
X58864962Y-135131700D01*
X60962238Y-135131700D01*
X60962254Y-135131699D01*
X60989292Y-135128791D01*
X61022801Y-135125189D01*
X61159804Y-135074089D01*
X61276861Y-134986461D01*
X61364489Y-134869404D01*
X61415589Y-134732401D01*
X61419191Y-134698892D01*
X61422099Y-134671854D01*
X61422100Y-134671837D01*
X61422100Y-129974562D01*
X61422099Y-129974545D01*
X61417533Y-129932082D01*
X61415589Y-129913999D01*
X61364489Y-129776996D01*
X61276861Y-129659939D01*
X61159804Y-129572311D01*
X61022803Y-129521211D01*
X60962254Y-129514700D01*
X60962238Y-129514700D01*
X58864962Y-129514700D01*
X58864945Y-129514700D01*
X58804397Y-129521211D01*
X58804395Y-129521211D01*
X58667395Y-129572311D01*
X58550339Y-129659939D01*
X58462711Y-129776995D01*
X58411611Y-129913995D01*
X58411611Y-129913997D01*
X58405100Y-129974545D01*
X58405100Y-134671854D01*
X54451480Y-134671854D01*
X54632997Y-134530573D01*
X54633007Y-134530564D01*
X54801367Y-134347678D01*
X54937332Y-134139567D01*
X55037187Y-133911917D01*
X55098212Y-133670938D01*
X55098214Y-133670930D01*
X55113599Y-133485254D01*
X55113600Y-133485239D01*
X55113600Y-132573200D01*
X54113600Y-132573200D01*
X54113600Y-132073200D01*
X55113600Y-132073200D01*
X55113600Y-131161161D01*
X55113599Y-131161145D01*
X55098214Y-130975469D01*
X55098212Y-130975461D01*
X55037187Y-130734482D01*
X54937332Y-130506832D01*
X54801367Y-130298721D01*
X54633007Y-130115835D01*
X54632997Y-130115826D01*
X54436837Y-129963148D01*
X54436828Y-129963142D01*
X54218214Y-129844835D01*
X54218203Y-129844830D01*
X53983092Y-129764116D01*
X53863600Y-129744176D01*
X53863600Y-130789513D01*
X53823444Y-130763707D01*
X53685489Y-130723200D01*
X53541711Y-130723200D01*
X53403756Y-130763707D01*
X53363600Y-130789513D01*
X53363600Y-129744176D01*
X53363599Y-129744176D01*
X53244107Y-129764116D01*
X53008996Y-129844830D01*
X53008985Y-129844835D01*
X52790371Y-129963142D01*
X52790362Y-129963148D01*
X52594202Y-130115826D01*
X52594192Y-130115835D01*
X52425832Y-130298721D01*
X52289867Y-130506832D01*
X52190012Y-130734482D01*
X52128987Y-130975461D01*
X52128985Y-130975469D01*
X52113600Y-131161145D01*
X52113600Y-132073200D01*
X53113600Y-132073200D01*
X53113600Y-132573200D01*
X52113600Y-132573200D01*
X52113600Y-133485254D01*
X45465297Y-133485254D01*
X45460800Y-132270601D01*
X48809346Y-132270601D01*
X48819345Y-132480527D01*
X48868896Y-132684778D01*
X48868898Y-132684782D01*
X48956198Y-132875943D01*
X48956201Y-132875948D01*
X48956202Y-132875950D01*
X48956204Y-132875953D01*
X49019227Y-132964456D01*
X49078115Y-133047153D01*
X49078120Y-133047159D01*
X49230220Y-133192185D01*
X49325178Y-133253211D01*
X49407028Y-133305813D01*
X49602143Y-133383925D01*
X49705329Y-133403812D01*
X49808514Y-133423700D01*
X49808515Y-133423700D01*
X49966019Y-133423700D01*
X49966025Y-133423700D01*
X50122818Y-133408728D01*
X50324475Y-133349516D01*
X50511282Y-133253211D01*
X50676486Y-133123292D01*
X50814119Y-132964456D01*
X50919204Y-132782444D01*
X50987944Y-132583833D01*
X51017854Y-132375802D01*
X51007854Y-132165870D01*
X50958304Y-131961624D01*
X50958301Y-131961617D01*
X50871001Y-131770456D01*
X50870998Y-131770451D01*
X50870997Y-131770450D01*
X50870996Y-131770447D01*
X50749086Y-131599248D01*
X50749084Y-131599246D01*
X50749079Y-131599240D01*
X50596979Y-131454214D01*
X50420174Y-131340588D01*
X50225055Y-131262474D01*
X50018686Y-131222700D01*
X50018685Y-131222700D01*
X49861175Y-131222700D01*
X49704382Y-131237672D01*
X49704378Y-131237673D01*
X49502727Y-131296883D01*
X49315913Y-131393191D01*
X49150716Y-131523105D01*
X49150712Y-131523109D01*
X49013078Y-131681946D01*
X48907998Y-131863950D01*
X48839256Y-132062565D01*
X48839256Y-132062567D01*
X48824404Y-132165870D01*
X48809346Y-132270601D01*
X45460800Y-132270601D01*
X45434338Y-125123200D01*
X64600096Y-125123200D01*
X64620058Y-125313128D01*
X64620059Y-125313131D01*
X64679070Y-125494749D01*
X64679073Y-125494756D01*
X64774560Y-125660144D01*
X64902347Y-125802066D01*
X65056848Y-125914318D01*
X65231312Y-125991994D01*
X65418113Y-126031700D01*
X65609087Y-126031700D01*
X65795888Y-125991994D01*
X65970352Y-125914318D01*
X66124853Y-125802066D01*
X66128760Y-125797727D01*
X66188246Y-125761079D01*
X66220909Y-125756700D01*
X76306291Y-125756700D01*
X76373330Y-125776385D01*
X76398440Y-125797727D01*
X76402347Y-125802066D01*
X76556848Y-125914318D01*
X76731312Y-125991994D01*
X76918113Y-126031700D01*
X77109087Y-126031700D01*
X77295888Y-125991994D01*
X77470352Y-125914318D01*
X77624853Y-125802066D01*
X77752640Y-125660144D01*
X77848127Y-125494756D01*
X77907142Y-125313128D01*
X77927104Y-125123200D01*
X77907142Y-124933272D01*
X77848127Y-124751644D01*
X77752640Y-124586256D01*
X77624853Y-124444334D01*
X77470352Y-124332082D01*
X77295888Y-124254406D01*
X77295886Y-124254405D01*
X77109087Y-124214700D01*
X76918113Y-124214700D01*
X76731314Y-124254405D01*
X76556846Y-124332083D01*
X76402345Y-124444335D01*
X76398440Y-124448673D01*
X76338954Y-124485321D01*
X76306291Y-124489700D01*
X66220909Y-124489700D01*
X66153870Y-124470015D01*
X66128760Y-124448673D01*
X66124854Y-124444335D01*
X65970353Y-124332083D01*
X65970352Y-124332082D01*
X65795888Y-124254406D01*
X65795886Y-124254405D01*
X65609087Y-124214700D01*
X65418113Y-124214700D01*
X65231314Y-124254405D01*
X65056846Y-124332083D01*
X64902345Y-124444335D01*
X64774559Y-124586257D01*
X64679073Y-124751643D01*
X64679070Y-124751650D01*
X64620059Y-124933268D01*
X64620058Y-124933272D01*
X64600096Y-125123200D01*
X45434338Y-125123200D01*
X45418047Y-120723200D01*
X66000096Y-120723200D01*
X66020058Y-120913128D01*
X66020059Y-120913131D01*
X66079070Y-121094749D01*
X66079073Y-121094756D01*
X66174560Y-121260144D01*
X66302347Y-121402066D01*
X66456848Y-121514318D01*
X66631312Y-121591994D01*
X66818113Y-121631700D01*
X67009087Y-121631700D01*
X67195888Y-121591994D01*
X67370352Y-121514318D01*
X67524853Y-121402066D01*
X67652640Y-121260144D01*
X67748127Y-121094756D01*
X67807142Y-120913128D01*
X67827104Y-120723200D01*
X67807142Y-120533272D01*
X67748127Y-120351644D01*
X67692711Y-120255661D01*
X67676100Y-120193663D01*
X67676100Y-114790399D01*
X67695785Y-114723360D01*
X67712419Y-114702718D01*
X69125742Y-113289395D01*
X69187065Y-113255910D01*
X69256757Y-113260894D01*
X69312690Y-113302766D01*
X69337107Y-113368230D01*
X69337423Y-113377076D01*
X69337423Y-114271854D01*
X69343934Y-114332402D01*
X69343934Y-114332404D01*
X69386819Y-114447379D01*
X69395034Y-114469404D01*
X69482662Y-114586461D01*
X69599719Y-114674089D01*
X69698753Y-114711027D01*
X69731386Y-114723199D01*
X69736722Y-114725189D01*
X69763973Y-114728118D01*
X69797268Y-114731699D01*
X69797285Y-114731700D01*
X71894561Y-114731700D01*
X71894577Y-114731699D01*
X71921615Y-114728791D01*
X71955124Y-114725189D01*
X71960460Y-114723199D01*
X71977626Y-114716796D01*
X72092127Y-114674089D01*
X72209184Y-114586461D01*
X72296812Y-114469404D01*
X72333879Y-114370022D01*
X72375750Y-114314092D01*
X72441214Y-114289675D01*
X72509487Y-114304527D01*
X72537741Y-114325678D01*
X78208931Y-119996870D01*
X78208961Y-119996898D01*
X89244668Y-131032605D01*
X89274918Y-131081968D01*
X89279070Y-131094749D01*
X89279073Y-131094756D01*
X89374560Y-131260144D01*
X89502347Y-131402066D01*
X89656848Y-131514318D01*
X89831312Y-131591994D01*
X90018113Y-131631700D01*
X90209087Y-131631700D01*
X90395888Y-131591994D01*
X90570352Y-131514318D01*
X90724853Y-131402066D01*
X90852640Y-131260144D01*
X90948127Y-131094756D01*
X91007142Y-130913128D01*
X91027104Y-130723200D01*
X91007142Y-130533272D01*
X90948127Y-130351644D01*
X90852640Y-130186256D01*
X90724853Y-130044334D01*
X90570352Y-129932082D01*
X90395888Y-129854406D01*
X90395886Y-129854405D01*
X90395885Y-129854405D01*
X90212442Y-129815413D01*
X90150960Y-129782221D01*
X90150542Y-129781804D01*
X87173742Y-126805004D01*
X99066893Y-126805004D01*
X99086588Y-127067823D01*
X99086589Y-127067826D01*
X99145237Y-127324780D01*
X99241528Y-127570124D01*
X99373309Y-127798376D01*
X99506036Y-127964810D01*
X99537641Y-128004442D01*
X99651057Y-128109676D01*
X99730843Y-128183706D01*
X99948609Y-128332176D01*
X100186070Y-128446532D01*
X100437924Y-128524218D01*
X100437925Y-128524218D01*
X100437928Y-128524219D01*
X100698535Y-128563499D01*
X100698540Y-128563499D01*
X100698543Y-128563500D01*
X100698544Y-128563500D01*
X100962104Y-128563500D01*
X100962105Y-128563500D01*
X100962112Y-128563499D01*
X101222719Y-128524219D01*
X101222720Y-128524218D01*
X101222724Y-128524218D01*
X101474578Y-128446532D01*
X101712040Y-128332176D01*
X101929805Y-128183706D01*
X102123010Y-128004438D01*
X102287339Y-127798376D01*
X102307938Y-127762696D01*
X102358503Y-127714483D01*
X102427110Y-127701259D01*
X102491975Y-127727227D01*
X102522709Y-127762695D01*
X102543309Y-127798376D01*
X102543310Y-127798377D01*
X102707641Y-128004442D01*
X102821057Y-128109676D01*
X102900843Y-128183706D01*
X103118609Y-128332176D01*
X103356070Y-128446532D01*
X103607924Y-128524218D01*
X103607925Y-128524218D01*
X103607928Y-128524219D01*
X103868535Y-128563499D01*
X103868540Y-128563499D01*
X103868543Y-128563500D01*
X103868544Y-128563500D01*
X104132104Y-128563500D01*
X104132105Y-128563500D01*
X104132112Y-128563499D01*
X104392719Y-128524219D01*
X104392720Y-128524218D01*
X104392724Y-128524218D01*
X104644578Y-128446532D01*
X104882040Y-128332176D01*
X105099805Y-128183706D01*
X105293010Y-128004438D01*
X105457339Y-127798376D01*
X105589120Y-127570124D01*
X105610146Y-127516550D01*
X108591824Y-127516550D01*
X108594721Y-127565180D01*
X108594721Y-127565184D01*
X108594722Y-127565185D01*
X108640732Y-127776695D01*
X108640735Y-127776706D01*
X108725947Y-127975695D01*
X108725949Y-127975698D01*
X108725950Y-127975700D01*
X108847284Y-128154971D01*
X109000353Y-128308040D01*
X109179624Y-128429374D01*
X109179626Y-128429375D01*
X109179628Y-128429376D01*
X109312287Y-128486184D01*
X109378619Y-128514589D01*
X109590144Y-128560603D01*
X109638774Y-128563500D01*
X109638786Y-128563500D01*
X111061862Y-128563500D01*
X111061874Y-128563500D01*
X111110504Y-128560603D01*
X111322029Y-128514589D01*
X111521024Y-128429374D01*
X111700295Y-128308040D01*
X111853364Y-128154971D01*
X111974698Y-127975700D01*
X112059913Y-127776705D01*
X112105927Y-127565180D01*
X112108824Y-127516550D01*
X112108824Y-126093450D01*
X112105927Y-126044820D01*
X112059913Y-125833295D01*
X111974698Y-125634300D01*
X111853364Y-125455029D01*
X111700295Y-125301960D01*
X111521024Y-125180626D01*
X111521022Y-125180625D01*
X111521019Y-125180623D01*
X111322030Y-125095411D01*
X111322019Y-125095408D01*
X111110509Y-125049398D01*
X111110508Y-125049397D01*
X111110504Y-125049397D01*
X111061874Y-125046500D01*
X109638774Y-125046500D01*
X109590144Y-125049397D01*
X109590139Y-125049397D01*
X109590138Y-125049398D01*
X109378628Y-125095408D01*
X109378617Y-125095411D01*
X109179628Y-125180623D01*
X109000355Y-125301958D01*
X109000350Y-125301962D01*
X108847286Y-125455026D01*
X108847282Y-125455031D01*
X108725947Y-125634304D01*
X108640735Y-125833293D01*
X108640732Y-125833304D01*
X108595796Y-126039876D01*
X108594721Y-126044820D01*
X108591824Y-126093450D01*
X108591824Y-127516550D01*
X105610146Y-127516550D01*
X105685411Y-127324780D01*
X105744059Y-127067826D01*
X105763755Y-126805000D01*
X105744059Y-126542174D01*
X105685411Y-126285220D01*
X105589120Y-126039876D01*
X105457339Y-125811624D01*
X105293010Y-125605562D01*
X105293009Y-125605561D01*
X105293006Y-125605557D01*
X105099805Y-125426294D01*
X105099802Y-125426292D01*
X104882040Y-125277824D01*
X104882036Y-125277822D01*
X104882035Y-125277821D01*
X104751082Y-125214757D01*
X104644578Y-125163468D01*
X104644572Y-125163466D01*
X104644564Y-125163463D01*
X104392729Y-125085783D01*
X104392719Y-125085780D01*
X104132112Y-125046500D01*
X104132105Y-125046500D01*
X103868543Y-125046500D01*
X103868535Y-125046500D01*
X103607928Y-125085780D01*
X103607922Y-125085782D01*
X103356069Y-125163468D01*
X103118612Y-125277822D01*
X103118608Y-125277824D01*
X102900845Y-125426292D01*
X102707641Y-125605557D01*
X102543309Y-125811624D01*
X102522711Y-125847301D01*
X102472144Y-125895517D01*
X102403537Y-125908740D01*
X102338672Y-125882771D01*
X102307937Y-125847301D01*
X102287339Y-125811624D01*
X102123010Y-125605562D01*
X102123009Y-125605561D01*
X102123006Y-125605557D01*
X101929805Y-125426294D01*
X101929802Y-125426292D01*
X101712040Y-125277824D01*
X101712036Y-125277822D01*
X101712035Y-125277821D01*
X101581082Y-125214757D01*
X101474578Y-125163468D01*
X101474572Y-125163466D01*
X101474564Y-125163463D01*
X101222729Y-125085783D01*
X101222719Y-125085780D01*
X100962112Y-125046500D01*
X100962105Y-125046500D01*
X100698543Y-125046500D01*
X100698535Y-125046500D01*
X100437928Y-125085780D01*
X100437922Y-125085782D01*
X100186069Y-125163468D01*
X99948612Y-125277822D01*
X99948608Y-125277824D01*
X99730845Y-125426292D01*
X99537641Y-125605557D01*
X99373309Y-125811624D01*
X99241528Y-126039875D01*
X99145239Y-126285214D01*
X99145234Y-126285231D01*
X99086588Y-126542176D01*
X99066893Y-126804995D01*
X99066893Y-126805004D01*
X87173742Y-126805004D01*
X82091938Y-121723200D01*
X93775435Y-121723200D01*
X93794065Y-121959914D01*
X93849495Y-122190795D01*
X93849495Y-122190797D01*
X93940357Y-122410159D01*
X93940359Y-122410162D01*
X94064420Y-122612610D01*
X94064421Y-122612613D01*
X94064424Y-122612616D01*
X94218631Y-122793169D01*
X94358397Y-122912540D01*
X94399186Y-122947378D01*
X94399189Y-122947379D01*
X94601637Y-123071440D01*
X94601640Y-123071442D01*
X94821003Y-123162304D01*
X94821004Y-123162304D01*
X94821006Y-123162305D01*
X95051889Y-123217735D01*
X95288600Y-123236365D01*
X95525311Y-123217735D01*
X95756194Y-123162305D01*
X95756196Y-123162304D01*
X95756197Y-123162304D01*
X95975559Y-123071442D01*
X95975560Y-123071441D01*
X95975563Y-123071440D01*
X96178016Y-122947376D01*
X96358569Y-122793169D01*
X96512776Y-122612616D01*
X96636840Y-122410163D01*
X96727705Y-122190794D01*
X96783135Y-121959911D01*
X96801765Y-121723200D01*
X109015435Y-121723200D01*
X109034065Y-121959914D01*
X109089495Y-122190795D01*
X109089495Y-122190797D01*
X109180357Y-122410159D01*
X109180359Y-122410162D01*
X109304420Y-122612610D01*
X109304421Y-122612613D01*
X109304424Y-122612616D01*
X109458631Y-122793169D01*
X109598397Y-122912540D01*
X109639186Y-122947378D01*
X109639189Y-122947379D01*
X109841637Y-123071440D01*
X109841640Y-123071442D01*
X110061003Y-123162304D01*
X110061004Y-123162304D01*
X110061006Y-123162305D01*
X110291889Y-123217735D01*
X110528600Y-123236365D01*
X110765311Y-123217735D01*
X110996194Y-123162305D01*
X110996196Y-123162304D01*
X110996197Y-123162304D01*
X111215559Y-123071442D01*
X111215560Y-123071441D01*
X111215563Y-123071440D01*
X111418016Y-122947376D01*
X111598569Y-122793169D01*
X111752776Y-122612616D01*
X111876840Y-122410163D01*
X111967705Y-122190794D01*
X112023135Y-121959911D01*
X112041765Y-121723200D01*
X112023135Y-121486489D01*
X111967705Y-121255606D01*
X111967704Y-121255603D01*
X111967704Y-121255602D01*
X111876842Y-121036240D01*
X111876840Y-121036237D01*
X111752779Y-120833789D01*
X111752778Y-120833786D01*
X111658328Y-120723200D01*
X111598569Y-120653231D01*
X111458111Y-120533268D01*
X111418013Y-120499021D01*
X111418010Y-120499020D01*
X111215562Y-120374959D01*
X111215559Y-120374957D01*
X110996196Y-120284095D01*
X110765314Y-120228665D01*
X110528600Y-120210035D01*
X110291885Y-120228665D01*
X110061004Y-120284095D01*
X110061002Y-120284095D01*
X109841640Y-120374957D01*
X109841637Y-120374959D01*
X109639189Y-120499020D01*
X109639186Y-120499021D01*
X109458631Y-120653231D01*
X109304421Y-120833786D01*
X109304420Y-120833789D01*
X109180359Y-121036237D01*
X109180357Y-121036240D01*
X109089495Y-121255602D01*
X109089495Y-121255604D01*
X109034065Y-121486485D01*
X109015435Y-121723200D01*
X96801765Y-121723200D01*
X96783135Y-121486489D01*
X96727705Y-121255606D01*
X96727704Y-121255603D01*
X96727704Y-121255602D01*
X96636842Y-121036240D01*
X96636840Y-121036237D01*
X96512779Y-120833789D01*
X96512778Y-120833786D01*
X96418328Y-120723200D01*
X96358569Y-120653231D01*
X96218111Y-120533268D01*
X96178013Y-120499021D01*
X96178010Y-120499020D01*
X95975562Y-120374959D01*
X95975559Y-120374957D01*
X95756196Y-120284095D01*
X95525314Y-120228665D01*
X95288600Y-120210035D01*
X95051885Y-120228665D01*
X94821004Y-120284095D01*
X94821002Y-120284095D01*
X94601640Y-120374957D01*
X94601637Y-120374959D01*
X94399189Y-120499020D01*
X94399186Y-120499021D01*
X94218631Y-120653231D01*
X94064421Y-120833786D01*
X94064420Y-120833789D01*
X93940359Y-121036237D01*
X93940357Y-121036240D01*
X93849495Y-121255602D01*
X93849495Y-121255604D01*
X93794065Y-121486485D01*
X93775435Y-121723200D01*
X82091938Y-121723200D01*
X75207626Y-114838888D01*
X75174141Y-114777565D01*
X75179125Y-114707873D01*
X75220997Y-114651940D01*
X75286461Y-114627523D01*
X75335570Y-114633926D01*
X75476429Y-114682283D01*
X75721630Y-114723200D01*
X75970216Y-114723200D01*
X76215416Y-114682283D01*
X76450526Y-114601569D01*
X76450537Y-114601564D01*
X76669151Y-114483257D01*
X76669154Y-114483255D01*
X76715979Y-114446809D01*
X76540214Y-114271044D01*
X95845923Y-114271044D01*
X95852324Y-114330572D01*
X95852326Y-114330579D01*
X95902568Y-114465286D01*
X95902572Y-114465293D01*
X95988732Y-114580387D01*
X95988735Y-114580390D01*
X96103829Y-114666550D01*
X96103836Y-114666554D01*
X96238543Y-114716796D01*
X96238550Y-114716798D01*
X96298078Y-114723199D01*
X96298095Y-114723200D01*
X97095923Y-114723200D01*
X97095923Y-113658701D01*
X97203608Y-113707880D01*
X97310160Y-113723200D01*
X97381686Y-113723200D01*
X97488238Y-113707880D01*
X97595923Y-113658701D01*
X97595923Y-114723200D01*
X98393751Y-114723200D01*
X98393767Y-114723199D01*
X98453295Y-114716798D01*
X98453302Y-114716796D01*
X98588009Y-114666554D01*
X98588016Y-114666550D01*
X98703110Y-114580390D01*
X98703113Y-114580387D01*
X98789273Y-114465293D01*
X98789277Y-114465286D01*
X98839519Y-114330579D01*
X98839521Y-114330572D01*
X98845922Y-114271044D01*
X98845923Y-114271027D01*
X98845923Y-113473200D01*
X97779609Y-113473200D01*
X97805416Y-113433044D01*
X97845923Y-113295089D01*
X97845923Y-113223200D01*
X100832758Y-113223200D01*
X100851388Y-113459914D01*
X100906818Y-113690795D01*
X100906818Y-113690797D01*
X100997680Y-113910159D01*
X100997682Y-113910162D01*
X101121743Y-114112610D01*
X101121744Y-114112613D01*
X101162758Y-114160634D01*
X101275954Y-114293169D01*
X101365941Y-114370025D01*
X101456509Y-114447378D01*
X101456512Y-114447379D01*
X101658960Y-114571440D01*
X101658963Y-114571442D01*
X101878326Y-114662304D01*
X101878327Y-114662304D01*
X101878329Y-114662305D01*
X102109212Y-114717735D01*
X102345923Y-114736365D01*
X102582634Y-114717735D01*
X102610504Y-114711044D01*
X113513600Y-114711044D01*
X113520001Y-114770572D01*
X113520003Y-114770579D01*
X113570245Y-114905286D01*
X113570249Y-114905293D01*
X113656409Y-115020387D01*
X113656412Y-115020390D01*
X113771506Y-115106550D01*
X113771513Y-115106554D01*
X113906220Y-115156796D01*
X113906227Y-115156798D01*
X113965755Y-115163199D01*
X113965772Y-115163200D01*
X115263600Y-115163200D01*
X115263600Y-113885002D01*
X115424769Y-113923200D01*
X115557867Y-113923200D01*
X115690061Y-113907749D01*
X115763600Y-113880982D01*
X115763600Y-115163200D01*
X117061428Y-115163200D01*
X117061444Y-115163199D01*
X117120972Y-115156798D01*
X117120979Y-115156796D01*
X117255686Y-115106554D01*
X117255693Y-115106550D01*
X117370787Y-115020390D01*
X117370790Y-115020387D01*
X117456950Y-114905293D01*
X117456954Y-114905286D01*
X117507196Y-114770579D01*
X117507198Y-114770572D01*
X117513599Y-114711044D01*
X117513600Y-114711027D01*
X117513600Y-113413200D01*
X116232083Y-113413200D01*
X116267149Y-113296071D01*
X116277479Y-113118709D01*
X116246629Y-112943746D01*
X116233453Y-112913200D01*
X117513600Y-112913200D01*
X117513600Y-111615372D01*
X117513599Y-111615355D01*
X117507198Y-111555827D01*
X117507196Y-111555820D01*
X117456954Y-111421113D01*
X117456950Y-111421106D01*
X117370790Y-111306012D01*
X117370787Y-111306009D01*
X117255693Y-111219849D01*
X117255686Y-111219845D01*
X117120979Y-111169603D01*
X117120972Y-111169601D01*
X117061444Y-111163200D01*
X115763600Y-111163200D01*
X115763600Y-112441397D01*
X115602431Y-112403200D01*
X115469333Y-112403200D01*
X115337139Y-112418651D01*
X115263600Y-112445417D01*
X115263600Y-111163200D01*
X113965755Y-111163200D01*
X113906227Y-111169601D01*
X113906220Y-111169603D01*
X113771513Y-111219845D01*
X113771506Y-111219849D01*
X113656412Y-111306009D01*
X113656409Y-111306012D01*
X113570249Y-111421106D01*
X113570245Y-111421113D01*
X113520003Y-111555820D01*
X113520001Y-111555827D01*
X113513600Y-111615355D01*
X113513600Y-112913200D01*
X114795117Y-112913200D01*
X114760051Y-113030329D01*
X114749721Y-113207691D01*
X114780571Y-113382654D01*
X114793747Y-113413200D01*
X113513600Y-113413200D01*
X113513600Y-114711044D01*
X102610504Y-114711044D01*
X102813517Y-114662305D01*
X102813519Y-114662304D01*
X102813520Y-114662304D01*
X103032882Y-114571442D01*
X103032883Y-114571441D01*
X103032886Y-114571440D01*
X103235339Y-114447376D01*
X103415892Y-114293169D01*
X103570099Y-114112616D01*
X103694163Y-113910163D01*
X103695237Y-113907572D01*
X103785027Y-113690797D01*
X103785027Y-113690796D01*
X103785028Y-113690794D01*
X103840458Y-113459911D01*
X103859088Y-113223200D01*
X103840458Y-112986489D01*
X103785028Y-112755606D01*
X103785027Y-112755603D01*
X103785027Y-112755602D01*
X103694165Y-112536240D01*
X103694163Y-112536237D01*
X103570102Y-112333789D01*
X103570101Y-112333786D01*
X103494251Y-112244978D01*
X103415892Y-112153231D01*
X103236001Y-111999589D01*
X103235336Y-111999021D01*
X103235333Y-111999020D01*
X103032885Y-111874959D01*
X103032882Y-111874957D01*
X102813519Y-111784095D01*
X102582637Y-111728665D01*
X102345923Y-111710035D01*
X102109208Y-111728665D01*
X101878327Y-111784095D01*
X101878325Y-111784095D01*
X101658963Y-111874957D01*
X101658960Y-111874959D01*
X101456512Y-111999020D01*
X101456509Y-111999021D01*
X101275954Y-112153231D01*
X101121744Y-112333786D01*
X101121743Y-112333789D01*
X100997682Y-112536237D01*
X100997680Y-112536240D01*
X100906818Y-112755602D01*
X100906818Y-112755604D01*
X100851388Y-112986485D01*
X100832758Y-113223200D01*
X97845923Y-113223200D01*
X97845923Y-113151311D01*
X97805416Y-113013356D01*
X97779609Y-112973200D01*
X98845923Y-112973200D01*
X98845923Y-112175372D01*
X98845922Y-112175355D01*
X98839521Y-112115827D01*
X98839519Y-112115820D01*
X98789277Y-111981113D01*
X98789273Y-111981106D01*
X98703113Y-111866012D01*
X98703110Y-111866009D01*
X98588016Y-111779849D01*
X98588009Y-111779845D01*
X98453302Y-111729603D01*
X98453295Y-111729601D01*
X98393767Y-111723200D01*
X97595923Y-111723200D01*
X97595923Y-112787698D01*
X97488238Y-112738520D01*
X97381686Y-112723200D01*
X97310160Y-112723200D01*
X97203608Y-112738520D01*
X97095923Y-112787698D01*
X97095923Y-111723200D01*
X96298078Y-111723200D01*
X96238550Y-111729601D01*
X96238543Y-111729603D01*
X96103836Y-111779845D01*
X96103829Y-111779849D01*
X95988735Y-111866009D01*
X95988732Y-111866012D01*
X95902572Y-111981106D01*
X95902568Y-111981113D01*
X95852326Y-112115820D01*
X95852324Y-112115827D01*
X95845923Y-112175355D01*
X95845923Y-112973200D01*
X96912237Y-112973200D01*
X96886430Y-113013356D01*
X96845923Y-113151311D01*
X96845923Y-113295089D01*
X96886430Y-113433044D01*
X96912237Y-113473200D01*
X95845923Y-113473200D01*
X95845923Y-114271044D01*
X76540214Y-114271044D01*
X75978456Y-113709286D01*
X75988238Y-113707880D01*
X76119023Y-113648152D01*
X76227684Y-113553998D01*
X76305416Y-113433044D01*
X76328999Y-113352724D01*
X77069357Y-114093082D01*
X77169654Y-113939569D01*
X77269510Y-113711917D01*
X77330535Y-113470938D01*
X77330537Y-113470929D01*
X77351064Y-113223205D01*
X77351064Y-113223194D01*
X77330537Y-112975470D01*
X77330535Y-112975461D01*
X77269510Y-112734482D01*
X77169654Y-112506830D01*
X77069357Y-112353316D01*
X76328999Y-113093675D01*
X76305416Y-113013356D01*
X76227684Y-112892402D01*
X76119023Y-112798248D01*
X75988238Y-112738520D01*
X75978457Y-112737113D01*
X76715980Y-111999590D01*
X76715979Y-111999589D01*
X76669152Y-111963143D01*
X76450537Y-111844835D01*
X76450526Y-111844830D01*
X76215416Y-111764116D01*
X75970216Y-111723200D01*
X75721630Y-111723200D01*
X75476429Y-111764116D01*
X75241319Y-111844830D01*
X75241313Y-111844832D01*
X75022684Y-111963149D01*
X74975865Y-111999588D01*
X74975865Y-111999590D01*
X75713389Y-112737113D01*
X75703608Y-112738520D01*
X75572823Y-112798248D01*
X75464162Y-112892402D01*
X75386430Y-113013356D01*
X75362846Y-113093675D01*
X74622487Y-112353316D01*
X74522190Y-112506832D01*
X74422335Y-112734482D01*
X74361310Y-112975461D01*
X74361308Y-112975470D01*
X74340782Y-113223194D01*
X74340782Y-113223205D01*
X74361308Y-113470929D01*
X74361310Y-113470938D01*
X74422334Y-113711917D01*
X74424642Y-113717177D01*
X74433543Y-113786477D01*
X74403565Y-113849589D01*
X74344225Y-113886474D01*
X74274363Y-113885423D01*
X74223404Y-113854666D01*
X73098438Y-112729700D01*
X73086655Y-112716065D01*
X73072003Y-112696384D01*
X73071997Y-112696377D01*
X73033371Y-112663966D01*
X73025396Y-112656658D01*
X73021361Y-112652623D01*
X72996629Y-112633067D01*
X72993836Y-112630792D01*
X72935454Y-112581804D01*
X72929420Y-112577836D01*
X72929443Y-112577800D01*
X72922793Y-112573563D01*
X72922772Y-112573599D01*
X72916618Y-112569804D01*
X72847516Y-112537581D01*
X72844301Y-112536025D01*
X72776166Y-112501806D01*
X72776165Y-112501805D01*
X72776162Y-112501804D01*
X72769381Y-112499336D01*
X72769394Y-112499297D01*
X72761940Y-112496706D01*
X72761927Y-112496746D01*
X72755071Y-112494474D01*
X72680441Y-112479064D01*
X72676922Y-112478284D01*
X72602720Y-112460699D01*
X72595548Y-112459861D01*
X72595552Y-112459819D01*
X72587706Y-112459018D01*
X72587703Y-112459060D01*
X72580513Y-112458430D01*
X72504311Y-112460648D01*
X72500705Y-112460700D01*
X72478423Y-112460700D01*
X72411384Y-112441015D01*
X72365629Y-112388211D01*
X72354423Y-112336700D01*
X72354423Y-112174562D01*
X72354422Y-112174545D01*
X72351080Y-112143470D01*
X72347912Y-112113999D01*
X72296812Y-111976996D01*
X72209184Y-111859939D01*
X72092127Y-111772311D01*
X72070156Y-111764116D01*
X71955126Y-111721211D01*
X71894577Y-111714700D01*
X71894561Y-111714700D01*
X70999800Y-111714700D01*
X70932761Y-111695015D01*
X70887006Y-111642211D01*
X70877062Y-111573053D01*
X70906087Y-111509497D01*
X70912119Y-111503019D01*
X73593119Y-108822019D01*
X73654442Y-108788534D01*
X73680800Y-108785700D01*
X76349018Y-108785700D01*
X76366988Y-108787009D01*
X76369680Y-108787403D01*
X76391272Y-108790566D01*
X76441496Y-108786171D01*
X76452303Y-108785700D01*
X76458006Y-108785700D01*
X76458012Y-108785700D01*
X76489359Y-108782035D01*
X76492880Y-108781676D01*
X76568840Y-108775031D01*
X76568848Y-108775028D01*
X76575909Y-108773571D01*
X76575917Y-108773614D01*
X76583616Y-108771907D01*
X76583607Y-108771866D01*
X76590633Y-108770200D01*
X76590636Y-108770198D01*
X76590642Y-108770198D01*
X76662357Y-108744095D01*
X76665612Y-108742964D01*
X76738040Y-108718965D01*
X76738046Y-108718961D01*
X76744588Y-108715911D01*
X76744606Y-108715950D01*
X76751702Y-108712515D01*
X76751683Y-108712476D01*
X76758135Y-108709235D01*
X76758139Y-108709234D01*
X76821875Y-108667313D01*
X76824806Y-108665445D01*
X76889749Y-108625388D01*
X76889753Y-108625383D01*
X76895413Y-108620909D01*
X76895440Y-108620943D01*
X76901554Y-108615963D01*
X76901527Y-108615930D01*
X76907057Y-108611288D01*
X76907062Y-108611285D01*
X76959422Y-108555785D01*
X76961867Y-108553269D01*
X77431936Y-108083200D01*
X113500407Y-108083200D01*
X113519157Y-108357330D01*
X113519158Y-108357332D01*
X113575058Y-108626341D01*
X113575063Y-108626358D01*
X113667076Y-108885256D01*
X113793489Y-109129224D01*
X113793493Y-109129230D01*
X113951940Y-109353699D01*
X113951943Y-109353702D01*
X114139489Y-109554514D01*
X114352631Y-109727918D01*
X114352633Y-109727919D01*
X114352634Y-109727920D01*
X114587401Y-109870685D01*
X114791948Y-109959531D01*
X114839423Y-109980153D01*
X115104004Y-110054285D01*
X115343320Y-110087178D01*
X115376214Y-110091700D01*
X115376215Y-110091700D01*
X115650986Y-110091700D01*
X115680333Y-110087666D01*
X115923196Y-110054285D01*
X116187777Y-109980153D01*
X116439800Y-109870684D01*
X116674569Y-109727918D01*
X116887711Y-109554514D01*
X117075257Y-109353702D01*
X117233711Y-109129223D01*
X117360123Y-108885258D01*
X117452138Y-108626353D01*
X117452139Y-108626346D01*
X117452141Y-108626341D01*
X117480365Y-108490516D01*
X117508042Y-108357330D01*
X117526793Y-108083200D01*
X117508042Y-107809070D01*
X117488741Y-107716189D01*
X117452141Y-107540058D01*
X117452136Y-107540041D01*
X117411414Y-107425461D01*
X117360123Y-107281142D01*
X117233711Y-107037177D01*
X117233710Y-107037175D01*
X117233706Y-107037169D01*
X117075259Y-106812700D01*
X117056631Y-106792755D01*
X116887711Y-106611886D01*
X116674569Y-106438482D01*
X116674567Y-106438481D01*
X116674565Y-106438479D01*
X116439798Y-106295714D01*
X116187778Y-106186247D01*
X115923202Y-106112116D01*
X115923197Y-106112115D01*
X115923196Y-106112115D01*
X115787090Y-106093407D01*
X115650986Y-106074700D01*
X115650985Y-106074700D01*
X115376215Y-106074700D01*
X115376214Y-106074700D01*
X115104004Y-106112115D01*
X115103997Y-106112116D01*
X114839421Y-106186247D01*
X114587401Y-106295714D01*
X114352634Y-106438479D01*
X114139492Y-106611883D01*
X113951940Y-106812700D01*
X113793493Y-107037169D01*
X113793489Y-107037175D01*
X113667076Y-107281143D01*
X113575063Y-107540041D01*
X113575058Y-107540058D01*
X113519158Y-107809067D01*
X113519157Y-107809069D01*
X113500407Y-108083200D01*
X77431936Y-108083200D01*
X83213019Y-102302119D01*
X83274342Y-102268634D01*
X83300700Y-102265800D01*
X85917418Y-102265800D01*
X85935388Y-102267109D01*
X85938080Y-102267503D01*
X85959672Y-102270666D01*
X86009896Y-102266271D01*
X86020703Y-102265800D01*
X86026406Y-102265800D01*
X86026412Y-102265800D01*
X86057759Y-102262135D01*
X86061280Y-102261776D01*
X86137240Y-102255131D01*
X86137248Y-102255128D01*
X86144309Y-102253671D01*
X86144317Y-102253714D01*
X86152016Y-102252007D01*
X86152007Y-102251966D01*
X86159033Y-102250300D01*
X86159036Y-102250298D01*
X86159042Y-102250298D01*
X86230757Y-102224195D01*
X86234012Y-102223064D01*
X86306440Y-102199065D01*
X86306446Y-102199061D01*
X86312988Y-102196011D01*
X86313006Y-102196050D01*
X86320102Y-102192615D01*
X86320083Y-102192576D01*
X86326535Y-102189335D01*
X86326539Y-102189334D01*
X86390275Y-102147413D01*
X86393206Y-102145545D01*
X86458149Y-102105488D01*
X86458153Y-102105483D01*
X86463813Y-102101009D01*
X86463840Y-102101043D01*
X86469954Y-102096063D01*
X86469927Y-102096030D01*
X86475457Y-102091388D01*
X86475462Y-102091385D01*
X86527822Y-102035885D01*
X86530267Y-102033368D01*
X86981781Y-101581854D01*
X95837423Y-101581854D01*
X95843934Y-101642402D01*
X95843934Y-101642404D01*
X95870123Y-101712616D01*
X95895034Y-101779404D01*
X95982662Y-101896461D01*
X96099719Y-101984089D01*
X96214872Y-102027039D01*
X96231748Y-102033334D01*
X96236722Y-102035189D01*
X96263973Y-102038118D01*
X96297268Y-102041699D01*
X96297285Y-102041700D01*
X98394561Y-102041700D01*
X98394577Y-102041699D01*
X98421615Y-102038791D01*
X98455124Y-102035189D01*
X98460098Y-102033334D01*
X98469691Y-102029755D01*
X98592127Y-101984089D01*
X98709184Y-101896461D01*
X98796812Y-101779404D01*
X98847912Y-101642401D01*
X98853205Y-101593168D01*
X98854422Y-101581854D01*
X98854423Y-101581837D01*
X98854423Y-100533205D01*
X100840782Y-100533205D01*
X100861308Y-100780929D01*
X100861310Y-100780938D01*
X100922335Y-101021917D01*
X101022189Y-101249564D01*
X101122487Y-101403082D01*
X101862846Y-100662723D01*
X101886430Y-100743044D01*
X101964162Y-100863998D01*
X102072823Y-100958152D01*
X102203608Y-101017880D01*
X102213389Y-101019286D01*
X101475865Y-101756809D01*
X101522691Y-101793255D01*
X101522693Y-101793256D01*
X101741308Y-101911564D01*
X101741319Y-101911569D01*
X101976429Y-101992283D01*
X102221630Y-102033200D01*
X102470216Y-102033200D01*
X102715416Y-101992283D01*
X102950526Y-101911569D01*
X102950537Y-101911564D01*
X103169151Y-101793257D01*
X103169154Y-101793255D01*
X103215979Y-101756809D01*
X102478456Y-101019286D01*
X102488238Y-101017880D01*
X102619023Y-100958152D01*
X102727684Y-100863998D01*
X102805416Y-100743044D01*
X102828999Y-100662724D01*
X103569357Y-101403082D01*
X103669654Y-101249569D01*
X103769510Y-101021917D01*
X103830535Y-100780938D01*
X103830537Y-100780929D01*
X103851064Y-100533205D01*
X103851064Y-100533194D01*
X103850236Y-100523200D01*
X115327435Y-100523200D01*
X115346065Y-100759914D01*
X115401495Y-100990795D01*
X115401495Y-100990797D01*
X115492357Y-101210159D01*
X115492359Y-101210162D01*
X115616420Y-101412610D01*
X115616421Y-101412613D01*
X115616424Y-101412616D01*
X115770631Y-101593169D01*
X115828278Y-101642404D01*
X115951186Y-101747378D01*
X115951189Y-101747379D01*
X116153637Y-101871440D01*
X116153640Y-101871442D01*
X116373003Y-101962304D01*
X116373004Y-101962304D01*
X116373006Y-101962305D01*
X116603889Y-102017735D01*
X116840600Y-102036365D01*
X117077311Y-102017735D01*
X117308194Y-101962305D01*
X117308196Y-101962304D01*
X117308197Y-101962304D01*
X117527559Y-101871442D01*
X117527560Y-101871441D01*
X117527563Y-101871440D01*
X117730016Y-101747376D01*
X117910569Y-101593169D01*
X118064776Y-101412616D01*
X118188840Y-101210163D01*
X118279705Y-100990794D01*
X118335135Y-100759911D01*
X118353765Y-100523200D01*
X118335135Y-100286489D01*
X118279705Y-100055606D01*
X118279704Y-100055603D01*
X118279704Y-100055602D01*
X118188842Y-99836240D01*
X118188840Y-99836237D01*
X118064779Y-99633789D01*
X118064778Y-99633786D01*
X118019785Y-99581106D01*
X117910569Y-99453231D01*
X117791196Y-99351276D01*
X117730013Y-99299021D01*
X117730010Y-99299020D01*
X117527562Y-99174959D01*
X117527559Y-99174957D01*
X117308196Y-99084095D01*
X117077314Y-99028665D01*
X116840600Y-99010035D01*
X116603885Y-99028665D01*
X116373004Y-99084095D01*
X116373002Y-99084095D01*
X116153640Y-99174957D01*
X116153637Y-99174959D01*
X115951189Y-99299020D01*
X115951186Y-99299021D01*
X115770631Y-99453231D01*
X115616421Y-99633786D01*
X115616420Y-99633789D01*
X115492359Y-99836237D01*
X115492357Y-99836240D01*
X115401495Y-100055602D01*
X115401495Y-100055604D01*
X115346065Y-100286485D01*
X115327435Y-100523200D01*
X103850236Y-100523200D01*
X103830537Y-100285470D01*
X103830535Y-100285461D01*
X103769510Y-100044482D01*
X103669654Y-99816830D01*
X103569357Y-99663316D01*
X102828999Y-100403675D01*
X102805416Y-100323356D01*
X102727684Y-100202402D01*
X102619023Y-100108248D01*
X102488238Y-100048520D01*
X102478457Y-100047113D01*
X103215980Y-99309590D01*
X103215979Y-99309589D01*
X103169152Y-99273143D01*
X102950537Y-99154835D01*
X102950526Y-99154830D01*
X102715416Y-99074116D01*
X102470216Y-99033200D01*
X102221630Y-99033200D01*
X101976429Y-99074116D01*
X101741319Y-99154830D01*
X101741313Y-99154832D01*
X101522684Y-99273149D01*
X101475865Y-99309588D01*
X101475865Y-99309590D01*
X102213389Y-100047113D01*
X102203608Y-100048520D01*
X102072823Y-100108248D01*
X101964162Y-100202402D01*
X101886430Y-100323356D01*
X101862846Y-100403675D01*
X101122487Y-99663316D01*
X101022190Y-99816832D01*
X100922335Y-100044482D01*
X100861310Y-100285461D01*
X100861308Y-100285470D01*
X100840782Y-100533194D01*
X100840782Y-100533205D01*
X98854423Y-100533205D01*
X98854423Y-99484562D01*
X98854422Y-99484545D01*
X98851055Y-99453231D01*
X98847912Y-99423999D01*
X98833028Y-99384095D01*
X98825445Y-99363764D01*
X98796812Y-99286996D01*
X98709184Y-99169939D01*
X98592127Y-99082311D01*
X98570156Y-99074116D01*
X98455126Y-99031211D01*
X98394577Y-99024700D01*
X98394561Y-99024700D01*
X96297285Y-99024700D01*
X96297268Y-99024700D01*
X96236720Y-99031211D01*
X96236718Y-99031211D01*
X96099718Y-99082311D01*
X95982662Y-99169939D01*
X95895034Y-99286995D01*
X95843934Y-99423995D01*
X95843934Y-99423997D01*
X95837423Y-99484545D01*
X95837423Y-101581854D01*
X86981781Y-101581854D01*
X92189230Y-96374406D01*
X92250551Y-96340923D01*
X92297315Y-96339780D01*
X92417288Y-96359800D01*
X92417289Y-96359800D01*
X92650711Y-96359800D01*
X92650712Y-96359800D01*
X92880951Y-96321380D01*
X93101727Y-96245587D01*
X93307017Y-96134490D01*
X93491220Y-95991118D01*
X93649314Y-95819383D01*
X93776984Y-95623969D01*
X93870749Y-95410207D01*
X93928051Y-95183926D01*
X93947327Y-94951300D01*
X93928051Y-94718674D01*
X93870749Y-94492393D01*
X93776984Y-94278631D01*
X93649314Y-94083217D01*
X93649313Y-94083215D01*
X93491223Y-93911485D01*
X93491222Y-93911484D01*
X93491220Y-93911482D01*
X93307017Y-93768110D01*
X93307015Y-93768109D01*
X93307014Y-93768108D01*
X93307011Y-93768106D01*
X93101733Y-93657016D01*
X93101730Y-93657015D01*
X93101727Y-93657013D01*
X93101721Y-93657011D01*
X93101719Y-93657010D01*
X92880954Y-93581220D01*
X92689730Y-93549311D01*
X92650712Y-93542800D01*
X92417288Y-93542800D01*
X92378270Y-93549311D01*
X92187045Y-93581220D01*
X91966280Y-93657010D01*
X91966266Y-93657016D01*
X91760988Y-93768106D01*
X91760985Y-93768108D01*
X91576781Y-93911481D01*
X91576776Y-93911485D01*
X91418686Y-94083215D01*
X91291015Y-94278631D01*
X91197251Y-94492392D01*
X91139948Y-94718677D01*
X91120673Y-94951294D01*
X91120673Y-94951305D01*
X91139947Y-95183919D01*
X91140793Y-95188984D01*
X91139164Y-95189255D01*
X91136818Y-95251737D01*
X91106917Y-95300043D01*
X90457253Y-95949707D01*
X90395930Y-95983192D01*
X90326238Y-95978208D01*
X90270305Y-95936336D01*
X90245888Y-95870872D01*
X90260740Y-95802599D01*
X90265749Y-95794226D01*
X90376984Y-95623969D01*
X90470749Y-95410207D01*
X90528051Y-95183926D01*
X90547327Y-94951300D01*
X90528051Y-94718674D01*
X90470749Y-94492393D01*
X90376984Y-94278631D01*
X90249314Y-94083217D01*
X90249313Y-94083215D01*
X90091223Y-93911485D01*
X90091222Y-93911484D01*
X90091220Y-93911482D01*
X89907017Y-93768110D01*
X89907015Y-93768109D01*
X89907014Y-93768108D01*
X89907011Y-93768106D01*
X89701733Y-93657016D01*
X89701730Y-93657015D01*
X89701727Y-93657013D01*
X89701721Y-93657011D01*
X89701719Y-93657010D01*
X89480954Y-93581220D01*
X89289730Y-93549311D01*
X89250712Y-93542800D01*
X89017288Y-93542800D01*
X88978270Y-93549311D01*
X88787045Y-93581220D01*
X88566280Y-93657010D01*
X88566266Y-93657016D01*
X88360988Y-93768106D01*
X88360979Y-93768112D01*
X88213262Y-93883086D01*
X88148268Y-93908729D01*
X88079728Y-93895163D01*
X88029404Y-93846694D01*
X88013100Y-93785233D01*
X88013100Y-92613320D01*
X88032785Y-92546281D01*
X88078083Y-92504265D01*
X88157319Y-92461385D01*
X88207017Y-92434490D01*
X88391220Y-92291118D01*
X88549314Y-92119383D01*
X88676984Y-91923969D01*
X88770749Y-91710207D01*
X88828051Y-91483926D01*
X88840659Y-91331767D01*
X88847327Y-91251305D01*
X89420673Y-91251305D01*
X89439948Y-91483922D01*
X89497251Y-91710207D01*
X89591015Y-91923968D01*
X89718686Y-92119384D01*
X89823879Y-92233653D01*
X89876780Y-92291118D01*
X90060983Y-92434490D01*
X90060985Y-92434491D01*
X90060988Y-92434493D01*
X90146098Y-92480552D01*
X90266273Y-92545587D01*
X90380914Y-92584943D01*
X90487045Y-92621379D01*
X90487047Y-92621379D01*
X90487049Y-92621380D01*
X90717288Y-92659800D01*
X90717289Y-92659800D01*
X90950711Y-92659800D01*
X90950712Y-92659800D01*
X91180951Y-92621380D01*
X91401727Y-92545587D01*
X91607017Y-92434490D01*
X91791220Y-92291118D01*
X91949314Y-92119383D01*
X92076984Y-91923969D01*
X92170749Y-91710207D01*
X92228051Y-91483926D01*
X92240659Y-91331767D01*
X92247327Y-91251305D01*
X92247327Y-91251294D01*
X92234476Y-91096216D01*
X92228051Y-91018674D01*
X92170749Y-90792393D01*
X92076984Y-90578631D01*
X91949314Y-90383217D01*
X91949313Y-90383215D01*
X91791223Y-90211485D01*
X91791222Y-90211484D01*
X91791220Y-90211482D01*
X91607017Y-90068110D01*
X91607015Y-90068109D01*
X91607014Y-90068108D01*
X91607011Y-90068106D01*
X91401733Y-89957016D01*
X91401730Y-89957015D01*
X91401727Y-89957013D01*
X91401721Y-89957011D01*
X91401719Y-89957010D01*
X91180954Y-89881220D01*
X91008271Y-89852405D01*
X90950712Y-89842800D01*
X90717288Y-89842800D01*
X90671240Y-89850484D01*
X90487045Y-89881220D01*
X90266280Y-89957010D01*
X90266266Y-89957016D01*
X90060988Y-90068106D01*
X90060985Y-90068108D01*
X89876781Y-90211481D01*
X89876776Y-90211485D01*
X89718686Y-90383215D01*
X89591015Y-90578631D01*
X89497251Y-90792392D01*
X89439948Y-91018677D01*
X89420673Y-91251294D01*
X89420673Y-91251305D01*
X88847327Y-91251305D01*
X88847327Y-91251294D01*
X88834476Y-91096216D01*
X88828051Y-91018674D01*
X88770749Y-90792393D01*
X88676984Y-90578631D01*
X88549314Y-90383217D01*
X88549313Y-90383215D01*
X88391223Y-90211485D01*
X88391222Y-90211484D01*
X88391220Y-90211482D01*
X88207017Y-90068110D01*
X88207015Y-90068109D01*
X88207014Y-90068108D01*
X88207011Y-90068106D01*
X88001733Y-89957016D01*
X88001730Y-89957015D01*
X88001727Y-89957013D01*
X88001721Y-89957011D01*
X88001719Y-89957010D01*
X87780954Y-89881220D01*
X87608271Y-89852405D01*
X87550712Y-89842800D01*
X87317288Y-89842800D01*
X87271240Y-89850484D01*
X87087045Y-89881220D01*
X86866280Y-89957010D01*
X86866266Y-89957016D01*
X86660988Y-90068106D01*
X86660985Y-90068108D01*
X86476781Y-90211481D01*
X86476776Y-90211485D01*
X86318686Y-90383215D01*
X86191015Y-90578631D01*
X86097251Y-90792392D01*
X86039948Y-91018677D01*
X86020673Y-91251294D01*
X86020673Y-91251305D01*
X86039948Y-91483922D01*
X86097251Y-91710207D01*
X86191015Y-91923968D01*
X86318686Y-92119384D01*
X86476776Y-92291114D01*
X86476781Y-92291119D01*
X86607021Y-92392490D01*
X86660983Y-92434490D01*
X86681116Y-92445385D01*
X86730707Y-92494602D01*
X86746100Y-92554440D01*
X86746100Y-93418800D01*
X86726415Y-93485839D01*
X86673611Y-93531594D01*
X86622100Y-93542800D01*
X84785345Y-93542800D01*
X84724797Y-93549311D01*
X84724795Y-93549311D01*
X84587795Y-93600411D01*
X84470739Y-93688039D01*
X84383111Y-93805095D01*
X84332011Y-93942095D01*
X84332011Y-93942097D01*
X84325500Y-94002645D01*
X84325500Y-94193800D01*
X84305815Y-94260839D01*
X84253011Y-94306594D01*
X84201500Y-94317800D01*
X69446210Y-94317800D01*
X69379171Y-94298115D01*
X69354060Y-94276772D01*
X69324854Y-94244335D01*
X69170353Y-94132083D01*
X69170352Y-94132082D01*
X68995888Y-94054406D01*
X68995886Y-94054405D01*
X68809087Y-94014700D01*
X68618113Y-94014700D01*
X68431314Y-94054405D01*
X68256846Y-94132083D01*
X68102345Y-94244335D01*
X67974559Y-94386257D01*
X67879073Y-94551643D01*
X67879070Y-94551650D01*
X67824801Y-94718674D01*
X67820058Y-94733272D01*
X67800096Y-94923200D01*
X67820058Y-95113128D01*
X67820059Y-95113131D01*
X67879070Y-95294749D01*
X67879073Y-95294756D01*
X67974560Y-95460144D01*
X68076890Y-95573794D01*
X68086982Y-95585002D01*
X68102347Y-95602066D01*
X68256848Y-95714318D01*
X68431312Y-95791994D01*
X68618113Y-95831700D01*
X68809087Y-95831700D01*
X68995888Y-95791994D01*
X69170352Y-95714318D01*
X69316023Y-95608481D01*
X69381827Y-95585002D01*
X69388907Y-95584800D01*
X84201500Y-95584800D01*
X84268539Y-95604485D01*
X84314294Y-95657289D01*
X84325500Y-95708800D01*
X84325500Y-95899954D01*
X84332011Y-95960502D01*
X84332011Y-95960504D01*
X84366286Y-96052395D01*
X84383111Y-96097504D01*
X84470739Y-96214561D01*
X84587796Y-96302189D01*
X84724799Y-96353289D01*
X84752050Y-96356218D01*
X84785345Y-96359799D01*
X84785362Y-96359800D01*
X86376453Y-96359800D01*
X86443492Y-96379485D01*
X86489247Y-96432289D01*
X86499191Y-96501447D01*
X86494385Y-96522113D01*
X86476658Y-96576672D01*
X86456696Y-96766600D01*
X86476658Y-96956528D01*
X86476659Y-96956531D01*
X86535670Y-97138149D01*
X86535673Y-97138156D01*
X86631160Y-97303544D01*
X86758947Y-97445466D01*
X86913448Y-97557718D01*
X87087912Y-97635394D01*
X87274713Y-97675100D01*
X87465687Y-97675100D01*
X87652488Y-97635394D01*
X87826952Y-97557718D01*
X87981453Y-97445466D01*
X88109240Y-97303544D01*
X88204727Y-97138156D01*
X88263742Y-96956528D01*
X88283704Y-96766600D01*
X88263742Y-96576672D01*
X88204727Y-96395044D01*
X88140102Y-96283111D01*
X88121413Y-96250740D01*
X88104940Y-96182840D01*
X88127793Y-96116813D01*
X88182714Y-96073622D01*
X88252267Y-96066981D01*
X88304961Y-96090886D01*
X88360983Y-96134490D01*
X88360985Y-96134491D01*
X88360988Y-96134493D01*
X88449532Y-96182410D01*
X88566273Y-96245587D01*
X88680914Y-96284943D01*
X88787045Y-96321379D01*
X88787047Y-96321379D01*
X88787049Y-96321380D01*
X89017288Y-96359800D01*
X89017289Y-96359800D01*
X89250711Y-96359800D01*
X89250712Y-96359800D01*
X89480951Y-96321380D01*
X89701727Y-96245587D01*
X89907017Y-96134490D01*
X89979548Y-96078036D01*
X90044537Y-96052395D01*
X90113077Y-96065961D01*
X90163403Y-96114429D01*
X90179536Y-96182410D01*
X90156354Y-96248322D01*
X90143388Y-96263572D01*
X85702481Y-100704481D01*
X85641158Y-100737966D01*
X85614800Y-100740800D01*
X82998082Y-100740800D01*
X82980112Y-100739491D01*
X82955823Y-100735933D01*
X82908431Y-100740080D01*
X82905603Y-100740328D01*
X82894797Y-100740800D01*
X82889079Y-100740800D01*
X82857772Y-100744459D01*
X82854189Y-100744825D01*
X82778255Y-100751469D01*
X82771189Y-100752928D01*
X82771180Y-100752888D01*
X82763470Y-100754598D01*
X82763480Y-100754637D01*
X82756460Y-100756300D01*
X82684817Y-100782375D01*
X82681415Y-100783557D01*
X82609067Y-100807531D01*
X82602520Y-100810585D01*
X82602503Y-100810548D01*
X82595400Y-100813987D01*
X82595418Y-100814023D01*
X82588960Y-100817266D01*
X82525263Y-100859159D01*
X82522226Y-100861094D01*
X82457347Y-100901114D01*
X82451688Y-100905589D01*
X82451663Y-100905558D01*
X82445544Y-100910543D01*
X82445569Y-100910573D01*
X82440043Y-100915209D01*
X82387712Y-100970676D01*
X82385200Y-100973261D01*
X76134081Y-107224381D01*
X76072758Y-107257866D01*
X76046400Y-107260700D01*
X73378188Y-107260700D01*
X73360218Y-107259391D01*
X73335923Y-107255832D01*
X73285696Y-107260228D01*
X73274887Y-107260700D01*
X73269180Y-107260700D01*
X73237890Y-107264357D01*
X73234307Y-107264723D01*
X73158355Y-107271369D01*
X73151288Y-107272828D01*
X73151279Y-107272788D01*
X73143570Y-107274497D01*
X73143580Y-107274537D01*
X73136560Y-107276200D01*
X73064917Y-107302275D01*
X73061515Y-107303457D01*
X72989167Y-107327431D01*
X72982620Y-107330485D01*
X72982603Y-107330448D01*
X72975496Y-107333889D01*
X72975514Y-107333924D01*
X72969064Y-107337163D01*
X72905370Y-107379054D01*
X72902333Y-107380988D01*
X72837457Y-107421006D01*
X72831784Y-107425492D01*
X72831759Y-107425461D01*
X72825644Y-107430443D01*
X72825669Y-107430473D01*
X72820143Y-107435109D01*
X72767829Y-107490558D01*
X72765317Y-107493143D01*
X66420099Y-113838361D01*
X66406472Y-113850139D01*
X66386775Y-113864804D01*
X66354362Y-113903431D01*
X66347070Y-113911391D01*
X66343023Y-113915438D01*
X66323460Y-113940179D01*
X66321186Y-113942970D01*
X66272203Y-114001347D01*
X66268237Y-114007378D01*
X66268203Y-114007356D01*
X66263961Y-114014015D01*
X66263995Y-114014036D01*
X66260204Y-114020181D01*
X66227992Y-114089258D01*
X66226422Y-114092500D01*
X66192205Y-114160632D01*
X66189735Y-114167421D01*
X66189697Y-114167407D01*
X66187106Y-114174861D01*
X66187146Y-114174874D01*
X66184874Y-114181729D01*
X66169464Y-114256358D01*
X66168684Y-114259875D01*
X66151099Y-114334077D01*
X66150261Y-114341252D01*
X66150219Y-114341247D01*
X66149418Y-114349093D01*
X66149460Y-114349097D01*
X66148830Y-114356286D01*
X66151048Y-114432487D01*
X66151100Y-114436093D01*
X66151100Y-120193663D01*
X66134488Y-120255662D01*
X66079072Y-120351646D01*
X66079070Y-120351650D01*
X66031186Y-120499024D01*
X66020058Y-120533272D01*
X66000096Y-120723200D01*
X45418047Y-120723200D01*
X45385096Y-111823201D01*
X51900407Y-111823201D01*
X51919141Y-112037336D01*
X51919142Y-112037344D01*
X51974776Y-112244972D01*
X51974777Y-112244974D01*
X51974778Y-112244977D01*
X52063632Y-112435525D01*
X52065624Y-112439797D01*
X52065626Y-112439801D01*
X52188919Y-112615882D01*
X52340917Y-112767880D01*
X52516998Y-112891173D01*
X52517000Y-112891174D01*
X52517003Y-112891176D01*
X52711823Y-112982022D01*
X52919458Y-113037658D01*
X53072416Y-113051040D01*
X53133598Y-113056393D01*
X53133600Y-113056393D01*
X53133602Y-113056393D01*
X53187135Y-113051709D01*
X53347742Y-113037658D01*
X53555377Y-112982022D01*
X53750197Y-112891176D01*
X53926281Y-112767881D01*
X54078281Y-112615881D01*
X54201576Y-112439797D01*
X54292422Y-112244977D01*
X54348058Y-112037342D01*
X54366793Y-111823202D01*
X56988940Y-111823202D01*
X57007544Y-112035854D01*
X57007545Y-112035862D01*
X57062794Y-112242053D01*
X57062797Y-112242059D01*
X57153013Y-112435529D01*
X57192015Y-112491230D01*
X57815646Y-111867599D01*
X57828435Y-111948348D01*
X57885959Y-112061245D01*
X57975555Y-112150841D01*
X58088452Y-112208365D01*
X58169199Y-112221153D01*
X57545568Y-112844784D01*
X57601263Y-112883782D01*
X57601269Y-112883786D01*
X57794740Y-112974002D01*
X57794746Y-112974005D01*
X58000937Y-113029254D01*
X58000945Y-113029255D01*
X58213598Y-113047860D01*
X58213602Y-113047860D01*
X58426254Y-113029255D01*
X58426262Y-113029254D01*
X58632453Y-112974005D01*
X58632464Y-112974001D01*
X58825925Y-112883789D01*
X58881630Y-112844783D01*
X58258001Y-112221153D01*
X58338748Y-112208365D01*
X58451645Y-112150841D01*
X58541241Y-112061245D01*
X58598765Y-111948348D01*
X58611553Y-111867601D01*
X59235183Y-112491229D01*
X59274189Y-112435525D01*
X59364401Y-112242064D01*
X59364405Y-112242053D01*
X59419654Y-112035862D01*
X59419655Y-112035854D01*
X59438260Y-111823202D01*
X59438260Y-111823197D01*
X59419655Y-111610545D01*
X59419654Y-111610537D01*
X59364405Y-111404346D01*
X59364402Y-111404340D01*
X59274186Y-111210869D01*
X59274182Y-111210863D01*
X59235184Y-111155168D01*
X58611553Y-111778798D01*
X58598765Y-111698052D01*
X58541241Y-111585155D01*
X58451645Y-111495559D01*
X58338748Y-111438035D01*
X58258000Y-111425246D01*
X58881630Y-110801615D01*
X58825929Y-110762613D01*
X58632459Y-110672397D01*
X58632453Y-110672394D01*
X58426262Y-110617145D01*
X58426254Y-110617144D01*
X58213602Y-110598540D01*
X58213598Y-110598540D01*
X58000945Y-110617144D01*
X58000937Y-110617145D01*
X57794746Y-110672394D01*
X57794740Y-110672397D01*
X57601271Y-110762612D01*
X57601269Y-110762613D01*
X57545569Y-110801615D01*
X57545568Y-110801615D01*
X58169200Y-111425246D01*
X58088452Y-111438035D01*
X57975555Y-111495559D01*
X57885959Y-111585155D01*
X57828435Y-111698052D01*
X57815646Y-111778799D01*
X57192015Y-111155168D01*
X57192015Y-111155169D01*
X57153013Y-111210869D01*
X57153012Y-111210871D01*
X57062797Y-111404340D01*
X57062794Y-111404346D01*
X57007545Y-111610537D01*
X57007544Y-111610545D01*
X56988940Y-111823197D01*
X56988940Y-111823202D01*
X54366793Y-111823202D01*
X54366793Y-111823200D01*
X54348058Y-111609058D01*
X54292422Y-111401423D01*
X54201576Y-111206604D01*
X54078281Y-111030519D01*
X54078279Y-111030516D01*
X53926282Y-110878519D01*
X53750201Y-110755226D01*
X53750197Y-110755224D01*
X53750195Y-110755223D01*
X53555377Y-110664378D01*
X53555374Y-110664377D01*
X53555372Y-110664376D01*
X53347744Y-110608742D01*
X53347736Y-110608741D01*
X53133602Y-110590007D01*
X53133598Y-110590007D01*
X52919463Y-110608741D01*
X52919455Y-110608742D01*
X52711827Y-110664376D01*
X52711821Y-110664379D01*
X52517005Y-110755223D01*
X52517003Y-110755224D01*
X52340916Y-110878520D01*
X52188920Y-111030516D01*
X52065624Y-111206603D01*
X52065623Y-111206605D01*
X51974779Y-111401421D01*
X51974776Y-111401427D01*
X51919142Y-111609055D01*
X51919141Y-111609063D01*
X51900407Y-111823198D01*
X51900407Y-111823201D01*
X45385096Y-111823201D01*
X45375692Y-109283201D01*
X54440407Y-109283201D01*
X54459141Y-109497336D01*
X54459142Y-109497344D01*
X54514776Y-109704972D01*
X54514777Y-109704974D01*
X54514778Y-109704977D01*
X54592048Y-109870684D01*
X54605624Y-109899797D01*
X54605626Y-109899801D01*
X54728919Y-110075882D01*
X54880917Y-110227880D01*
X55056998Y-110351173D01*
X55057000Y-110351174D01*
X55057003Y-110351176D01*
X55251823Y-110442022D01*
X55459458Y-110497658D01*
X55612416Y-110511040D01*
X55673598Y-110516393D01*
X55673600Y-110516393D01*
X55673602Y-110516393D01*
X55727135Y-110511709D01*
X55887742Y-110497658D01*
X56095377Y-110442022D01*
X56290197Y-110351176D01*
X56466281Y-110227881D01*
X56618281Y-110075881D01*
X56741576Y-109899797D01*
X56832422Y-109704977D01*
X56888058Y-109497342D01*
X56906793Y-109283200D01*
X56888058Y-109069058D01*
X56832422Y-108861423D01*
X56741576Y-108666604D01*
X56618281Y-108490519D01*
X56618279Y-108490516D01*
X56466282Y-108338519D01*
X56290201Y-108215226D01*
X56290197Y-108215224D01*
X56290195Y-108215223D01*
X56095377Y-108124378D01*
X56095374Y-108124377D01*
X56095372Y-108124376D01*
X55887744Y-108068742D01*
X55887736Y-108068741D01*
X55673602Y-108050007D01*
X55673598Y-108050007D01*
X55459463Y-108068741D01*
X55459455Y-108068742D01*
X55251827Y-108124376D01*
X55251821Y-108124379D01*
X55057005Y-108215223D01*
X55057003Y-108215224D01*
X54880916Y-108338520D01*
X54728920Y-108490516D01*
X54605624Y-108666603D01*
X54605623Y-108666605D01*
X54514779Y-108861421D01*
X54514776Y-108861427D01*
X54459142Y-109069055D01*
X54459141Y-109069063D01*
X54440407Y-109283198D01*
X54440407Y-109283201D01*
X45375692Y-109283201D01*
X45348250Y-101871044D01*
X69145923Y-101871044D01*
X69152324Y-101930572D01*
X69152326Y-101930579D01*
X69202568Y-102065286D01*
X69202572Y-102065293D01*
X69288732Y-102180387D01*
X69288735Y-102180390D01*
X69403829Y-102266550D01*
X69403836Y-102266554D01*
X69538543Y-102316796D01*
X69538550Y-102316798D01*
X69598078Y-102323199D01*
X69598095Y-102323200D01*
X70395923Y-102323200D01*
X70395923Y-101258701D01*
X70503608Y-101307880D01*
X70610160Y-101323200D01*
X70681686Y-101323200D01*
X70788238Y-101307880D01*
X70895923Y-101258701D01*
X70895923Y-102323200D01*
X71693751Y-102323200D01*
X71693767Y-102323199D01*
X71753295Y-102316798D01*
X71753302Y-102316796D01*
X71888009Y-102266554D01*
X71888016Y-102266550D01*
X72003110Y-102180390D01*
X72003113Y-102180387D01*
X72089273Y-102065293D01*
X72089277Y-102065286D01*
X72139519Y-101930579D01*
X72139521Y-101930572D01*
X72145922Y-101871044D01*
X72145923Y-101871027D01*
X72145923Y-101073200D01*
X71079609Y-101073200D01*
X71105416Y-101033044D01*
X71145923Y-100895089D01*
X71145923Y-100823200D01*
X74132758Y-100823200D01*
X74151388Y-101059914D01*
X74206818Y-101290795D01*
X74206818Y-101290797D01*
X74297680Y-101510159D01*
X74297682Y-101510162D01*
X74421743Y-101712610D01*
X74421744Y-101712613D01*
X74451437Y-101747379D01*
X74575954Y-101893169D01*
X74715720Y-102012540D01*
X74756509Y-102047378D01*
X74756512Y-102047379D01*
X74958960Y-102171440D01*
X74958963Y-102171442D01*
X75178326Y-102262304D01*
X75178327Y-102262304D01*
X75178329Y-102262305D01*
X75409212Y-102317735D01*
X75645923Y-102336365D01*
X75882634Y-102317735D01*
X76113517Y-102262305D01*
X76113519Y-102262304D01*
X76113520Y-102262304D01*
X76332882Y-102171442D01*
X76332883Y-102171441D01*
X76332886Y-102171440D01*
X76535339Y-102047376D01*
X76715892Y-101893169D01*
X76870099Y-101712616D01*
X76994163Y-101510163D01*
X77034570Y-101412613D01*
X77085027Y-101290797D01*
X77085027Y-101290796D01*
X77085028Y-101290794D01*
X77140458Y-101059911D01*
X77159088Y-100823200D01*
X77140458Y-100586489D01*
X77085028Y-100355606D01*
X77085027Y-100355603D01*
X77085027Y-100355602D01*
X76994165Y-100136240D01*
X76994163Y-100136237D01*
X76937935Y-100044482D01*
X76870101Y-99933788D01*
X76870101Y-99933786D01*
X76786788Y-99836240D01*
X76715892Y-99753231D01*
X76576038Y-99633784D01*
X76535336Y-99599021D01*
X76535333Y-99599020D01*
X76332885Y-99474959D01*
X76332882Y-99474957D01*
X76113519Y-99384095D01*
X75882637Y-99328665D01*
X75645923Y-99310035D01*
X75409208Y-99328665D01*
X75178327Y-99384095D01*
X75178325Y-99384095D01*
X74958963Y-99474957D01*
X74958960Y-99474959D01*
X74756512Y-99599020D01*
X74756509Y-99599021D01*
X74575954Y-99753231D01*
X74421744Y-99933786D01*
X74421743Y-99933789D01*
X74297682Y-100136237D01*
X74297680Y-100136240D01*
X74206818Y-100355602D01*
X74206818Y-100355604D01*
X74151388Y-100586485D01*
X74132758Y-100823200D01*
X71145923Y-100823200D01*
X71145923Y-100751311D01*
X71105416Y-100613356D01*
X71079609Y-100573200D01*
X72145923Y-100573200D01*
X72145923Y-99775372D01*
X72145922Y-99775355D01*
X72139521Y-99715827D01*
X72139519Y-99715820D01*
X72089277Y-99581113D01*
X72089273Y-99581106D01*
X72003113Y-99466012D01*
X72003110Y-99466009D01*
X71888016Y-99379849D01*
X71888009Y-99379845D01*
X71753302Y-99329603D01*
X71753295Y-99329601D01*
X71693767Y-99323200D01*
X70895923Y-99323200D01*
X70895923Y-100387698D01*
X70788238Y-100338520D01*
X70681686Y-100323200D01*
X70610160Y-100323200D01*
X70503608Y-100338520D01*
X70395923Y-100387698D01*
X70395923Y-99323200D01*
X69598078Y-99323200D01*
X69538550Y-99329601D01*
X69538543Y-99329603D01*
X69403836Y-99379845D01*
X69403829Y-99379849D01*
X69288735Y-99466009D01*
X69288732Y-99466012D01*
X69202572Y-99581106D01*
X69202568Y-99581113D01*
X69152326Y-99715820D01*
X69152324Y-99715827D01*
X69145923Y-99775355D01*
X69145923Y-100573200D01*
X70212237Y-100573200D01*
X70186430Y-100613356D01*
X70145923Y-100751311D01*
X70145923Y-100895089D01*
X70186430Y-101033044D01*
X70212237Y-101073200D01*
X69145923Y-101073200D01*
X69145923Y-101871044D01*
X45348250Y-101871044D01*
X45310000Y-91539801D01*
X50751746Y-91539801D01*
X50761745Y-91749727D01*
X50811296Y-91953978D01*
X50811298Y-91953982D01*
X50898598Y-92145143D01*
X50898601Y-92145148D01*
X50898602Y-92145150D01*
X50898604Y-92145153D01*
X50961627Y-92233656D01*
X51020515Y-92316353D01*
X51020520Y-92316359D01*
X51172620Y-92461385D01*
X51303644Y-92545589D01*
X51349428Y-92575013D01*
X51544543Y-92653125D01*
X51647729Y-92673012D01*
X51750914Y-92692900D01*
X51750915Y-92692900D01*
X51908419Y-92692900D01*
X51908425Y-92692900D01*
X52065218Y-92677928D01*
X52266875Y-92618716D01*
X52453682Y-92522411D01*
X52618886Y-92392492D01*
X52756519Y-92233656D01*
X52861604Y-92051644D01*
X52930344Y-91853033D01*
X52960254Y-91645002D01*
X52955243Y-91539801D01*
X57751746Y-91539801D01*
X57761745Y-91749727D01*
X57811296Y-91953978D01*
X57811298Y-91953982D01*
X57898598Y-92145143D01*
X57898601Y-92145148D01*
X57898602Y-92145150D01*
X57898604Y-92145153D01*
X57961627Y-92233656D01*
X58020515Y-92316353D01*
X58020520Y-92316359D01*
X58172620Y-92461385D01*
X58303644Y-92545589D01*
X58349428Y-92575013D01*
X58544543Y-92653125D01*
X58647729Y-92673012D01*
X58750914Y-92692900D01*
X58750915Y-92692900D01*
X58908419Y-92692900D01*
X58908425Y-92692900D01*
X59065218Y-92677928D01*
X59266875Y-92618716D01*
X59453682Y-92522411D01*
X59618886Y-92392492D01*
X59756519Y-92233656D01*
X59861604Y-92051644D01*
X59930344Y-91853033D01*
X59960254Y-91645002D01*
X59950254Y-91435070D01*
X59900704Y-91230824D01*
X59900701Y-91230817D01*
X59813401Y-91039656D01*
X59813398Y-91039651D01*
X59813397Y-91039650D01*
X59813396Y-91039647D01*
X59691486Y-90868448D01*
X59691484Y-90868446D01*
X59691479Y-90868440D01*
X59539379Y-90723414D01*
X59362574Y-90609788D01*
X59167455Y-90531674D01*
X58961086Y-90491900D01*
X58961085Y-90491900D01*
X58803575Y-90491900D01*
X58646782Y-90506872D01*
X58646778Y-90506873D01*
X58445127Y-90566083D01*
X58258313Y-90662391D01*
X58093116Y-90792305D01*
X58093112Y-90792309D01*
X57955478Y-90951146D01*
X57850398Y-91133150D01*
X57781656Y-91331765D01*
X57781656Y-91331767D01*
X57766804Y-91435070D01*
X57751746Y-91539801D01*
X52955243Y-91539801D01*
X52950254Y-91435070D01*
X52900704Y-91230824D01*
X52900701Y-91230817D01*
X52813401Y-91039656D01*
X52813398Y-91039651D01*
X52813397Y-91039650D01*
X52813396Y-91039647D01*
X52691486Y-90868448D01*
X52691484Y-90868446D01*
X52691479Y-90868440D01*
X52539379Y-90723414D01*
X52362574Y-90609788D01*
X52167455Y-90531674D01*
X51961086Y-90491900D01*
X51961085Y-90491900D01*
X51803575Y-90491900D01*
X51646782Y-90506872D01*
X51646778Y-90506873D01*
X51445127Y-90566083D01*
X51258313Y-90662391D01*
X51093116Y-90792305D01*
X51093112Y-90792309D01*
X50955478Y-90951146D01*
X50850398Y-91133150D01*
X50781656Y-91331765D01*
X50781656Y-91331767D01*
X50766804Y-91435070D01*
X50751746Y-91539801D01*
X45310000Y-91539801D01*
X45302296Y-89458805D01*
X115487259Y-89458805D01*
X115507785Y-89706529D01*
X115507787Y-89706538D01*
X115568812Y-89947517D01*
X115668666Y-90175164D01*
X115768964Y-90328682D01*
X116509323Y-89588323D01*
X116532907Y-89668644D01*
X116610639Y-89789598D01*
X116719300Y-89883752D01*
X116850085Y-89943480D01*
X116859866Y-89944886D01*
X116122342Y-90682409D01*
X116169168Y-90718855D01*
X116169170Y-90718856D01*
X116387785Y-90837164D01*
X116387796Y-90837169D01*
X116622906Y-90917883D01*
X116868107Y-90958800D01*
X117116693Y-90958800D01*
X117361893Y-90917883D01*
X117597003Y-90837169D01*
X117597014Y-90837164D01*
X117815628Y-90718857D01*
X117815631Y-90718855D01*
X117862456Y-90682409D01*
X117124933Y-89944886D01*
X117134715Y-89943480D01*
X117265500Y-89883752D01*
X117374161Y-89789598D01*
X117451893Y-89668644D01*
X117475476Y-89588324D01*
X118215834Y-90328682D01*
X118316131Y-90175169D01*
X118415987Y-89947517D01*
X118477012Y-89706538D01*
X118477014Y-89706529D01*
X118497541Y-89458805D01*
X118497541Y-89458794D01*
X118477014Y-89211070D01*
X118477012Y-89211061D01*
X118415987Y-88970082D01*
X118316131Y-88742430D01*
X118215834Y-88588916D01*
X117475476Y-89329275D01*
X117451893Y-89248956D01*
X117374161Y-89128002D01*
X117265500Y-89033848D01*
X117134715Y-88974120D01*
X117124934Y-88972713D01*
X117862457Y-88235190D01*
X117862456Y-88235189D01*
X117815629Y-88198743D01*
X117597014Y-88080435D01*
X117597003Y-88080430D01*
X117361893Y-87999716D01*
X117116693Y-87958800D01*
X116868107Y-87958800D01*
X116622906Y-87999716D01*
X116387796Y-88080430D01*
X116387790Y-88080432D01*
X116169161Y-88198749D01*
X116122342Y-88235188D01*
X116122342Y-88235190D01*
X116859866Y-88972713D01*
X116850085Y-88974120D01*
X116719300Y-89033848D01*
X116610639Y-89128002D01*
X116532907Y-89248956D01*
X116509323Y-89329275D01*
X115768964Y-88588916D01*
X115668667Y-88742432D01*
X115568812Y-88970082D01*
X115507787Y-89211061D01*
X115507785Y-89211070D01*
X115487259Y-89458794D01*
X115487259Y-89458805D01*
X45302296Y-89458805D01*
X45278736Y-83095322D01*
X45298171Y-83028215D01*
X45350805Y-82982265D01*
X45419927Y-82972066D01*
X45483589Y-83000855D01*
X45521581Y-83059493D01*
X45522214Y-83061694D01*
X45614096Y-83392625D01*
X45614097Y-83392627D01*
X45748552Y-83730084D01*
X45748561Y-83730102D01*
X45918716Y-84051047D01*
X45918718Y-84051051D01*
X46122570Y-84351709D01*
X46122577Y-84351719D01*
X46254369Y-84506875D01*
X46254370Y-84506875D01*
X47495666Y-83265580D01*
X47658530Y-83456270D01*
X47849218Y-83619132D01*
X46605288Y-84863062D01*
X46605288Y-84863064D01*
X46621470Y-84878392D01*
X46621471Y-84878393D01*
X46910666Y-85098232D01*
X46910682Y-85098243D01*
X47221922Y-85285509D01*
X47221935Y-85285516D01*
X47551605Y-85438039D01*
X47551610Y-85438040D01*
X47895861Y-85554032D01*
X48250635Y-85632124D01*
X48611766Y-85671399D01*
X48611774Y-85671400D01*
X48975026Y-85671400D01*
X48975033Y-85671399D01*
X49336164Y-85632124D01*
X49690938Y-85554032D01*
X50035189Y-85438040D01*
X50035194Y-85438039D01*
X50364864Y-85285516D01*
X50364877Y-85285509D01*
X50676117Y-85098243D01*
X50676133Y-85098232D01*
X50965329Y-84878392D01*
X50981510Y-84863064D01*
X50981510Y-84863063D01*
X49737580Y-83619133D01*
X49928270Y-83456270D01*
X50091133Y-83265580D01*
X51332428Y-84506875D01*
X51332429Y-84506875D01*
X51464227Y-84351711D01*
X51464238Y-84351697D01*
X51551360Y-84223201D01*
X67408491Y-84223201D01*
X67428900Y-84508562D01*
X67489709Y-84788095D01*
X67589691Y-85056158D01*
X67726791Y-85307238D01*
X67726796Y-85307246D01*
X67833482Y-85449761D01*
X67833483Y-85449762D01*
X68643874Y-84639371D01*
X68685101Y-84717134D01*
X68808314Y-84862192D01*
X68959830Y-84977371D01*
X68996169Y-84994183D01*
X68187036Y-85803315D01*
X68329560Y-85910007D01*
X68329561Y-85910008D01*
X68580642Y-86047108D01*
X68580641Y-86047108D01*
X68848704Y-86147090D01*
X69128237Y-86207899D01*
X69413599Y-86228309D01*
X69413601Y-86228309D01*
X69698962Y-86207899D01*
X69978495Y-86147090D01*
X70246558Y-86047108D01*
X70497647Y-85910003D01*
X70640161Y-85803316D01*
X70640162Y-85803315D01*
X69830426Y-84993578D01*
X69946250Y-84923889D01*
X70084425Y-84793004D01*
X70186462Y-84642509D01*
X70993715Y-85449762D01*
X70993716Y-85449761D01*
X71100403Y-85307247D01*
X71237508Y-85056158D01*
X71337490Y-84788095D01*
X71398299Y-84508562D01*
X71418709Y-84223201D01*
X107408491Y-84223201D01*
X107428900Y-84508562D01*
X107489709Y-84788095D01*
X107589691Y-85056158D01*
X107726791Y-85307238D01*
X107726796Y-85307246D01*
X107833482Y-85449761D01*
X107833483Y-85449762D01*
X108643874Y-84639371D01*
X108685101Y-84717134D01*
X108808314Y-84862192D01*
X108959830Y-84977371D01*
X108996169Y-84994183D01*
X108187036Y-85803315D01*
X108329560Y-85910007D01*
X108329561Y-85910008D01*
X108580642Y-86047108D01*
X108580641Y-86047108D01*
X108848704Y-86147090D01*
X109128237Y-86207899D01*
X109413599Y-86228309D01*
X109413601Y-86228309D01*
X109698962Y-86207899D01*
X109978495Y-86147090D01*
X110246558Y-86047108D01*
X110497647Y-85910003D01*
X110640161Y-85803316D01*
X110640162Y-85803315D01*
X109830426Y-84993578D01*
X109946250Y-84923889D01*
X110084425Y-84793004D01*
X110186462Y-84642509D01*
X110993715Y-85449762D01*
X110993716Y-85449761D01*
X111100403Y-85307247D01*
X111237508Y-85056158D01*
X111337490Y-84788095D01*
X111398299Y-84508562D01*
X111418709Y-84223201D01*
X111418709Y-84223198D01*
X111398299Y-83937837D01*
X111337490Y-83658304D01*
X111237508Y-83390241D01*
X111100408Y-83139161D01*
X111100407Y-83139160D01*
X110993715Y-82996636D01*
X110183325Y-83807026D01*
X110142099Y-83729266D01*
X110018886Y-83584208D01*
X109867370Y-83469029D01*
X109831029Y-83452216D01*
X110640162Y-82643083D01*
X110640161Y-82643082D01*
X110497646Y-82536396D01*
X110497638Y-82536391D01*
X110246557Y-82399291D01*
X110246558Y-82399291D01*
X109978495Y-82299309D01*
X109698962Y-82238500D01*
X109413601Y-82218091D01*
X109413599Y-82218091D01*
X109128237Y-82238500D01*
X108848704Y-82299309D01*
X108580641Y-82399291D01*
X108329561Y-82536391D01*
X108329553Y-82536396D01*
X108187037Y-82643082D01*
X108187036Y-82643083D01*
X108996774Y-83452820D01*
X108880950Y-83522511D01*
X108742775Y-83653396D01*
X108640737Y-83803890D01*
X107833483Y-82996636D01*
X107833482Y-82996637D01*
X107726796Y-83139153D01*
X107726791Y-83139161D01*
X107589691Y-83390241D01*
X107489709Y-83658304D01*
X107428900Y-83937837D01*
X107408491Y-84223198D01*
X107408491Y-84223201D01*
X71418709Y-84223201D01*
X71418709Y-84223198D01*
X71398299Y-83937837D01*
X71337490Y-83658304D01*
X71237508Y-83390241D01*
X71100408Y-83139161D01*
X71100407Y-83139160D01*
X70993715Y-82996636D01*
X70183325Y-83807026D01*
X70142099Y-83729266D01*
X70018886Y-83584208D01*
X69867370Y-83469029D01*
X69831029Y-83452216D01*
X70640162Y-82643083D01*
X70640161Y-82643082D01*
X70497646Y-82536396D01*
X70497638Y-82536391D01*
X70246557Y-82399291D01*
X70246558Y-82399291D01*
X69978495Y-82299309D01*
X69698962Y-82238500D01*
X69413601Y-82218091D01*
X69413599Y-82218091D01*
X69128237Y-82238500D01*
X68848704Y-82299309D01*
X68580641Y-82399291D01*
X68329561Y-82536391D01*
X68329553Y-82536396D01*
X68187037Y-82643082D01*
X68187036Y-82643083D01*
X68996774Y-83452820D01*
X68880950Y-83522511D01*
X68742775Y-83653396D01*
X68640737Y-83803890D01*
X67833483Y-82996636D01*
X67833482Y-82996637D01*
X67726796Y-83139153D01*
X67726791Y-83139161D01*
X67589691Y-83390241D01*
X67489709Y-83658304D01*
X67428900Y-83937837D01*
X67408491Y-84223198D01*
X67408491Y-84223201D01*
X51551360Y-84223201D01*
X51668081Y-84051051D01*
X51668083Y-84051047D01*
X51838238Y-83730102D01*
X51838247Y-83730084D01*
X51972702Y-83392627D01*
X51972704Y-83392620D01*
X52069880Y-83042622D01*
X52069882Y-83042614D01*
X52128653Y-82684128D01*
X52148320Y-82321402D01*
X52148320Y-82321397D01*
X52128653Y-81958671D01*
X52069882Y-81600185D01*
X52069880Y-81600177D01*
X51995088Y-81330800D01*
X55382835Y-81330800D01*
X55401465Y-81567514D01*
X55456895Y-81798395D01*
X55456895Y-81798397D01*
X55547757Y-82017759D01*
X55547759Y-82017762D01*
X55671820Y-82220210D01*
X55671821Y-82220213D01*
X55724076Y-82281396D01*
X55826031Y-82400769D01*
X55941275Y-82499197D01*
X56006586Y-82554978D01*
X56006589Y-82554979D01*
X56209037Y-82679040D01*
X56209040Y-82679042D01*
X56428403Y-82769904D01*
X56428404Y-82769904D01*
X56428406Y-82769905D01*
X56659289Y-82825335D01*
X56896000Y-82843965D01*
X57132711Y-82825335D01*
X57363594Y-82769905D01*
X57363596Y-82769904D01*
X57363597Y-82769904D01*
X57582959Y-82679042D01*
X57582960Y-82679041D01*
X57582963Y-82679040D01*
X57785416Y-82554976D01*
X57965969Y-82400769D01*
X58120176Y-82220216D01*
X58244240Y-82017763D01*
X58335105Y-81798394D01*
X58390535Y-81567511D01*
X58409165Y-81330805D01*
X61334459Y-81330805D01*
X61354985Y-81578529D01*
X61354987Y-81578538D01*
X61416012Y-81819517D01*
X61515866Y-82047164D01*
X61616164Y-82200682D01*
X62356523Y-81460323D01*
X62380107Y-81540644D01*
X62457839Y-81661598D01*
X62566500Y-81755752D01*
X62697285Y-81815480D01*
X62707066Y-81816886D01*
X61969542Y-82554409D01*
X62016368Y-82590855D01*
X62016370Y-82590856D01*
X62234985Y-82709164D01*
X62234996Y-82709169D01*
X62470106Y-82789883D01*
X62715307Y-82830800D01*
X62963893Y-82830800D01*
X63209093Y-82789883D01*
X63444203Y-82709169D01*
X63444214Y-82709164D01*
X63662828Y-82590857D01*
X63662831Y-82590855D01*
X63709656Y-82554409D01*
X62972133Y-81816886D01*
X62981915Y-81815480D01*
X63112700Y-81755752D01*
X63221361Y-81661598D01*
X63299093Y-81540644D01*
X63322676Y-81460324D01*
X64063034Y-82200682D01*
X64163331Y-82047169D01*
X64263187Y-81819517D01*
X64324212Y-81578538D01*
X64324214Y-81578529D01*
X64344741Y-81330805D01*
X64344741Y-81330794D01*
X64324214Y-81083070D01*
X64324212Y-81083061D01*
X64263187Y-80842082D01*
X64163331Y-80614430D01*
X64063034Y-80460916D01*
X63322676Y-81201275D01*
X63299093Y-81120956D01*
X63221361Y-81000002D01*
X63112700Y-80905848D01*
X62981915Y-80846120D01*
X62972134Y-80844713D01*
X63709657Y-80107190D01*
X63709656Y-80107189D01*
X63662829Y-80070743D01*
X63444214Y-79952435D01*
X63444203Y-79952430D01*
X63209093Y-79871716D01*
X62963893Y-79830800D01*
X62715307Y-79830800D01*
X62470106Y-79871716D01*
X62234996Y-79952430D01*
X62234990Y-79952432D01*
X62016361Y-80070749D01*
X61969542Y-80107188D01*
X61969542Y-80107190D01*
X62707066Y-80844713D01*
X62697285Y-80846120D01*
X62566500Y-80905848D01*
X62457839Y-81000002D01*
X62380107Y-81120956D01*
X62356523Y-81201275D01*
X61616164Y-80460916D01*
X61515867Y-80614432D01*
X61416012Y-80842082D01*
X61354987Y-81083061D01*
X61354985Y-81083070D01*
X61334459Y-81330794D01*
X61334459Y-81330805D01*
X58409165Y-81330805D01*
X58409165Y-81330800D01*
X58390535Y-81094089D01*
X58335105Y-80863206D01*
X58335104Y-80863203D01*
X58335104Y-80863202D01*
X58244242Y-80643840D01*
X58244240Y-80643837D01*
X58120179Y-80441389D01*
X58120178Y-80441386D01*
X58085340Y-80400597D01*
X57965969Y-80260831D01*
X57786078Y-80107189D01*
X57785413Y-80106621D01*
X57785410Y-80106620D01*
X57582962Y-79982559D01*
X57582959Y-79982557D01*
X57363596Y-79891695D01*
X57132714Y-79836265D01*
X56896000Y-79817635D01*
X56659285Y-79836265D01*
X56428404Y-79891695D01*
X56428402Y-79891695D01*
X56209040Y-79982557D01*
X56209037Y-79982559D01*
X56006589Y-80106620D01*
X56006586Y-80106621D01*
X55826031Y-80260831D01*
X55671821Y-80441386D01*
X55671820Y-80441389D01*
X55547759Y-80643837D01*
X55547757Y-80643840D01*
X55456895Y-80863202D01*
X55456895Y-80863204D01*
X55401465Y-81094085D01*
X55382835Y-81330800D01*
X51995088Y-81330800D01*
X51972704Y-81250179D01*
X51972702Y-81250172D01*
X51838247Y-80912715D01*
X51838238Y-80912697D01*
X51668083Y-80591752D01*
X51668081Y-80591748D01*
X51464229Y-80291090D01*
X51464222Y-80291080D01*
X51332429Y-80135923D01*
X51332428Y-80135923D01*
X50091132Y-81377218D01*
X49928270Y-81186530D01*
X49737580Y-81023666D01*
X50981510Y-79779736D01*
X50981510Y-79779734D01*
X50965329Y-79764407D01*
X50965328Y-79764406D01*
X50676133Y-79544567D01*
X50676117Y-79544556D01*
X50364877Y-79357290D01*
X50364864Y-79357283D01*
X50035194Y-79204760D01*
X50035189Y-79204759D01*
X49690940Y-79088768D01*
X49463836Y-79038778D01*
X49402596Y-79005142D01*
X49369262Y-78943736D01*
X49374418Y-78874057D01*
X49416427Y-78818227D01*
X49481952Y-78793972D01*
X49490548Y-78793677D01*
X119764360Y-78841515D01*
G37*
%TD.AperFunction*%
%TA.AperFunction,Conductor*%
G36*
X47277530Y-145356070D02*
G01*
X47468218Y-145518932D01*
X46224288Y-146762862D01*
X46224288Y-146762864D01*
X46240470Y-146778192D01*
X46240471Y-146778193D01*
X46529666Y-146998032D01*
X46529674Y-146998038D01*
X46811534Y-147167627D01*
X46858828Y-147219056D01*
X46870811Y-147287890D01*
X46843676Y-147352276D01*
X46786039Y-147391770D01*
X46747436Y-147397877D01*
X45640173Y-147396368D01*
X45573160Y-147376592D01*
X45527478Y-147323726D01*
X45516343Y-147272827D01*
X45516261Y-147250704D01*
X45512809Y-146318413D01*
X45532245Y-146251304D01*
X45584879Y-146205354D01*
X45654000Y-146195155D01*
X45717663Y-146223944D01*
X45739438Y-146248364D01*
X45741577Y-146251519D01*
X45873369Y-146406675D01*
X45873370Y-146406675D01*
X47114666Y-145165380D01*
X47277530Y-145356070D01*
G37*
%TD.AperFunction*%
%TA.AperFunction,Conductor*%
G36*
X48100690Y-78792731D02*
G01*
X48167714Y-78812461D01*
X48213433Y-78865296D01*
X48223330Y-78934462D01*
X48194262Y-78997998D01*
X48135458Y-79035732D01*
X48127261Y-79037832D01*
X47895859Y-79088768D01*
X47551610Y-79204759D01*
X47551605Y-79204760D01*
X47221935Y-79357283D01*
X47221922Y-79357290D01*
X46910682Y-79544556D01*
X46910666Y-79544567D01*
X46621475Y-79764402D01*
X46605288Y-79779735D01*
X46605287Y-79779735D01*
X47849219Y-81023666D01*
X47658530Y-81186530D01*
X47495666Y-81377218D01*
X46254370Y-80135922D01*
X46254369Y-80135923D01*
X46122577Y-80291080D01*
X46122570Y-80291090D01*
X45918718Y-80591748D01*
X45918716Y-80591752D01*
X45748561Y-80912697D01*
X45748552Y-80912715D01*
X45614097Y-81250172D01*
X45614096Y-81250174D01*
X45516562Y-81601462D01*
X45479660Y-81660791D01*
X45416540Y-81690752D01*
X45347242Y-81681831D01*
X45293768Y-81636861D01*
X45273096Y-81570120D01*
X45273085Y-81568999D01*
X45263447Y-78966207D01*
X45263410Y-78914973D01*
X45283043Y-78847923D01*
X45335813Y-78802128D01*
X45387489Y-78790884D01*
X48100690Y-78792731D01*
G37*
%TD.AperFunction*%
%TD*%
M02*
